<svg width="900" height="887" viewBox="0 0 900 887" fill="none" xmlns="http://www.w3.org/2000/svg">
<path d="M298.139 842.572L305.795 847.103C307.183 847.807 308.718 848.174 310.275 848.174C311.832 848.174 313.366 847.807 314.755 847.103L813.443 559.302C813.985 559.119 814.454 558.772 814.786 558.307C815.12 557.843 815.296 557.288 815.296 556.717C815.296 556.147 815.12 555.59 814.786 555.125C814.454 554.661 813.985 554.314 813.443 554.13L805.788 549.619C804.399 548.916 802.864 548.549 801.308 548.549C799.751 548.549 798.216 548.916 796.828 549.619L298.159 837.398C297.62 837.579 297.149 837.926 296.815 838.389C296.478 838.851 296.299 839.406 296.295 839.979C296.293 840.549 296.47 841.106 296.801 841.571C297.131 842.035 297.6 842.387 298.139 842.572Z" fill="#E0E0E0"/>
<path d="M197.247 784.47L204.903 789.001C206.292 789.704 207.826 790.072 209.383 790.072C210.939 790.072 212.474 789.704 213.863 789.001L712.531 501.222C713.07 501.039 713.541 500.69 713.873 500.227C714.205 499.763 714.384 499.206 714.384 498.635C714.384 498.065 714.205 497.507 713.873 497.045C713.541 496.581 713.07 496.232 712.531 496.048L704.875 491.517C703.486 490.814 701.952 490.447 700.395 490.447C698.838 490.447 697.304 490.814 695.915 491.517L197.247 779.296C196.707 779.479 196.237 779.829 195.905 780.291C195.572 780.755 195.394 781.313 195.394 781.883C195.394 782.454 195.572 783.011 195.905 783.473C196.237 783.937 196.707 784.287 197.247 784.47Z" fill="#E0E0E0"/>
<path d="M96.3545 726.367L104.01 730.92C105.399 731.623 106.934 731.99 108.49 731.99C110.047 731.99 111.582 731.623 112.97 730.92L611.638 443.121C612.179 442.937 612.648 442.588 612.98 442.124C613.314 441.661 613.493 441.104 613.493 440.534C613.493 439.963 613.314 439.406 612.98 438.941C612.648 438.479 612.179 438.13 611.638 437.946L603.982 433.415C602.593 432.712 601.059 432.345 599.502 432.345C597.945 432.345 596.411 432.712 595.022 433.415L96.3545 721.194C95.8141 721.378 95.3446 721.727 95.0122 722.189C94.6797 722.654 94.501 723.211 94.501 723.782C94.501 724.352 94.6797 724.909 95.0122 725.371C95.3446 725.836 95.8141 726.185 96.3545 726.367Z" fill="#E0E0E0"/>
<path d="M105.064 725.559C103.83 724.703 102.812 723.571 102.094 722.253C101.375 720.935 100.975 719.467 100.926 717.965V291.717C101.01 290.162 101.461 288.648 102.241 287.299C103.022 285.952 104.109 284.807 105.416 283.958L592.269 2.80022C593.562 2.0097 595.046 1.58327 596.563 1.56598C598.08 1.54868 599.573 1.94116 600.884 2.70198C602.195 3.46277 603.279 4.56369 604.017 5.88844C604.754 7.21321 605.121 8.71267 605.077 10.2285V436.475C604.993 438.032 604.541 439.545 603.761 440.894C602.982 442.243 601.895 443.388 600.588 444.235L113.755 725.393C112.421 726.103 110.939 726.488 109.429 726.516C107.919 726.545 106.424 726.216 105.064 725.559Z" fill="#00AEEF"/>
<path opacity="0.4" d="M605.079 9.50611C604.769 7.18864 602.885 6.3403 600.652 7.64386L113.756 288.739C112.427 289.574 111.325 290.727 110.549 292.091L102.272 287.228C103.031 285.871 104.12 284.725 105.438 283.898L592.271 2.80201C593.505 1.9893 594.931 1.52132 596.406 1.44663C597.881 1.37194 599.35 1.69327 600.659 2.37727C601.968 3.06127 603.069 4.08304 603.852 5.33656C604.632 6.59011 605.064 8.02973 605.099 9.50611H605.079Z" fill="white"/>
<path d="M112.907 725.789H112.721C112.584 725.862 112.438 725.918 112.286 725.953L111.955 726.057C111.755 726.13 111.546 726.179 111.335 726.203C111.198 726.223 111.058 726.223 110.921 726.203H110.238C108.47 726.444 106.67 726.134 105.086 725.312C103.848 724.461 102.828 723.331 102.109 722.01C101.39 720.69 100.992 719.22 100.947 717.718V344.711L109.369 349.574V722.767C109.369 724.836 110.383 725.975 111.852 725.975C112.051 726.004 112.253 726.004 112.452 725.975H112.555C112.68 725.927 112.797 725.865 112.907 725.789Z" fill="#F0F0F0"/>
<path opacity="0.1" d="M110.548 292.091C109.744 293.425 109.295 294.944 109.245 296.498V349.574L100.823 344.711V291.658C100.813 291.479 100.813 291.3 100.823 291.12C100.865 290.744 100.927 290.371 101.009 290.001C101.254 289.031 101.629 288.098 102.127 287.229L110.548 292.091Z" fill="black"/>
<path d="M605.079 10.2309V34.1711L248.23 240.219C245.769 241.647 243.761 240.488 243.761 237.631V228.569C243.761 225.715 241.693 224.556 239.272 225.982L130.579 288.741C129.269 289.59 128.18 290.738 127.399 292.091C126.619 293.442 126.17 294.962 126.089 296.52V305.582C126.003 307.137 125.554 308.647 124.778 309.996C124.001 311.343 122.919 312.491 121.619 313.342L109.204 320.46V296.52C109.289 294.968 109.738 293.456 110.515 292.109C111.291 290.76 112.373 289.615 113.673 288.761L600.672 7.64445C603.133 6.21675 605.079 7.37547 605.079 10.2309Z" fill="#00AEEF"/>
<path d="M605.079 436.52C604.995 438.074 604.544 439.589 603.763 440.936C602.983 442.285 601.895 443.43 600.588 444.279L113.757 725.396C111.294 726.822 109.287 725.663 109.287 722.808V320.44L121.702 313.322C124.164 311.893 128.178 290.167 130.662 288.739L237.534 227.037C240.018 225.61 245.811 241.645 248.314 240.218L605.079 34.1704V436.52Z" fill="#FAFAFA"/>
<path d="M605.079 34.1704V63.3043L109.287 349.574V320.44L118.495 315.142C120.957 313.715 121.785 311.542 122.964 307.382L126.089 296.52C127.061 292.754 128.158 290.187 130.579 288.761L237.45 227.059C239.933 225.63 241.879 225.464 243.66 228.589L247.487 235.541C248.894 237.983 249.555 239.411 252.06 237.983L605.079 34.1704Z" fill="#E6E6E6"/>
<path d="M584.14 25.2312C587.262 23.4517 589.787 24.9001 589.787 28.5006C589.683 30.4589 589.117 32.3648 588.136 34.0624C587.154 35.76 585.785 37.2009 584.14 38.267C581.035 40.0464 578.51 38.598 578.51 34.9976C578.611 33.0413 579.173 31.1364 580.153 29.4388C581.13 27.7414 582.497 26.2997 584.14 25.2312Z" fill="white"/>
<path d="M567.814 45.7435C570.014 41.9332 570.016 37.8162 567.818 36.5475C565.622 35.2791 562.058 37.3396 559.858 41.1499C557.657 44.96 557.655 49.0772 559.853 50.3456C562.049 51.614 565.614 49.5535 567.814 45.7435Z" fill="white"/>
<path d="M543.542 48.6335C546.667 46.8541 549.19 48.3025 549.19 51.9029C549.086 53.8612 548.522 55.7672 547.54 57.4648C546.558 59.1624 545.187 60.6033 543.542 61.6693C540.437 63.4488 537.912 62.0004 537.912 58.3999C538.014 56.4436 538.578 54.5388 539.555 52.8412C540.532 51.1438 541.899 49.702 543.542 48.6335Z" fill="white"/>
<path opacity="0.5" d="M129.833 322.549L122.798 326.687L125.488 321.537C125.595 321.342 125.651 321.125 125.651 320.904C125.651 320.683 125.595 320.466 125.488 320.274C125.281 320.024 124.929 320.274 124.701 320.645L120.894 327.91C120.851 327.994 120.816 328.084 120.791 328.177V328.281C120.781 328.405 120.781 328.529 120.791 328.653C120.779 328.763 120.779 328.874 120.791 328.984C120.813 329.046 120.848 329.104 120.894 329.15L124.722 332.089C124.776 332.129 124.841 332.151 124.908 332.151C124.976 332.151 125.041 332.129 125.095 332.089C125.283 331.954 125.427 331.766 125.508 331.549C125.715 331.074 125.695 330.537 125.508 330.351L122.818 328.281L129.854 324.144C130.032 323.998 130.175 323.814 130.271 323.606C130.368 323.399 130.416 323.173 130.412 322.943C130.392 322.611 130.143 322.364 129.833 322.549Z" fill="#090E47"/>
<path opacity="0.5" d="M135.709 319.155L142.744 315.018L140.055 312.948C139.827 312.762 139.806 312.225 140.055 311.749C140.303 311.272 140.613 311.024 140.841 311.21L144.669 314.149C144.679 314.204 144.679 314.259 144.669 314.315C144.68 314.425 144.68 314.536 144.669 314.646C144.679 314.77 144.679 314.894 144.669 315.018C144.669 315.018 144.669 315.018 144.669 315.122C144.677 315.21 144.677 315.301 144.669 315.389L140.841 322.735C140.762 322.914 140.632 323.065 140.468 323.171C140.412 323.222 140.338 323.25 140.262 323.25C140.185 323.25 140.111 323.222 140.055 323.171C139.948 322.976 139.892 322.759 139.892 322.538C139.892 322.319 139.948 322.101 140.055 321.908L142.744 316.756L135.709 320.893C135.399 321.081 135.151 320.893 135.151 320.356C135.147 320.128 135.195 319.9 135.291 319.692C135.388 319.485 135.531 319.301 135.709 319.155Z" fill="#090E47"/>
<path opacity="0.5" d="M158.781 298.9C158.781 298.486 158.367 298.526 158.18 298.9L157.208 301.237C155.573 301.071 153.587 302.666 152.242 305.52C150.504 309.205 150.504 313.57 152.242 315.246C152.664 315.635 153.208 315.867 153.781 315.903C154.355 315.936 154.922 315.77 155.387 315.432C156.799 314.498 157.901 313.167 158.553 311.604C158.668 311.418 158.73 311.204 158.73 310.982C158.73 310.763 158.668 310.549 158.553 310.363C158.325 310.155 157.974 310.363 157.746 310.819C156.463 313.57 154.332 314.812 153.028 313.55C151.725 312.287 151.745 309.039 153.028 306.286C153.959 304.218 155.304 303.161 156.463 303.099L155.739 304.879C155.532 305.335 155.739 305.768 156.008 305.563L158.884 303.701C158.994 303.603 159.08 303.482 159.134 303.345C159.188 303.207 159.208 303.059 159.194 302.913L158.781 298.9Z" fill="#090E47"/>
<path opacity="0.5" d="M234.366 240.342L236.932 234.9C237.077 234.643 237.155 234.356 237.155 234.062C237.155 233.768 237.077 233.48 236.932 233.224C236.622 232.934 236.127 233.224 235.837 233.845L233.27 239.287L230.705 236.804C230.395 236.514 229.917 236.804 229.608 237.445C229.453 237.702 229.371 237.993 229.371 238.294C229.371 238.593 229.453 238.887 229.608 239.141L232.173 241.605L229.608 247.024C229.453 247.281 229.371 247.575 229.371 247.874C229.371 248.172 229.453 248.466 229.608 248.723C229.687 248.785 229.787 248.818 229.886 248.818C229.988 248.818 230.088 248.785 230.167 248.723C230.406 248.55 230.592 248.314 230.705 248.039L233.27 242.617L235.837 245.081C235.912 245.14 236.007 245.174 236.105 245.174C236.202 245.174 236.297 245.14 236.374 245.081C236.62 244.919 236.814 244.689 236.932 244.417C237.077 244.159 237.153 243.867 237.153 243.57C237.153 243.272 237.077 242.98 236.932 242.721L234.366 240.342Z" fill="#090E47"/>
<path d="M168.113 305.582V296.521C168.2 294.968 168.65 293.456 169.426 292.109C170.202 290.762 171.283 289.615 172.583 288.761L575.47 56.2694C577.931 54.8418 579.939 56.0005 579.939 58.856V67.9188C579.852 69.4718 579.404 70.983 578.627 72.3307C577.851 73.6785 576.77 74.8251 575.47 75.6782L172.624 308.17C170.12 309.596 168.113 308.437 168.113 305.582Z" fill="#FAFAFA"/>
<path d="M569.364 76.3816C569.236 76.4052 569.101 76.4052 568.972 76.3816C568.723 76.2663 568.521 76.0711 568.397 75.8272C568.274 75.5833 568.236 75.3049 568.289 75.0366L568.722 71.3535L567.007 70.1121C566.85 69.9944 566.726 69.8405 566.642 69.6641C566.56 69.4874 566.52 69.293 566.531 69.098C566.536 68.801 566.604 68.5089 566.732 68.2411C566.863 67.9733 567.046 67.7362 567.274 67.5463L569.903 65.477C569.954 65.4181 569.99 65.3469 570.007 65.2702L571.186 61.4009C571.263 61.0886 571.431 60.8054 571.666 60.5853C571.9 60.3651 572.194 60.2172 572.51 60.1592C572.725 60.1415 572.942 60.192 573.127 60.3032C573.313 60.4146 573.459 60.5814 573.545 60.7799L574.538 62.8493L576.752 62.0008C576.955 61.9146 577.181 61.8942 577.395 61.9424C577.61 61.9906 577.804 62.1052 577.952 62.2699C578.127 62.541 578.22 62.8572 578.22 63.1803C578.22 63.5034 578.127 63.8194 577.952 64.0907L576.11 67.629C576.11 67.7325 576.11 67.836 576.11 67.8565L576.544 71.0844C576.573 71.3778 576.535 71.6735 576.44 71.9519C576.343 72.2301 576.188 72.4846 575.987 72.6984C575.858 72.8433 575.697 72.956 575.518 73.0279C575.339 73.0998 575.144 73.1287 574.952 73.1121L572.882 72.8432L570.565 75.8022C570.434 75.9961 570.255 76.152 570.043 76.2537C569.833 76.3557 569.598 76.3997 569.364 76.3816ZM568.103 68.9118L569.819 70.1534C569.998 70.3022 570.133 70.4953 570.213 70.7133C570.293 70.9311 570.315 71.1662 570.275 71.3948L569.903 73.8363L571.456 71.7672C571.586 71.5779 571.763 71.4251 571.969 71.3239C572.174 71.2224 572.404 71.1755 572.634 71.1879L574.704 71.457C574.715 71.3816 574.715 71.3048 574.704 71.2292L574.249 67.9808C574.209 67.5806 574.288 67.1779 574.476 66.8221L576.152 63.6975L574.434 64.3598C574.178 64.4635 573.892 64.4631 573.638 64.3587C573.382 64.2543 573.178 64.0542 573.068 63.801L572.303 62.1664L571.248 65.6012C571.131 65.98 570.909 66.3177 570.606 66.5738L567.98 68.6429C567.977 68.694 567.988 68.7446 568.01 68.791C568.033 68.8375 568.064 68.8788 568.103 68.9118Z" fill="#E0E0E0"/>
<g opacity="0.5">
<path opacity="0.5" d="M585.213 55.1724C584.892 55.1574 584.583 55.042 584.328 54.8427C584.074 54.6433 583.888 54.3697 583.798 54.0601C583.707 53.7506 583.713 53.4202 583.82 53.1153C583.926 52.8103 584.123 52.5456 584.386 52.3583L596.988 45.075C597.344 44.8691 597.769 44.8136 598.164 44.9202C598.562 45.027 598.903 45.2873 599.109 45.6439C599.314 46.0006 599.37 46.4245 599.263 46.8223C599.155 47.2199 598.896 47.5591 598.538 47.7648L585.938 55.0484C585.71 55.147 585.46 55.1897 585.213 55.1724Z" fill="#090E47"/>
<path opacity="0.5" d="M585.215 62.4557C584.875 62.4539 584.543 62.3396 584.273 62.1308C584.003 61.9221 583.811 61.6302 583.723 61.3005C583.636 60.9706 583.661 60.6214 583.791 60.3065C583.924 59.9918 584.154 59.7291 584.45 59.5589L597.05 52.3582C597.227 52.2563 597.422 52.1901 597.625 52.1636C597.826 52.1371 598.032 52.1506 598.229 52.2034C598.426 52.2563 598.611 52.3474 598.773 52.4716C598.934 52.5957 599.069 52.7507 599.171 52.9272C599.275 53.1039 599.339 53.2989 599.365 53.501C599.392 53.7031 599.379 53.9085 599.326 54.1056C599.275 54.3024 599.182 54.487 599.058 54.6489C598.934 54.8105 598.779 54.9463 598.602 55.048L586.002 62.3316C585.753 62.4318 585.483 62.4742 585.215 62.4557Z" fill="#090E47"/>
<path opacity="0.5" d="M585.215 69.7394C584.867 69.7517 584.527 69.6476 584.248 69.4439C583.967 69.24 583.762 68.9481 583.667 68.6147C583.572 68.2814 583.592 67.9259 583.722 67.6046C583.852 67.2835 584.087 67.015 584.388 66.8425L596.988 59.559C597.339 59.3681 597.75 59.3197 598.135 59.4239C598.52 59.5278 598.85 59.7763 599.057 60.1178C599.241 60.4718 599.283 60.8824 599.177 61.2668C599.068 61.6509 598.819 61.9799 598.478 62.1869L585.876 69.4705C585.677 69.6038 585.451 69.6953 585.215 69.7394Z" fill="#090E47"/>
</g>
<path d="M109.287 320.44V349.574L100.865 344.711V315.597L109.287 320.44Z" fill="#E0E0E0"/>
<path d="M130.578 424.643L222.47 371.567C224.931 370.141 226.939 371.3 226.939 374.155V635.573C226.853 637.125 226.404 638.637 225.628 639.984C224.852 641.333 223.77 642.478 222.47 643.332L130.557 696.386C128.095 697.812 126.088 696.653 126.088 693.798V432.403C126.172 430.846 126.623 429.333 127.403 427.984C128.184 426.635 129.271 425.49 130.578 424.643Z" fill="#F0F0F0"/>
<path d="M147.38 434.346L205.73 400.681C208.213 399.253 210.22 400.268 210.22 402.957C210.097 404.449 209.627 405.893 208.847 407.171C208.068 408.452 207 409.531 205.73 410.322L147.38 444.051C144.897 445.478 142.89 444.465 142.89 441.774C143.002 440.27 143.467 438.815 144.247 437.524C145.028 436.235 146.101 435.144 147.38 434.346Z" fill="#E0E0E0"/>
<path d="M142.89 459.446V462.942C142.89 464.66 144.09 465.342 145.58 464.495L148.621 462.734C149.403 462.224 150.054 461.536 150.521 460.729C150.988 459.919 151.259 459.013 151.311 458.08V454.584C151.311 452.865 150.09 452.182 148.621 453.031L145.58 454.789C144.796 455.298 144.143 455.986 143.675 456.795C143.208 457.604 142.939 458.513 142.89 459.446Z" fill="#FAFAFA"/>
<path d="M159.712 451.479C159.712 454.168 161.781 455.183 164.181 453.754L205.565 429.815C206.846 429.014 207.921 427.922 208.702 426.628C209.482 425.333 209.945 423.873 210.055 422.365C210.055 419.696 207.986 418.683 205.565 420.11L164.181 444.051C162.907 444.852 161.839 445.942 161.063 447.233C160.286 448.523 159.824 449.978 159.712 451.479Z" fill="#E0E0E0"/>
<path d="M142.89 478.875V482.371C142.89 484.089 144.09 484.773 145.58 483.923L148.621 482.165C149.403 481.655 150.054 480.967 150.521 480.158C150.988 479.348 151.259 478.442 151.311 477.508V474.012C151.311 472.294 150.09 471.613 148.621 472.46L145.58 474.22C144.796 474.729 144.143 475.414 143.675 476.224C143.208 477.033 142.939 477.942 142.89 478.875Z" fill="#FAFAFA"/>
<path d="M159.712 470.908C159.712 473.599 161.781 474.611 164.181 473.185L205.565 449.243C206.846 448.443 207.921 447.35 208.702 446.057C209.482 444.763 209.945 443.302 210.055 441.796C210.055 439.127 207.986 438.112 205.565 439.54L164.181 463.48C162.907 464.282 161.839 465.373 161.063 466.662C160.286 467.953 159.824 469.406 159.712 470.908Z" fill="#E0E0E0"/>
<path d="M142.89 498.264V501.76C142.89 503.478 144.09 504.181 145.58 503.312L148.621 501.574C149.401 501.061 150.05 500.371 150.517 499.564C150.984 498.757 151.256 497.85 151.311 496.917V493.421C151.311 491.703 150.09 491 148.621 491.869L145.58 493.607C144.797 494.117 144.145 494.805 143.678 495.612C143.21 496.422 142.94 497.331 142.89 498.264Z" fill="#FAFAFA"/>
<path d="M159.712 490.316C159.712 492.988 161.781 494 164.181 492.572L205.565 468.632C206.844 467.834 207.917 466.746 208.697 465.455C209.477 464.163 209.942 462.708 210.055 461.205C210.055 458.513 207.986 457.501 205.565 458.929L164.181 482.869C162.904 483.674 161.835 484.766 161.058 486.06C160.282 487.353 159.821 488.813 159.712 490.316Z" fill="#E0E0E0"/>
<path d="M142.89 517.65V521.148C142.89 522.864 144.09 523.568 145.58 522.699L148.621 520.96C149.401 520.447 150.05 519.76 150.517 518.953C150.984 518.143 151.256 517.237 151.311 516.306V512.81C151.311 511.091 150.09 510.388 148.621 511.257L145.58 512.995C144.797 513.504 144.145 514.192 143.678 515.001C143.21 515.81 142.94 516.717 142.89 517.65Z" fill="#FAFAFA"/>
<path d="M159.712 509.643C159.712 512.312 161.781 513.327 164.181 511.899L205.565 487.959C206.844 487.161 207.917 486.071 208.697 484.782C209.477 483.49 209.942 482.035 210.055 480.532C210.055 477.84 207.986 476.828 205.565 478.254L164.181 502.196C162.904 502.998 161.835 504.093 161.058 505.387C160.282 506.68 159.821 508.14 159.712 509.643Z" fill="#E0E0E0"/>
<path d="M147.028 541.28L205.296 507.573C207.779 506.147 209.786 507.16 209.786 509.851C209.673 511.355 209.208 512.81 208.428 514.101C207.648 515.39 206.575 516.48 205.296 517.279L147.028 551.028C144.545 552.454 142.538 551.441 142.538 548.75C142.644 547.24 143.106 545.776 143.887 544.478C144.667 543.177 145.744 542.083 147.028 541.28Z" fill="#E0E0E0"/>
<path d="M142.538 566.401V569.897C142.538 571.595 143.738 572.298 145.228 571.449L148.249 569.691C149.033 569.183 149.686 568.495 150.153 567.686C150.621 566.876 150.89 565.967 150.939 565.034V561.538C150.939 559.82 149.739 559.139 148.249 559.986L145.228 561.746C144.444 562.255 143.791 562.94 143.324 563.749C142.856 564.559 142.587 565.468 142.538 566.401Z" fill="#FAFAFA"/>
<path d="M159.339 558.434C159.339 561.125 161.408 562.138 163.829 560.711L205.212 536.75C206.491 535.951 207.564 534.863 208.345 533.572C209.125 532.281 209.59 530.826 209.702 529.322C209.702 526.631 207.633 525.618 205.212 527.046L163.829 551.006C162.55 551.804 161.477 552.894 160.697 554.183C159.916 555.475 159.451 556.93 159.339 558.434Z" fill="#E0E0E0"/>
<path d="M142.538 585.829V589.328C142.538 591.044 143.738 591.727 145.228 590.88L148.249 589.12C149.033 588.611 149.686 587.926 150.153 587.116C150.621 586.307 150.89 585.398 150.939 584.465V580.967C150.939 579.251 149.739 578.567 148.249 579.417L145.228 581.175C144.444 581.683 143.791 582.371 143.324 583.18C142.856 583.99 142.587 584.896 142.538 585.829Z" fill="#FAFAFA"/>
<path d="M159.339 577.926C159.339 580.615 161.408 581.63 163.829 580.201L205.212 556.242C206.53 555.455 207.641 554.365 208.451 553.062C209.261 551.76 209.747 550.28 209.868 548.75C209.868 546.061 207.799 545.046 205.378 546.475L163.995 570.436C162.676 571.221 161.566 572.312 160.756 573.614C159.946 574.919 159.46 576.396 159.339 577.926Z" fill="#E0E0E0"/>
<path d="M142.538 605.218V608.714C142.538 610.432 143.738 611.136 145.228 610.267L148.249 608.528C149.03 608.018 149.68 607.33 150.147 606.521C150.614 605.711 150.885 604.805 150.939 603.874V600.355C150.939 598.659 149.739 597.956 148.249 598.825L145.228 600.563C144.444 601.072 143.791 601.757 143.324 602.567C142.856 603.376 142.587 604.285 142.538 605.218Z" fill="#FAFAFA"/>
<path d="M159.339 597.273C159.339 599.942 161.408 600.957 163.829 599.528L205.212 575.589C206.494 574.788 207.569 573.696 208.349 572.4C209.129 571.107 209.593 569.647 209.702 568.139C209.702 565.47 207.633 564.455 205.212 565.883L163.829 589.823C162.547 590.623 161.472 591.716 160.692 593.012C159.912 594.305 159.448 595.765 159.339 597.273Z" fill="#E0E0E0"/>
<path d="M142.538 624.607V628.103C142.538 629.821 143.738 630.524 145.228 629.655L148.249 627.917C149.03 627.404 149.68 626.716 150.147 625.909C150.614 625.1 150.885 624.193 150.939 623.262V619.764C150.939 618.048 149.739 617.345 148.249 618.214L145.228 619.952C144.445 620.461 143.793 621.148 143.326 621.958C142.859 622.767 142.589 623.674 142.538 624.607Z" fill="#FAFAFA"/>
<path d="M159.339 616.661C159.339 619.331 161.408 620.343 163.829 618.915L205.212 594.975C206.494 594.175 207.569 593.082 208.349 591.789C209.129 590.495 209.593 589.033 209.702 587.528C209.702 584.856 207.633 583.844 205.212 585.272L163.829 609.212C162.547 610.012 161.472 611.104 160.692 612.398C159.912 613.692 159.448 615.153 159.339 616.661Z" fill="#E0E0E0"/>
<path d="M445.484 335.338V340.138C445.484 342.993 447.554 344.152 449.953 342.703L567.088 274.544C568.389 273.686 569.47 272.537 570.246 271.185C571.022 269.834 571.471 268.32 571.557 266.765V262.628C571.557 259.771 569.49 258.612 567.068 260.04L449.892 327.558C448.6 328.418 447.528 329.573 446.763 330.924C445.997 332.275 445.56 333.785 445.484 335.338Z" fill="#E0E0E0"/>
<path d="M449.891 356.692L583.827 279.367C586.291 277.939 588.296 278.954 588.296 281.643C588.186 283.144 587.724 284.599 586.947 285.888C586.169 287.18 585.101 288.268 583.827 289.07L449.891 366.395C447.428 367.824 445.422 366.809 445.422 364.14C445.53 362.636 445.99 361.177 446.769 359.883C447.545 358.589 448.613 357.495 449.891 356.692Z" fill="#EBEBEB"/>
<path d="M449.891 376.101L583.827 298.776C586.291 297.348 588.296 298.362 588.296 301.032C588.188 302.535 587.728 303.995 586.952 305.288C586.174 306.582 585.105 307.677 583.827 308.479L449.891 385.804C447.428 387.233 445.422 386.218 445.422 383.529C445.532 382.027 445.997 380.572 446.773 379.283C447.549 377.992 448.617 376.901 449.891 376.101Z" fill="#EBEBEB"/>
<path d="M449.891 395.487L583.827 318.162C586.291 316.736 588.296 317.749 588.296 320.44C588.186 321.941 587.724 323.394 586.947 324.685C586.169 325.975 585.101 327.065 583.827 327.867L449.891 405.192C447.428 406.619 445.422 405.606 445.422 402.937C445.53 401.431 445.99 399.974 446.769 398.678C447.545 397.384 448.613 396.292 449.891 395.487Z" fill="#EBEBEB"/>
<path d="M449.891 414.896L583.827 337.571C586.291 336.145 588.296 337.157 588.296 339.826C588.188 341.332 587.728 342.792 586.952 344.085C586.174 345.379 585.105 346.471 583.827 347.276L449.891 424.601C447.428 426.03 445.422 425.015 445.422 422.326C445.532 420.824 445.997 419.369 446.773 418.078C447.549 416.789 448.617 415.698 449.891 414.896Z" fill="#EBEBEB"/>
<path d="M449.891 434.284L583.827 356.959C586.291 355.533 588.296 356.546 588.296 359.237C588.186 360.739 587.724 362.191 586.947 363.483C586.169 364.772 585.101 365.862 583.827 366.665L449.891 443.99C447.428 445.416 445.422 444.403 445.422 441.734C445.53 440.228 445.99 438.771 446.769 437.475C447.545 436.182 448.613 435.089 449.891 434.284Z" fill="#EBEBEB"/>
<path d="M449.891 453.777L583.827 376.452C586.291 375.024 588.296 376.039 588.296 378.708C588.188 380.211 587.728 381.671 586.952 382.965C586.174 384.258 585.105 385.353 583.827 386.155L449.891 463.399C447.428 464.825 445.422 463.812 445.422 461.121C445.546 459.635 446.015 458.198 446.791 456.922C447.565 455.648 448.626 454.571 449.891 453.777Z" fill="#EBEBEB"/>
<path d="M449.891 473.082L583.889 395.841C586.353 394.412 588.358 395.425 588.358 398.116C588.248 399.62 587.786 401.077 587.009 402.371C586.233 403.664 585.165 404.759 583.889 405.564L449.891 482.745C447.428 484.171 445.422 483.158 445.422 480.489C445.537 478.992 446.001 477.542 446.777 476.255C447.554 474.968 448.619 473.882 449.891 473.082Z" fill="#EBEBEB"/>
<path d="M449.891 492.49L583.827 415.166C586.291 413.737 588.296 414.752 588.296 417.441C588.186 418.942 587.724 420.398 586.947 421.687C586.169 422.978 585.101 424.068 583.827 424.871L449.891 502.194C447.428 503.622 445.422 502.609 445.422 499.918C445.532 498.417 445.997 496.964 446.773 495.672C447.549 494.383 448.617 493.293 449.891 492.49Z" fill="#EBEBEB"/>
<path d="M248.23 444.052L424.11 342.456C426.571 341.027 428.579 342.186 428.579 345.041V519.099C428.493 520.653 428.044 522.164 427.268 523.513C426.492 524.859 425.41 526.005 424.11 526.858L248.23 628.454C245.769 629.883 243.761 628.724 243.761 625.869V451.811C243.847 450.257 244.296 448.746 245.072 447.397C245.848 446.051 246.93 444.903 248.23 444.052Z" fill="#F0F0F0"/>
<path d="M379.539 441.197L350.157 493.215L370.848 520.01L302.568 461.185L243.74 588.562V625.807C243.74 628.662 245.81 629.821 248.209 628.392L424.087 526.796C425.39 525.945 426.471 524.797 427.247 523.451C428.024 522.102 428.472 520.591 428.559 519.037V485.931L379.539 441.197Z" fill="#E0E0E0"/>
<path d="M386.638 387.564C393.962 383.425 399.882 386.777 399.882 395.22C399.634 399.817 398.307 404.291 396.005 408.277C393.705 412.264 390.495 415.652 386.638 418.166C379.312 422.304 373.395 418.974 373.395 410.531C373.642 405.931 374.969 401.453 377.271 397.464C379.571 393.473 382.779 390.081 386.638 387.564Z" fill="#E0E0E0"/>
<path d="M130.557 356.692L583.89 94.9623C586.353 93.5346 588.359 94.6934 588.359 97.5488V145.471C588.275 147.026 587.824 148.54 587.045 149.888C586.265 151.237 585.177 152.382 583.87 153.23L130.557 414.918C128.095 416.366 126.088 415.207 126.088 412.33V364.451C126.173 362.897 126.622 361.386 127.398 360.037C128.175 358.691 129.257 357.543 130.557 356.692Z" fill="#E0E0E0"/>
<path d="M420.26 214.374V222.652C420.26 224.348 421.48 225.051 422.951 224.202L554.736 148.12V133.636L422.993 209.719C422.204 210.226 421.545 210.912 421.071 211.721C420.596 212.53 420.319 213.439 420.26 214.374Z" fill="#FAFAFA"/>
<path d="M568.869 125.483C570.359 124.634 571.558 125.317 571.558 127.034V135.311C571.505 136.243 571.233 137.15 570.766 137.958C570.3 138.767 569.649 139.454 568.869 139.967L554.736 148.119V133.635L568.869 125.483Z" fill="#EBEBEB"/>
<path d="M567.833 136.925L566.261 136.45C566.427 135.772 566.511 135.077 566.508 134.38C566.584 133.743 566.491 133.096 566.241 132.505C565.991 131.914 565.591 131.398 565.082 131.008C564.733 130.802 564.337 130.693 563.932 130.693C563.528 130.693 563.132 130.802 562.785 131.008C561.785 131.781 560.98 132.776 560.436 133.915C559.89 135.054 559.616 136.304 559.64 137.567C559.569 138.204 559.662 138.849 559.912 139.44C560.162 140.03 560.56 140.547 561.066 140.94C561.378 141.108 561.728 141.193 562.081 141.188C562.535 141.178 562.977 141.05 563.364 140.815C564.563 139.996 565.458 138.803 565.909 137.422L567.481 137.898H567.667C567.791 137.896 567.913 137.854 568.012 137.78C568.114 137.706 568.187 137.603 568.227 137.484C568.222 137.363 568.182 137.245 568.114 137.146C568.043 137.046 567.946 136.97 567.833 136.925ZM562.785 139.946C562.628 140.068 562.44 140.144 562.243 140.166C562.046 140.188 561.847 140.155 561.668 140.071C561.343 139.776 561.095 139.407 560.945 138.997C560.794 138.587 560.744 138.146 560.799 137.712C560.783 136.654 561.005 135.607 561.449 134.647C561.893 133.687 562.548 132.839 563.364 132.166C563.576 132.034 563.817 131.956 564.067 131.939C564.222 131.938 564.372 131.981 564.503 132.063C564.819 132.362 565.06 132.731 565.208 133.141C565.354 133.551 565.403 133.99 565.35 134.422C565.363 135.478 565.137 136.523 564.689 137.48C564.242 138.436 563.583 139.28 562.763 139.946H562.785Z" fill="#FAFAFA"/>
<path d="M243.761 364.449V422.056C243.761 424.911 245.831 426.07 248.23 424.643L583.89 230.845C585.19 229.991 586.274 228.846 587.05 227.497C587.826 226.15 588.275 224.638 588.359 223.085V165.5C588.359 162.645 586.291 161.486 583.89 162.914L248.23 356.69C246.93 357.544 245.848 358.691 245.072 360.038C244.296 361.387 243.847 362.897 243.761 364.449Z" fill="#EBEBEB"/>
<path d="M205.937 783.767C204.7 782.914 203.681 781.781 202.962 780.464C202.244 779.143 201.845 777.675 201.799 776.174V349.925C201.886 348.373 202.336 346.863 203.112 345.514C203.888 344.167 204.969 343.019 206.268 342.166L693.122 61.0077C694.42 60.1939 695.912 59.7493 697.445 59.7216C698.975 59.6937 700.485 60.0838 701.81 60.85C703.137 61.616 704.227 62.7292 704.968 64.0695C705.708 65.4097 706.069 66.9265 706.011 68.4567V494.704C705.927 496.258 705.478 497.768 704.702 499.115C703.926 500.464 702.843 501.609 701.542 502.463L214.607 783.621C213.276 784.327 211.796 784.709 210.289 784.734C208.783 784.758 207.291 784.426 205.937 783.767Z" fill="#00AEEF"/>
<path d="M705.971 67.7117C705.659 65.3941 703.778 64.5458 701.542 65.8494L214.607 346.967C213.293 347.807 212.205 348.957 211.441 350.317L203.04 345.456C203.799 344.096 204.888 342.951 206.206 342.124L693.141 61.0075C694.375 60.1949 695.804 59.727 697.279 59.6522C698.754 59.5775 700.222 59.8988 701.531 60.5827C702.84 61.2669 703.941 62.2885 704.722 63.5421C705.502 64.7957 705.934 66.2353 705.971 67.7117Z" fill="#090E47"/>
<path d="M213.759 783.995H213.572C213.435 784.068 213.289 784.123 213.138 784.158L212.807 784.262C212.606 784.335 212.398 784.384 212.186 784.408C212.049 784.428 211.909 784.428 211.772 784.408L211.089 784.51C209.321 784.753 207.522 784.442 205.937 783.621C204.699 782.77 203.679 781.638 202.96 780.32C202.241 778.999 201.843 777.529 201.799 776.028V402.937L210.22 407.799V781.014C210.22 783.084 211.234 784.22 212.703 784.22C212.902 784.251 213.104 784.251 213.303 784.22C213.466 784.17 213.619 784.092 213.759 783.995Z" fill="#F0F0F0"/>
<path d="M211.441 350.319C210.637 351.653 210.188 353.17 210.137 354.726V407.8L201.716 402.937V349.884C201.705 349.704 201.705 349.525 201.716 349.346C201.758 348.97 201.82 348.597 201.902 348.23C202.146 347.257 202.522 346.326 203.019 345.457L211.441 350.319Z" fill="#263238"/>
<path d="M706.011 68.4365V92.3767L349.083 298.444C346.619 299.873 344.612 298.714 344.612 295.857V286.795C344.612 283.941 342.544 282.782 340.123 284.208L231.428 346.967C230.124 347.814 229.036 348.959 228.255 350.308C227.474 351.657 227.023 353.17 226.939 354.726V363.788C226.853 365.341 226.404 366.853 225.628 368.2C224.852 369.549 223.771 370.694 222.47 371.548L210.055 378.666V354.726C210.14 353.172 210.589 351.662 211.365 350.313C212.142 348.966 213.224 347.821 214.524 346.967L701.542 65.85C704.006 64.4223 706.011 65.5811 706.011 68.4365Z" fill="#090E47"/>
<path d="M706.033 494.746C705.949 496.3 705.498 497.815 704.718 499.164C703.937 500.511 702.849 501.656 701.542 502.505L214.607 783.599C212.145 785.028 210.138 783.869 210.138 781.014V378.666L222.552 371.548C225.016 370.119 229.029 348.393 231.512 346.967L338.385 285.263C340.868 283.836 346.661 299.873 349.165 298.444L706.095 92.376V494.746H706.033Z" fill="#FAFAFA"/>
<path d="M706.014 92.376V121.51L210.138 407.8V378.666L219.345 373.328C221.807 371.899 222.636 369.728 223.815 365.568L226.939 354.726C227.932 350.96 229.009 348.393 231.428 346.967L338.301 285.263C340.784 283.836 342.73 283.67 344.612 286.795L348.462 293.747C349.848 296.169 350.531 297.595 353.012 296.169L706.014 92.376Z" fill="#E6E6E6"/>
<path d="M688.979 92.2486C691.179 88.4385 691.182 84.3213 688.986 83.0529C686.788 81.7845 683.223 83.845 681.023 87.6551C678.825 91.4654 678.823 95.5824 681.019 96.851C683.217 98.1194 686.781 96.0589 688.979 92.2486Z" fill="white"/>
<path d="M664.713 95.1491C667.816 93.3697 670.341 94.8181 670.341 98.4183C670.246 100.382 669.687 102.295 668.707 104C667.73 105.705 666.361 107.154 664.713 108.226C661.589 110.006 659.063 108.557 659.063 104.957C659.161 102.992 659.722 101.077 660.704 99.3718C661.688 97.6667 663.062 96.2192 664.713 95.1491Z" fill="white"/>
<path d="M644.393 106.861C647.495 105.061 650.021 106.509 650.021 110.109C649.919 112.066 649.357 113.971 648.378 115.668C647.4 117.366 646.034 118.807 644.393 119.876C641.268 121.676 638.743 120.227 638.743 116.627C638.847 114.669 639.413 112.763 640.395 111.065C641.377 109.367 642.746 107.927 644.393 106.861Z" fill="white"/>
<path opacity="0.5" d="M230.686 380.755L223.669 384.893L226.34 379.72C226.451 379.528 226.508 379.311 226.508 379.09C226.508 378.869 226.451 378.65 226.34 378.458C226.132 378.23 225.761 378.458 225.533 378.851L221.725 386.177C221.725 386.177 221.725 386.341 221.621 386.445C221.517 386.549 221.621 386.445 221.621 386.445C221.601 386.569 221.601 386.695 221.621 386.819C221.597 386.927 221.597 387.04 221.621 387.148L221.725 387.294L225.533 390.233C225.588 390.266 225.653 390.286 225.719 390.286C225.785 390.286 225.849 390.266 225.905 390.233C226.099 390.091 226.252 389.897 226.34 389.673C226.546 389.198 226.526 388.658 226.34 388.473L223.669 386.405L230.686 382.266C230.869 382.126 231.017 381.943 231.119 381.735C231.218 381.527 231.269 381.297 231.265 381.065C231.265 380.817 231.015 380.589 230.686 380.755Z" fill="#090E47"/>
<path opacity="0.5" d="M236.56 377.361L243.595 373.224L240.926 371.154C240.678 370.968 240.658 370.431 240.926 369.953C241.195 369.478 241.485 369.23 241.733 369.396L245.541 372.335L245.644 372.479C245.667 372.58 245.667 372.687 245.644 372.788C245.667 372.919 245.667 373.052 245.644 373.182C245.644 373.182 245.644 373.368 245.541 373.452L241.733 380.776C241.642 380.946 241.514 381.094 241.361 381.211C241.301 381.262 241.224 381.293 241.144 381.293C241.065 381.293 240.987 381.262 240.926 381.211C240.815 381.019 240.758 380.802 240.758 380.579C240.758 380.358 240.815 380.141 240.926 379.949L243.595 374.776L236.56 378.914C236.251 379.08 236.001 378.914 236.001 378.354C236.052 377.965 236.251 377.607 236.56 377.361Z" fill="#090E47"/>
<path opacity="0.5" d="M259.63 357.126C259.63 356.692 259.217 356.754 259.031 357.126L258.08 359.485C256.424 359.299 254.438 360.911 253.092 363.746C251.354 367.43 251.354 371.795 253.092 373.471C253.516 373.867 254.065 374.102 254.642 374.137C255.221 374.17 255.792 374.002 256.258 373.659C257.66 372.713 258.759 371.384 259.425 369.829C259.529 369.644 259.584 369.434 259.584 369.219C259.584 369.007 259.529 368.797 259.425 368.609C259.197 368.381 258.845 368.609 258.618 369.064C257.313 371.817 255.203 373.038 253.899 371.795C252.596 370.555 252.596 367.284 253.899 364.513C254.83 362.568 256.154 361.409 257.313 361.327L256.59 363.105C256.404 363.56 256.59 363.996 256.88 363.808L259.734 361.926C259.849 361.831 259.938 361.71 259.995 361.572C260.053 361.435 260.077 361.287 260.066 361.139L259.63 357.126Z" fill="#090E47"/>
<path opacity="0.5" d="M335.218 298.59L337.785 293.168C337.94 292.911 338.022 292.62 338.022 292.319C338.022 292.02 337.94 291.726 337.785 291.472C337.496 291.182 336.998 291.472 336.689 292.113L334.121 297.533L331.556 295.072C331.267 294.782 330.769 295.072 330.459 295.713C330.313 295.967 330.238 296.257 330.238 296.551C330.238 296.845 330.313 297.133 330.459 297.389L333.025 299.85L330.459 305.293C330.313 305.549 330.238 305.836 330.238 306.131C330.238 306.425 330.313 306.714 330.459 306.969C330.537 307.035 330.636 307.07 330.738 307.07C330.842 307.07 330.939 307.035 331.019 306.969C331.258 306.805 331.446 306.575 331.556 306.308L334.121 300.865L336.689 303.349C336.766 303.413 336.866 303.451 336.967 303.451C337.069 303.451 337.169 303.413 337.246 303.349C337.491 303.19 337.679 302.957 337.785 302.685C337.94 302.431 338.022 302.137 338.022 301.838C338.022 301.538 337.94 301.246 337.785 300.989L335.218 298.59Z" fill="#090E47"/>
<path d="M268.963 363.788V354.726C269.049 353.169 269.498 351.657 270.279 350.308C271.059 348.959 272.147 347.814 273.454 346.967L676.32 114.433C678.803 113.006 680.809 114.165 680.809 117.02V126.083C680.721 127.637 680.267 129.149 679.489 130.497C678.708 131.844 677.623 132.99 676.32 133.842L273.454 366.375C270.971 367.802 268.963 366.643 268.963 363.788Z" fill="#FAFAFA"/>
<path d="M670.237 134.587C670.1 134.609 669.961 134.609 669.824 134.587C669.574 134.468 669.375 134.268 669.253 134.02C669.134 133.772 669.101 133.491 669.16 133.221L669.596 129.539L667.858 128.297C667.707 128.18 667.588 128.029 667.508 127.856C667.429 127.683 667.391 127.494 667.402 127.304C667.402 127.005 667.466 126.71 667.592 126.438C667.716 126.167 667.9 125.925 668.125 125.731L670.755 123.662C670.812 123.604 670.854 123.533 670.878 123.455L672.057 119.606C672.13 119.289 672.294 119 672.53 118.776C672.765 118.551 673.061 118.401 673.382 118.344C673.596 118.338 673.806 118.393 673.99 118.503C674.173 118.613 674.321 118.773 674.417 118.965L675.39 121.034L677.623 120.186C677.822 120.091 678.045 120.066 678.26 120.115C678.474 120.163 678.667 120.283 678.804 120.455C678.987 120.719 679.087 121.033 679.087 121.355C679.087 121.677 678.987 121.991 678.804 122.255L676.9 125.835C676.882 125.902 676.882 125.974 676.9 126.042L677.355 129.29C677.382 129.583 677.347 129.879 677.249 130.157C677.154 130.436 676.999 130.69 676.796 130.904C676.663 131.047 676.497 131.157 676.314 131.225C676.132 131.293 675.936 131.318 675.741 131.297L673.671 131.028L671.292 134.029C671.173 134.198 671.013 134.336 670.832 134.433C670.648 134.531 670.445 134.583 670.237 134.587ZM668.955 127.118L670.671 128.359C670.859 128.501 671.002 128.693 671.086 128.912C671.17 129.131 671.192 129.37 671.148 129.6L670.859 132.042L672.409 129.973C672.539 129.783 672.716 129.631 672.924 129.532C673.13 129.434 673.36 129.393 673.59 129.414L675.657 129.683C675.686 129.603 675.686 129.516 675.657 129.435L675.432 126.29C675.372 125.889 675.451 125.48 675.657 125.131L677.313 122.007L675.617 122.648C675.363 122.753 675.08 122.756 674.826 122.655C674.569 122.555 674.363 122.36 674.251 122.11L673.466 120.455L672.431 123.89C672.309 124.271 672.079 124.609 671.767 124.862L669.14 126.931C669.059 126.97 668.992 127.036 668.955 127.118Z" fill="#E0E0E0"/>
<g opacity="0.5">
<path opacity="0.5" d="M686.088 113.378C685.743 113.381 685.409 113.27 685.137 113.062C684.863 112.855 684.666 112.563 684.577 112.233C684.487 111.902 684.509 111.55 684.639 111.233C684.772 110.917 685.004 110.652 685.3 110.481L697.923 103.218C698.272 103.06 698.668 103.037 699.035 103.154C699.4 103.272 699.709 103.52 699.904 103.852C700.096 104.185 700.158 104.577 700.081 104.953C700.001 105.328 699.784 105.662 699.475 105.887L686.853 113.171C686.621 113.309 686.355 113.38 686.088 113.378Z" fill="#090E47"/>
<path opacity="0.5" d="M686.088 120.641C685.743 120.644 685.409 120.533 685.137 120.326C684.863 120.118 684.666 119.827 684.577 119.496C684.487 119.165 684.509 118.814 684.639 118.497C684.772 118.18 685.004 117.915 685.3 117.744L697.923 110.461C698.279 110.255 698.703 110.199 699.101 110.306C699.499 110.413 699.838 110.673 700.043 111.03C700.249 111.386 700.304 111.81 700.198 112.208C700.092 112.606 699.831 112.945 699.475 113.151L686.853 120.434C686.621 120.572 686.355 120.643 686.088 120.641Z" fill="#090E47"/>
<path opacity="0.5" d="M686.088 127.945C685.743 127.947 685.409 127.836 685.137 127.629C684.863 127.422 684.666 127.13 684.577 126.799C684.487 126.468 684.509 126.117 684.639 125.8C684.772 125.484 685.004 125.219 685.3 125.048L697.923 117.764C698.279 117.559 698.703 117.503 699.101 117.61C699.499 117.716 699.838 117.977 700.043 118.333C700.249 118.69 700.304 119.114 700.198 119.512C700.092 119.909 699.831 120.248 699.475 120.454L686.853 127.738C686.621 127.875 686.355 127.947 686.088 127.945Z" fill="#090E47"/>
</g>
<path d="M210.138 378.666V407.799L201.717 402.937V373.823L210.138 378.666Z" fill="#E0E0E0"/>
<path d="M231.409 482.847L323.321 429.796C325.782 428.367 327.79 429.506 327.79 432.381V693.798C327.704 695.353 327.255 696.863 326.479 698.21C325.703 699.559 324.622 700.704 323.321 701.558L231.409 754.612C228.947 756.04 226.939 754.881 226.939 752.024V490.606C227.026 489.054 227.475 487.544 228.251 486.195C229.027 484.848 230.108 483.7 231.409 482.847Z" fill="#F0F0F0"/>
<path d="M248.229 492.552L306.497 458.907C308.98 457.481 310.988 458.493 310.988 461.162C310.878 462.671 310.415 464.13 309.635 465.426C308.854 466.719 307.78 467.812 306.497 468.612L248.229 502.257C245.748 503.684 243.74 502.671 243.74 499.98C243.853 498.476 244.317 497.021 245.098 495.729C245.879 494.44 246.951 493.35 248.229 492.552Z" fill="#E0E0E0"/>
<path d="M243.74 517.65V521.149C243.74 522.865 244.941 523.548 246.429 522.701L249.472 520.941C250.253 520.432 250.903 519.745 251.367 518.935C251.831 518.126 252.097 517.217 252.141 516.286V512.788C252.141 511.092 250.94 510.389 249.472 511.238L246.429 512.996C245.646 513.504 244.994 514.192 244.525 515.001C244.059 515.811 243.789 516.717 243.74 517.65Z" fill="#FAFAFA"/>
<path d="M260.562 509.643C260.562 512.334 262.632 513.347 265.034 511.919L306.416 487.979C307.699 487.179 308.773 486.086 309.554 484.793C310.332 483.499 310.797 482.037 310.907 480.532C310.907 477.86 308.837 476.847 306.416 478.276L265.034 502.216C263.758 503.018 262.69 504.108 261.914 505.398C261.137 506.687 260.675 508.142 260.562 509.643Z" fill="#E0E0E0"/>
<path d="M243.74 537.081V540.681C243.74 542.399 244.941 543.08 246.429 542.233L249.472 540.473C250.253 539.964 250.903 539.277 251.367 538.467C251.831 537.658 252.097 536.749 252.141 535.818V532.322C252.141 530.624 250.94 529.921 249.472 530.77L246.429 532.528C245.66 533.028 245.016 533.698 244.55 534.487C244.081 535.277 243.804 536.165 243.74 537.081Z" fill="#FAFAFA"/>
<path d="M260.562 529.114C260.562 531.805 262.632 532.818 265.034 531.392L306.416 507.45C307.699 506.649 308.773 505.559 309.554 504.263C310.332 502.97 310.797 501.508 310.907 500.002C310.907 497.333 308.837 496.318 306.416 497.747L265.034 521.686C263.758 522.489 262.69 523.579 261.914 524.868C261.137 526.16 260.675 527.613 260.562 529.114Z" fill="#E0E0E0"/>
<path d="M243.74 556.468V559.966C243.74 561.682 244.941 562.387 246.429 561.518L249.472 559.78C250.253 559.269 250.9 558.579 251.365 557.772C251.829 556.963 252.095 556.054 252.141 555.123V551.627C252.141 549.909 250.94 549.206 249.472 550.075L246.429 551.813C245.649 552.326 244.998 553.013 244.532 553.821C244.065 554.63 243.793 555.537 243.74 556.468Z" fill="#FAFAFA"/>
<path d="M260.562 548.522C260.562 551.191 262.632 552.206 265.034 550.778L306.416 526.838C307.694 526.04 308.769 524.95 309.549 523.661C310.328 522.369 310.794 520.914 310.907 519.41C310.907 516.719 308.837 515.707 306.416 517.133L265.034 541.075C263.756 541.877 262.685 542.972 261.909 544.266C261.133 545.559 260.673 547.019 260.562 548.522Z" fill="#E0E0E0"/>
<path d="M243.74 575.857V579.355C243.74 581.071 244.941 581.774 246.429 580.905L249.472 579.167C250.253 578.658 250.903 577.971 251.367 577.161C251.831 576.352 252.097 575.443 252.141 574.512V571.016C252.141 569.298 250.94 568.595 249.472 569.464L246.429 571.202C245.649 571.713 244.998 572.403 244.532 573.21C244.065 574.019 243.793 574.926 243.74 575.857Z" fill="#FAFAFA"/>
<path d="M260.562 567.911C260.562 570.58 262.632 571.595 265.034 570.167L306.416 546.227C307.694 545.429 308.769 544.339 309.549 543.05C310.328 541.758 310.794 540.303 310.907 538.797C310.907 536.109 308.837 535.096 306.416 536.522L265.034 560.462C263.756 561.266 262.685 562.361 261.909 563.655C261.133 564.948 260.673 566.406 260.562 567.911Z" fill="#E0E0E0"/>
<path d="M247.879 599.506L306.146 565.841C308.63 564.415 310.638 565.428 310.638 568.119C310.527 569.625 310.065 571.086 309.284 572.38C308.504 573.674 307.429 574.766 306.146 575.567L247.859 609.212C245.398 610.64 243.39 609.625 243.39 606.936C243.502 605.432 243.967 603.975 244.747 602.684C245.528 601.395 246.6 600.307 247.879 599.506Z" fill="#E0E0E0"/>
<path d="M243.39 624.607V628.103C243.39 629.821 244.59 630.504 246.079 629.655L249.101 627.897C249.884 627.389 250.537 626.701 251.005 625.892C251.472 625.082 251.742 624.173 251.79 623.24V619.744C251.79 618.026 250.59 617.343 249.101 618.192L246.079 619.95C245.296 620.459 244.643 621.146 244.175 621.956C243.708 622.765 243.438 623.674 243.39 624.607Z" fill="#FAFAFA"/>
<path d="M260.19 616.639C260.19 619.331 262.26 620.343 264.679 618.915L306.064 594.975C307.346 594.175 308.421 593.082 309.202 591.789C309.98 590.495 310.444 589.033 310.553 587.528C310.553 584.856 308.485 583.844 306.064 585.272L264.679 609.212C263.401 610.01 262.329 611.098 261.548 612.389C260.768 613.681 260.303 615.136 260.19 616.639Z" fill="#E0E0E0"/>
<path d="M243.39 644.14V647.636C243.39 649.354 244.59 650.037 246.079 649.188L249.101 647.43C249.884 646.921 250.537 646.234 251.005 645.424C251.472 644.615 251.742 643.706 251.79 642.773V639.173C251.79 637.457 250.59 636.774 249.101 637.621L246.079 639.381C245.28 639.898 244.619 640.602 244.153 641.431C243.684 642.26 243.423 643.189 243.39 644.14Z" fill="#FAFAFA"/>
<path d="M260.19 636.07C260.19 638.759 262.26 639.774 264.679 638.345L306.064 614.406C307.346 613.605 308.421 612.513 309.202 611.219C309.98 609.923 310.444 608.464 310.553 606.956C310.553 604.287 308.485 603.274 306.064 604.7L264.679 628.642C263.401 629.44 262.329 630.528 261.548 631.82C260.768 633.109 260.303 634.566 260.19 636.07Z" fill="#E0E0E0"/>
<path d="M243.39 663.423V666.9C243.39 668.618 244.59 669.321 246.079 668.452L249.101 666.714C249.884 666.203 250.534 665.515 251.003 664.708C251.47 663.899 251.74 662.99 251.79 662.057V658.623C251.79 656.904 250.59 656.201 249.101 657.07L246.079 658.808C245.302 659.315 244.655 659.996 244.186 660.796C243.719 661.599 243.447 662.497 243.39 663.423Z" fill="#FAFAFA"/>
<path d="M260.19 655.479C260.19 658.148 262.26 659.161 264.679 657.734L306.064 633.793C307.342 632.994 308.417 631.906 309.195 630.615C309.976 629.326 310.442 627.869 310.553 626.365C310.553 623.676 308.485 622.661 306.064 624.089L264.679 648.029C263.399 648.829 262.324 649.922 261.544 651.215C260.763 652.511 260.299 653.971 260.19 655.479Z" fill="#E0E0E0"/>
<path d="M243.39 682.812V686.309C243.39 688.027 244.59 688.73 246.079 687.861L249.101 686.123C249.884 685.612 250.534 684.926 251.003 684.117C251.47 683.308 251.74 682.399 251.79 681.466V677.97C251.79 676.252 250.59 675.548 249.101 676.417L246.079 678.156C245.296 678.666 244.646 679.354 244.177 680.161C243.71 680.971 243.441 681.879 243.39 682.812Z" fill="#FAFAFA"/>
<path d="M260.19 674.867C260.19 677.537 262.26 678.549 264.679 677.121L306.064 653.181C307.342 652.383 308.417 651.295 309.195 650.004C309.976 648.712 310.442 647.257 310.553 645.753C310.553 643.062 308.485 642.05 306.064 643.478L264.679 667.418C263.399 668.218 262.324 669.31 261.544 670.604C260.763 671.898 260.299 673.359 260.19 674.867Z" fill="#E0E0E0"/>
<path d="M546.336 393.543V398.344C546.336 401.199 548.406 402.357 550.805 400.909L667.94 332.75C669.24 331.892 670.321 330.742 671.098 329.391C671.874 328.04 672.323 326.525 672.409 324.971V320.833C672.409 317.956 670.341 316.798 667.92 318.246L550.805 385.846C549.509 386.688 548.43 387.825 547.654 389.163C546.878 390.498 546.427 392 546.336 393.543Z" fill="#E0E0E0"/>
<path d="M550.805 414.918L684.741 337.593C687.205 336.164 689.21 337.179 689.21 339.848C689.102 341.352 688.642 342.812 687.866 344.105C687.09 345.399 686.019 346.493 684.741 347.296L550.805 424.601C548.344 426.049 546.336 425.015 546.336 422.345C546.44 420.842 546.9 419.385 547.678 418.093C548.454 416.804 549.527 415.714 550.805 414.918Z" fill="#EBEBEB"/>
<path d="M550.805 434.304L684.741 356.981C687.205 355.553 689.21 356.566 689.21 359.257C689.1 360.758 688.638 362.213 687.862 363.503C687.085 364.792 686.017 365.882 684.741 366.685L550.805 444.009C548.344 445.438 546.336 444.423 546.336 441.754C546.442 440.248 546.9 438.789 547.678 437.495C548.454 436.199 549.527 435.107 550.805 434.304Z" fill="#EBEBEB"/>
<path d="M550.805 453.776L684.741 376.39C687.205 374.961 689.21 375.976 689.21 378.645C689.102 380.149 688.642 381.608 687.866 382.902C687.09 384.196 686.019 385.29 684.741 386.093L550.805 463.418C548.344 464.846 546.336 463.831 546.336 461.142C546.451 459.65 546.918 458.206 547.694 456.928C548.47 455.647 549.536 454.568 550.805 453.776Z" fill="#EBEBEB"/>
<path d="M550.805 473.102L684.741 395.841C687.205 394.412 689.21 395.425 689.21 398.116C689.1 399.618 688.638 401.073 687.862 402.362C687.085 403.651 686.017 404.741 684.741 405.544L550.805 482.745C548.344 484.171 546.336 483.158 546.336 480.489C546.451 478.995 546.915 477.546 547.691 476.264C548.468 474.981 549.533 473.898 550.805 473.102Z" fill="#EBEBEB"/>
<path d="M550.805 492.51L684.741 415.185C687.205 413.759 689.21 414.772 689.21 417.441C689.102 418.947 688.642 420.406 687.866 421.7C687.09 422.993 686.019 424.086 684.741 424.891L550.805 502.215C548.344 503.642 546.336 502.629 546.336 499.94C546.442 498.436 546.904 496.979 547.68 495.69C548.457 494.398 549.527 493.308 550.805 492.51Z" fill="#EBEBEB"/>
<path d="M550.805 511.899L684.741 434.574C687.205 433.148 689.21 434.161 689.21 436.85C689.1 438.351 688.638 439.806 687.862 441.098C687.085 442.387 686.017 443.477 684.741 444.28L550.805 521.604C548.344 523.031 546.336 522.018 546.336 519.349C546.442 517.843 546.9 516.384 547.678 515.088C548.454 513.794 549.527 512.702 550.805 511.899Z" fill="#EBEBEB"/>
<path d="M550.805 531.307L684.741 453.983C687.205 452.556 689.21 453.569 689.21 456.238C689.102 457.744 688.642 459.201 687.866 460.497C687.09 461.791 686.019 462.883 684.741 463.688L550.805 541.013C548.344 542.439 546.336 541.426 546.336 538.735C546.442 537.234 546.904 535.776 547.68 534.487C548.457 533.196 549.527 532.106 550.805 531.307Z" fill="#EBEBEB"/>
<path d="M550.805 550.696L684.741 473.371C687.205 471.943 689.21 472.958 689.21 475.647C689.1 477.148 688.638 478.603 687.862 479.892C687.085 481.184 686.017 482.274 684.741 483.074L550.805 560.399C548.344 561.828 546.336 560.813 546.336 558.144C546.442 556.638 546.9 555.178 547.678 553.885C548.454 552.589 549.527 551.496 550.805 550.696Z" fill="#EBEBEB"/>
<path d="M349.083 502.255L524.961 400.661C527.422 399.233 529.43 400.391 529.43 403.246V577.304C529.344 578.857 528.895 580.369 528.118 581.716C527.342 583.065 526.261 584.21 524.961 585.064L349.083 686.66C346.619 688.088 344.611 686.93 344.611 684.073V510.014C344.698 508.462 345.146 506.952 345.923 505.603C346.699 504.256 347.78 503.109 349.083 502.255Z" fill="#F0F0F0"/>
<path d="M480.432 499.4L451.03 551.441L471.721 578.216L403.439 519.388L344.611 646.766V684.011C344.611 686.868 346.681 688.027 349.083 686.598L524.961 585.002C526.261 584.149 527.342 583.003 528.118 581.654C528.895 580.307 529.344 578.795 529.43 577.243V544.137L480.432 499.4Z" fill="#E0E0E0"/>
<path d="M487.488 445.871C494.811 441.63 500.731 445.064 500.731 453.507C500.483 458.106 499.157 462.584 496.855 466.573C494.555 470.565 491.344 473.957 487.488 476.476C480.164 480.613 474.244 477.261 474.244 468.818C474.492 464.223 475.819 459.747 478.121 455.76C480.42 451.773 483.631 448.385 487.488 445.871Z" fill="#E0E0E0"/>
<path d="M231.409 414.918L684.741 153.189C687.204 151.761 689.21 152.92 689.21 155.775V203.656C689.126 205.211 688.675 206.725 687.896 208.073C687.116 209.422 686.028 210.567 684.721 211.415L231.409 473.143C228.947 474.572 226.939 473.413 226.939 470.556V422.739C227.012 421.173 227.455 419.65 228.231 418.29C229.009 416.93 230.097 415.773 231.409 414.918Z" fill="#E0E0E0"/>
<path d="M521.111 272.6V280.877C521.111 282.593 522.312 283.276 523.802 282.427L655.587 206.345V191.861L523.802 267.965C523.022 268.472 522.37 269.155 521.903 269.96C521.434 270.765 521.164 271.669 521.111 272.6Z" fill="#FAFAFA"/>
<path d="M669.719 183.688C671.188 182.84 672.408 183.523 672.408 185.24V193.516C672.353 194.448 672.081 195.354 671.614 196.163C671.148 196.971 670.498 197.659 669.719 198.172L655.587 206.325V191.841L669.719 183.688Z" fill="#EBEBEB"/>
<path d="M668.665 195.131L667.093 194.634C667.259 193.957 667.343 193.262 667.341 192.565C667.411 191.927 667.316 191.283 667.066 190.692C666.816 190.102 666.418 189.585 665.912 189.192C665.556 189 665.151 188.911 664.747 188.932C664.342 188.954 663.951 189.087 663.617 189.316C662.617 190.084 661.81 191.075 661.264 192.211C660.718 193.347 660.446 194.595 660.47 195.855C660.399 196.492 660.494 197.137 660.744 197.728C660.994 198.318 661.392 198.835 661.899 199.228C662.202 199.399 662.544 199.492 662.891 199.496C663.354 199.492 663.807 199.355 664.196 199.103C665.395 198.284 666.29 197.091 666.741 195.71L668.314 196.206H668.499C668.623 196.204 668.745 196.163 668.844 196.089C668.944 196.015 669.019 195.911 669.059 195.793C669.085 195.653 669.059 195.509 668.988 195.387C668.915 195.265 668.8 195.174 668.665 195.131ZM663.617 198.131C663.457 198.257 663.265 198.335 663.064 198.357C662.863 198.379 662.659 198.343 662.478 198.255C662.162 197.956 661.918 197.587 661.773 197.177C661.624 196.767 661.576 196.328 661.629 195.896C661.613 194.839 661.837 193.791 662.281 192.831C662.726 191.871 663.38 191.024 664.196 190.351C664.408 190.224 664.652 190.153 664.899 190.144C665.05 190.136 665.202 190.172 665.333 190.247C665.649 190.546 665.892 190.916 666.038 191.325C666.186 191.735 666.235 192.174 666.182 192.606C666.202 193.664 665.981 194.713 665.536 195.674C665.092 196.634 664.435 197.482 663.617 198.152V198.131Z" fill="#FAFAFA"/>
<path d="M344.611 422.739V480.262C344.611 483.116 346.681 484.275 349.083 482.849L684.741 289.05C686.041 288.197 687.124 287.051 687.901 285.702C688.677 284.356 689.126 282.843 689.21 281.291V223.706C689.21 220.851 687.142 219.692 684.721 221.12L349.083 414.918C347.771 415.773 346.681 416.93 345.905 418.29C345.129 419.65 344.684 421.173 344.611 422.739Z" fill="#EBEBEB"/>
<path d="M306.788 842.033C305.554 841.179 304.537 840.047 303.818 838.729C303.099 837.409 302.699 835.941 302.65 834.439V408.193C302.73 406.639 303.177 405.126 303.955 403.777C304.731 402.428 305.815 401.283 307.119 400.434L793.973 119.275C795.269 118.463 796.761 118.018 798.289 117.99C799.82 117.961 801.328 118.35 802.652 119.113C803.977 119.877 805.069 120.987 805.812 122.324C806.553 123.661 806.918 125.175 806.865 126.704V553.095C806.779 554.65 806.33 556.16 805.553 557.509C804.777 558.856 803.696 560.001 802.393 560.855L315.396 841.889C314.074 842.586 312.606 842.959 311.111 842.986C309.614 843.01 308.134 842.685 306.788 842.033Z" fill="#00AEEF"/>
<path opacity="0.4" d="M806.823 125.98C806.511 123.662 804.629 122.814 802.394 124.117L315.396 405.235C314.083 406.075 312.995 407.227 312.23 408.587L303.829 403.724C304.623 402.349 305.755 401.203 307.12 400.392L793.993 119.276C795.227 118.463 796.655 117.995 798.13 117.92C799.605 117.846 801.074 118.167 802.383 118.851C803.692 119.535 804.793 120.557 805.574 121.81C806.354 123.064 806.785 124.503 806.823 125.98Z" fill="white"/>
<path d="M314.609 842.261H314.423C314.286 842.334 314.14 842.391 313.99 842.426L313.658 842.53C313.457 842.603 313.249 842.652 313.037 842.676C312.9 842.696 312.76 842.696 312.623 842.676L311.94 842.778C310.173 843.021 308.373 842.71 306.788 841.889C305.552 841.038 304.53 839.906 303.811 838.588C303.093 837.267 302.695 835.797 302.65 834.295V461.205L311.071 466.067V839.282C311.071 841.352 312.086 842.488 313.554 842.488C313.753 842.517 313.957 842.517 314.156 842.488L314.609 842.261Z" fill="#F0F0F0"/>
<path opacity="0.1" d="M312.291 408.587C311.488 409.921 311.039 411.437 310.989 412.994V466.068L302.568 461.205V408.255C302.557 408.076 302.557 407.897 302.568 407.718C302.608 407.342 302.672 406.968 302.754 406.599C302.997 405.628 303.373 404.695 303.87 403.826L312.291 408.587Z" fill="black"/>
<path d="M806.865 126.703V150.644L449.892 356.712C447.429 358.14 445.423 356.981 445.423 354.124V345.062C445.423 342.208 443.353 341.049 440.932 342.475L332.24 405.234C330.933 406.081 329.845 407.227 329.064 408.575C328.284 409.924 327.833 411.437 327.749 412.994V422.056C327.664 423.608 327.216 425.12 326.439 426.467C325.663 427.816 324.58 428.961 323.279 429.815L310.865 436.933V412.994C310.949 411.439 311.398 409.929 312.174 408.58C312.953 407.233 314.034 406.086 315.334 405.234L802.393 124.117C804.857 122.71 806.865 123.848 806.865 126.703Z" fill="#00AEEF"/>
<path d="M806.885 553.096C806.801 554.652 806.35 556.165 805.57 557.514C804.789 558.863 803.701 560.008 802.394 560.855L315.397 841.87C312.936 843.296 310.928 842.137 310.928 839.282V436.934L323.342 429.815C325.805 428.387 329.819 406.661 332.302 405.235L439.174 343.511C441.658 342.082 447.451 358.141 449.955 356.712L806.885 150.644V553.096Z" fill="#FAFAFA"/>
<path d="M332.28 541.095L424.173 488.041C426.656 486.615 428.662 487.773 428.662 490.628V752.026C428.578 753.581 428.127 755.093 427.348 756.442C426.568 757.791 425.48 758.937 424.173 759.784L332.28 812.859C329.799 814.285 327.791 813.127 327.791 810.272V548.958C327.86 547.384 328.302 545.849 329.082 544.482C329.865 543.114 330.96 541.953 332.28 541.095Z" fill="#F0F0F0"/>
<path d="M349.083 550.798L407.37 517.155C409.854 515.726 411.839 516.739 411.839 519.43C411.733 520.934 411.271 522.389 410.495 523.68C409.719 524.972 408.648 526.06 407.37 526.858L349.083 560.523C346.619 561.951 344.611 560.916 344.611 558.247C344.722 556.742 345.182 555.284 345.958 553.991C346.734 552.695 347.804 551.602 349.083 550.798Z" fill="#E0E0E0"/>
<path d="M344.611 575.856V579.355C344.611 581.051 345.812 581.754 347.302 580.905L350.323 579.147C351.108 578.638 351.76 577.951 352.227 577.141C352.696 576.332 352.963 575.425 353.012 574.492V570.994C353.012 569.278 351.814 568.595 350.323 569.442L347.302 571.202C346.517 571.71 345.865 572.396 345.399 573.205C344.93 574.014 344.662 574.923 344.611 575.856Z" fill="#00AEEF"/>
<path d="M361.413 567.953C361.413 570.642 363.483 571.657 365.904 570.229L407.287 546.267C408.563 545.467 409.631 544.377 410.407 543.085C411.183 541.796 411.645 540.341 411.758 538.839C411.758 536.151 409.688 535.136 407.287 536.564L365.904 560.504C364.622 561.304 363.547 562.396 362.766 563.69C361.988 564.986 361.524 566.445 361.413 567.953Z" fill="#E0E0E0"/>
<path d="M344.611 595.349V598.845C344.611 600.541 345.812 601.246 347.302 600.397L350.323 598.639C351.108 598.13 351.76 597.443 352.227 596.633C352.696 595.824 352.963 594.915 353.012 593.982V590.486C353.012 588.768 351.814 588.084 350.323 588.934L347.302 590.692C346.517 591.2 345.865 591.888 345.399 592.697C344.93 593.507 344.662 594.415 344.611 595.349Z" fill="#00AEEF"/>
<path d="M361.413 587.381C361.413 590.072 363.483 591.085 365.904 589.659L407.287 565.697C408.563 564.894 409.631 563.804 410.407 562.515C411.183 561.224 411.645 559.771 411.758 558.269C411.758 555.578 409.688 554.565 407.287 555.992L365.904 579.933C364.622 580.734 363.547 581.824 362.766 583.12C361.988 584.414 361.524 585.875 361.413 587.381Z" fill="#E0E0E0"/>
<path d="M344.611 614.735V618.234C344.611 619.95 345.812 620.633 347.302 619.786L350.323 618.048C351.104 617.535 351.754 616.847 352.22 616.038C352.687 615.231 352.959 614.324 353.012 613.391V609.875C353.012 608.177 351.814 607.473 350.323 608.323L347.302 610.081C346.517 610.589 345.865 611.277 345.399 612.086C344.93 612.896 344.662 613.802 344.611 614.735Z" fill="#00AEEF"/>
<path d="M361.413 606.77C361.413 609.459 363.483 610.474 365.904 609.045L407.287 585.106C408.565 584.301 409.635 583.209 410.411 581.915C411.187 580.619 411.647 579.162 411.758 577.656C411.758 574.987 409.688 573.974 407.287 575.401L365.904 599.342C364.624 600.141 363.551 601.228 362.771 602.52C361.992 603.809 361.526 605.266 361.413 606.77Z" fill="#E0E0E0"/>
<path d="M344.611 634.124V637.62C344.611 639.339 345.812 640.042 347.302 639.173L350.323 637.435C351.104 636.924 351.754 636.236 352.22 635.427C352.687 634.618 352.959 633.711 353.012 632.78V629.262C353.012 627.566 351.814 626.863 350.323 627.709L347.302 629.47C346.517 629.978 345.865 630.664 345.399 631.473C344.93 632.282 344.662 633.191 344.611 634.124Z" fill="#00AEEF"/>
<path d="M361.413 626.159C361.413 628.848 363.483 629.863 365.904 628.434L407.287 604.495C408.565 603.69 409.635 602.597 410.411 601.301C411.187 600.008 411.647 598.551 411.758 597.045C411.758 594.376 409.688 593.361 407.287 594.789L365.904 618.729C364.624 619.527 363.551 620.617 362.771 621.906C361.992 623.198 361.526 624.655 361.413 626.159Z" fill="#E0E0E0"/>
<path d="M348.729 657.754L407.019 624.109C409.48 622.683 411.488 623.695 411.488 626.387C411.375 627.888 410.913 629.341 410.137 630.632C409.361 631.921 408.292 633.012 407.019 633.814L348.729 667.459C346.248 668.885 344.26 667.873 344.26 665.204C344.368 663.698 344.83 662.241 345.606 660.945C346.383 659.651 347.453 658.559 348.729 657.754Z" fill="#E0E0E0"/>
<path d="M344.363 682.852V686.351C344.363 688.067 345.564 688.77 347.032 687.901L350.075 686.163C350.858 685.654 351.51 684.969 351.979 684.159C352.446 683.35 352.715 682.441 352.764 681.508V678.012C352.764 676.294 351.563 675.59 350.075 676.459L347.032 678.198C346.256 678.713 345.613 679.403 345.148 680.21C344.686 681.019 344.416 681.924 344.363 682.852Z" fill="#00AEEF"/>
<path d="M361.062 674.907C361.062 677.576 363.131 678.591 365.533 677.163L407.019 653.223C408.293 652.42 409.361 651.33 410.137 650.041C410.913 648.75 411.375 647.295 411.488 645.793C411.488 643.104 409.418 642.091 407.019 643.518L365.533 667.457C364.255 668.262 363.184 669.354 362.408 670.65C361.632 671.944 361.172 673.401 361.062 674.907Z" fill="#E0E0E0"/>
<path d="M344.363 702.283V705.779C344.363 707.497 345.564 708.2 347.032 707.331L350.075 705.593C350.858 705.084 351.51 704.397 351.979 703.587C352.446 702.78 352.715 701.871 352.764 700.938V697.44C352.764 695.724 351.563 695.019 350.075 695.888L347.032 697.626C346.256 698.143 345.613 698.831 345.148 699.64C344.686 700.447 344.416 701.352 344.363 702.283Z" fill="#00AEEF"/>
<path d="M361.062 694.338C361.062 697.007 363.131 698.02 365.533 696.593L407.019 672.651C408.293 671.851 409.361 670.761 410.137 669.469C410.913 668.18 411.375 666.725 411.488 665.224C411.488 662.535 409.418 661.52 407.019 662.948L365.533 686.888C364.255 687.693 363.184 688.785 362.408 690.079C361.632 691.372 361.172 692.832 361.062 694.338Z" fill="#E0E0E0"/>
<path d="M344.363 721.692V725.188C344.363 726.906 345.564 727.589 347.032 726.74L350.075 724.982C350.858 724.474 351.51 723.786 351.979 722.977C352.446 722.167 352.715 721.258 352.764 720.325V716.829C352.764 715.111 351.563 714.428 350.075 715.277L347.032 717.035C346.254 717.548 345.606 718.236 345.142 719.045C344.679 719.854 344.412 720.761 344.363 721.692Z" fill="#00AEEF"/>
<path d="M361.062 713.724C361.062 716.416 363.131 717.428 365.533 716.002L407.019 692.06C408.295 691.258 409.365 690.163 410.141 688.869C410.918 687.576 411.38 686.116 411.488 684.613C411.488 681.944 409.418 680.929 407.019 682.357L365.533 706.215C364.246 707.024 363.171 708.128 362.395 709.432C361.619 710.737 361.161 712.21 361.062 713.724Z" fill="#E0E0E0"/>
<path d="M344.363 741.081V744.577C344.363 746.295 345.564 746.976 347.032 746.129L350.075 744.369C350.858 743.862 351.51 743.175 351.979 742.365C352.446 741.556 352.715 740.647 352.764 739.714V736.218C352.764 734.5 351.563 733.816 350.075 734.666L347.032 736.424C346.254 736.937 345.606 737.624 345.142 738.434C344.679 739.243 344.412 740.15 344.363 741.081Z" fill="#00AEEF"/>
<path d="M361.062 733.113C361.062 735.802 363.131 736.817 365.533 735.389L407.019 711.449C408.295 710.644 409.365 709.552 410.141 708.258C410.918 706.965 411.38 705.505 411.488 703.999C411.488 701.33 409.418 700.317 407.019 701.744L365.533 725.686C364.257 726.488 363.189 727.576 362.413 728.868C361.636 730.157 361.174 731.612 361.062 733.113Z" fill="#E0E0E0"/>
<path d="M647.187 451.811V456.612C647.187 459.467 649.256 460.625 651.656 459.177L768.79 390.894C770.091 390.041 771.174 388.895 771.95 387.546C772.727 386.2 773.175 384.687 773.259 383.135V378.997C773.259 376.14 771.192 374.982 768.79 376.41L651.675 444.029C650.366 444.881 649.278 446.028 648.498 447.382C647.717 448.733 647.268 450.252 647.187 451.811Z" fill="#00AEEF"/>
<path d="M651.675 473.163L785.592 395.841C788.075 394.412 790.083 395.425 790.083 398.116C789.97 399.62 789.506 401.075 788.725 402.366C787.945 403.658 786.872 404.746 785.592 405.544L651.675 482.869C649.194 484.297 647.187 483.282 647.187 480.613C647.295 479.105 647.759 477.646 648.54 476.352C649.32 475.056 650.395 473.964 651.675 473.163Z" fill="#E6E6E6"/>
<path d="M651.675 492.572L785.592 415.247C788.075 413.821 790.083 414.834 790.083 417.503C789.972 419.011 789.51 420.47 788.73 421.766C787.949 423.06 786.874 424.152 785.592 424.953L651.675 502.277C649.194 503.706 647.187 502.691 647.187 500.002C647.299 498.498 647.764 497.041 648.544 495.75C649.325 494.46 650.397 493.37 651.675 492.572Z" fill="#E6E6E6"/>
<path d="M651.675 511.961L785.592 434.636C788.075 433.209 790.083 434.222 790.083 436.913C789.97 438.417 789.506 439.872 788.725 441.163C787.945 442.453 786.872 443.543 785.592 444.341L651.675 521.666C649.194 523.092 647.187 522.079 647.187 519.41C647.295 517.902 647.759 516.443 648.54 515.147C649.32 513.853 650.395 512.761 651.675 511.961Z" fill="#E6E6E6"/>
<path d="M651.675 531.369L785.592 454.045C788.075 452.618 790.083 453.631 790.083 456.3C789.972 457.808 789.51 459.268 788.73 460.563C787.949 461.857 786.874 462.949 785.592 463.75L651.675 541.075C649.194 542.501 647.187 541.488 647.187 538.799C647.299 537.293 647.764 535.838 648.544 534.547C649.325 533.258 650.397 532.168 651.675 531.369Z" fill="#E6E6E6"/>
<path d="M651.675 550.758L785.592 473.433C788.075 472.005 790.083 473.02 790.083 475.709C789.97 477.212 789.506 478.67 788.725 479.959C787.945 481.25 786.872 482.338 785.592 483.136L651.675 560.461C649.194 561.89 647.187 560.875 647.187 558.206C647.295 556.7 647.759 555.238 648.54 553.944C649.32 552.651 650.395 551.558 651.675 550.758Z" fill="#E6E6E6"/>
<path d="M651.675 570.166L785.592 492.841C788.075 491.413 790.083 492.428 790.083 495.097C789.972 496.605 789.51 498.065 788.73 499.358C787.949 500.654 786.874 501.746 785.592 502.547L651.675 579.87C649.194 581.298 647.187 580.285 647.187 577.594C647.299 576.09 647.764 574.635 648.544 573.344C649.325 572.053 650.397 570.965 651.675 570.166Z" fill="#E6E6E6"/>
<path d="M651.675 589.555L785.592 512.231C788.075 510.802 790.083 511.817 790.083 514.506C789.97 516.01 789.506 517.467 788.725 518.756C787.945 520.047 786.872 521.135 785.592 521.934L651.675 599.259C649.194 600.687 647.187 599.672 647.187 597.003C647.295 595.497 647.759 594.035 648.54 592.742C649.32 591.448 650.395 590.356 651.675 589.555Z" fill="#E6E6E6"/>
<path d="M651.675 608.964L785.592 531.639C788.075 530.21 790.083 531.225 790.083 533.894C789.972 535.4 789.51 536.862 788.73 538.156C787.949 539.449 786.874 540.542 785.592 541.342L651.675 618.667C649.194 620.095 647.187 619.08 647.187 616.391C647.299 614.888 647.764 613.43 648.544 612.141C649.325 610.85 650.397 609.762 651.675 608.964Z" fill="#E6E6E6"/>
<path d="M449.892 560.503L625.77 458.929C628.253 457.501 630.261 458.659 630.261 461.514V635.572C630.177 637.129 629.726 638.642 628.945 639.991C628.165 641.339 627.077 642.483 625.77 643.332L449.892 744.908C447.408 746.334 445.4 745.176 445.4 742.321V568.263C445.487 566.708 445.936 565.193 446.716 563.844C447.497 562.498 448.585 561.352 449.892 560.503Z" fill="#00AEEF"/>
<path opacity="0.8" d="M449.892 560.503L625.77 458.929C628.253 457.501 630.261 458.659 630.261 461.514V635.572C630.177 637.129 629.726 638.642 628.945 639.991C628.165 641.339 627.077 642.483 625.77 643.332L449.892 744.908C447.408 746.334 445.4 745.176 445.4 742.321V568.263C445.487 566.708 445.936 565.193 446.716 563.844C447.497 562.498 448.585 561.352 449.892 560.503Z" fill="white"/>
<path d="M581.305 557.668L551.902 609.687L572.593 636.484L504.31 577.656L445.463 705.034V742.279C445.463 745.136 447.533 746.295 449.954 744.866L625.832 643.29C627.139 642.443 628.227 641.298 629.008 639.949C629.788 638.6 630.239 637.087 630.323 635.531V602.425L581.305 557.668Z" fill="#00AEEF"/>
<path d="M588.359 504.119C595.663 499.979 601.603 503.312 601.603 511.775C601.351 516.37 600.022 520.843 597.722 524.83C595.42 528.815 592.213 532.205 588.359 534.721C581.035 538.963 575.096 535.528 575.096 527.086C575.343 522.484 576.675 518.006 578.979 514.015C581.283 510.023 584.498 506.633 588.359 504.119Z" fill="#00AEEF"/>
<path d="M332.28 473.164L785.593 211.436C788.076 210.009 790.084 211.167 790.084 214.023V261.925C790.002 263.477 789.555 264.992 788.779 266.339C788.003 267.687 786.917 268.833 785.615 269.684L332.28 531.392C329.799 532.818 327.791 531.659 327.791 528.805V480.923C327.875 479.369 328.326 477.854 329.107 476.507C329.887 475.159 330.975 474.013 332.28 473.164Z" fill="#090E47"/>
<path d="M621.962 330.846V339.123C621.962 340.822 623.185 341.525 624.653 340.676L756.458 264.571V250.087L624.653 326.172C623.87 326.687 623.22 327.377 622.753 328.191C622.285 329.002 622.015 329.911 621.962 330.846Z" fill="#FAFAFA"/>
<path d="M770.613 241.956C772.101 241.087 773.302 241.791 773.302 243.509V251.786C773.253 252.719 772.983 253.626 772.516 254.435C772.048 255.244 771.395 255.932 770.613 256.441L756.5 264.594V250.11L770.613 241.956Z" fill="#00AEEF"/>
<path d="M769.534 253.398L767.962 252.902C768.121 252.223 768.203 251.529 768.21 250.833C768.281 250.196 768.185 249.552 767.931 248.964C767.677 248.378 767.274 247.865 766.761 247.48C766.405 247.29 766.003 247.199 765.6 247.217C765.196 247.237 764.804 247.363 764.466 247.584C763.462 248.354 762.655 249.349 762.109 250.488C761.563 251.629 761.293 252.88 761.319 254.143C761.249 254.78 761.346 255.423 761.6 256.011C761.854 256.6 762.257 257.11 762.768 257.495C763.068 257.676 763.411 257.769 763.761 257.765C764.221 257.754 764.669 257.626 765.065 257.391C766.259 256.56 767.153 255.361 767.61 253.977L769.183 254.475H769.349C769.472 254.481 769.594 254.444 769.696 254.373C769.795 254.302 769.87 254.2 769.908 254.081C769.941 253.942 769.921 253.793 769.853 253.667C769.784 253.541 769.671 253.446 769.534 253.398ZM764.404 256.42C764.236 256.524 764.041 256.58 763.845 256.58C763.648 256.58 763.453 256.524 763.285 256.42C762.969 256.124 762.728 255.759 762.58 255.352C762.432 254.946 762.383 254.51 762.438 254.081C762.421 253.024 762.642 251.976 763.086 251.016C763.531 250.056 764.185 249.207 765.003 248.537C765.213 248.402 765.457 248.323 765.707 248.309C765.855 248.307 765.998 248.351 766.12 248.433C766.441 248.725 766.686 249.09 766.834 249.497C766.982 249.904 767.029 250.342 766.969 250.771C767.007 251.847 766.794 252.916 766.348 253.897C765.903 254.877 765.238 255.739 764.404 256.42Z" fill="#FAFAFA"/>
<path d="M445.463 480.923V538.611C445.463 541.468 447.533 542.627 449.954 541.198L785.592 347.422C786.899 346.573 787.987 345.427 788.768 344.078C789.548 342.732 789.999 341.217 790.083 339.662V282.036C790.083 279.179 788.014 278.02 785.592 279.449L449.892 473.163C448.596 474.019 447.522 475.167 446.752 476.515C445.983 477.862 445.542 479.372 445.463 480.923Z" fill="#00AEEF"/>
<path opacity="0.7" d="M445.463 480.923V538.611C445.463 541.468 447.533 542.627 449.954 541.198L785.592 347.422C786.899 346.573 787.987 345.427 788.768 344.078C789.548 342.732 789.999 341.217 790.083 339.662V282.036C790.083 279.179 788.014 278.02 785.592 279.449L449.892 473.163C448.596 474.019 447.522 475.167 446.752 476.515C445.983 477.862 445.542 479.372 445.463 480.923Z" fill="white"/>
<path d="M806.864 150.644V179.778L310.988 466.068V436.934L320.196 431.596C322.657 430.167 323.487 427.996 324.665 423.836L327.79 412.994C328.783 409.228 329.86 406.661 332.281 405.235L439.153 343.511C441.634 342.082 443.58 341.938 445.462 345.063L449.292 352.015C450.698 354.437 451.36 355.863 453.863 354.437L806.864 150.644Z" fill="#E6E6E6"/>
<path d="M785.842 141.725C788.966 139.925 791.49 141.374 791.49 144.974C791.386 146.932 790.822 148.838 789.84 150.536C788.858 152.234 787.487 153.674 785.842 154.741C782.737 156.541 780.212 155.072 780.212 151.492C780.314 149.535 780.877 147.631 781.855 145.933C782.832 144.236 784.199 142.794 785.842 141.725Z" fill="white"/>
<path d="M765.564 153.416C768.666 151.616 771.192 153.085 771.192 156.685C771.088 158.638 770.524 160.539 769.544 162.233C768.567 163.926 767.203 165.365 765.564 166.431C762.439 168.231 759.914 166.783 759.914 163.182C760.018 161.224 760.584 159.318 761.566 157.621C762.548 155.923 763.917 154.482 765.564 153.416Z" fill="white"/>
<path d="M749.237 173.932C751.437 170.122 751.44 166.005 749.244 164.736C747.046 163.468 743.481 165.528 741.281 169.338C739.083 173.149 739.081 177.266 741.276 178.534C743.474 179.803 747.039 177.742 749.237 173.932Z" fill="white"/>
<path opacity="0.5" d="M331.537 439.023L324.501 443.16L327.192 438.008C327.296 437.816 327.351 437.599 327.351 437.378C327.351 437.157 327.296 436.94 327.192 436.748C326.984 436.498 326.613 436.748 326.385 437.139L322.577 444.465C322.577 444.465 322.577 444.631 322.473 444.735C322.369 444.837 322.473 444.735 322.473 444.735C322.453 444.857 322.453 444.983 322.473 445.106C322.451 445.215 322.451 445.328 322.473 445.438L322.577 445.582L326.385 448.501C326.438 448.541 326.504 448.563 326.571 448.563C326.637 448.563 326.703 448.541 326.756 448.501C326.957 448.373 327.11 448.185 327.192 447.961C327.302 447.782 327.362 447.574 327.362 447.362C327.362 447.15 327.302 446.942 327.192 446.763L324.501 444.693L331.537 440.553C331.718 440.416 331.867 440.239 331.968 440.034C332.068 439.828 332.119 439.602 332.116 439.375C332.116 439.085 331.951 438.857 331.537 439.023Z" fill="#090E47"/>
<path opacity="0.5" d="M337.412 435.629L344.448 431.491L341.757 429.422C341.529 429.256 341.509 428.718 341.757 428.243C342.005 427.768 342.317 427.518 342.544 427.684L346.372 430.622C346.416 430.662 346.452 430.711 346.476 430.766C346.487 430.87 346.487 430.974 346.476 431.078C346.485 431.208 346.485 431.339 346.476 431.472C346.454 431.564 346.418 431.655 346.372 431.739L342.502 439.293C342.423 439.47 342.294 439.622 342.131 439.726C342.102 439.755 342.071 439.775 342.036 439.79C342 439.806 341.96 439.813 341.923 439.813C341.885 439.813 341.845 439.806 341.81 439.79C341.775 439.775 341.744 439.755 341.715 439.726C341.609 439.536 341.554 439.324 341.554 439.105C341.554 438.888 341.609 438.674 341.715 438.486L344.406 433.311L337.37 437.451C337.06 437.617 336.813 437.451 336.813 436.891C336.804 436.648 336.852 436.407 336.956 436.186C337.062 435.967 337.217 435.777 337.412 435.629Z" fill="#090E47"/>
<path opacity="0.5" d="M360.482 415.393C360.482 414.957 360.069 415.021 359.883 415.393L358.932 417.752C357.276 417.564 355.29 419.179 353.946 422.014C352.206 425.698 352.206 430.063 353.946 431.739C354.368 432.135 354.917 432.369 355.494 432.405C356.073 432.438 356.644 432.267 357.11 431.925C358.51 430.985 359.605 429.654 360.255 428.097C360.37 427.911 360.429 427.697 360.429 427.478C360.429 427.259 360.37 427.044 360.255 426.856C360.049 426.649 359.675 426.856 359.47 427.332C358.165 430.085 356.055 431.306 354.751 430.043C353.448 428.78 353.448 425.532 354.751 422.779C355.662 420.835 357.006 419.676 358.165 419.592L357.442 421.372C357.256 421.828 357.442 422.263 357.712 422.076L360.586 420.194C360.701 420.099 360.79 419.977 360.843 419.84C360.898 419.703 360.916 419.555 360.898 419.406L360.482 415.393Z" fill="#090E47"/>
<path opacity="0.5" d="M436.069 356.816L438.636 351.394C438.791 351.137 438.873 350.846 438.873 350.545C438.873 350.246 438.791 349.952 438.636 349.698C438.324 349.408 437.849 349.698 437.539 350.339L434.972 355.759L432.407 353.298C432.117 353.008 431.62 353.298 431.31 353.919C431.166 354.178 431.089 354.47 431.089 354.766C431.089 355.065 431.166 355.357 431.31 355.615L433.875 358.077L431.268 363.519C431.124 363.775 431.047 364.063 431.047 364.357C431.047 364.651 431.124 364.94 431.268 365.195C431.35 365.257 431.447 365.292 431.549 365.292C431.648 365.292 431.748 365.257 431.827 365.195C432.062 365.027 432.248 364.797 432.365 364.534L434.932 359.092L437.497 361.575C437.575 361.639 437.674 361.677 437.776 361.677C437.878 361.677 437.977 361.639 438.057 361.575C438.3 361.416 438.488 361.183 438.594 360.911C438.749 360.657 438.831 360.363 438.831 360.064C438.831 359.764 438.749 359.472 438.594 359.215L436.069 356.816Z" fill="#090E47"/>
<path d="M369.814 422.056V412.992C369.901 411.437 370.35 409.925 371.13 408.576C371.911 407.227 372.999 406.081 374.306 405.235L777.172 172.763C779.633 171.335 781.641 172.494 781.641 175.35V184.413C781.555 185.966 781.106 187.477 780.329 188.824C779.553 190.172 778.472 191.319 777.172 192.172L374.306 424.643C371.822 426.069 369.814 424.911 369.814 422.056Z" fill="#FAFAFA"/>
<path d="M771.068 192.855C770.938 192.876 770.805 192.876 770.675 192.855C770.423 192.739 770.217 192.54 770.093 192.292C769.969 192.043 769.934 191.76 769.992 191.489L770.447 187.806L768.709 186.564C768.559 186.447 768.437 186.296 768.355 186.124C768.271 185.951 768.231 185.762 768.233 185.571C768.236 185.271 768.304 184.974 768.433 184.703C768.561 184.431 768.747 184.191 768.976 183.999L771.606 181.93C771.659 181.868 771.701 181.798 771.73 181.723L772.908 177.874C772.981 177.557 773.145 177.268 773.381 177.043C773.616 176.819 773.912 176.669 774.233 176.612C774.447 176.605 774.657 176.66 774.841 176.77C775.024 176.881 775.173 177.041 775.268 177.233L776.241 179.302L778.474 178.433C778.678 178.347 778.901 178.329 779.113 178.381C779.325 178.434 779.516 178.553 779.655 178.722C779.834 178.988 779.929 179.302 779.929 179.622C779.929 179.943 779.834 180.256 779.655 180.523L777.751 184.102C777.733 184.17 777.733 184.241 777.751 184.309L778.206 187.558C778.231 187.852 778.191 188.149 778.091 188.427C777.992 188.706 777.833 188.96 777.627 189.172C777.494 189.311 777.333 189.419 777.154 189.488C776.975 189.556 776.782 189.582 776.592 189.565L774.522 189.296L772.205 192.275C772.079 192.459 771.909 192.608 771.71 192.709C771.511 192.81 771.29 192.86 771.068 192.855ZM769.806 185.385L771.522 186.626C771.707 186.77 771.851 186.962 771.933 187.181C772.017 187.4 772.041 187.637 771.999 187.868L771.688 190.31L773.26 188.24C773.386 188.047 773.563 187.892 773.771 187.794C773.978 187.695 774.211 187.656 774.441 187.682L776.51 187.93C776.535 187.856 776.535 187.776 776.51 187.702L776.075 184.475C776.017 184.067 776.099 183.652 776.303 183.295L777.959 180.171L776.241 180.833C775.991 180.937 775.71 180.939 775.458 180.839C775.206 180.738 775.004 180.543 774.896 180.295L774.109 178.64L773.054 182.074C772.955 182.461 772.729 182.803 772.413 183.047L769.784 185.116C769.77 185.206 769.777 185.298 769.806 185.385Z" fill="#E0E0E0"/>
<g opacity="0.5">
<path opacity="0.5" d="M786.938 171.646C786.596 171.648 786.259 171.537 785.987 171.33C785.713 171.123 785.516 170.831 785.428 170.5C785.337 170.169 785.359 169.818 785.49 169.501C785.623 169.184 785.855 168.92 786.151 168.749L798.753 161.465C799.107 161.281 799.516 161.239 799.901 161.346C800.286 161.454 800.615 161.704 800.821 162.045C801.015 162.396 801.064 162.811 800.956 163.198C800.847 163.585 800.591 163.914 800.241 164.114L787.642 171.397C787.431 171.537 787.188 171.622 786.938 171.646Z" fill="#090E47"/>
<path opacity="0.5" d="M786.938 178.93C786.596 178.932 786.259 178.821 785.987 178.614C785.713 178.407 785.516 178.115 785.428 177.784C785.337 177.453 785.359 177.102 785.49 176.785C785.623 176.468 785.855 176.204 786.151 176.033L798.753 168.749C799.105 168.56 799.518 168.515 799.903 168.623C800.288 168.731 800.617 168.984 800.821 169.329C801.015 169.681 801.064 170.095 800.956 170.482C800.847 170.869 800.591 171.198 800.241 171.398L787.642 178.681C787.431 178.821 787.188 178.906 786.938 178.93Z" fill="#090E47"/>
<path opacity="0.5" d="M786.938 186.212C786.596 186.215 786.259 186.104 785.987 185.897C785.713 185.69 785.516 185.398 785.428 185.067C785.337 184.736 785.359 184.385 785.49 184.068C785.623 183.751 785.855 183.486 786.151 183.315L798.753 176.032C799.105 175.843 799.518 175.798 799.903 175.906C800.288 176.014 800.617 176.267 800.821 176.611C801.015 176.963 801.064 177.377 800.956 177.765C800.847 178.152 800.591 178.481 800.241 178.681L787.642 185.964C787.431 186.103 787.188 186.189 786.938 186.212Z" fill="#090E47"/>
</g>
<path d="M310.989 436.933V466.067L302.568 461.204V432.09L310.989 436.933Z" fill="#E0E0E0"/>
</svg>
