<svg width="36" height="47" viewBox="0 0 36 47" fill="none" xmlns="http://www.w3.org/2000/svg">
<path d="M3.78125 46.7812C3.39344 46.7833 3.00902 46.709 2.64994 46.5624C2.29086 46.4159 1.96416 46.2001 1.68849 45.9274C1.41281 45.6546 1.19356 45.3302 1.04326 44.9727C0.892959 44.6152 0.814546 44.2316 0.8125 43.8438V4.1875C0.812496 3.71014 0.906774 3.23748 1.08992 2.79666C1.27307 2.35583 1.54149 1.95552 1.87976 1.6187C2.21803 1.28188 2.61949 1.01519 3.0611 0.833942C3.50271 0.65269 3.97577 0.560446 4.45312 0.562503H31.5938C32.5497 0.570745 33.4638 0.956298 34.1368 1.63523C34.8099 2.31415 35.1875 3.23148 35.1875 4.1875V43.8438C35.1888 44.3247 35.072 44.7987 34.8474 45.224C34.6227 45.6493 34.297 46.0129 33.899 46.2829C33.5009 46.5529 33.0426 46.721 32.5644 46.7725C32.0862 46.824 31.6026 46.7572 31.1563 46.5781L18.5781 41.5469C18.2161 41.4072 17.8151 41.4072 17.4531 41.5469L4.875 46.5781C4.52647 46.7141 4.15538 46.7831 3.78125 46.7812V46.7812ZM18 38.3125C18.5884 38.313 19.1715 38.4243 19.7188 38.6406L32.0625 43.5781V4.1875C32.0646 4.12389 32.0541 4.06048 32.0317 4.00091C32.0092 3.94135 31.9753 3.88679 31.9318 3.84035C31.8882 3.79391 31.836 3.75651 31.778 3.73029C31.72 3.70406 31.6574 3.68952 31.5938 3.6875H4.45312C4.3856 3.6831 4.3179 3.69289 4.25439 3.71625C4.19088 3.7396 4.13297 3.77601 4.08439 3.82312C4.03581 3.87022 3.99764 3.92699 3.97234 3.98975C3.94704 4.05251 3.93517 4.11987 3.9375 4.1875V43.5781L16.2812 38.6406C16.8285 38.4243 17.4116 38.313 18 38.3125Z" fill="#FE688B"/>
<path d="M31.75 45.125L19.1719 40.0937C18.434 39.8022 17.6129 39.8022 16.875 40.0937L4.29688 45.125C4.08613 45.2164 3.85585 45.2535 3.62707 45.233C3.39828 45.2125 3.17828 45.135 2.98715 45.0076C2.79602 44.8801 2.63986 44.7069 2.53293 44.5036C2.426 44.3003 2.37171 44.0734 2.375 43.8437V4.1875C2.37289 3.91473 2.42531 3.6443 2.5292 3.39209C2.63308 3.13987 2.78633 2.91097 2.97993 2.71882C3.17353 2.52667 3.40359 2.37516 3.65658 2.27318C3.90957 2.17121 4.18039 2.12082 4.45313 2.125H31.5938C31.8626 2.12704 32.1283 2.18201 32.3759 2.28677C32.6234 2.39153 32.8479 2.54402 33.0366 2.73554C33.2252 2.92706 33.3742 3.15386 33.4752 3.40299C33.5762 3.65212 33.6271 3.91869 33.625 4.1875V43.8437C33.6251 44.0675 33.5705 44.2879 33.4661 44.4858C33.3617 44.6837 33.2105 44.8531 33.0258 44.9794C32.841 45.1056 32.6282 45.1849 32.4059 45.2103C32.1836 45.2356 31.9585 45.2064 31.75 45.125V45.125Z" fill="#FE688B"/>
</svg>
