<svg xmlns="http://www.w3.org/2000/svg" width="27.07" height="44" viewBox="0 0 27.07 44">
  <g id="mobile" transform="translate(0 0)">
    <path id="Path_28" data-name="Path 28" d="M134.923,111.555a2.125,2.125,0,0,0,2.123-2.123v-.853a.9.9,0,0,0-.9-.9H133.7a.9.9,0,0,0-.9.9v.853A2.125,2.125,0,0,0,134.923,111.555Zm-.834-2.587h1.667v.464a.834.834,0,1,1-1.667,0Zm0,0" transform="translate(-121.388 -98.425)" fill="#596a75"/>
    <path id="Path_29" data-name="Path 29" d="M214.336,99.409a.644.644,0,0,0,.645-.645v-.976a.645.645,0,1,0-1.289,0v.976A.644.644,0,0,0,214.336,99.409Zm0,0" transform="translate(-195.327 -88.796)" fill="#596a75"/>
    <path id="Path_30" data-name="Path 30" d="M86.957,99.409a.644.644,0,0,0,.645-.645v-.976a.645.645,0,0,0-1.289,0v.976A.644.644,0,0,0,86.957,99.409Zm0,0" transform="translate(-78.895 -88.796)" fill="#596a75"/>
    <path id="Path_31" data-name="Path 31" d="M208.657,131.254h.976a.645.645,0,0,0,0-1.289h-.976a.645.645,0,0,0,0,1.289Zm0,0" transform="translate(-190.136 -118.796)" fill="#596a75"/>
    <path id="Path_32" data-name="Path 32" d="M81.277,131.254h.976a.645.645,0,0,0,0-1.289h-.976a.645.645,0,1,0,0,1.289Zm0,0" transform="translate(-73.704 -118.796)" fill="#596a75"/>
    <path id="Path_33" data-name="Path 33" d="M26.426,10.633a.644.644,0,0,0,.645-.645V3.336A3.339,3.339,0,0,0,23.735,0H3.335A3.339,3.339,0,0,0,0,3.336v37.33A3.339,3.339,0,0,0,3.335,44h20.4a3.339,3.339,0,0,0,3.335-3.335V12.395a.645.645,0,1,0-1.289,0v28.27a2.048,2.048,0,0,1-2.046,2.046H3.335a2.048,2.048,0,0,1-2.046-2.046V3.336A2.048,2.048,0,0,1,3.335,1.289h20.4a2.048,2.048,0,0,1,2.046,2.046V9.989a.644.644,0,0,0,.645.645Zm0,0" fill="#596a75"/>
    <path id="Path_34" data-name="Path 34" d="M51.914,89.188V61.063A1.063,1.063,0,0,0,50.852,60H31.062A1.063,1.063,0,0,0,30,61.063V89.188a1.063,1.063,0,0,0,1.062,1.062h19.79a1.063,1.063,0,0,0,1.062-1.062Zm-1.289-.227H31.289V61.29H50.625Zm0,0" transform="translate(-27.422 -54.844)" fill="#596a75"/>
    <path id="Path_35" data-name="Path 35" d="M122.668,422.661a2.994,2.994,0,1,0,2.993-2.993A3,3,0,0,0,122.668,422.661Zm4.7,0a1.7,1.7,0,1,1-1.7-1.7A1.706,1.706,0,0,1,127.366,422.661Zm0,0" transform="translate(-112.126 -383.602)" fill="#596a75"/>
    <path id="Path_36" data-name="Path 36" d="M71.32,187.078h12.4a1.321,1.321,0,0,0,1.32-1.32V180.32a1.321,1.321,0,0,0-1.32-1.32H71.32A1.321,1.321,0,0,0,70,180.32v5.438A1.322,1.322,0,0,0,71.32,187.078Zm-.031-6.758a.031.031,0,0,1,.031-.031h12.4a.031.031,0,0,1,.031.031v5.438a.031.031,0,0,1-.031.031H71.32a.031.031,0,0,1-.031-.031Zm0,0" transform="translate(-63.985 -163.617)" fill="#00aeef"/>
    <path id="Path_37" data-name="Path 37" d="M71.32,296.078h12.4a1.321,1.321,0,0,0,1.32-1.32V289.32a1.321,1.321,0,0,0-1.32-1.32H78.827a.645.645,0,1,0,0,1.289h4.892a.031.031,0,0,1,.031.031v5.438a.031.031,0,0,1-.031.031H71.32a.031.031,0,0,1-.031-.031V289.32a.031.031,0,0,1,.031-.031h5.1a.645.645,0,1,0,0-1.289h-5.1A1.321,1.321,0,0,0,70,289.32v5.438A1.321,1.321,0,0,0,71.32,296.078Zm0,0" transform="translate(-63.985 -263.25)" fill="#00aeef"/>
    <path id="Path_38" data-name="Path 38" d="M130.235,31.289a.645.645,0,0,0,0-1.289h-4.489a.645.645,0,0,0,0,1.289Zm0,0" transform="translate(-114.351 -27.422)" fill="#596a75"/>
  </g>
</svg>
