<svg xmlns="http://www.w3.org/2000/svg" width="44" height="44" viewBox="0 0 44 44">
  <g id="Group_87" data-name="Group 87" transform="translate(2959.902 -1040.586)">
    <path id="Path_56" data-name="Path 56" d="M120,208h20.265v1.582H120Zm0,0" transform="translate(-3068.035 850.967)" fill="#fff"/>
    <path id="Path_57" data-name="Path 57" d="M272,240h10.285v1.582H272Zm0,0" transform="translate(-3208.508 821.795)" fill="#fff"/>
    <path id="Path_58" data-name="Path 58" d="M120,240h10.285v1.582H120Zm0,0" transform="translate(-3069.581 821.795)" fill="#fff"/>
    <path id="Path_59" data-name="Path 59" d="M272,176h10.285v1.582H272Zm0,0" transform="translate(-3208.508 880.139)" fill="#fff"/>
    <path id="Path_60" data-name="Path 60" d="M120,176h10.285v1.582H120Zm0,0" transform="translate(-3069.581 880.139)" fill="#fff"/>
    <path id="Path_61" data-name="Path 61" d="M120,144h20.265v1.582H120Zm0,0" transform="translate(-3068.035 909.311)" fill="#fff"/>
    <path id="Path_62" data-name="Path 62" d="M380.747,104.838v-4.091A4.752,4.752,0,0,0,376,96v1.582a3.168,3.168,0,0,1,3.165,3.165v4.091a6.146,6.146,0,0,0,1.317,3.821,6.146,6.146,0,0,0-1.317,3.821v4.091A3.168,3.168,0,0,1,376,119.735v1.582a4.752,4.752,0,0,0,4.747-4.747v-4.091a4.582,4.582,0,0,1,1.351-3.261l.559-.559-.559-.559A4.58,4.58,0,0,1,380.747,104.838Zm0,0" transform="translate(-3303.77 952.059)" fill="#fff"/>
    <path id="Path_63" data-name="Path 63" d="M56.18,116.571v-4.091a6.145,6.145,0,0,0-1.317-3.821,6.145,6.145,0,0,0,1.317-3.821v-4.091a3.168,3.168,0,0,1,3.165-3.165V96a4.752,4.752,0,0,0-4.747,4.747v4.091a4.582,4.582,0,0,1-1.351,3.261l-.559.559.559.559a4.58,4.58,0,0,1,1.351,3.261v4.091a4.752,4.752,0,0,0,4.747,4.747v-1.582a3.168,3.168,0,0,1-3.165-3.165Zm0,0" transform="translate(-3007.379 952.059)" fill="#fff"/>
    <path id="Path_64" data-name="Path 64" d="M219.165,352a3.165,3.165,0,1,0,3.165,3.165A3.168,3.168,0,0,0,219.165,352Zm0,4.747a1.582,1.582,0,1,1,1.582-1.582A1.584,1.584,0,0,1,219.165,356.747Zm0,0" transform="translate(-3157.067 719.281)" fill="#fff"/>
    <path id="Path_67" data-name="Path 67" d="M44,2.129A2.132,2.132,0,0,0,41.871,0H2.129A2.132,2.132,0,0,0,0,2.129V34.774H12.065v1.264l1.776.445a8.524,8.524,0,0,0,.681,1.641l-.943,1.571,2.791,2.791,1.571-.943a8.436,8.436,0,0,0,1.641.681L20.027,44h3.947l.445-1.776a8.523,8.523,0,0,0,1.641-.681l1.571.943L30.42,39.7l-.943-1.571a8.436,8.436,0,0,0,.681-1.641l1.778-.446V34.774H44ZM2.129,1.419H41.871a.711.711,0,0,1,.71.71V5.677H1.419V2.129A.711.711,0,0,1,2.129,1.419ZM30.516,34.93l-1.523.381-.1.418a7.041,7.041,0,0,1-.842,2.031l-.225.367.809,1.348L27.411,40.7l-1.348-.809-.367.225a7.051,7.051,0,0,1-2.031.842l-.418.1-.382,1.524H21.135l-.381-1.523-.418-.1a7.041,7.041,0,0,1-2.031-.842l-.367-.225L16.59,40.7l-1.224-1.224.809-1.348-.225-.367a7.051,7.051,0,0,1-.842-2.031l-.1-.418-1.524-.382V33.2l1.523-.381.1-.418a7.041,7.041,0,0,1,.842-2.031L16.175,30l-.809-1.348,1.224-1.224,1.348.809.367-.225a7.051,7.051,0,0,1,2.031-.842l.418-.1.382-1.524h1.731l.381,1.523.418.1a7.041,7.041,0,0,1,2.031.842l.367.225,1.348-.809,1.224,1.224L27.824,30l.225.367a7.051,7.051,0,0,1,.842,2.031l.1.418,1.524.382Zm1.419-1.575V32.091l-1.776-.445a8.523,8.523,0,0,0-.681-1.641l.943-1.571-2.791-2.791-1.571.943a8.436,8.436,0,0,0-1.641-.681l-.446-1.778H20.027l-.445,1.776a8.523,8.523,0,0,0-1.641.681l-1.571-.943L13.58,28.433,14.523,30a8.436,8.436,0,0,0-.681,1.641l-1.778.446v1.264H1.419V7.1H42.581V33.355Zm0,0" transform="translate(-2959.902 1040.586)" fill="#fff"/>
    <path id="Path_68" data-name="Path 68" d="M32,32h1.582v1.582H32Zm0,0" transform="translate(-2988.738 1011.751)" fill="#fff"/>
    <path id="Path_69" data-name="Path 69" d="M64,32h1.582v1.582H64Zm0,0" transform="translate(-3017.573 1011.751)" fill="#fff"/>
    <path id="Path_70" data-name="Path 70" d="M96,32h1.582v1.582H96Zm0,0" transform="translate(-3047.418 1011.751)" fill="#fff"/>
  </g>
</svg>
