<svg width="50" height="48" viewBox="0 0 50 48" fill="none" xmlns="http://www.w3.org/2000/svg">
<path d="M32 23.004L34.251 20.754C34.44 20.566 34.695 20.462 34.958 20.462C35.009 20.462 35.06 20.466 35.111 20.474C35.425 20.523 35.699 20.719 35.845 21.002L38.258 25.652L38.569 25.492L36.264 21.047C36.103 20.737 36.116 20.365 36.297 20.067C36.478 19.769 36.802 19.587 37.151 19.587H39.924L32 12.314V23.004Z" fill="#3D59E8"/>
<path d="M16 24H8V26H16V24Z" fill="#3D59E8"/>
<path d="M49 0H1C0.448 0 0 0.448 0 1V35C0 35.553 0.448 36 1 36H24V46H15C14.448 46 14 46.447 14 47C14 47.553 14.448 48 15 48H35C35.553 48 36 47.553 36 47C36 46.447 35.553 46 35 46H26V36H49C49.553 36 50 35.553 50 35V1C50 0.448 49.553 0 49 0ZM18 27C18 27.553 17.552 28 17 28H7C6.448 28 6 27.553 6 27V23C6 22.448 6.448 22 7 22H17C17.552 22 18 22.448 18 23V27ZM17 18H7C6.448 18 6 17.552 6 17C6 16.448 6.448 16 7 16H17C17.552 16 18 16.448 18 17C18 17.552 17.552 18 17 18ZM25 14H7C6.448 14 6 13.552 6 13C6 12.448 6.448 12 7 12H25C25.552 12 26 12.448 26 13C26 13.552 25.552 14 25 14ZM25 10H7C6.448 10 6 9.552 6 9C6 8.448 6.448 8 7 8H25C25.552 8 26 8.448 26 9C26 9.552 25.552 10 25 10ZM43.427 20.949C43.278 21.333 42.907 21.586 42.495 21.586H38.797L40.806 25.46C40.928 25.695 40.952 25.97 40.871 26.223C40.79 26.476 40.613 26.687 40.378 26.808L38.291 27.888C38.144 27.964 37.986 28 37.832 28C37.471 28 37.121 27.804 36.943 27.461L34.699 23.135L31.707 26.124C31.42 26.41 30.991 26.497 30.617 26.341C30.243 26.186 30 25.821 30 25.417V10.039C30 9.643 30.234 9.283 30.598 9.123C30.959 8.964 31.385 9.034 31.676 9.302L43.171 19.85C43.475 20.128 43.576 20.565 43.427 20.949Z" fill="#3D59E8"/>
</svg>
