<svg id="smartphone" xmlns="http://www.w3.org/2000/svg" width="44" height="44" viewBox="0 0 44 44">
  <g id="Group_57" data-name="Group 57">
    <g id="Group_56" data-name="Group 56">
      <path id="Path_71" data-name="Path 71" d="M1.419,5.677h22.71V7.1h1.419V3.548A3.552,3.552,0,0,0,22,0H3.548A3.552,3.552,0,0,0,0,3.548V35.484H1.419Zm0-2.129A2.132,2.132,0,0,1,3.548,1.419H22a2.132,2.132,0,0,1,2.129,2.129v.71H1.419Z" fill="#596a75"/>
      <path id="Path_72" data-name="Path 72" d="M0,419.548A3.552,3.552,0,0,0,3.548,423.1H22a3.552,3.552,0,0,0,3.548-3.548V416H0Zm1.419-2.129h22.71v2.129A2.132,2.132,0,0,1,22,421.677H3.548a2.132,2.132,0,0,1-2.129-2.129Z" transform="translate(0 -379.097)" fill="#596a75"/>
      <rect id="Rectangle_36" data-name="Rectangle 36" width="7.097" height="1.419" transform="translate(9.226 39.742)" fill="#596a75"/>
      <path id="Path_73" data-name="Path 73" d="M316.258,248a4.258,4.258,0,1,0,4.258,4.258A4.262,4.262,0,0,0,316.258,248Zm0,7.1a2.839,2.839,0,1,1,2.839-2.839A2.842,2.842,0,0,1,316.258,255.1Z" transform="translate(-284.323 -226)" fill="#596a75"/>
      <path id="Path_74" data-name="Path 74" d="M99.548,144a3.548,3.548,0,1,0,3.548,3.548A3.552,3.552,0,0,0,99.548,144Zm0,5.677a2.129,2.129,0,1,1,2.129-2.129A2.132,2.132,0,0,1,99.548,149.677Z" transform="translate(-87.484 -131.226)" fill="#00aeef"/>
      <path id="Path_75" data-name="Path 75" d="M61.205,156.8q.2-.074.39-.163l2.2,1.467,2.83-2.83-1.467-2.2q.088-.195.163-.39l2.59-.518v-4l-2.59-.518a7.5,7.5,0,0,0-.352-.774l-1.256.661a5.66,5.66,0,0,1,.394.941l.126.4,2.26.452V151l-2.26.452-.126.4a5.63,5.63,0,0,1-.394.941l-.2.373,1.281,1.922-1.184,1.184L61.692,155l-.373.2a5.666,5.666,0,0,1-.942.395l-.4.126-.452,2.26H57.849l-.452-2.26-.4-.126a5.666,5.666,0,0,1-.942-.395l-.373-.2-1.922,1.282-1.6-1.6-1,1,2.419,2.419,2.2-1.467q.194.088.39.163l.518,2.59h4Z" transform="translate(-46.622 -133.843)" fill="#00aeef"/>
      <path id="Path_76" data-name="Path 76" d="M32,87.225v4l2.59.518a7.5,7.5,0,0,0,.352.774l1.256-.661a5.662,5.662,0,0,1-.394-.941l-.126-.4-2.26-.452V88.388l2.26-.452.126-.4a5.626,5.626,0,0,1,.394-.941l.2-.373L35.114,84.3,36.3,83.113,38.221,84.4l.373-.2a5.686,5.686,0,0,1,.94-.394l.4-.126.452-2.26h1.676l.452,2.26.4.126a5.661,5.661,0,0,1,.94.394l.373.2,1.923-1.282,1.6,1.6,1-1-2.418-2.419-2.2,1.466c-.13-.059-.259-.113-.39-.163L43.226,80h-4l-.518,2.59c-.131.05-.26.1-.39.163l-2.2-1.466-2.829,2.829,1.467,2.2q-.088.195-.163.39Z" transform="translate(-29.161 -72.903)" fill="#00aeef"/>
      <rect id="Rectangle_37" data-name="Rectangle 37" width="1.419" height="1.419" transform="translate(11.355 26.968)" fill="#596a75"/>
      <rect id="Rectangle_38" data-name="Rectangle 38" width="1.419" height="1.419" transform="translate(11.355 29.806)" fill="#596a75"/>
      <rect id="Rectangle_39" data-name="Rectangle 39" width="1.419" height="1.419" transform="translate(11.355 32.645)" fill="#596a75"/>
      <rect id="Rectangle_40" data-name="Rectangle 40" width="1.419" height="1.419" transform="translate(31.226 11.355)" fill="#00aeef"/>
      <rect id="Rectangle_41" data-name="Rectangle 41" width="1.419" height="1.419" transform="translate(31.226 8.516)" fill="#00aeef"/>
      <rect id="Rectangle_42" data-name="Rectangle 42" width="1.419" height="1.419" transform="translate(31.226 5.677)" fill="#00aeef"/>
      <path id="Path_77" data-name="Path 77" d="M268.95,257.433v-5.422l-3.5-.7q-.122-.308-.269-.608l-1.277.621a7.581,7.581,0,0,1,.348.837l.133.384,3.145.629v3.094l-3.145.629-.133.384a7.673,7.673,0,0,1-.348.837l-.178.366,1.781,2.671-2.188,2.188-2.671-1.78-.366.178a7.5,7.5,0,0,1-.837.348l-.384.133-.628,3.145h-3.094l-.63-3.145-.384-.133a7.643,7.643,0,0,1-.837-.348l-.365-.178-2.671,1.78-2.6-2.6-1,1,3.423,3.422,2.97-1.98c.077.033.155.066.234.1l.7,3.5H259.6l.7-3.5c.078-.031.156-.064.233-.1l2.97,1.98,3.834-3.833-1.981-2.971c.033-.077.066-.155.1-.234Z" transform="translate(-224.95 -228.464)" fill="#596a75"/>
      <path id="Path_78" data-name="Path 78" d="M225.616,165.45l1.981,2.97c-.033.077-.066.155-.1.233l-3.5.7v5.423l3.5.7c.082.205.172.408.269.607l1.277-.621a7.506,7.506,0,0,1-.348-.837l-.133-.384-3.145-.629v-3.094l3.145-.629.133-.384a7.712,7.712,0,0,1,.348-.837l.178-.366-1.781-2.67,2.188-2.188,2.67,1.78.366-.177a7.658,7.658,0,0,1,.839-.349l.383-.133.627-3.143h3.095l.629,3.144.383.133a7.7,7.7,0,0,1,.839.349l.366.177,2.671-1.78,2.6,2.6,1-1-3.423-3.422-2.971,1.98c-.077-.033-.155-.065-.233-.1l-.7-3.5h-5.421l-.7,3.5c-.078.031-.156.063-.233.1l-2.971-1.98Z" transform="translate(-204.129 -145.806)" fill="#596a75"/>
    </g>
  </g>
</svg>
