<svg xmlns="http://www.w3.org/2000/svg" width="44" height="41.8" viewBox="0 0 44 41.8">
  <g id="video-camera" transform="translate(0 -0.5)">
    <path id="Path_21" data-name="Path 21" d="M138.026,265.546a1.494,1.494,0,0,1-.748-.2,1.459,1.459,0,0,1-.742-1.278v-11.08a1.46,1.46,0,0,1,.741-1.277,1.509,1.509,0,0,1,1.5,0l9.539,5.54a1.472,1.472,0,0,1,0,2.551l-9.539,5.539a1.5,1.5,0,0,1-.754.2Zm.014-12.558-.032,11.081v0l9.571-5.542Zm0,0" transform="translate(-124.823 -229.529)" fill="#00aeef"/>
    <path id="Path_22" data-name="Path 22" d="M31.531,206.216H2.351A2.354,2.354,0,0,1,0,203.865V182.049a2.354,2.354,0,0,1,2.351-2.35h29.18a2.354,2.354,0,0,1,2.351,2.35v21.815A2.354,2.354,0,0,1,31.531,206.216ZM2.351,181.172a.879.879,0,0,0-.878.877v21.815a.879.879,0,0,0,.878.878h29.18a.878.878,0,0,0,.878-.877V182.049a.878.878,0,0,0-.878-.877Zm0,0" transform="translate(0 -163.915)" fill="#596a75"/>
    <path id="Path_23" data-name="Path 23" d="M385.555,220.363a1.68,1.68,0,0,1-.764-.185l-.042-.023-9.284-5.521V202.521L384.749,197a1.682,1.682,0,0,1,1.683.041,1.707,1.707,0,0,1,.818,1.467v20.138a1.708,1.708,0,0,1-.818,1.467,1.68,1.68,0,0,1-.877.249Zm-.08-1.49a.2.2,0,0,0,.188-.016.236.236,0,0,0,.114-.211V198.509a.236.236,0,0,0-.114-.211.2.2,0,0,0-.2-.009l-8.523,5.069V213.8Zm0,0" transform="translate(-343.25 -179.536)" fill="#596a75"/>
    <path id="Path_24" data-name="Path 24" d="M23.7,56.426A6.629,6.629,0,1,1,30.325,49.8,6.636,6.636,0,0,1,23.7,56.426Zm0-11.785A5.156,5.156,0,1,0,28.852,49.8,5.162,5.162,0,0,0,23.7,44.641Zm0,0" transform="translate(-15.594 -38.985)" fill="#596a75"/>
    <path id="Path_25" data-name="Path 25" d="M162.072,17.442a8.471,8.471,0,1,1,8.471-8.471A8.48,8.48,0,0,1,162.072,17.442Zm0-15.468a7,7,0,1,0,7,7A7.006,7.006,0,0,0,162.072,1.974Zm0,0" transform="translate(-140.438 0)" fill="#596a75"/>
    <path id="Path_26" data-name="Path 26" d="M193.258,45.682a5.524,5.524,0,1,1,0-11.049.737.737,0,0,1,0,1.473,4.051,4.051,0,1,0,4.051,4.051.737.737,0,0,1,1.473,0,5.53,5.53,0,0,1-5.524,5.524Zm0,0" transform="translate(-171.625 -31.186)" fill="#00aeef"/>
    <path id="Path_27" data-name="Path 27" d="M54.882,84.667A3.687,3.687,0,0,1,51.2,80.984a.737.737,0,0,1,1.473,0,2.21,2.21,0,1,0,2.21-2.21.737.737,0,1,1,0-1.473,3.683,3.683,0,1,1,0,7.366Zm0,0" transform="translate(-46.78 -70.207)" fill="#00aeef"/>
  </g>
</svg>
