<svg xmlns="http://www.w3.org/2000/svg" width="35.2" height="44" viewBox="0 0 35.2 44">
  <g id="web" transform="translate(-48)">
    <g id="Group_6" data-name="Group 6" transform="translate(48)">
      <g id="Group_5" data-name="Group 5">
        <path id="Path_2" data-name="Path 2" d="M79.533,0H51.667A3.671,3.671,0,0,0,48,3.667v19.8a3.671,3.671,0,0,0,3.667,3.667H61.694L60.647,30.8h-2.38v1.467H72.933V30.8h-2.38l-1.047-3.667H79.533A3.671,3.671,0,0,0,83.2,23.467V3.667A3.671,3.671,0,0,0,79.533,0ZM62.172,30.8l1.047-3.667H67.98L69.028,30.8Zm19.561-7.333a2.2,2.2,0,0,1-2.2,2.2H51.667a2.2,2.2,0,0,1-2.2-2.2V22H81.733Zm0-2.933H49.467V3.667a2.2,2.2,0,0,1,2.2-2.2H79.533a2.2,2.2,0,0,1,2.2,2.2Z" transform="translate(-48)" fill="#596a75"/>
      </g>
    </g>
    <g id="Group_8" data-name="Group 8" transform="translate(50.2 33.733)">
      <g id="Group_7" data-name="Group 7">
        <path id="Path_3" data-name="Path 3" d="M93.267,368H72.733a.733.733,0,0,0-.733.733v8.8a.733.733,0,0,0,.733.733H93.267a.733.733,0,0,0,.733-.733v-8.8A.733.733,0,0,0,93.267,368Zm-.733,8.8H73.467v-7.333H92.533Z" transform="translate(-72 -368)" fill="#596a75"/>
      </g>
    </g>
    <g id="Group_10" data-name="Group 10" transform="translate(53.133 39.6)">
      <g id="Group_9" data-name="Group 9" transform="translate(0)">
        <rect id="Rectangle_15" data-name="Rectangle 15" width="1.467" height="1.467" fill="#00aeef"/>
      </g>
    </g>
    <g id="Group_12" data-name="Group 12" transform="translate(53.133 36.667)">
      <g id="Group_11" data-name="Group 11" transform="translate(0)">
        <rect id="Rectangle_16" data-name="Rectangle 16" width="1.467" height="1.467" fill="#00aeef"/>
      </g>
    </g>
    <g id="Group_14" data-name="Group 14" transform="translate(56.067 36.667)">
      <g id="Group_13" data-name="Group 13">
        <rect id="Rectangle_17" data-name="Rectangle 17" width="1.467" height="1.467" fill="#00aeef"/>
      </g>
    </g>
    <g id="Group_16" data-name="Group 16" transform="translate(59 36.667)">
      <g id="Group_15" data-name="Group 15">
        <rect id="Rectangle_18" data-name="Rectangle 18" width="1.467" height="1.467" fill="#00aeef"/>
      </g>
    </g>
    <g id="Group_18" data-name="Group 18" transform="translate(64.867 36.667)">
      <g id="Group_17" data-name="Group 17" transform="translate(0)">
        <rect id="Rectangle_19" data-name="Rectangle 19" width="1.467" height="1.467" fill="#00aeef"/>
      </g>
    </g>
    <g id="Group_20" data-name="Group 20" transform="translate(61.933 36.667)">
      <g id="Group_19" data-name="Group 19">
        <rect id="Rectangle_20" data-name="Rectangle 20" width="1.467" height="1.467" fill="#00aeef"/>
      </g>
    </g>
    <g id="Group_22" data-name="Group 22" transform="translate(67.8 39.6)">
      <g id="Group_21" data-name="Group 21">
        <rect id="Rectangle_21" data-name="Rectangle 21" width="1.467" height="1.467" fill="#00aeef"/>
      </g>
    </g>
    <g id="Group_24" data-name="Group 24" transform="translate(67.8 36.667)">
      <g id="Group_23" data-name="Group 23">
        <rect id="Rectangle_22" data-name="Rectangle 22" width="1.467" height="1.467" fill="#00aeef"/>
      </g>
    </g>
    <g id="Group_26" data-name="Group 26" transform="translate(56.067 39.6)">
      <g id="Group_25" data-name="Group 25">
        <rect id="Rectangle_23" data-name="Rectangle 23" width="10.267" height="1.467" fill="#00aeef"/>
      </g>
    </g>
    <g id="Group_28" data-name="Group 28" transform="translate(73.667 33.733)">
      <g id="Group_27" data-name="Group 27" transform="translate(0)">
        <path id="Path_4" data-name="Path 4" d="M331.667,368A3.667,3.667,0,0,0,328,371.667V374.6a3.667,3.667,0,1,0,7.333,0v-2.933A3.667,3.667,0,0,0,331.667,368Zm2.2,6.6a2.2,2.2,0,1,1-4.4,0v-2.933a2.2,2.2,0,0,1,4.4,0Z" transform="translate(-328 -368)" fill="#596a75"/>
      </g>
    </g>
    <g id="Group_30" data-name="Group 30" transform="translate(76.6 36.667)">
      <g id="Group_29" data-name="Group 29">
        <rect id="Rectangle_24" data-name="Rectangle 24" width="1.467" height="1.467" fill="#00aeef"/>
      </g>
    </g>
    <g id="Group_32" data-name="Group 32" transform="translate(63.422 6.414)">
      <g id="Group_31" data-name="Group 31" transform="translate(0 0)">
        <rect id="Rectangle_25" data-name="Rectangle 25" width="10.673" height="1.466" transform="translate(0 10.261) rotate(-74.032)" fill="#00aeef"/>
      </g>
    </g>
    <g id="Group_34" data-name="Group 34" transform="translate(56.067 7.503)">
      <g id="Group_33" data-name="Group 33">
        <path id="Path_5" data-name="Path 5" d="M141.606,82.982l-.939-1.126-4.4,3.667a.733.733,0,0,0,0,1.126l4.4,3.667.939-1.126-3.724-3.1Z" transform="translate(-136.004 -81.856)" fill="#00aeef"/>
      </g>
    </g>
    <g id="Group_36" data-name="Group 36" transform="translate(69.531 7.503)">
      <g id="Group_35" data-name="Group 35">
        <path id="Path_6" data-name="Path 6" d="M288.312,85.616a.731.731,0,0,0-.094-.094l-4.4-3.667-.939,1.126,3.724,3.1-3.724,3.1.939,1.126,4.4-3.667A.733.733,0,0,0,288.312,85.616Z" transform="translate(-282.88 -81.856)" fill="#00aeef"/>
      </g>
    </g>
  </g>
</svg>
