<svg width="81" height="81" viewBox="0 0 81 81" fill="none" xmlns="http://www.w3.org/2000/svg">
<path d="M29.8839 15.9858H47.048C47.9324 15.9858 48.7358 16.449 49.3178 17.1951C49.8997 17.9411 50.261 18.9711 50.261 20.105V60.7514C50.261 61.8852 49.8997 62.9153 49.3178 63.6613C48.7358 64.4074 47.9324 64.8705 47.048 64.8705H29.8839C28.9995 64.8705 28.196 64.4074 27.6141 63.6614C27.0322 62.9152 26.6709 61.8852 26.6709 60.7514V20.105C26.6709 18.9712 27.0322 17.9411 27.6141 17.195C28.196 16.449 28.9995 15.9858 29.8839 15.9858V15.9858ZM47.048 18.0228H29.8839C29.438 18.0228 29.0321 18.2573 28.7374 18.6352C28.4427 19.013 28.2597 19.5334 28.2597 20.105V60.7514C28.2597 61.323 28.4427 61.8434 28.7374 62.2212C29.0321 62.599 29.438 62.8336 29.8839 62.8336H47.048C47.4938 62.8336 47.8998 62.599 48.1944 62.2212C48.4892 61.8434 48.6722 61.323 48.6722 60.7514V20.105C48.6722 19.5334 48.4892 19.013 48.1944 18.6352C47.8998 18.2573 47.4938 18.0228 47.048 18.0228V18.0228Z" fill="#090E47"/>
<path d="M33.7592 15.9858H43.1814H43.8547V16.849V18.3961C43.8547 19.0597 43.6433 19.6625 43.303 20.0989C42.9626 20.5353 42.4924 20.8062 41.9748 20.8062H34.9659C34.4482 20.8062 33.978 20.5353 33.6377 20.0989C33.2973 19.6625 33.0859 19.0597 33.0859 18.3961V16.849V15.9858H33.7592H33.7592Z" fill="#090E47"/>
<path d="M50.0344 27.7065H50.0344C49.722 27.7065 49.4688 28.0312 49.4688 28.4317V33.5829C49.4688 33.9834 49.722 34.3081 50.0344 34.3081H50.0344C50.3468 34.3081 50.6001 33.9834 50.6001 33.5829V28.4317C50.6001 28.0312 50.3468 27.7065 50.0344 27.7065Z" fill="#090E47"/>
<path d="M26.9006 33.2349H26.9006C26.5882 33.2349 26.335 33.5595 26.335 33.96V39.1112C26.335 39.5117 26.5882 39.8364 26.9006 39.8364H26.9006C27.213 39.8364 27.4663 39.5117 27.4663 39.1112V33.96C27.4663 33.5595 27.213 33.2349 26.9006 33.2349Z" fill="#090E47"/>
<path d="M26.9006 26.5552H26.9006C26.5882 26.5552 26.335 26.8798 26.335 27.2804V32.4315C26.335 32.832 26.5882 33.1567 26.9006 33.1567H26.9006C27.213 33.1567 27.4663 32.832 27.4663 32.4315V27.2804C27.4663 26.8798 27.213 26.5552 26.9006 26.5552Z" fill="#090E47"/>
<path d="M26.9006 22.5454H26.9006C26.5882 22.5454 26.335 22.8701 26.335 23.2706V25.521C26.335 25.9215 26.5882 26.2462 26.9006 26.2462H26.9006C27.213 26.2462 27.4663 25.9215 27.4663 25.521V23.2706C27.4663 22.8701 27.213 22.5454 26.9006 22.5454Z" fill="#090E47"/>
</svg>
