<svg width="81" height="81" viewBox="0 0 81 81" fill="none" xmlns="http://www.w3.org/2000/svg">
<path d="M48.9105 64.8705C51.8145 64.8705 54.1773 62.5077 54.1773 59.6037V21.3962C54.1773 18.4922 51.8145 16.1294 48.9105 16.1294H32.6272C29.7232 16.1294 27.3604 18.4922 27.3604 21.3962V59.6037C27.3604 62.5077 29.7232 64.8705 32.6272 64.8705H48.9105V64.8705ZM28.5118 59.6037V21.3962C28.5118 19.1271 30.3581 17.2808 32.6272 17.2808H48.9105C51.1796 17.2808 53.0259 19.1271 53.0259 21.3962V59.6037C53.0259 61.8728 51.1796 63.7191 48.9105 63.7191H32.6272C30.3581 63.7191 28.5118 61.8728 28.5118 59.6037Z" fill="black"/>
<path d="M36.9204 20.8062H44.619C44.9369 20.8062 45.1948 20.5483 45.1948 20.2305C45.1948 19.9127 44.9369 19.6548 44.619 19.6548H36.9204C36.6026 19.6548 36.3447 19.9127 36.3447 20.2305C36.3447 20.5483 36.6026 20.8062 36.9204 20.8062Z" fill="black"/>
<path d="M40.7665 56.0679C39.3144 56.0679 38.1338 57.2523 38.1338 58.7073C38.1338 60.1623 39.3144 61.346 40.7665 61.346C42.2215 61.346 43.4051 60.1623 43.4051 58.7073C43.4051 57.2523 42.2215 56.0679 40.7665 56.0679ZM40.7665 60.1945C39.9494 60.1945 39.2852 59.5274 39.2852 58.7073C39.2852 57.8864 39.9494 57.2193 40.7665 57.2193C41.5865 57.2193 42.2537 57.8864 42.2537 58.7073C42.2537 59.5274 41.5865 60.1945 40.7665 60.1945Z" fill="black"/>
</svg>
