<?xml version="1.0"?>
<svg xmlns="http://www.w3.org/2000/svg" xmlns:xlink="http://www.w3.org/1999/xlink" xmlns:svgjs="http://svgjs.com/svgjs" version="1.1" width="512" height="512" x="0" y="0" viewBox="0 0 512 512" style="enable-background:new 0 0 512 512" xml:space="preserve"><g><g xmlns="http://www.w3.org/2000/svg"><path d="m166 512h180c24.813 0 45-20.187 45-45v-422c0-24.813-20.187-45-45-45h-180c-24.813 0-45 20.187-45 45v422c0 24.813 20.187 45 45 45zm-15-467c0-8.271 6.729-15 15-15h180c8.271 0 15 6.729 15 15v422c0 8.271-6.729 15-15 15h-180c-8.271 0-15-6.729-15-15z" fill="#886d00" data-original="#000000" style=""/><path d="m256 452c24.813 0 45-20.187 45-45s-20.187-45-45-45-45 20.187-45 45 20.187 45 45 45zm0-60c8.271 0 15 6.729 15 15s-6.729 15-15 15-15-6.729-15-15 6.729-15 15-15z" fill="#886d00" data-original="#000000" style=""/><path d="m226 90h60c8.284 0 15-6.716 15-15s-6.716-15-15-15h-60c-8.284 0-15 6.716-15 15s6.716 15 15 15z" fill="#886d00" data-original="#000000" style=""/></g></g></svg>
