<svg width="81" height="81" viewBox="0 0 81 81" fill="none" xmlns="http://www.w3.org/2000/svg">
<path d="M48.2569 19.0703H32.9691C30.7844 19.0703 29.0068 20.8479 29.0068 23.0328V25.3203H29.6918V23.0328C29.6918 21.2254 31.162 19.7552 32.9691 19.7552H48.2569C50.0659 19.7552 51.5377 21.2254 51.5377 23.0328V27.3888H52.2227V23.0328C52.2227 20.8479 50.4436 19.0703 48.2569 19.0703Z" fill="black"/>
<path d="M29.0068 54.9401V57.9674C29.0068 60.1863 30.8198 61.9299 32.9691 61.9299H48.2569C50.4436 61.9299 52.2227 60.1523 52.2227 57.9674V36.998H51.5377V57.9675C51.5377 59.7748 50.0659 61.245 48.2569 61.245H32.9691C31.1963 61.245 29.6918 59.8054 29.6918 57.9675V54.9401H29.0068V54.9401Z" fill="black"/>
<path d="M29.6918 39.1968H29.0068V45.8508H29.6918V39.1968Z" fill="black"/>
<path d="M37.6423 21.7308H43.5843C43.7734 21.7308 43.9267 21.5777 43.9267 21.3884C43.9267 21.1991 43.7734 21.0459 43.5843 21.0459H37.6423C37.4531 21.0459 37.2998 21.1991 37.2998 21.3884C37.2998 21.5777 37.4531 21.7308 37.6423 21.7308Z" fill="black"/>
<path d="M38.7881 58.1263C38.7881 59.133 39.6068 59.9517 40.6133 59.9517C41.6198 59.9517 42.4385 59.133 42.4385 58.1263C42.4385 57.12 41.6198 56.3013 40.6133 56.3013C39.6068 56.3013 38.7881 57.12 38.7881 58.1263ZM41.7536 58.1263C41.7536 58.7551 41.242 59.2668 40.6133 59.2668C39.9845 59.2668 39.473 58.7551 39.473 58.1263C39.473 57.4976 39.9845 56.9862 40.6133 56.9862C41.242 56.9862 41.7536 57.4976 41.7536 58.1263Z" fill="black"/>
<path d="M60.4093 29.4221C59.8464 28.0608 58.3951 27.3583 57.0046 27.7198L55.8799 25.0018C55.8799 25.0017 55.8798 25.0017 55.8798 25.0016L55.8797 25.0014C55.8048 24.8202 55.6444 24.6984 55.4553 24.6639C55.4349 24.6602 55.4158 24.6525 55.3948 24.6509C55.3946 24.6509 55.3945 24.651 55.3944 24.651C55.3943 24.651 55.3943 24.6509 55.3943 24.6509C55.3876 24.6505 55.3815 24.6525 55.3749 24.6523C55.1633 24.6444 54.9677 24.7484 54.8586 24.9319C54.5751 25.4101 54.2699 25.8879 53.9521 26.3524C52.0949 29.06 49.914 31.0312 47.4508 32.2295C47.2016 31.9106 46.794 31.8216 46.4495 31.9638L44.0022 32.9765C43.5649 33.1574 43.3561 33.6604 43.537 34.0986L43.8217 34.7864L42.7262 35.24C42.2877 35.4213 42.0793 35.9229 42.2609 36.3617L42.6638 37.3346C42.843 37.7683 43.3415 37.9839 43.7855 37.8001L44.8813 37.3465L45.1661 38.0346C45.3461 38.4703 45.8458 38.6827 46.2878 38.4998L46.4165 38.4465L48.0804 42.4669C48.2586 42.8982 48.7559 43.1167 49.2019 42.9321L49.8047 42.683C50.2424 42.502 50.4511 41.9987 50.27 41.5613V41.5609L49.3347 39.3008C50.5334 38.7479 51.1429 37.4072 50.7982 36.155C53.7102 35.5099 56.7529 35.7782 59.6543 36.5209C60.1007 36.6356 60.5111 36.1943 60.3276 35.7504L59.2026 33.0317C60.4418 32.3041 60.9724 30.7824 60.4093 29.4221ZM55.3335 25.4733L57.5721 30.8829L58.45 33.0046C58.4501 33.0048 58.4503 33.0049 58.4503 33.005L59.6077 35.8022C59.1682 35.693 58.734 35.5986 58.3038 35.515L54.6139 26.5978C54.8592 26.2348 55.0997 25.8612 55.3335 25.4733ZM43.2965 37.0727C43.0429 36.3316 42.7116 35.9875 42.988 35.8728L44.0836 35.4193L44.6193 36.7136C43.7429 37.019 43.4127 37.3527 43.2965 37.0727ZM45.7988 37.7727C45.7806 37.7286 44.1508 33.7904 44.1699 33.8367C44.1333 33.7481 44.1754 33.6461 44.2641 33.6093L46.7113 32.5966C46.8034 32.5592 46.9028 32.6045 46.9386 32.6906V32.6909C46.9243 32.6566 47.1286 33.1564 48.567 36.6269C48.5954 36.6953 48.5787 36.7754 48.5067 36.8302C48.4266 36.8883 46.0602 37.8531 46.0259 37.867C45.9372 37.9031 45.8361 37.8627 45.7988 37.7727ZM49.5431 42.0502L48.9402 42.2994C48.8515 42.3354 48.7505 42.2951 48.7131 42.2051L47.0493 38.1847L47.9734 37.8023L49.6372 41.8228C49.6738 41.9118 49.6315 42.0133 49.5431 42.0502ZM50.1355 36.3199C50.3994 37.2483 49.9564 38.2476 49.0758 38.6693L48.6083 37.5395L48.735 37.4871C49.0576 37.3536 49.2843 37.0148 49.2608 36.641C49.2598 36.6242 49.2609 36.6074 49.2589 36.5906C49.5654 36.4852 49.8596 36.395 50.1355 36.3199ZM49.0255 35.9428L47.7461 32.8513C50.1573 31.6799 52.3029 29.8055 54.1483 27.2641L57.5035 35.3725C54.4019 34.8783 51.5593 35.0681 49.0255 35.9428ZM58.938 32.3922L58.7911 32.0373L57.2693 28.3592C58.3042 28.1392 59.3592 28.6746 59.7766 29.6839C60.194 30.6926 59.8254 31.8183 58.938 32.3922Z" fill="black"/>
<path d="M62.3457 28.9703L62.0635 28.3462L61.277 28.7019L61.5593 29.326L62.3457 28.9703Z" fill="black"/>
<path d="M61.5972 31.1196L62.4561 31.2046L62.5235 30.523L61.6646 30.438L61.5972 31.1196Z" fill="black"/>
<path d="M60.4099 27.8625L60.9131 27.1611L60.3566 26.7618L59.8534 27.4632L60.4099 27.8625Z" fill="black"/>
<path d="M30.5725 37.9097L30.8004 37.0007C31.1526 36.9007 31.4927 36.7599 31.8161 36.5803L32.6166 37.0629C32.7512 37.1445 32.9243 37.1234 33.0355 37.0117L34.1831 35.8643C34.2945 35.7529 34.3156 35.5803 34.2343 35.4456L33.7517 34.6446C33.9316 34.3212 34.0723 33.9807 34.1719 33.6289L35.0813 33.4008C35.2336 33.3627 35.3405 33.2259 35.3405 33.0687V31.449C35.3405 31.2918 35.2336 31.155 35.0813 31.1169L34.1719 30.8888C34.0723 30.5366 33.9315 30.1965 33.7517 29.8731L34.2343 29.0728C34.3156 28.938 34.2945 28.7651 34.1831 28.6537L33.0355 27.5063C32.9245 27.3949 32.7517 27.3742 32.6169 27.4548L31.8133 27.938C31.4917 27.7601 31.1526 27.6203 30.8006 27.5203L30.5725 26.6086C30.5344 26.4561 30.3974 26.3491 30.2402 26.3491H28.6206C28.4634 26.3491 28.3264 26.4561 28.2883 26.6086L28.0604 27.5203C27.7084 27.6203 27.3691 27.7601 27.0475 27.938L26.2439 27.4548C26.1091 27.3742 25.9365 27.3949 25.8253 27.5063L24.6777 28.6538C24.5663 28.7651 24.5452 28.938 24.6265 29.0728L25.1091 29.8731C24.9293 30.1965 24.7885 30.5366 24.6889 30.8888L23.7797 31.1169C23.6274 31.155 23.5205 31.2918 23.5205 31.449V33.0687C23.5205 33.2259 23.6274 33.3627 23.7797 33.4008L24.6889 33.6286C24.7885 33.9811 24.9293 34.3212 25.1091 34.6446L24.6265 35.4452C24.5452 35.5803 24.5663 35.7529 24.6777 35.8643L25.8253 37.0118C25.9365 37.1235 26.1096 37.1445 26.2442 37.0629L27.0447 36.5803C27.3681 36.7602 27.7082 36.9007 28.0605 37.0007L28.2424 37.7267C28.2428 37.7285 28.2425 37.7303 28.243 37.7321L28.2876 37.9104C28.3259 38.0626 28.4629 38.1696 28.6199 38.1696H28.9383C28.9396 38.1696 28.9407 38.1689 28.9421 38.1689H30.2402C30.3973 38.1689 30.5342 38.0622 30.5725 37.9097ZM29.973 37.484H29.0154C28.9664 37.4621 28.9181 37.437 28.8698 37.4123L28.6756 36.6368C28.6443 36.5124 28.5465 36.4161 28.4217 36.3867C28.0002 36.2877 27.5963 36.1205 27.2213 35.89C27.1121 35.8238 26.9748 35.8225 26.8652 35.8887L26.1201 36.3378L25.3514 35.5693L25.8007 34.8242C25.8668 34.7145 25.8663 34.577 25.7992 34.468C25.5688 34.0927 25.4017 33.6891 25.3027 33.2677C25.2733 33.1429 25.1768 33.0449 25.0526 33.0138L24.2054 32.8015V31.7162L25.0526 31.5038C25.1768 31.4727 25.2733 31.3747 25.3027 31.25C25.4017 30.8286 25.5688 30.4246 25.7992 30.0497C25.8663 29.9407 25.8668 29.8032 25.8007 29.6935L25.3514 28.9487L26.1203 28.1798L26.8683 28.6297C26.9775 28.6952 27.1146 28.6949 27.2234 28.6283C27.5963 28.3999 27.9997 28.2337 28.4221 28.134C28.5466 28.1043 28.6445 28.0079 28.6756 27.8835L28.8879 27.034H29.9729L30.1854 27.8835C30.2165 28.0079 30.3143 28.1043 30.4389 28.134C30.8613 28.2337 31.2645 28.3999 31.6374 28.6283C31.7466 28.6949 31.8837 28.6952 31.9925 28.6297L32.7405 28.1798L33.5094 28.9487L33.0603 29.6935C32.9942 29.8032 32.9947 29.9407 33.0618 30.0497C33.292 30.4249 33.4591 30.8286 33.5581 31.25C33.5875 31.3747 33.684 31.4727 33.8082 31.5038L34.5848 31.6985C34.6111 31.7485 34.6345 31.7975 34.6555 31.8453V32.8015L33.8082 33.0138C33.684 33.0449 33.5875 33.1429 33.5581 33.2677C33.4591 33.6887 33.2922 34.0927 33.0618 34.468C32.9947 34.577 32.9942 34.7145 33.0603 34.8242L33.5094 35.5693L32.7407 36.3378L31.9956 35.8887C31.8862 35.8228 31.7489 35.8238 31.6395 35.89C31.2645 36.1205 30.8606 36.2877 30.4392 36.3867C30.3145 36.4161 30.2167 36.5124 30.1854 36.6368L29.973 37.484Z" fill="black"/>
<path d="M33.0258 32.2566C33.0258 30.2788 31.4126 28.6694 29.4299 28.6694C27.4472 28.6694 25.834 30.2788 25.834 32.2566C25.834 34.2395 27.4472 35.8525 29.4299 35.8525C31.4126 35.8525 33.0258 34.2395 33.0258 32.2566ZM29.4299 35.1676C27.8247 35.1676 26.5189 33.8616 26.5189 32.2566C26.5189 30.6563 27.8247 29.3544 29.4299 29.3544C31.035 29.3544 32.3409 30.6563 32.3409 32.2566C32.3409 33.8616 31.035 35.1676 29.4299 35.1676Z" fill="black"/>
<path d="M29.2535 30.0034C29.1556 29.9054 29.0084 29.8756 28.8803 29.9291C28.7524 29.982 28.6689 30.1071 28.6689 30.2455V34.2729C28.6689 34.4113 28.7524 34.5364 28.8803 34.5892C28.9228 34.607 28.9673 34.6153 29.0114 34.6153C29.1005 34.6153 29.188 34.5805 29.2535 34.515L31.2672 32.5013C31.401 32.3675 31.401 32.1508 31.2672 32.0171L29.2535 30.0034ZM29.3539 33.4461V31.0723L30.5408 32.2592L29.3539 33.4461Z" fill="black"/>
<path d="M20.0411 54.2549H21.1415L22.1909 56.7735C22.2439 56.9009 22.3686 56.9842 22.5067 56.9842H22.5069C22.645 56.9842 22.7696 56.9013 22.8229 56.7739L23.8754 54.2549H31.5582C32.1247 54.2549 32.5856 53.794 32.5856 53.2275V47.563C32.5856 46.9965 32.1247 46.5356 31.5582 46.5356H20.0411C19.4745 46.5356 19.0137 46.9965 19.0137 47.563V53.2275C19.0137 53.794 19.4745 54.2549 20.0411 54.2549ZM19.6986 47.563C19.6986 47.3741 19.8523 47.2206 20.0411 47.2206H31.5582C31.747 47.2206 31.9007 47.3741 31.9007 47.563V53.2275C31.9007 53.4164 31.747 53.5699 31.5582 53.5699H23.6473C23.5092 53.5699 23.3846 53.6529 23.3313 53.7803L22.5074 55.7525L21.686 53.7806C21.6328 53.6532 21.5081 53.5699 21.3698 53.5699H20.0411C19.8523 53.5699 19.6986 53.4164 19.6986 53.2275V47.563Z" fill="black"/>
<path d="M22.1805 51.7876C22.947 51.7876 23.5707 51.1639 23.5707 50.397C23.5707 49.6285 22.947 49.0034 22.1805 49.0034C21.4138 49.0034 20.79 49.6285 20.79 50.397C20.79 51.1639 21.4138 51.7876 22.1805 51.7876ZM22.1805 49.6884C22.5694 49.6884 22.8858 50.0064 22.8858 50.397C22.8858 50.786 22.5694 51.1027 22.1805 51.1027C21.7915 51.1027 21.475 50.786 21.475 50.397C21.475 50.0064 21.7915 49.6884 22.1805 49.6884Z" fill="black"/>
<path d="M25.7996 51.7876C26.5663 51.7876 27.1901 51.1639 27.1901 50.397C27.1901 49.6285 26.5663 49.0034 25.7996 49.0034C25.0329 49.0034 24.4092 49.6285 24.4092 50.397C24.4092 51.1639 25.0329 51.7876 25.7996 51.7876ZM25.7996 49.6884C26.1886 49.6884 26.5051 50.0064 26.5051 50.397C26.5051 50.786 26.1886 51.1027 25.7996 51.1027C25.4107 51.1027 25.0941 50.786 25.0941 50.397C25.0941 50.0064 25.4107 49.6884 25.7996 49.6884Z" fill="black"/>
<path d="M29.4188 51.7876C30.1855 51.7876 30.8092 51.1639 30.8092 50.397C30.8092 49.6285 30.1855 49.0034 29.4188 49.0034C28.6521 49.0034 28.0283 49.6285 28.0283 50.397C28.0283 51.1639 28.6521 51.7876 29.4188 51.7876ZM29.4188 49.6884C29.8077 49.6884 30.1243 50.0064 30.1243 50.397C30.1243 50.786 29.8077 51.1027 29.4188 51.1027C29.0298 51.1027 28.7133 50.786 28.7133 50.397C28.7133 50.0064 29.0298 49.6884 29.4188 49.6884Z" fill="black"/>
<path d="M43.2624 51.3611C43.3758 51.3611 43.4827 51.3049 43.5465 51.21C43.6606 51.0404 46.3209 47.0288 44.9288 44.1245C43.9099 41.9988 40.7403 42.3194 40.207 44.6452C39.5291 44.3165 38.7219 44.3048 38.0244 44.6396C36.7713 45.2402 36.2405 46.7485 36.8412 48.0017C38.2273 50.8933 43.029 51.3421 43.2328 51.3598C43.2427 51.3608 43.2526 51.3611 43.2624 51.3611ZM37.4589 47.7054C37.0214 46.793 37.4079 45.6944 38.3204 45.2569C38.9522 44.9541 39.7184 45.0388 40.2689 45.493C40.3717 45.5783 40.5147 45.5961 40.6349 45.5379C40.7553 45.4803 40.8312 45.3579 40.8294 45.2245C40.812 43.9618 42.0639 43.0594 43.2663 43.4824C43.7283 43.6456 44.0994 43.9787 44.3111 44.4208C45.3846 46.6599 43.5653 49.8766 43.088 50.6541C42.1819 50.5374 38.5274 49.9347 37.4589 47.7054Z" fill="black"/>
</svg>
