<?xml version="1.0"?>
<svg xmlns="http://www.w3.org/2000/svg" xmlns:xlink="http://www.w3.org/1999/xlink" xmlns:svgjs="http://svgjs.com/svgjs" version="1.1" width="512" height="512" x="0" y="0" viewBox="0 0 404.752 404.752" style="enable-background:new 0 0 512 512" xml:space="preserve" class=""><g>
<g xmlns="http://www.w3.org/2000/svg">
	<g>
		<path d="M388.75,150.896c-16.64-54.24-47.76-112.64-76.4-112.64c-1.62,0.017-3.232,0.232-4.8,0.64h-1.2    c-2.752,0.871-5.288,2.316-7.44,4.24L13.55,217.056c-16.96,6.48-16,37.52-8,64c3.718,12.7,9.649,24.643,17.52,35.28    c4.679,7.647,12.677,12.653,21.6,13.52c1.268-0.01,2.53-0.172,3.76-0.48l25.92-2.88l2.56,24c1.054,9.105,8.755,15.98,17.92,16    h1.84l100.08-10.4c9.881-1.09,17.028-9.953,16-19.84l-2.72-26.24l168.32-19.36c2.033,0.008,4.055-0.288,6-0.88    c9.36-2.88,20.56-14,20.4-50.08C403.658,209.487,398.271,179.587,388.75,150.896z M46.27,313.696h-1.36    c-3.6,0.56-16-12.16-24-37.6s-4.8-42.64-1.76-44.4h0.96l43.44-26.4c-0.3,36.714,10.889,72.602,32,102.64L46.27,313.696z     M196.19,339.856v0.08c-0.345,0.405-0.831,0.663-1.36,0.72l-100.08,10.4c-1.122,0.094-2.114-0.722-2.24-1.84l-2.56-24.56    l104-12.24l2.64,26.24C196.585,339.088,196.445,339.507,196.19,339.856z M114.35,305.696c-35.44-41.28-34.96-96-34.08-110.32    l207.12-126.24c-0.988,6.62-1.443,13.308-1.36,20c1.092,30.209,6.479,60.109,16,88.8c12,38.56,31.2,79.12,51.6,99.44    L114.35,305.696z M379.79,274.656h-2.16c-12.48-1.04-40.72-36.96-60.72-101.28c-8.943-27.204-13.98-55.54-14.96-84.16    c0-20.32,3.68-29.6,6.96-33.12l2.8-1.68h0.64c12.16,0,41.04,36.08,61.28,101.36c8.946,27.203,13.983,55.54,14.96,84.16    C388.75,264.256,383.31,272.896,379.79,274.656z" fill="#3d59e8" data-original="#000000" style=""/>
	</g>
</g>
<g xmlns="http://www.w3.org/2000/svg">
</g>
<g xmlns="http://www.w3.org/2000/svg">
</g>
<g xmlns="http://www.w3.org/2000/svg">
</g>
<g xmlns="http://www.w3.org/2000/svg">
</g>
<g xmlns="http://www.w3.org/2000/svg">
</g>
<g xmlns="http://www.w3.org/2000/svg">
</g>
<g xmlns="http://www.w3.org/2000/svg">
</g>
<g xmlns="http://www.w3.org/2000/svg">
</g>
<g xmlns="http://www.w3.org/2000/svg">
</g>
<g xmlns="http://www.w3.org/2000/svg">
</g>
<g xmlns="http://www.w3.org/2000/svg">
</g>
<g xmlns="http://www.w3.org/2000/svg">
</g>
<g xmlns="http://www.w3.org/2000/svg">
</g>
<g xmlns="http://www.w3.org/2000/svg">
</g>
<g xmlns="http://www.w3.org/2000/svg">
</g>
</g></svg>
