<svg width="81" height="81" viewBox="0 0 81 81" fill="none" xmlns="http://www.w3.org/2000/svg">
<path d="M63.8457 56.7253C63.8457 54.5265 63.0049 52.4748 61.4781 50.948L56.5281 45.998C56.3087 45.7786 56.011 45.6553 55.7007 45.6553C55.3904 45.6553 55.0927 45.7785 54.8733 45.998L49.9233 50.948C48.3965 52.4748 47.5557 54.5266 47.5557 56.7253C47.5557 58.924 48.3965 60.9759 49.9233 62.5027C49.9279 62.5072 49.9325 62.5117 49.937 62.5161C51.5057 64.0343 53.5647 64.8704 55.7344 64.8704C57.9113 64.8704 59.9512 64.0295 61.4781 62.5027C63.0049 60.9758 63.8457 58.924 63.8457 56.7253ZM51.5714 60.8411C49.3433 58.6056 49.3456 54.8352 51.5782 52.6028L55.7006 48.4802L59.8231 52.6028C62.0577 54.8374 62.0577 58.6132 59.8231 60.8477C57.5895 63.0816 53.8898 63.0778 51.5714 60.8411Z" fill="black"/>
<path d="M24.8722 55.5874C26.4814 57.1967 28.6211 58.0829 30.8968 58.0829C33.1726 58.0829 35.3122 57.1967 36.9215 55.5874L53.2188 39.2901C53.6758 38.8331 53.6758 38.0922 53.2188 37.6352L36.7868 21.2032V18.8084C36.7868 15.4551 34.0588 12.7271 30.7055 12.7271C27.3522 12.7271 24.6241 15.4551 24.6241 18.8084V27.9641L16.9612 35.627C13.6392 38.949 13.6392 44.3543 16.9612 47.6764L24.8722 55.5874ZM35.4254 34.6578C36.7496 34.6578 37.827 35.7352 37.827 37.0594C37.827 38.3837 36.7496 39.461 35.4254 39.461C34.1011 39.461 33.0238 38.3837 33.0238 37.0594C33.0238 35.7352 34.1011 34.6578 35.4254 34.6578ZM26.9644 18.8084C26.9644 16.7456 28.6426 15.0673 30.7055 15.0673C32.7683 15.0673 34.4465 16.7456 34.4465 18.8084V19.0449C34.331 19.0075 34.2096 18.9871 34.0859 18.9871C33.7756 18.9871 33.4779 19.1103 33.2585 19.3298L26.9644 25.6239V18.8084ZM18.6161 37.282L34.086 21.8121L34.4467 22.1727V32.4197C32.3 32.872 30.6835 34.7803 30.6835 37.0595C30.6835 39.6742 32.8107 41.8014 35.4254 41.8014C38.0401 41.8014 40.1673 39.6742 40.1673 37.0595C40.1673 34.9179 38.7399 33.1043 36.7868 32.5177V24.513L50.7365 38.4626L35.2667 53.9326C34.0995 55.0998 32.5476 55.7427 30.8969 55.7427C29.2463 55.7427 27.6943 55.0998 26.5271 53.9326L18.6161 46.0216C16.2065 43.612 16.2065 39.6914 18.6161 37.282Z" fill="black"/>
</svg>
