<svg width="81" height="81" viewBox="0 0 81 81" fill="none" xmlns="http://www.w3.org/2000/svg">
<path d="M18.6541 19.2148C16.8296 19.2148 15.3369 20.7076 15.3369 22.532V58.468C15.3369 60.2924 16.8296 61.7851 18.6541 61.7851H62.8829C64.7074 61.7851 66.2001 60.2924 66.2001 58.468V22.532C66.2001 20.7076 64.7074 19.2148 62.8829 19.2148H18.6541ZM18.6541 20.3206H62.8829C64.0992 20.3206 65.0944 21.3157 65.0944 22.532V25.6829H16.4426V22.532C16.4426 21.3157 17.4378 20.3206 18.6541 20.3206ZM18.9856 22.2556C18.5433 22.2556 18.1563 22.6426 18.1563 23.0849C18.1563 23.5272 18.5433 23.9142 18.9856 23.9142C19.4279 23.9142 19.8149 23.5272 19.8149 23.0849C19.8149 22.6426 19.4279 22.2556 18.9856 22.2556ZM21.9712 22.2556C21.4737 22.2556 21.142 22.6426 21.142 23.0849C21.142 23.5272 21.529 23.9142 21.9712 23.9142C22.4135 23.9142 22.8005 23.5272 22.8005 23.0849C22.8005 22.6426 22.4688 22.2556 21.9712 22.2556ZM24.9569 22.2556C24.5146 22.2556 24.1276 22.6426 24.1276 23.0849C24.1276 23.5272 24.5146 23.9142 24.9569 23.9142C25.3992 23.9142 25.7862 23.5272 25.7862 23.0849C25.7862 22.6426 25.3992 22.2556 24.9569 22.2556ZM18.9856 22.8084C19.0962 22.8084 19.262 22.919 19.262 23.0849C19.262 23.2507 19.1514 23.3613 18.9856 23.3613C18.8197 23.3613 18.7091 23.2507 18.7091 23.0849C18.7091 22.919 18.8197 22.8084 18.9856 22.8084ZM21.9712 22.8084C22.0818 22.8084 22.2477 22.919 22.2477 23.0849C22.2477 23.2507 22.1371 23.3613 21.9712 23.3613C21.8054 23.3613 21.6948 23.2507 21.6948 23.0849C21.6948 22.919 21.8054 22.8084 21.9712 22.8084ZM24.9569 22.8084C25.0675 22.8084 25.2333 22.919 25.2333 23.0849C25.2333 23.2507 25.1228 23.3613 24.9569 23.3613C24.7911 23.3613 24.6805 23.2507 24.6805 23.0849C24.6805 22.919 24.7911 22.8084 24.9569 22.8084ZM16.4426 26.7886H65.0944V58.468C65.0944 59.6843 64.0992 60.6794 62.8829 60.6794H18.6541C17.4378 60.6794 16.4426 59.6843 16.4426 58.468V26.7886ZM50.8787 30.0075C50.7025 30.0023 50.5265 30.1062 50.4436 30.2721C49.6696 31.5436 47.6244 34.9165 39.5527 35.967C35.4062 36.4645 32.2545 38.4544 30.817 41.3293C29.7113 43.5407 29.767 45.9729 30.9833 48.0737C31.1492 48.3502 31.48 48.461 31.7564 48.2951C32.0329 48.1292 32.1437 47.7973 31.9778 47.5209C30.9274 45.7517 30.8727 43.7068 31.8126 41.8271C33.0842 39.2839 35.9584 37.5703 39.7179 37.0727C46.131 36.2434 49.0064 33.9758 50.3885 32.3172C50.3332 36.6295 49.8359 44.0934 47.0163 48.2951C46.961 48.4057 46.9603 48.4612 46.9051 48.5165C46.8498 48.5165 46.85 48.5715 46.85 48.5715C45.1914 50.9488 42.4826 52.3314 39.6077 52.3314C37.2272 52.3314 35.1678 51.4795 33.5781 49.9407C33.7419 49.4709 33.9398 49.0111 34.1893 48.5715C35.3503 46.4707 37.2298 44.9784 39.4965 44.3149H39.5527C44.0861 43.3198 46.9051 41.0524 48.0108 39.228C48.1766 38.9515 48.122 38.6207 47.8456 38.4548C47.5691 38.289 47.2372 38.3436 47.0713 38.62C46.0762 40.2233 43.478 42.2694 39.2762 43.2092C39.1777 43.2256 39.0989 43.2705 39.0311 43.3269C36.5216 44.0758 34.4898 45.7544 33.2498 48.0187C31.9782 50.3407 31.7018 53.0504 32.4205 55.5935C32.5311 55.8147 32.7522 55.9801 32.9734 55.9801H33.0285C33.3049 55.9248 33.5256 55.5935 33.415 55.3171C33.0452 53.9387 32.9869 52.4998 33.2552 51.1231C34.9964 52.6108 37.1651 53.3821 39.6077 53.3821C42.8696 53.3821 45.9099 51.7781 47.7343 49.1244C47.7896 49.0691 47.8453 48.9583 47.9006 48.903C51.3837 43.8167 51.5497 34.3632 51.4392 30.5485C51.4392 30.3273 51.2727 30.106 51.0515 30.0507C50.9962 30.0231 50.9375 30.0092 50.8787 30.0075Z" fill="#090E47"/>
</svg>
