<svg width="864" height="548" viewBox="0 0 864 548" fill="none" xmlns="http://www.w3.org/2000/svg">
<path d="M789.902 96.25H337.902V189.25H789.902V96.25Z" stroke="#3F3D56" stroke-miterlimit="10"/>
<path d="M68.1677 228.354C81.0569 208.213 105.461 194.625 133.444 194.625C174.865 194.625 208.444 224.398 208.444 261.125C208.444 284.607 194.717 305.246 173.991 317.078" stroke="#3F3D56" stroke-miterlimit="10"/>
<path d="M757.902 114.25H305.902V207.25H757.902V114.25Z" fill="#00AEEF"/>
<path d="M20.171 25.5002C24.037 25.5002 27.1711 22.3661 27.1711 18.5001C27.1711 14.634 24.037 11.5 20.171 11.5C16.3049 11.5 13.1709 14.634 13.1709 18.5001C13.1709 22.3661 16.3049 25.5002 20.171 25.5002Z" fill="#090E47"/>
<path d="M44.171 25.5002C48.037 25.5002 51.1711 22.3661 51.1711 18.5001C51.1711 14.634 48.037 11.5 44.171 11.5C40.3049 11.5 37.1709 14.634 37.1709 18.5001C37.1709 22.3661 40.3049 25.5002 44.171 25.5002Z" fill="#090E47"/>
<path d="M68.171 25.5002C72.037 25.5002 75.1711 22.3661 75.1711 18.5001C75.1711 14.634 72.037 11.5 68.171 11.5C64.3049 11.5 61.1709 14.634 61.1709 18.5001C61.1709 22.3661 64.3049 25.5002 68.171 25.5002Z" fill="#090E47"/>
<path d="M841.171 0.5H1.17139V546.5H841.171V0.5Z" stroke="#3F3D56" stroke-miterlimit="10"/>
<path d="M1.17139 30.835H841.171" stroke="#3F3D56" stroke-miterlimit="10"/>
<path d="M22.171 22.5002C26.037 22.5002 29.1711 19.3661 29.1711 15.5001C29.1711 11.634 26.037 8.5 22.171 8.5C18.3049 8.5 15.1709 11.634 15.1709 15.5001C15.1709 19.3661 18.3049 22.5002 22.171 22.5002Z" stroke="#3F3D56" stroke-miterlimit="10"/>
<path d="M46.171 22.5002C50.037 22.5002 53.1711 19.3661 53.1711 15.5001C53.1711 11.634 50.037 8.5 46.171 8.5C42.3049 8.5 39.1709 11.634 39.1709 15.5001C39.1709 19.3661 42.3049 22.5002 46.171 22.5002Z" stroke="#3F3D56" stroke-miterlimit="10"/>
<path d="M70.171 22.5002C74.037 22.5002 77.1711 19.3661 77.1711 15.5001C77.1711 11.634 74.037 8.5 70.171 8.5C66.3049 8.5 63.1709 11.634 63.1709 15.5001C63.1709 19.3661 66.3049 22.5002 70.171 22.5002Z" stroke="#3F3D56" stroke-miterlimit="10"/>
<path d="M264.898 30.835V547.276" stroke="#3F3D56" stroke-miterlimit="10"/>
<path d="M506.402 284.75H359.402V304.75H506.402V284.75Z" fill="#F2F2F2"/>
<path d="M737.402 284.75H590.402V304.75H737.402V284.75Z" fill="#F2F2F2"/>
<path d="M514.402 274.75H367.402V294.75H514.402V274.75Z" stroke="#3F3D56" stroke-miterlimit="10"/>
<path d="M506.402 439.75H359.402V459.75H506.402V439.75Z" fill="#F2F2F2"/>
<path d="M514.402 429.75H367.402V449.75H514.402V429.75Z" stroke="#3F3D56" stroke-miterlimit="10"/>
<path d="M737.902 360.25H359.902V380.25H737.902V360.25Z" fill="#F2F2F2"/>
<path d="M745.902 352.25H367.902V372.25H745.902V352.25Z" stroke="#3F3D56" stroke-miterlimit="10"/>
<path d="M745.402 274.75H598.402V294.75H745.402V274.75Z" stroke="#3F3D56" stroke-miterlimit="10"/>
<path d="M857.146 408.28C857.949 408.28 858.6 407.629 858.6 406.826C858.6 406.023 857.949 405.372 857.146 405.372C856.343 405.372 855.692 406.023 855.692 406.826C855.692 407.629 856.343 408.28 857.146 408.28Z" fill="#F2F2F2"/>
<path d="M862.167 427.245C862.97 427.245 863.621 426.594 863.621 425.791C863.621 424.988 862.97 424.337 862.167 424.337C861.364 424.337 860.713 424.988 860.713 425.791C860.713 426.594 861.364 427.245 862.167 427.245Z" fill="#F2F2F2"/>
<path d="M859.387 417.762C860.19 417.762 860.841 417.111 860.841 416.308C860.841 415.505 860.19 414.854 859.387 414.854C858.584 414.854 857.933 415.505 857.933 416.308C857.933 417.111 858.584 417.762 859.387 417.762Z" fill="#F2F2F2"/>
<path d="M42.3103 275.123C42.3103 301.255 59.4785 323.836 84.3738 334.538L48.772 248.256C44.5355 256.579 42.3216 265.784 42.3103 275.123ZM167.329 271.791C167.329 263.633 164.016 257.982 161.174 253.584C157.391 248.146 153.846 243.541 153.846 238.103C153.846 232.035 159.048 226.386 166.378 226.386C166.709 226.386 167.022 226.422 167.346 226.439C153.022 215.069 135.233 208.952 116.945 209.108C90.871 209.108 67.9313 220.942 54.5861 238.865C56.3371 238.911 57.9888 238.942 59.3891 238.942C67.1957 238.942 79.2798 238.105 79.2798 238.105C83.3031 237.895 83.7774 243.122 79.7597 243.543C79.7597 243.543 75.7151 243.963 71.2161 244.172L98.395 315.679L114.73 272.35L103.1 244.171C99.0809 243.962 95.2735 243.541 95.2735 243.541C91.2516 243.333 91.7231 237.894 95.745 238.103C95.745 238.103 108.07 238.941 115.404 238.941C123.209 238.941 135.295 238.103 135.295 238.103C139.321 237.894 139.794 243.12 135.773 243.541C135.773 243.541 131.722 243.962 127.231 244.171L154.203 315.137L161.646 293.132C164.874 284.001 167.329 277.443 167.329 271.791H167.329Z" fill="#00AEEF"/>
<path d="M118.255 280.898L95.8616 338.453C110.952 342.369 126.835 342.005 141.73 337.402C141.523 337.117 141.345 336.812 141.199 336.492L118.255 280.898ZM182.434 243.45C182.773 245.697 182.941 247.966 182.937 250.239C182.937 256.938 181.522 264.468 177.262 273.885L154.464 332.187C176.653 320.742 191.577 299.479 191.577 275.123C191.558 263.917 188.39 252.942 182.434 243.45L182.434 243.45Z" fill="#00AEEF"/>
</svg>
