<svg width="36" height="36" viewBox="0 0 36 36" fill="none" xmlns="http://www.w3.org/2000/svg">
<path fill-rule="evenodd" clip-rule="evenodd" d="M34.9626 22.3835C35.1326 22.2056 35.3938 22.1487 35.6226 22.2396C35.8506 22.3308 36 22.5516 36 22.7971V35.3962C36 35.7274 35.7314 35.996 35.3999 35.996H23.4001C23.246 35.9962 23.0979 35.9369 22.9864 35.8309C22.7464 35.6027 22.7368 35.2229 22.965 34.9828L26.571 31.1964H15.5767C15.5316 31.5254 15.3951 31.8355 15.1831 32.0909L12.1122 35.7801L12.1119 35.7804C11.8998 36.035 11.5214 36.0696 11.2668 35.8575L8.50012 33.5542C8.24551 33.3424 8.21091 32.9642 8.42267 32.7094L9.6828 31.1964H0.600128C0.268616 31.1964 0 30.9278 0 30.5966V4.79848C0.00192261 3.14241 1.3439 1.80053 3.00009 1.79861H3.59995C5.25613 1.80053 6.59811 3.14241 6.60004 4.79848H27.3697L31.6357 0.192527C31.8606 -0.0508025 32.2402 -0.0653583 32.4833 0.15957L35.1233 2.6044C35.3666 2.82905 35.3817 3.2086 35.1571 3.45193L33.9343 4.77184L34.8143 5.59081L34.8148 5.59136C35.0582 5.81629 35.073 6.19611 34.8481 6.43916L32.4031 9.07898H32.4001V25.0769L34.9626 22.3835ZM32.3998 7.31286L33.5597 6.05832L33.1197 5.65048L32.3998 6.43045V7.31286ZM31.2 5.95149V5.96L26.1257 11.4437L24.3635 9.81344L30.4763 3.20785L32.2385 4.8381L31.2071 5.95149H31.2ZM23.593 12.4136L24.9732 12.011L23.8877 11.0061L23.593 12.4136ZM32.107 1.44653L33.8683 3.07595L33.0532 3.95836L31.2915 2.32729L32.107 1.44653ZM3.60034 2.99851H3.00049C2.00623 2.99851 1.20038 3.8043 1.20038 4.79849V27.6124C1.71674 27.2153 2.349 26.9988 3.00049 26.9966H3.60034C4.25156 26.9988 4.88409 27.2153 5.40045 27.6124V4.79849C5.40045 3.8043 4.5946 2.99851 3.60034 2.99851ZM3.00049 28.1966H3.60034C4.5946 28.1966 5.40045 29.0027 5.40045 29.9966H1.20038C1.20038 29.0027 2.00623 28.1966 3.00049 28.1966ZM13.8771 31.7843L14.2611 31.3235V31.3218L14.2616 31.3213C14.4734 31.0664 14.4385 30.6883 14.1836 30.4765L13.2616 29.7108C13.2613 29.7108 13.2613 29.7105 13.261 29.7105C13.0064 29.4985 12.6282 29.5331 12.4162 29.7877L12.0328 30.2491L13.8771 31.7843ZM11.5741 34.5514L9.72949 33.0162L11.2651 31.1711L13.1094 32.7066L11.5741 34.5514ZM14.9515 29.5563C15.099 29.6818 15.225 29.8304 15.3247 29.9966H27.7143L31.2003 26.3367V7.72672L26.6006 12.6974C26.5489 12.7504 26.4879 12.7935 26.4207 12.824C26.4044 12.832 26.3888 12.8397 26.3737 12.8451C26.3668 12.8476 26.3602 12.8508 26.3536 12.8541C26.346 12.8579 26.3384 12.8617 26.33 12.8644L22.9698 13.8435C22.8756 13.8709 22.7759 13.8748 22.6795 13.8547C22.3552 13.7872 22.147 13.4694 22.2145 13.1451L22.9308 9.72059C22.9336 9.70876 22.938 9.69735 22.9424 9.68616C22.9451 9.67917 22.9479 9.67226 22.9501 9.66539C22.9561 9.64726 22.9616 9.63106 22.9688 9.61376C22.9937 9.54977 23.03 9.49045 23.0756 9.43909L26.2597 5.99843H6.60022V29.9966H10.6803L11.4944 29.0205C12.1305 28.2564 13.2654 28.1529 14.0294 28.789L14.9515 29.5563ZM34.8 34.796H24.7997L34.8 24.2968V34.796ZM28.246 33.226C28.3388 33.4501 28.5577 33.5962 28.8005 33.5962H33.0003C33.3318 33.5962 33.6005 33.3276 33.6005 32.9964V28.7966C33.6005 28.4651 33.3316 28.1968 33.0003 28.1968C32.8413 28.1968 32.6886 28.26 32.5763 28.3726L28.3762 32.572C28.2045 32.7437 28.1532 33.0019 28.246 33.226ZM32.4003 30.2447V32.3962H30.2486L32.4003 30.2447Z" fill="#090E47"/>
<path d="M14.5049 23.4497V22.0922L11.3577 18.945L14.5049 15.7978V14.4401L10 18.945L14.5049 23.4497Z" fill="#090E47"/>
<path d="M15.9449 25.0003H16.905L18.825 13H17.865L15.9449 25.0003Z" fill="#090E47"/>
<path d="M20.2651 14.5507V15.9081L23.4123 19.0553L20.2651 22.2025V23.5603L24.77 19.0553L20.2651 14.5507Z" fill="#090E47"/>
</svg>
