<svg width="43" height="80" viewBox="0 0 43 80" fill="none" xmlns="http://www.w3.org/2000/svg">
<path d="M7.5 2.5C4.73858 2.5 2.5 4.73858 2.5 7.5V72.5C2.5 75.2614 4.73858 77.5 7.5 77.5H35.5C38.2614 77.5 40.5 75.2614 40.5 72.5V7.5C40.5 4.73858 38.2614 2.5 35.5 2.5H7.5ZM7.5 0.5H35.5C39.366 0.5 42.5 3.63401 42.5 7.5V72.5C42.5 76.366 39.366 79.5 35.5 79.5H7.5C3.63401 79.5 0.5 76.366 0.5 72.5V7.5C0.5 3.63401 3.63401 0.5 7.5 0.5Z" fill="#090E47" stroke="#090E47"/>
<path d="M23 70.5C23 71.3284 22.3284 72 21.5 72C20.6716 72 20 71.3284 20 70.5C20 69.6716 20.6716 69 21.5 69C22.3284 69 23 69.6716 23 70.5Z" fill="#090E47" stroke="#090E47"/>
<path d="M41.5 62V64H1.5V62H41.5Z" fill="#090E47" stroke="#090E47"/>
<path d="M41.5 11V13H1.5V11H41.5Z" fill="#090E47" stroke="#090E47"/>
<path d="M6.51033 56.661H29.9854C30.2661 56.661 30.4958 56.4314 30.4958 56.1507C30.4958 55.87 30.2661 55.6404 29.9854 55.6404H28.4545V54.9259C28.0972 54.7218 27.74 54.4921 27.4338 54.2114V55.6404H25.3925V25.1738L27.0255 26.6282C27.2297 26.8068 27.4338 27.2916 27.4338 27.5723V45.3317C27.74 45.051 28.0972 44.8214 28.4545 44.6173V27.5723C28.4545 27.0109 28.1227 26.2454 27.689 25.8627L25.9794 24.3317C25.7242 24.1021 25.367 24 25.0353 24C24.7801 24 24.5504 24.051 24.3463 24.1786L21.1823 26.0158C20.6975 26.2965 20.2892 26.9854 20.2892 27.5468V55.6148H19.2685V44.158C19.2685 43.5966 18.8603 42.9077 18.3755 42.627L16.3597 41.5553C16.1045 41.4022 15.7473 41.3512 15.39 41.3512C15.0838 41.3512 14.7776 41.4022 14.548 41.5298L12.0729 42.7035C11.5626 42.9332 11.1543 43.5966 11.1543 44.1835V55.6659H9.113V53.4459L10.1337 52.9101V52.3232L9.113 52.8591V50.384L10.1337 49.8481V49.2613L9.113 49.7971V47.322L10.1337 46.7862V46.1993L9.113 46.7351V44.26L10.1337 43.7242V43.5201C10.1337 43.3925 10.1592 43.2394 10.2102 43.1118L9.06197 43.6732V41.1981L12.8894 39.1823V41.1726L13.9101 40.6877V27.4447L15.288 28.6695C15.4921 28.8481 15.6962 29.3329 15.6962 29.5881V40.254C15.9514 40.2795 16.1811 40.356 16.3597 40.4581L16.7169 40.6367V29.5881C16.7169 29.0267 16.3852 28.2612 15.9514 27.904L14.2418 26.3985C13.9866 26.1689 13.6294 26.0668 13.2977 26.0668C13.0425 26.0668 12.8129 26.1179 12.6088 26.2454L8.93439 28.0826C8.44958 28.3633 8.04131 29.0523 8.04131 29.6136V55.6404H6.51033C6.22965 55.6404 6 55.87 6 56.1507C6 56.4314 6.22965 56.661 6.51033 56.661ZM21.3099 27.5723C21.3099 27.3682 21.514 27.0109 21.6926 26.9089L24.3718 25.3269V27.6744L21.3099 29.4095V27.5723ZM21.3099 29.9964L24.3718 28.2612V30.7363L21.3099 32.4715V29.9964ZM21.3099 33.0583L24.3718 31.3232V33.7983L21.3099 35.5334V33.0583ZM21.3099 36.1203L24.3718 34.3852V36.8603L21.3099 38.5954V36.1203ZM21.3099 39.1823L24.3718 37.4472V39.9222L21.3099 41.6574V39.1823ZM21.3099 42.2442L24.3718 40.5091V42.9842L21.3099 44.7193V42.2442ZM21.3099 45.3062L24.3718 43.5711V46.0462L21.3099 47.7813V45.3062ZM21.3099 48.3682L24.3718 46.6331V49.1082L21.3099 50.8433V48.3682ZM21.3099 51.4302L24.3718 49.695V52.1701L21.3099 53.9052V51.4302ZM21.3099 54.4921L24.3718 52.757V55.6404H21.3099V54.4921ZM15.9514 42.5249L17.8907 43.5456C18.0693 43.6221 18.2479 43.9794 18.2479 44.158V55.6404H15.9514V42.5249ZM12.1239 44.158C12.1239 43.9794 12.3026 43.6732 12.4557 43.5966L14.9307 42.4229V55.6404H12.1239V44.158ZM9.06197 29.5881C9.06197 29.4095 9.24059 29.0778 9.4192 28.9502L12.8894 27.2151V29.4095L9.06197 31.4253V29.5881ZM9.06197 31.9866L12.8894 29.9708V32.4459L9.06197 34.4617V31.9866ZM9.06197 35.0486L12.8894 33.0328V35.5079L9.06197 37.5237V35.0486ZM9.06197 38.1106L12.8894 36.0948V38.5699L9.06197 40.5857V38.1106Z" fill="#00AEEF"/>
<path d="M26.4132 49.7716C26.4132 52.4508 28.5821 54.6197 31.2613 54.6197C33.9406 54.6197 36.1094 52.4508 36.1094 49.7716C36.1094 47.0924 33.9406 44.9235 31.2613 44.9235C28.5821 44.9235 26.4132 47.0924 26.4132 49.7716ZM31.2613 45.9441C33.3792 45.9441 35.0888 47.6537 35.0888 49.7716C35.0888 51.8894 33.3792 53.599 31.2613 53.599C29.1435 53.599 27.4339 51.8894 27.4339 49.7716C27.4339 47.6537 29.1435 45.9441 31.2613 45.9441Z" fill="#00AEEF"/>
</svg>
