<svg width="43" height="80" viewBox="0 0 43 80" fill="none" xmlns="http://www.w3.org/2000/svg">
<path d="M7.5 2.5C4.73858 2.5 2.5 4.73858 2.5 7.5V72.5C2.5 75.2614 4.73858 77.5 7.5 77.5H35.5C38.2614 77.5 40.5 75.2614 40.5 72.5V7.5C40.5 4.73858 38.2614 2.5 35.5 2.5H7.5ZM7.5 0.5H35.5C39.366 0.5 42.5 3.63401 42.5 7.5V72.5C42.5 76.366 39.366 79.5 35.5 79.5H7.5C3.63401 79.5 0.5 76.366 0.5 72.5V7.5C0.5 3.63401 3.63401 0.5 7.5 0.5Z" fill="#090E47" stroke="#090E47"/>
<path d="M23 70.5C23 71.3284 22.3284 72 21.5 72C20.6716 72 20 71.3284 20 70.5C20 69.6716 20.6716 69 21.5 69C22.3284 69 23 69.6716 23 70.5Z" fill="#090E47" stroke="#090E47"/>
<path d="M41.5 62V64H1.5V62H41.5Z" fill="#090E47" stroke="#090E47"/>
<path d="M41.5 11V13H1.5V11H41.5Z" fill="#090E47" stroke="#090E47"/>
<path d="M35.1831 39.0314C34.5563 39.0314 34.0463 38.521 34.0463 37.8949C34.0463 37.2677 34.5566 36.7577 35.1831 36.7577C35.8093 36.7577 36.3197 37.2681 36.3197 37.8949C36.3197 38.521 35.809 39.0314 35.1831 39.0314ZM35.1831 37.3574C34.8865 37.3574 34.6453 37.5985 34.6453 37.8949C34.6453 38.1912 34.8865 38.432 35.1831 38.432C35.4795 38.432 35.7203 38.1912 35.7203 37.8949C35.7203 37.5985 35.4788 37.3574 35.1831 37.3574Z" fill="#00AEEF"/>
<path d="M34.5674 45.4669C33.9406 45.4669 33.4305 44.9568 33.4305 44.3304C33.4305 43.7039 33.9412 43.1932 34.5674 43.1932C35.1948 43.1932 35.7042 43.7039 35.7042 44.3304C35.7042 44.9568 35.1948 45.4669 34.5674 45.4669ZM34.5674 43.7922C34.2714 43.7922 34.0296 44.0334 34.0296 44.33C34.0296 44.6264 34.2714 44.8675 34.5674 44.8675C34.864 44.8675 35.1052 44.6264 35.1052 44.33C35.1049 44.0334 34.864 43.7922 34.5674 43.7922Z" fill="#00AEEF"/>
<path d="M22.7616 33.5599C22.6229 33.5599 22.5112 33.6725 22.5112 33.8109C22.5112 33.9497 22.6232 34.062 22.7616 34.062C22.901 34.062 23.013 33.9494 23.013 33.8109C23.013 33.6722 22.901 33.5599 22.7616 33.5599Z" fill="#00AEEF"/>
<path d="M33.377 31.608C33.5394 31.697 33.7225 31.7522 33.9199 31.7522C34.5461 31.7522 35.0564 31.2422 35.0564 30.6153C35.0564 29.9885 34.5457 29.4785 33.9199 29.4785C33.2931 29.4785 32.7831 29.9885 32.7831 30.6153C32.7831 30.7793 32.8194 30.9343 32.8823 31.075L29.2513 34.706H28.6899C27.9415 33.1028 26.6618 31.7978 25.0761 31.0182V29.2884H29.3849C29.5374 29.7366 29.9575 30.0619 30.4564 30.0619C31.0832 30.0619 31.5936 29.5519 31.5929 28.9247C31.5929 28.2979 31.0829 27.7879 30.4564 27.7879C29.9575 27.7879 29.5374 28.1132 29.3849 28.5611H24.3488V30.7053C23.5109 30.3953 22.6046 30.2256 21.6588 30.2256C20.7982 30.2256 19.9711 30.3678 19.1976 30.6268V27.7732H12.0731C11.9203 27.325 11.5002 27 11.0013 27C10.3748 27 9.86446 27.5101 9.86446 28.1372C9.86446 28.764 10.3745 29.274 11.0013 29.274C11.5005 29.274 11.9209 28.9487 12.0734 28.5005H18.4703V30.912C16.5956 31.7592 15.1178 33.3286 14.3934 35.2671H13.6887L10.4425 32.0205C10.5308 31.8591 10.5857 31.6763 10.5857 31.4795C10.5857 30.8524 10.0756 30.3423 9.44883 30.3423C8.82203 30.3423 8.31166 30.8524 8.31166 31.4795C8.31166 32.1063 8.82203 32.6163 9.44883 32.6163C9.61311 32.6163 9.76845 32.5796 9.90976 32.5165L13.3876 35.9947H14.1618C14.031 36.4891 13.9484 37.0027 13.9181 37.5306H9.22044C9.07913 37.0633 8.64946 36.7194 8.13685 36.7194C7.51005 36.7194 7 37.2295 7 37.8563C7 38.4831 7.51005 38.9931 8.13685 38.9931C8.62203 38.9931 9.03415 38.6866 9.19683 38.2579H13.9111C13.9331 38.8859 14.0301 39.4945 14.1927 40.0757H12.8052L9.25967 43.6215C9.09635 43.531 8.91134 43.4745 8.71166 43.4745C8.08486 43.4745 7.57481 43.9852 7.57481 44.6117C7.57481 45.2382 8.08486 45.7482 8.71166 45.7482C9.33878 45.7482 9.84852 45.2382 9.84852 44.6117C9.84852 44.4499 9.81343 44.2968 9.75218 44.1571L13.1066 40.8037H14.4364C15.1749 42.6917 16.631 44.2184 18.4703 45.0496V46.4394L14.6792 46.4401C14.5264 45.9919 14.1063 45.6662 13.6074 45.6662C12.9806 45.6662 12.4706 46.1766 12.4706 46.8034C12.4706 47.4299 12.9806 47.9399 13.6074 47.9399C14.1066 47.9399 14.527 47.6143 14.6795 47.1664H19.1979V45.3342C19.9714 45.5932 20.7986 45.7354 21.6592 45.7354C22.605 45.7354 23.5112 45.5657 24.3491 45.2557V47.7725H29.9294C30.0822 48.2203 30.502 48.546 31.0012 48.546C31.628 48.546 32.1384 48.036 32.1377 47.4095C32.1377 46.7823 31.6277 46.2726 31.0012 46.2726C30.5023 46.2726 30.0819 46.5977 29.9298 47.0458H25.0761V44.9434C26.8085 44.0917 28.1753 42.6132 28.8832 40.8037H30.5696L33.8638 44.0975L34.378 43.5836L30.8704 40.0761H29.1266C29.2896 39.4949 29.3862 38.8863 29.4082 38.2582H34.4698V37.5309H29.4015C29.3597 36.7998 29.2159 36.0964 28.9849 35.4333H29.5524L33.377 31.608ZM33.9202 30.0779C34.2162 30.0779 34.4574 30.319 34.4574 30.6153C34.4574 30.9117 34.2162 31.1528 33.9202 31.1528C33.6236 31.1528 33.3824 30.9117 33.3824 30.6153C33.3824 30.319 33.6236 30.0779 33.9202 30.0779ZM30.4564 28.3879C30.7527 28.3879 30.9936 28.6287 30.9936 28.9251C30.9936 29.2214 30.7527 29.4625 30.4564 29.4625C30.1601 29.4625 29.9189 29.2214 29.9189 28.9251C29.9192 28.6287 30.1601 28.3879 30.4564 28.3879ZM11.0013 28.6747C10.705 28.6747 10.4638 28.4338 10.4638 28.1375C10.4638 27.8412 10.7053 27.6 11.0013 27.6C11.2977 27.6 11.5385 27.8412 11.5385 28.1375C11.5385 28.4338 11.2977 28.6747 11.0013 28.6747ZM9.91742 31.7369L9.70657 31.9481C9.62969 31.9905 9.54261 32.017 9.44883 32.017C9.1525 32.017 8.91134 31.7761 8.91134 31.4798C8.91134 31.1835 9.1525 30.9423 9.44883 30.9423C9.74516 30.9423 9.986 31.1835 9.986 31.4798C9.986 31.5733 9.95984 31.66 9.91742 31.7369ZM8.13685 38.3941C7.84052 38.3941 7.59937 38.1529 7.59937 37.8566C7.59937 37.5602 7.84084 37.3194 8.13685 37.3194C8.43319 37.3194 8.67402 37.5602 8.67402 37.8566C8.67402 38.1529 8.43319 38.3941 8.13685 38.3941ZM8.71198 45.1492C8.41565 45.1492 8.17449 44.908 8.17449 44.6117C8.17449 44.3153 8.41596 44.0742 8.71198 44.0742C9.00832 44.0742 9.24915 44.3153 9.24915 44.6117C9.24915 44.908 9.00832 45.1492 8.71198 45.1492ZM13.6074 47.3409C13.3111 47.3409 13.0699 47.1001 13.0699 46.8037C13.0699 46.5074 13.3114 46.2662 13.6074 46.2662C13.9037 46.2662 14.1446 46.5074 14.1446 46.8037C14.1446 47.1001 13.9037 47.3409 13.6074 47.3409ZM31.0009 46.872C31.2969 46.872 31.5381 47.1131 31.5381 47.4098C31.5381 47.7058 31.2969 47.9473 31.0009 47.9473C30.7046 47.9473 30.4634 47.7058 30.4634 47.4098C30.4637 47.1131 30.7046 46.872 31.0009 46.872ZM19.0729 33.3395L18.514 32.3621C18.4738 32.2922 18.4984 32.2036 18.5682 32.1637C18.6368 32.1235 18.7264 32.1477 18.7663 32.2176L19.2799 33.1152C19.8515 32.5567 20.662 32.208 21.5609 32.208C22.4589 32.208 23.2691 32.556 23.841 33.1136L24.3536 32.217C24.3928 32.1471 24.4818 32.1229 24.5523 32.1631C24.6212 32.2032 24.6461 32.2916 24.6062 32.3615L24.048 33.3372C24.4547 33.8246 24.6972 34.4352 24.6972 35.098H18.4253C18.4253 34.4361 18.6665 33.8259 19.0729 33.3395ZM17.9427 36.5184V39.6518H17.9408C17.9134 39.988 17.6097 40.2531 17.2377 40.2531C16.8661 40.2531 16.5621 39.988 16.5347 39.6518H16.5331V36.5184H16.5338C16.5331 36.5063 16.5331 36.4942 16.5331 36.4824C16.5331 36.1235 16.8489 35.832 17.2381 35.832C17.6272 35.832 17.943 36.1232 17.943 36.4824C17.943 36.4942 17.943 36.5063 17.9417 36.5184H17.9427ZM24.7313 40.1631C24.7313 40.1765 24.7294 40.188 24.7246 40.1992C24.7297 40.2311 24.7313 40.2623 24.7313 40.2949C24.7313 40.6171 24.4774 40.884 24.1447 40.9354V40.9446H23.87V42.8751H23.8675C23.8407 43.2113 23.5357 43.4758 23.1651 43.4758C22.7935 43.4758 22.4898 43.2113 22.4624 42.8751H22.4592V40.9446H20.6639V42.8751H20.6617C20.6346 43.2113 20.3303 43.4758 19.959 43.4758C19.5874 43.4758 19.2834 43.2113 19.256 42.8751H19.2534V40.9446H18.9765V40.9348C18.6441 40.8828 18.3912 40.6158 18.3912 40.2942C18.3912 40.2617 18.3941 40.2304 18.3985 40.1985C18.3941 40.188 18.3912 40.1759 18.3912 40.1625V35.4853C18.3912 35.4358 18.4311 35.3953 18.4811 35.3953H24.6413C24.6914 35.3953 24.7313 35.4358 24.7313 35.4853V40.1631V40.1631ZM26.5951 36.5168V39.6505H26.5932C26.5654 39.9867 26.2608 40.2512 25.8902 40.2512C25.5185 40.2512 25.2142 39.9867 25.1871 39.6505H25.1852V36.5168H25.1865C25.1858 36.5044 25.1852 36.4926 25.1852 36.4808C25.1852 36.1219 25.5007 35.8307 25.8902 35.8307C26.2793 35.8307 26.5951 36.1219 26.5951 36.4808C26.5951 36.4929 26.5951 36.5047 26.5938 36.5168H26.5951Z" fill="#00AEEF"/>
<path d="M20.3637 34.062C20.5024 34.062 20.6147 33.9496 20.6147 33.8109C20.6147 33.6723 20.5024 33.5599 20.3637 33.5599C20.2251 33.5599 20.1127 33.6723 20.1127 33.8109C20.1127 33.9496 20.2251 34.062 20.3637 34.062Z" fill="#00AEEF"/>
</svg>
