<svg width="43" height="80" viewBox="0 0 43 80" fill="none" xmlns="http://www.w3.org/2000/svg">
<path d="M7.5 2.5C4.73858 2.5 2.5 4.73858 2.5 7.5V72.5C2.5 75.2614 4.73858 77.5 7.5 77.5H35.5C38.2614 77.5 40.5 75.2614 40.5 72.5V7.5C40.5 4.73858 38.2614 2.5 35.5 2.5H7.5ZM7.5 0.5H35.5C39.366 0.5 42.5 3.63401 42.5 7.5V72.5C42.5 76.366 39.366 79.5 35.5 79.5H7.5C3.63401 79.5 0.5 76.366 0.5 72.5V7.5C0.5 3.63401 3.63401 0.5 7.5 0.5Z" fill="#090E47" stroke="#090E47"/>
<path d="M23 70.5C23 71.3284 22.3284 72 21.5 72C20.6716 72 20 71.3284 20 70.5C20 69.6716 20.6716 69 21.5 69C22.3284 69 23 69.6716 23 70.5Z" fill="#090E47" stroke="#090E47"/>
<path d="M41.5 62V64H1.5V62H41.5Z" fill="#090E47" stroke="#090E47"/>
<path d="M41.5 11V13H1.5V11H41.5Z" fill="#090E47" stroke="#090E47"/>
<path d="M36.0385 28H7.96154C7.42308 28 7 28.4362 7 28.9914V50.0086C7 50.4052 7.23077 50.7621 7.57692 50.9207C7.69231 50.9603 7.84615 51 7.96154 51C8.19231 51 8.42308 50.9207 8.61538 50.7224L14.6154 45.0121H36.0385C36.5769 45.0121 37 44.5759 37 44.0207V28.9914C37 28.4362 36.5769 28 36.0385 28ZM23.1154 31.0931H30.3077V32.2828H23.1154V31.0931ZM10.1923 31.2121C10.0769 31.0931 10.1923 30.9741 10.2692 30.9345C10.3846 30.8155 10.5 30.9345 10.5385 31.0138L11.3077 32.4017C12.1154 31.5293 13.3077 31.0138 14.6538 31.0138C15.9615 31.0138 17.1538 31.569 18 32.4017L18.7692 31.0138C18.8462 30.8948 19 30.8948 19.0385 30.9345C19.1538 31.0138 19.1538 31.1724 19.1154 31.2121L18.3462 32.6793C18.9615 33.4328 19.3077 34.3052 19.3077 35.3362H10.0385C10.0385 34.3052 10.3846 33.3534 11 32.6793L10.1923 31.2121ZM19.3077 41.1259C19.3077 41.1655 19.3077 41.2052 19.3077 41.2845C19.3077 41.6414 18.9615 41.9586 18.4615 41.9586H18.0769H16.0385H13.3462H11.3077H10.9231C10.3846 41.8793 10.0769 41.6017 10.0769 41.2845C10.0769 41.2448 10.0769 41.2052 10.0769 41.1259V41.0862V35.8914C10.0769 35.8517 10.1538 35.8121 10.2308 35.8121H19.2692C19.3462 35.8121 19.4231 35.8517 19.4231 35.8914L19.3077 41.1259C19.3077 41.2052 19.3462 41.1259 19.3077 41.1259ZM28.5385 41.7207H23.1154V40.531H28.5385V41.7207ZM33.9615 39.7379H23.1154V38.5483H33.9615V39.7379ZM33.9615 37.7552H23.1154V36.5655H33.9615V37.7552ZM33.9615 35.7724H23.1154V34.5828H33.9615V35.7724Z" fill="#00AEEF"/>
</svg>
