<svg width="51" height="70" viewBox="0 0 51 70" fill="none" xmlns="http://www.w3.org/2000/svg">
<path d="M42.5115 26.6162H41.477H9.52299H8.48851C4.06322 26.6162 0.5 30.1794 0.5 34.5472V49.3748C0.5 50.007 1.01724 50.5243 1.64943 50.5243C2.28161 50.5243 2.79885 50.007 2.79885 49.3748V34.4898C2.79885 31.4438 5.27012 28.9151 8.37356 28.8576V49.3174C8.37356 53.6852 11.9368 57.2484 16.3621 57.2484V68.7426C16.3621 69.3748 16.8793 69.8921 17.5115 69.8921C18.1437 69.8921 18.6609 69.3748 18.6609 68.7426V57.2484H32.3391V68.7426C32.3391 69.3748 32.8563 69.8921 33.4885 69.8921C34.1207 69.8921 34.6379 69.3748 34.6379 68.7426V57.2484C39.0057 57.2484 42.6264 53.6852 42.6264 49.3174V28.9151C45.7299 28.9725 48.2011 31.5013 48.2011 34.5472V49.3748C48.2011 50.007 48.7184 50.5243 49.3506 50.5243C49.9828 50.5243 50.5 50.007 50.5 49.3748V34.4898C50.5 30.122 46.8793 26.6162 42.5115 26.6162ZM40.3276 49.3748C40.3276 52.4783 37.7989 55.007 34.6379 55.007H16.3621C13.2011 55.007 10.6724 52.4783 10.6724 49.3748V28.9151H40.2701V49.3748H40.3276Z" fill="#090E47"/>
<path d="M8.3736 22.7082C8.3736 23.3404 8.89084 23.8576 9.52302 23.8576H41.4196C42.0518 23.8576 42.569 23.3404 42.569 22.7082C42.569 17.1909 39.9253 12.3059 35.8449 9.20244L40.0977 2.76565C40.4426 2.24841 40.3276 1.50129 39.7529 1.15646C39.2357 0.811632 38.4885 0.926574 38.1437 1.50129L33.8334 7.93807C31.3621 6.55876 28.4885 5.69669 25.3851 5.69669C22.3391 5.69669 19.4655 6.50129 16.9368 7.93807L12.6265 1.50129C12.2816 0.984045 11.5345 0.811632 11.0173 1.15646C10.5 1.50129 10.3276 2.24841 10.6724 2.76565L15.1552 9.20244C11.0173 12.3059 8.3736 17.1909 8.3736 22.7082ZM10.7299 21.5588C11.3046 14.03 17.7414 8.05301 25.5 8.05301C33.2587 8.05301 39.6954 14.03 40.2701 21.5588H10.7299Z" fill="#090E47"/>
</svg>
