<svg width="58" height="80" viewBox="0 0 58 80" fill="none" xmlns="http://www.w3.org/2000/svg">
<path d="M6.3696 48.8889C6.13385 48.8889 5.90776 48.9825 5.74106 49.1492C5.57436 49.3159 5.48071 49.542 5.48071 49.7778V69.3333C5.48071 72.1623 6.60452 74.8754 8.60491 76.8758C10.6053 78.8762 13.3184 80 16.1474 80H41.8363C44.6653 80 47.3784 78.8762 49.3788 76.8758C51.3791 74.8754 52.5029 72.1623 52.5029 69.3333V49.7778C52.5029 49.542 52.4093 49.3159 52.2426 49.1492C52.0759 48.9825 51.8498 48.8889 51.6141 48.8889C51.3783 48.8889 51.1522 48.9825 50.9855 49.1492C50.8188 49.3159 50.7252 49.542 50.7252 49.7778V60.96H7.25849V49.7778C7.25849 49.542 7.16484 49.3159 6.99814 49.1492C6.83144 48.9825 6.60535 48.8889 6.3696 48.8889ZM50.7252 62.7378V69.3333C50.7252 71.6908 49.7887 73.9517 48.1217 75.6187C46.4547 77.2857 44.1938 78.2222 41.8363 78.2222H16.1474C13.7899 78.2222 11.529 77.2857 9.86199 75.6187C8.195 73.9517 7.25849 71.6908 7.25849 69.3333V62.7378H50.7252Z" fill="#090E47"/>
<path d="M51.6141 23.1111C51.8498 23.1111 52.0759 23.0175 52.2426 22.8508C52.4093 22.6841 52.5029 22.458 52.5029 22.2222V9.77778C52.5029 7.18455 51.4728 4.69753 49.6391 2.86385C47.8054 1.03016 45.3184 0 42.7252 0H15.2585C12.6653 0 10.1782 1.03016 8.34456 2.86385C6.51087 4.69753 5.48071 7.18455 5.48071 9.77778V22.2222C5.48071 22.458 5.57436 22.6841 5.74106 22.8508C5.90776 23.0175 6.13385 23.1111 6.3696 23.1111C6.60535 23.1111 6.83144 23.0175 6.99814 22.8508C7.16484 22.6841 7.25849 22.458 7.25849 22.2222V13.0933H50.7252V22.2222C50.7252 22.458 50.8188 22.6841 50.9855 22.8508C51.1522 23.0175 51.3783 23.1111 51.6141 23.1111ZM7.25849 11.3156V9.77778C7.25849 7.65605 8.10135 5.62122 9.60164 4.12092C11.1019 2.62063 13.1368 1.77778 15.2585 1.77778H42.7252C44.8469 1.77778 46.8817 2.62063 48.382 4.12092C49.8823 5.62122 50.7252 7.65605 50.7252 9.77778V11.3156H7.25849Z" fill="#090E47"/>
<path d="M23.2586 71.4045H34.7253C34.9611 71.4045 35.1872 71.3108 35.3539 71.1441C35.5205 70.9774 35.6142 70.7513 35.6142 70.5156C35.6142 70.2799 35.5205 70.0538 35.3539 69.8871C35.1872 69.7204 34.9611 69.6267 34.7253 69.6267H23.2586C23.0229 69.6267 22.7968 69.7204 22.6301 69.8871C22.4634 70.0538 22.3698 70.2799 22.3698 70.5156C22.3698 70.7513 22.4634 70.9774 22.6301 71.1441C22.7968 71.3108 23.0229 71.4045 23.2586 71.4045Z" fill="#090E47"/>
<path d="M57.7208 35.8134L42.9564 21.0489C42.7863 20.9033 42.5676 20.8272 42.3439 20.8358C42.1202 20.8445 41.9079 20.9372 41.7496 21.0955C41.5913 21.2538 41.4986 21.466 41.4899 21.6898C41.4813 21.9135 41.5574 22.1322 41.703 22.3022L55.8364 36.4445L41.6941 50.5867C41.6011 50.6664 41.5255 50.7645 41.4722 50.8747C41.4188 50.985 41.3888 51.1051 41.3841 51.2275C41.3794 51.35 41.4 51.472 41.4447 51.5861C41.4894 51.7002 41.5571 51.8038 41.6438 51.8904C41.7304 51.977 41.834 52.0448 41.9481 52.0895C42.0621 52.1342 42.1842 52.1548 42.3066 52.1501C42.429 52.1453 42.5492 52.1154 42.6594 52.062C42.7697 52.0087 42.8678 51.9331 42.9475 51.84L57.7208 37.0756C57.8041 36.993 57.8702 36.8946 57.9154 36.7863C57.9605 36.678 57.9837 36.5618 57.9837 36.4445C57.9837 36.3271 57.9605 36.2109 57.9154 36.1026C57.8702 35.9943 57.8041 35.896 57.7208 35.8134Z" fill="#00AEEF"/>
<path d="M0.262933 37.0756L15.0274 51.84C15.1974 51.9857 15.4162 52.0618 15.6399 52.0531C15.8636 52.0445 16.0758 51.9517 16.2341 51.7934C16.3924 51.6351 16.4852 51.4229 16.4938 51.1992C16.5024 50.9755 16.4263 50.7567 16.2807 50.5867L2.14738 36.4445L16.2896 22.3022C16.4352 22.1322 16.5113 21.9135 16.5027 21.6898C16.494 21.466 16.4013 21.2538 16.243 21.0955C16.0847 20.9372 15.8725 20.8445 15.6488 20.8358C15.425 20.8272 15.2063 20.9033 15.0363 21.0489L0.262933 35.8134C0.179619 35.896 0.113491 35.9943 0.0683628 36.1026C0.0232351 36.2109 0 36.3271 0 36.4445C0 36.5618 0.0232351 36.678 0.0683628 36.7863C0.113491 36.8946 0.179619 36.9929 0.262933 37.0756Z" fill="#00AEEF"/>
</svg>
