<svg width="43" height="80" viewBox="0 0 43 80" fill="none" xmlns="http://www.w3.org/2000/svg">
<path d="M7.5 2.5C4.73858 2.5 2.5 4.73858 2.5 7.5V72.5C2.5 75.2614 4.73858 77.5 7.5 77.5H35.5C38.2614 77.5 40.5 75.2614 40.5 72.5V7.5C40.5 4.73858 38.2614 2.5 35.5 2.5H7.5ZM7.5 0.5H35.5C39.366 0.5 42.5 3.63401 42.5 7.5V72.5C42.5 76.366 39.366 79.5 35.5 79.5H7.5C3.63401 79.5 0.5 76.366 0.5 72.5V7.5C0.5 3.63401 3.63401 0.5 7.5 0.5Z" fill="#090E47" stroke="#090E47"/>
<path d="M23 70.5C23 71.3284 22.3284 72 21.5 72C20.6716 72 20 71.3284 20 70.5C20 69.6716 20.6716 69 21.5 69C22.3284 69 23 69.6716 23 70.5Z" fill="#090E47" stroke="#090E47"/>
<path d="M41.5 62V64H1.5V62H41.5Z" fill="#090E47" stroke="#090E47"/>
<path d="M41.5 11V13H1.5V11H41.5Z" fill="#090E47" stroke="#090E47"/>
<path d="M32.1194 52.8179C31.8134 52.7567 31.4465 52.6649 31.0499 52.5731C30.6548 52.4957 30.2261 52.3442 29.7689 52.1621C29.54 52.0832 29.2952 51.9917 29.0519 51.9014C28.8071 51.7949 28.562 51.674 28.3028 51.5501C27.7838 51.3212 27.2651 51.0155 26.7158 50.6963C26.1503 50.3903 25.6154 49.9778 25.0211 49.5959C24.1817 48.971 23.2961 48.2846 22.4129 47.5196C22.4129 47.5196 22.4276 47.5196 22.4276 47.5052C23.6936 46.4516 24.9599 45.2771 26.2118 44.0093C27.3413 42.8507 28.4996 41.6588 29.6786 40.4408C29.8142 40.5764 29.9495 40.7132 30.104 40.8518C30.4838 41.171 30.9416 41.5541 31.5989 41.7041C31.7519 41.7524 31.9193 41.7668 32.0723 41.7668L32.1341 41.783L32.2256 41.7668H32.3012C32.3771 41.7668 32.5157 41.7524 32.5913 41.72C32.9414 41.6441 33.263 41.4782 33.524 41.2466C34.0412 40.7759 34.2701 40.088 34.2848 39.4934C34.2848 39.2471 34.2848 39.2633 34.2701 39.0359C34.2398 38.8523 34.2107 38.6993 34.1345 38.5316C34.0106 38.2097 33.7961 37.8746 33.5078 37.6619C33.2177 37.4477 32.8811 37.3253 32.5751 37.2638C32.4074 37.2332 32.2559 37.2185 32.1032 37.2185H32.0723H32.0129H31.9646L31.8731 37.2329C31.7828 37.2329 31.6763 37.2491 31.5842 37.2782C30.9125 37.4474 30.4838 37.8278 30.104 38.1497C29.9495 38.2853 29.8139 38.4236 29.6786 38.5622C28.4996 37.3394 27.3413 36.1505 26.2118 34.9889C24.9599 33.7241 23.6939 32.5481 22.4276 31.496C22.4276 31.4783 22.4129 31.4783 22.4129 31.4639C23.2961 30.7019 24.182 30.0302 25.0211 29.3891C25.6154 29.0219 26.1506 28.6094 26.7158 28.3064C27.2651 27.9842 27.7841 27.6782 28.3028 27.4496C28.562 27.3287 28.8068 27.2063 29.0519 27.0998C29.2952 27.0065 29.54 26.9162 29.7689 26.8259C30.2261 26.657 30.6548 26.504 31.0499 26.4281C31.4462 26.3363 31.7972 26.2286 32.1194 26.1833C32.4386 26.138 32.7137 26.0915 32.9252 26.0753C33.3695 26.0162 33.5999 26 33.5999 26C33.5999 26 33.3695 26 32.9252 26C32.6993 26 32.4224 26 32.1032 26.0162C31.7828 26.0306 31.4156 26.1065 31.0046 26.1692C30.5774 26.2145 30.1346 26.3366 29.6465 26.4737C29.4017 26.5334 29.1566 26.6123 28.8827 26.6735C28.6382 26.78 28.3643 26.8862 28.1045 26.9765C26.9897 27.3743 25.8314 27.9995 24.593 28.7483C23.6312 29.3591 22.6385 30.0452 21.6476 30.8396C20.6555 30.0455 19.6484 29.3591 18.7016 28.7483C17.4671 27.9995 16.2899 27.3743 15.1928 26.9765C14.9189 26.8862 14.6579 26.7797 14.3999 26.6735C14.1389 26.6123 13.8785 26.5334 13.6367 26.4737C13.1483 26.3366 12.7052 26.2145 12.2915 26.1692C11.879 26.1065 11.5004 26.0306 11.1782 26.0162C10.8578 26 10.5836 26 10.3679 26C9.9263 26 9.6845 26 9.6845 26C9.6845 26 9.9263 26.0162 10.3679 26.0759C10.5836 26.0918 10.8578 26.1383 11.1635 26.1839C11.4845 26.2292 11.834 26.3366 12.2315 26.4287C12.644 26.5046 13.0709 26.6576 13.5284 26.8265C13.7573 26.9171 14.0021 27.0074 14.2454 27.1004C14.4902 27.2069 14.7335 27.3293 14.9945 27.4502C15.5147 27.6791 16.0334 27.9848 16.5815 28.307C17.1452 28.61 17.6801 29.0225 18.2585 29.3897C19.1156 30.0308 20.0015 30.7025 20.8871 31.4645C20.8697 31.4789 20.8697 31.4789 20.8556 31.4966C19.6037 32.5487 18.3359 33.7244 17.0858 34.9895C15.9551 36.1511 14.7953 37.34 13.6061 38.5628C13.4693 38.4242 13.3292 38.2856 13.1936 38.1503C12.8108 37.8284 12.3833 37.448 11.6972 37.2788C11.6213 37.2497 11.5148 37.2335 11.4059 37.2335L11.3312 37.2191H11.2847H11.2253H11.1944C11.0417 37.2191 10.8722 37.2335 10.7207 37.2644C10.4003 37.3256 10.0799 37.448 9.7898 37.6625C9.4985 37.8752 9.2708 38.2103 9.1484 38.5322C9.0872 38.6999 9.0581 38.8529 9.0278 39.0365C8.9945 39.2639 8.9945 39.2477 9.0101 39.494C9.0101 40.0886 9.2405 40.7765 9.7592 41.2472C10.019 41.4788 10.3541 41.645 10.6907 41.7206C10.7822 41.7527 10.9034 41.7674 10.982 41.7674H11.0723L11.1638 41.7836L11.2091 41.7674C11.3768 41.7674 11.5301 41.753 11.6975 41.7047C12.3533 41.5547 12.8108 41.1716 13.1939 40.8524C13.3295 40.7138 13.484 40.577 13.6064 40.4414C14.7956 41.6597 15.9554 42.8516 17.0861 44.0099C18.3362 45.2777 19.604 46.4522 20.8559 47.5058C20.8703 47.5202 20.8703 47.5202 20.8703 47.5202C19.9859 48.2852 19.1 48.9716 18.2588 49.5965C17.6804 49.9784 17.1455 50.3906 16.5818 50.6969C16.0337 51.0161 15.515 51.3221 14.9948 51.5507C14.7338 51.6746 14.4908 51.7955 14.2457 51.902C14.0027 51.9923 13.7576 52.0838 13.5287 52.1627C13.0709 52.3448 12.6443 52.4963 12.2318 52.5737C11.834 52.6652 11.4845 52.7573 11.1638 52.8185C10.8419 52.8623 10.5842 52.8944 10.3682 52.9235C9.9263 52.9682 9.6845 53 9.6845 53C9.6845 53 9.9263 53 10.3679 52.9856C10.5836 52.9856 10.8578 52.9856 11.1941 52.9856C11.5145 52.9538 11.879 52.8938 12.2915 52.8326C12.7052 52.7876 13.1483 52.6649 13.6367 52.5281C13.8785 52.4654 14.1392 52.3895 14.3999 52.3139C14.6579 52.2221 14.9189 52.1144 15.1928 52.0094C16.2902 51.6263 17.4671 50.9996 18.7016 50.2535C19.6487 49.643 20.6555 48.9551 21.6476 48.1625C22.6385 48.9551 23.6312 49.643 24.593 50.2535C25.8152 50.9996 26.9897 51.6263 28.1045 52.0094C28.3643 52.1144 28.6382 52.2221 28.8827 52.3139C29.1566 52.3898 29.4017 52.4654 29.6465 52.5281C30.1346 52.6649 30.5774 52.7873 31.0046 52.8326C31.4153 52.8938 31.7828 52.9538 32.1032 52.9856C32.4224 52.9856 32.6993 52.9856 32.9252 52.9856C33.3695 53 33.5999 53 33.5999 53C33.5999 53 33.3695 52.9682 32.9252 52.9226C32.7137 52.8935 32.4386 52.8617 32.1194 52.8179Z" fill="#00AEEF"/>
</svg>
