<svg width="407" height="401" viewBox="0 0 407 401" fill="none" xmlns="http://www.w3.org/2000/svg">
<path d="M69.1749 370.381C146.428 410.739 271.674 410.739 348.956 370.381C426.237 330.023 426.199 264.645 348.956 224.24C271.712 183.836 146.456 183.882 69.1749 224.24C-8.10635 264.598 -8.02214 330.023 69.1749 370.381Z" fill="#F0F0F0"/>
<path d="M134.825 381.03L138.287 383.079C138.915 383.397 139.609 383.563 140.313 383.563C141.017 383.563 141.711 383.397 142.339 383.079L367.857 252.929C368.102 252.846 368.314 252.689 368.464 252.479C368.615 252.269 368.695 252.018 368.695 251.76C368.695 251.502 368.615 251.25 368.464 251.04C368.314 250.83 368.102 250.673 367.857 250.59L364.395 248.55C363.767 248.232 363.073 248.066 362.369 248.066C361.665 248.066 360.971 248.232 360.343 248.55L134.834 378.69C134.59 378.772 134.377 378.929 134.226 379.138C134.074 379.347 133.993 379.598 133.991 379.857C133.99 380.115 134.07 380.367 134.22 380.577C134.369 380.787 134.581 380.946 134.825 381.03V381.03Z" fill="#E0E0E0"/>
<path d="M89.1993 354.755L92.6615 356.804C93.2894 357.122 93.9834 357.288 94.6873 357.288C95.3912 357.288 96.0853 357.122 96.7132 356.804L322.222 226.664C322.466 226.581 322.679 226.423 322.829 226.214C322.979 226.004 323.06 225.752 323.06 225.494C323.06 225.236 322.979 224.984 322.829 224.775C322.679 224.565 322.466 224.407 322.222 224.324L318.76 222.275C318.132 221.957 317.438 221.791 316.734 221.791C316.03 221.791 315.336 221.957 314.708 222.275L89.1993 352.415C88.9549 352.498 88.7426 352.656 88.5923 352.865C88.4419 353.075 88.3611 353.327 88.3611 353.585C88.3611 353.843 88.4419 354.095 88.5923 354.304C88.7426 354.514 88.9549 354.672 89.1993 354.755V354.755Z" fill="#E0E0E0"/>
<path d="M43.5735 328.479L47.0357 330.538C47.6636 330.856 48.3576 331.022 49.0615 331.022C49.7655 331.022 50.4595 330.856 51.0874 330.538L276.596 200.389C276.841 200.306 277.053 200.148 277.203 199.938C277.354 199.729 277.435 199.477 277.435 199.219C277.435 198.961 277.354 198.709 277.203 198.499C277.053 198.29 276.841 198.132 276.596 198.049L273.134 196C272.506 195.682 271.812 195.516 271.108 195.516C270.404 195.516 269.71 195.682 269.082 196L43.5735 326.14C43.3291 326.223 43.1168 326.381 42.9665 326.59C42.8161 326.8 42.7353 327.052 42.7353 327.31C42.7353 327.568 42.8161 327.82 42.9665 328.029C43.1168 328.239 43.3291 328.397 43.5735 328.479V328.479Z" fill="#E0E0E0"/>
<path d="M46.9141 288.833C47.1854 288.721 48.0369 270.353 40.1394 259.536C32.242 248.719 22.6602 247.456 16.3628 250.122C10.0654 252.789 11.366 259.199 19.1138 263.073C26.8616 266.947 36.4995 273.721 38.7639 286.063L46.9141 288.833Z" fill="#E0E0E0"/>
<path d="M44.004 283.453C43.8636 283.454 43.7275 283.405 43.6209 283.314C43.5142 283.222 43.4442 283.096 43.4238 282.957C40.4576 264.299 29.388 255.166 20.0963 252.827C19.9451 252.789 19.815 252.693 19.7344 252.56C19.6537 252.427 19.6291 252.267 19.6659 252.116C19.7056 251.964 19.8033 251.833 19.9381 251.753C20.0728 251.672 20.2338 251.648 20.3864 251.685C30.0804 254.109 41.5243 263.55 44.5841 282.77C44.6084 282.924 44.5709 283.081 44.4797 283.207C44.3886 283.333 44.2512 283.418 44.0975 283.443L44.004 283.453Z" fill="white"/>
<path d="M45.4824 322.94C44.2847 318.093 39.4096 314.902 33.6549 314.378C27.6756 313.836 20.7139 313.255 18.8705 308.202C17.0271 303.15 18.8705 296.319 18.0283 292.96C16.9991 288.899 15.4458 286.475 7.59506 284.014C0.55843 281.806 -3.33417 275.078 3.7586 272.233C8.22308 270.548 13.1058 270.315 17.7102 271.569C20.6764 272.327 23.5117 273.553 26.506 274.208C27.8944 274.499 29.3014 274.692 30.7167 274.788C32.3542 274.9 33.9918 274.348 35.648 274.451C39.9055 274.722 43.7233 277.651 45.7351 281.413C47.148 284.061 46.8299 287.027 46.7269 289.928C46.624 292.829 46.5024 295.757 46.3994 298.677C46.1561 305.002 45.916 311.334 45.6789 317.672L45.4824 322.94Z" fill="#E6E6E6"/>
<path d="M45.4824 306.518C45.3608 306.519 45.2421 306.481 45.143 306.411C45.044 306.34 44.9696 306.24 44.9303 306.125C39.316 290.564 16.5031 276.482 8.91443 275.583C8.8342 275.579 8.75569 275.558 8.6837 275.523C8.61172 275.487 8.54779 275.437 8.49583 275.376C8.44387 275.315 8.40498 275.243 8.38156 275.166C8.35813 275.09 8.35066 275.009 8.3596 274.929C8.36855 274.849 8.39371 274.772 8.43356 274.702C8.4734 274.632 8.52709 274.572 8.59131 274.523C8.65554 274.475 8.72895 274.44 8.80704 274.422C8.88513 274.403 8.96625 274.4 9.04543 274.414C16.8493 275.349 40.3172 289.769 46.0439 305.732C46.092 305.88 46.0809 306.041 46.0128 306.18C45.9447 306.32 45.825 306.428 45.6789 306.481C45.6167 306.507 45.5498 306.519 45.4824 306.518V306.518Z" fill="white"/>
<path d="M37.3978 293.755C37.3547 293.765 37.3099 293.765 37.2668 293.755C37.1929 293.731 37.1245 293.692 37.0656 293.641C37.0068 293.59 36.9585 293.528 36.9237 293.459C36.889 293.389 36.8683 293.313 36.8629 293.236C36.8576 293.158 36.8676 293.08 36.8925 293.006C39.5687 285.128 38.2586 279.747 38.2493 279.691C38.2297 279.617 38.225 279.539 38.2356 279.463C38.2462 279.387 38.2718 279.314 38.311 279.247C38.3502 279.181 38.4021 279.123 38.4638 279.078C38.5255 279.032 38.5957 278.998 38.6704 278.98C38.7453 278.96 38.8234 278.955 38.9002 278.966C38.977 278.976 39.051 279.002 39.1179 279.041C39.1849 279.08 39.2434 279.132 39.2903 279.194C39.3371 279.256 39.3713 279.326 39.3909 279.401C39.447 279.635 40.8038 285.156 38.0154 293.39C37.9656 293.509 37.8786 293.609 37.7673 293.675C37.6559 293.741 37.5263 293.769 37.3978 293.755V293.755Z" fill="white"/>
<path d="M44.004 303.14C43.9064 303.142 43.81 303.12 43.7233 303.075C39.1382 300.586 29.1915 302.364 29.0886 302.382C28.935 302.407 28.7779 302.371 28.6504 302.282C28.5229 302.193 28.4351 302.058 28.4055 301.905C28.3906 301.829 28.3908 301.751 28.4063 301.675C28.4217 301.598 28.4521 301.526 28.4955 301.462C28.539 301.397 28.5948 301.342 28.6596 301.3C28.7244 301.257 28.7971 301.227 28.8734 301.213C29.3038 301.138 39.3347 299.341 44.2847 302.036C44.3981 302.1 44.4874 302.199 44.5388 302.318C44.5901 302.437 44.6006 302.57 44.5686 302.696C44.5366 302.822 44.4639 302.934 44.3618 303.014C44.2597 303.095 44.1339 303.139 44.004 303.14V303.14Z" fill="white"/>
<path d="M46.9141 288.833C47.1854 288.721 48.0369 270.353 40.1394 259.536C32.242 248.719 22.6602 247.456 16.3628 250.122C10.0654 252.789 11.366 259.199 19.1138 263.073C26.8616 266.947 36.4995 273.721 38.7639 286.063L46.9141 288.833Z" fill="#00AEEF"/>
<g opacity="0.1">
<path opacity="0.1" d="M46.9141 288.833C47.1854 288.721 48.0369 270.353 40.1394 259.536C32.242 248.719 22.6602 247.456 16.3628 250.122C10.0654 252.789 11.366 259.199 19.1138 263.073C26.8616 266.947 36.4995 273.721 38.7639 286.063L46.9141 288.833Z" fill="black"/>
</g>
<path d="M44.004 283.453C43.8636 283.454 43.7275 283.405 43.6209 283.314C43.5142 283.222 43.4442 283.096 43.4238 282.957C40.4576 264.299 29.388 255.166 20.0963 252.827C19.9451 252.789 19.815 252.693 19.7344 252.56C19.6537 252.427 19.6291 252.267 19.6659 252.116C19.7056 251.964 19.8033 251.833 19.9381 251.753C20.0728 251.672 20.2338 251.648 20.3864 251.685C30.0804 254.109 41.5243 263.55 44.5841 282.77C44.6084 282.924 44.5709 283.081 44.4797 283.207C44.3886 283.333 44.2512 283.418 44.0975 283.443L44.004 283.453Z" fill="white"/>
<path d="M45.4824 322.94C44.2847 318.093 39.4096 314.902 33.6549 314.378C27.6756 313.836 20.7139 313.255 18.8705 308.202C17.0271 303.15 18.8705 296.319 18.0283 292.96C16.9991 288.899 15.4458 286.475 7.59506 284.014C0.55843 281.806 -3.33417 275.078 3.7586 272.233C8.22308 270.548 13.1058 270.315 17.7102 271.569C20.6764 272.327 23.5117 273.553 26.506 274.208C27.8944 274.499 29.3014 274.692 30.7167 274.788C32.3542 274.9 33.9918 274.348 35.648 274.451C39.9055 274.722 43.7233 277.651 45.7351 281.413C47.148 284.061 46.8299 287.027 46.7269 289.928C46.624 292.829 46.5024 295.757 46.3994 298.677C46.1561 305.002 45.916 311.334 45.6789 317.672L45.4824 322.94Z" fill="#00AEEF"/>
<path d="M45.4824 306.518C45.3608 306.519 45.2421 306.481 45.143 306.411C45.044 306.34 44.9696 306.24 44.9303 306.125C39.316 290.564 16.5031 276.482 8.91443 275.583C8.8342 275.579 8.75569 275.558 8.6837 275.523C8.61172 275.487 8.54779 275.437 8.49583 275.376C8.44387 275.315 8.40498 275.243 8.38156 275.166C8.35813 275.09 8.35066 275.009 8.3596 274.929C8.36855 274.849 8.39371 274.772 8.43356 274.702C8.4734 274.632 8.52709 274.572 8.59131 274.523C8.65554 274.475 8.72895 274.44 8.80704 274.422C8.88513 274.403 8.96625 274.4 9.04543 274.414C16.8493 275.349 40.3172 289.769 46.0439 305.732C46.092 305.88 46.0809 306.041 46.0128 306.18C45.9447 306.32 45.825 306.428 45.6789 306.481C45.6167 306.507 45.5498 306.519 45.4824 306.518V306.518Z" fill="white"/>
<path d="M37.3978 293.755C37.3547 293.765 37.3099 293.765 37.2668 293.755C37.1929 293.731 37.1245 293.692 37.0656 293.641C37.0068 293.59 36.9585 293.528 36.9237 293.459C36.889 293.389 36.8683 293.313 36.8629 293.236C36.8576 293.158 36.8676 293.08 36.8925 293.006C39.5687 285.128 38.2586 279.747 38.2493 279.691C38.2297 279.617 38.225 279.539 38.2356 279.463C38.2462 279.387 38.2718 279.314 38.311 279.247C38.3502 279.181 38.4021 279.123 38.4638 279.078C38.5255 279.032 38.5957 278.998 38.6704 278.98C38.7453 278.96 38.8234 278.955 38.9002 278.966C38.977 278.976 39.051 279.002 39.1179 279.041C39.1849 279.08 39.2434 279.132 39.2903 279.194C39.3371 279.256 39.3713 279.326 39.3909 279.401C39.447 279.635 40.8038 285.156 38.0154 293.39C37.9656 293.509 37.8786 293.609 37.7673 293.675C37.6559 293.741 37.5263 293.769 37.3978 293.755V293.755Z" fill="white"/>
<path d="M44.004 303.14C43.9064 303.142 43.81 303.12 43.7233 303.075C39.1382 300.586 29.1915 302.364 29.0886 302.382C28.935 302.407 28.7779 302.371 28.6504 302.282C28.5229 302.193 28.4351 302.058 28.4055 301.905C28.3906 301.829 28.3908 301.751 28.4063 301.675C28.4217 301.598 28.4521 301.526 28.4955 301.462C28.539 301.397 28.5948 301.342 28.6596 301.3C28.7244 301.257 28.7971 301.227 28.8734 301.213C29.3038 301.138 39.3347 299.341 44.2847 302.036C44.3981 302.1 44.4874 302.199 44.5388 302.318C44.5901 302.437 44.6006 302.57 44.5686 302.696C44.5366 302.822 44.4639 302.934 44.3618 303.014C44.2597 303.095 44.1339 303.139 44.004 303.14V303.14Z" fill="white"/>
<path d="M47.5123 328.114C46.954 327.727 46.494 327.215 46.169 326.619C45.844 326.023 45.6631 325.359 45.6408 324.68V131.921C45.679 131.218 45.8829 130.533 46.2357 129.923C46.5886 129.314 47.0805 128.796 47.6714 128.412L267.837 1.26641C268.422 0.908916 269.093 0.716077 269.779 0.708256C270.465 0.700435 271.14 0.877923 271.733 1.22198C272.326 1.56603 272.816 2.06389 273.15 2.66297C273.483 3.26206 273.649 3.94015 273.629 4.62565V197.384C273.591 198.088 273.387 198.772 273.034 199.382C272.682 199.992 272.19 200.51 271.599 200.893L51.4423 328.039C50.8393 328.36 50.1691 328.534 49.4863 328.547C48.8034 328.56 48.1271 328.411 47.5123 328.114V328.114Z" fill="#00AEEF"/>
<path opacity="0.4" d="M273.63 4.29888C273.49 3.25087 272.638 2.86723 271.628 3.45673L51.443 130.574C50.8419 130.952 50.3436 131.473 49.9926 132.09L46.2497 129.891C46.5929 129.277 47.0853 128.759 47.6814 128.385L267.838 1.26714C268.396 0.899612 269.041 0.68798 269.708 0.654204C270.375 0.620429 271.039 0.76574 271.631 1.07506C272.223 1.38438 272.721 1.84645 273.075 2.41332C273.428 2.9802 273.623 3.63123 273.639 4.29888H273.63Z" fill="white"/>
<path d="M51.0593 328.218H50.9751C50.913 328.251 50.847 328.276 50.7786 328.292L50.6289 328.339C50.5382 328.372 50.444 328.394 50.3482 328.405C50.2862 328.414 50.223 328.414 50.161 328.405H49.8522C49.0527 328.514 48.2388 328.374 47.5223 328.002C46.9624 327.617 46.5012 327.106 46.176 326.509C45.8509 325.912 45.6709 325.247 45.6508 324.568V155.886L49.4592 158.085V326.851C49.4592 327.787 49.9177 328.302 50.5821 328.302C50.6721 328.315 50.7635 328.315 50.8535 328.302H50.9002C50.9564 328.28 51.0097 328.252 51.0593 328.218V328.218Z" fill="#F0F0F0"/>
<path opacity="0.1" d="M49.9926 132.09C49.6289 132.693 49.4259 133.38 49.4031 134.083V158.085L45.5947 155.886V131.894C45.59 131.813 45.59 131.732 45.5947 131.651C45.6137 131.481 45.6418 131.312 45.6789 131.145C45.7893 130.706 45.9593 130.284 46.1842 129.891L49.9926 132.09Z" fill="black"/>
<path d="M273.63 4.6265V15.4528L112.255 108.632C111.142 109.278 110.234 108.754 110.234 107.462V103.364C110.234 102.073 109.299 101.549 108.204 102.194L59.0504 130.575C58.4583 130.959 57.9656 131.478 57.6127 132.09C57.2597 132.701 57.0566 133.388 57.0199 134.093V138.191C56.9812 138.894 56.7782 139.577 56.4272 140.187C56.0761 140.796 55.5868 141.315 54.9987 141.7L49.3844 144.919V134.093C49.423 133.391 49.626 132.707 49.9771 132.098C50.3281 131.488 50.8174 130.97 51.4055 130.584L271.637 3.45684C272.75 2.8112 273.63 3.3352 273.63 4.6265Z" fill="#00AEEF"/>
<path d="M273.63 197.404C273.592 198.107 273.388 198.792 273.035 199.401C272.682 200.011 272.19 200.529 271.599 200.913L51.443 328.04C50.3295 328.685 49.4218 328.161 49.4218 326.87V144.91L55.0361 141.691C56.1496 141.045 57.9649 131.22 59.0878 130.574L107.418 102.671C108.541 102.026 111.161 109.277 112.293 108.632L273.63 15.4526V197.404Z" fill="#FAFAFA"/>
<path d="M273.63 15.4526V28.6276L49.4218 158.085V144.91L53.5858 142.514C54.6993 141.869 55.0736 140.886 55.6069 139.005L57.0199 134.093C57.4596 132.39 57.9556 131.229 59.0504 130.584L107.38 102.681C108.503 102.035 109.383 101.96 110.188 103.373L111.919 106.517C112.555 107.621 112.854 108.267 113.987 107.621L273.63 15.4526Z" fill="#E6E6E6"/>
<path d="M264.161 11.4103C265.573 10.6056 266.715 11.2606 266.715 12.8888C266.668 13.7744 266.412 14.6363 265.968 15.404C265.524 16.1717 264.905 16.8233 264.161 17.3054C262.757 18.1101 261.615 17.4551 261.615 15.8269C261.661 14.9422 261.915 14.0808 262.358 13.3131C262.8 12.5455 263.418 11.8935 264.161 11.4103V11.4103Z" fill="white"/>
<path d="M256.778 20.6862C257.773 18.9631 257.774 17.1013 256.78 16.5276C255.787 15.954 254.175 16.8858 253.18 18.6089C252.185 20.3319 252.184 22.1938 253.178 22.7674C254.171 23.341 255.783 22.4092 256.778 20.6862Z" fill="white"/>
<path d="M245.802 21.9933C247.215 21.1886 248.356 21.8436 248.356 23.4718C248.309 24.3574 248.054 25.2193 247.61 25.987C247.166 26.7547 246.546 27.4063 245.802 27.8884C244.398 28.6931 243.256 28.0381 243.256 26.4099C243.302 25.5252 243.557 24.6638 243.999 23.8961C244.441 23.1285 245.059 22.4765 245.802 21.9933V21.9933Z" fill="white"/>
<path opacity="0.5" d="M58.7135 145.864L55.5321 147.735L56.7485 145.406C56.7968 145.318 56.8222 145.22 56.8222 145.12C56.8222 145.02 56.7968 144.922 56.7485 144.835C56.6549 144.722 56.4959 144.835 56.3929 145.003L54.6712 148.288C54.6515 148.326 54.6359 148.367 54.6244 148.409V148.456C54.6198 148.512 54.6198 148.568 54.6244 148.624C54.6193 148.674 54.6193 148.724 54.6244 148.774V148.774C54.6344 148.802 54.6504 148.828 54.6712 148.849V148.849L56.4023 150.178C56.4266 150.196 56.4561 150.206 56.4865 150.206C56.5169 150.206 56.5464 150.196 56.5707 150.178C56.656 150.117 56.7212 150.032 56.7579 149.934C56.8514 149.719 56.8421 149.476 56.7579 149.392L55.5414 148.456L58.7229 146.585C58.8034 146.519 58.868 146.436 58.9118 146.342C58.9556 146.248 58.9774 146.146 58.9755 146.042C58.9662 145.892 58.8539 145.78 58.7135 145.864Z" fill="#090E47"/>
<path opacity="0.5" d="M61.371 144.329L64.5524 142.458L63.336 141.522C63.2331 141.438 63.2237 141.195 63.336 140.98C63.4483 140.764 63.5886 140.652 63.6916 140.736L65.4226 142.065C65.4272 142.09 65.4272 142.115 65.4226 142.14C65.4278 142.19 65.4278 142.24 65.4226 142.29C65.4272 142.346 65.4272 142.402 65.4226 142.458C65.4226 142.458 65.4226 142.458 65.4226 142.505C65.4265 142.545 65.4265 142.586 65.4226 142.626V142.626L63.6916 145.948C63.6559 146.029 63.5973 146.097 63.5231 146.145C63.4974 146.168 63.4641 146.181 63.4296 146.181C63.395 146.181 63.3617 146.168 63.336 146.145C63.2876 146.057 63.2623 145.959 63.2623 145.859C63.2623 145.76 63.2876 145.661 63.336 145.574L64.5524 143.244L61.371 145.115C61.2306 145.2 61.1183 145.115 61.1183 144.872C61.1165 144.769 61.1382 144.666 61.182 144.572C61.2258 144.478 61.2904 144.395 61.371 144.329V144.329Z" fill="#090E47"/>
<path opacity="0.5" d="M71.8043 135.169C71.8043 134.982 71.6171 135 71.5329 135.169L71.0931 136.226C70.3539 136.151 69.4556 136.872 68.8474 138.163C68.0614 139.829 68.0614 141.803 68.8474 142.561C69.0381 142.737 69.2841 142.842 69.5435 142.858C69.8028 142.873 70.0595 142.798 70.2697 142.645C70.9082 142.223 71.4065 141.621 71.7013 140.914C71.7535 140.83 71.7812 140.733 71.7812 140.633C71.7812 140.534 71.7535 140.437 71.7013 140.353C71.5984 140.259 71.4393 140.353 71.3364 140.559C70.7562 141.803 69.7925 142.365 69.2029 141.794C68.6134 141.223 68.6228 139.754 69.2029 138.509C69.624 137.574 70.2322 137.096 70.7563 137.068L70.4287 137.873C70.3352 138.079 70.4287 138.275 70.5504 138.182L71.851 137.34C71.9008 137.296 71.9395 137.241 71.9639 137.179C71.9883 137.117 71.9977 137.05 71.9914 136.984L71.8043 135.169Z" fill="#090E47"/>
<path opacity="0.5" d="M105.986 108.688L107.146 106.227C107.212 106.111 107.247 105.981 107.247 105.848C107.247 105.715 107.212 105.585 107.146 105.469C107.006 105.338 106.782 105.469 106.651 105.75L105.49 108.211L104.33 107.088C104.19 106.957 103.974 107.088 103.834 107.378C103.764 107.494 103.727 107.626 103.727 107.762C103.727 107.897 103.764 108.03 103.834 108.145L104.994 109.259L103.834 111.71C103.764 111.826 103.727 111.959 103.727 112.094C103.727 112.229 103.764 112.362 103.834 112.478C103.87 112.506 103.915 112.521 103.96 112.521C104.006 112.521 104.051 112.506 104.087 112.478C104.195 112.4 104.279 112.293 104.33 112.169L105.49 109.717L106.651 110.831C106.685 110.858 106.728 110.873 106.772 110.873C106.816 110.873 106.859 110.858 106.894 110.831C107.005 110.758 107.093 110.654 107.146 110.531C107.212 110.414 107.246 110.282 107.246 110.148C107.246 110.013 107.212 109.881 107.146 109.764L105.986 108.688Z" fill="#090E47"/>
<path d="M76.0244 138.191V134.093C76.0637 133.391 76.267 132.707 76.618 132.098C76.969 131.489 77.4579 130.97 78.0455 130.584L260.24 25.4461C261.353 24.8005 262.261 25.3245 262.261 26.6158V30.7142C262.222 31.4165 262.019 32.0999 261.668 32.7094C261.317 33.3189 260.828 33.8374 260.24 34.2232L78.0642 139.361C76.932 140.006 76.0244 139.482 76.0244 138.191Z" fill="#FAFAFA"/>
<path d="M257.479 34.5415C257.421 34.5522 257.36 34.5522 257.302 34.5415C257.189 34.4894 257.098 34.4011 257.042 34.2908C256.986 34.1805 256.969 34.0546 256.993 33.9333L257.189 32.2677L256.413 31.7063C256.342 31.6531 256.286 31.5835 256.248 31.5037C256.211 31.4238 256.193 31.3359 256.198 31.2477C256.2 31.1134 256.231 30.9813 256.289 30.8602C256.348 30.7391 256.431 30.6319 256.534 30.546L257.723 29.6102C257.746 29.5836 257.762 29.5514 257.77 29.5167L258.303 27.7669C258.338 27.6257 258.414 27.4976 258.52 27.3981C258.626 27.2985 258.759 27.2316 258.902 27.2054C258.999 27.1974 259.097 27.2202 259.181 27.2705C259.265 27.3209 259.331 27.3963 259.37 27.4861L259.819 28.4219L260.82 28.0382C260.912 27.9992 261.014 27.99 261.111 28.0118C261.208 28.0336 261.296 28.0854 261.363 28.1599C261.442 28.2825 261.484 28.4255 261.484 28.5716C261.484 28.7177 261.442 28.8606 261.363 28.9833L260.53 30.5834C260.53 30.6302 260.53 30.677 260.53 30.6863L260.726 32.146C260.739 32.2787 260.722 32.4124 260.679 32.5383C260.635 32.6641 260.565 32.7792 260.474 32.8759C260.416 32.9414 260.343 32.9924 260.262 33.0249C260.181 33.0574 260.093 33.0705 260.006 33.063L259.07 32.9414L258.022 34.2795C257.963 34.3672 257.882 34.4377 257.786 34.4837C257.691 34.5298 257.585 34.5497 257.479 34.5415V34.5415ZM256.909 31.1635L257.685 31.725C257.766 31.7923 257.827 31.8796 257.863 31.9782C257.899 32.0767 257.909 32.183 257.891 32.2864L257.723 33.3905L258.425 32.4548C258.484 32.3692 258.564 32.3001 258.657 32.2543C258.75 32.2084 258.854 32.1872 258.958 32.1928L259.894 32.3145C259.899 32.2804 259.899 32.2457 259.894 32.2115L259.688 30.7425C259.67 30.5615 259.706 30.3794 259.791 30.2185L260.549 28.8055L259.772 29.105C259.656 29.1519 259.527 29.1517 259.412 29.1045C259.296 29.0573 259.204 28.9668 259.154 28.8523L258.808 28.1131L258.331 29.6664C258.278 29.8377 258.178 29.9904 258.041 30.1062L256.853 31.0419C256.852 31.065 256.857 31.0879 256.867 31.1089C256.877 31.1299 256.891 31.1486 256.909 31.1635V31.1635Z" fill="#E0E0E0"/>
<g opacity="0.5">
<path opacity="0.5" d="M264.646 24.9503C264.501 24.9435 264.361 24.8913 264.246 24.8012C264.131 24.711 264.047 24.5873 264.006 24.4473C263.965 24.3073 263.968 24.1579 264.016 24.02C264.064 23.8821 264.153 23.7624 264.272 23.6777L269.971 20.384C270.132 20.2909 270.324 20.2658 270.503 20.314C270.683 20.3623 270.837 20.48 270.93 20.6413C271.023 20.8026 271.048 20.9943 271 21.1742C270.951 21.354 270.834 21.5074 270.672 21.6004L264.974 24.8942C264.871 24.9388 264.758 24.9581 264.646 24.9503V24.9503Z" fill="#090E47"/>
<path opacity="0.5" d="M264.647 28.244C264.493 28.2432 264.343 28.1915 264.221 28.0971C264.099 28.0027 264.012 27.8707 263.972 27.7216C263.933 27.5724 263.944 27.4145 264.003 27.2721C264.063 27.1298 264.167 27.011 264.301 26.934L269.999 23.6777C270.079 23.6316 270.167 23.6017 270.259 23.5897C270.35 23.5777 270.443 23.5838 270.532 23.6077C270.621 23.6316 270.705 23.6728 270.778 23.729C270.851 23.7851 270.912 23.8552 270.958 23.935C271.005 24.0149 271.034 24.1031 271.046 24.1945C271.058 24.2859 271.052 24.3788 271.028 24.4679C271.005 24.5569 270.963 24.6404 270.907 24.7136C270.851 24.7867 270.781 24.8481 270.701 24.8941L265.003 28.1879C264.89 28.2332 264.768 28.2524 264.647 28.244V28.244Z" fill="#090E47"/>
<path opacity="0.5" d="M264.647 31.5378C264.49 31.5434 264.336 31.4963 264.21 31.4042C264.083 31.312 263.99 31.18 263.947 31.0292C263.904 30.8785 263.913 30.7177 263.972 30.5724C264.031 30.4272 264.137 30.3058 264.273 30.2278L269.971 26.934C270.13 26.8477 270.316 26.8258 270.49 26.8729C270.664 26.9199 270.813 27.0323 270.907 27.1867C270.99 27.3468 271.009 27.5325 270.961 27.7063C270.912 27.88 270.799 28.0288 270.645 28.1224L264.946 31.4162C264.856 31.4765 264.754 31.5179 264.647 31.5378Z" fill="#090E47"/>
</g>
<path d="M49.4218 144.91V158.085L45.6134 155.886V142.72L49.4218 144.91Z" fill="#E0E0E0"/>
<path d="M59.0504 192.033L100.606 168.031C101.719 167.386 102.627 167.91 102.627 169.201V287.42C102.588 288.122 102.385 288.806 102.034 289.415C101.683 290.025 101.194 290.543 100.606 290.929L59.041 314.921C57.9275 315.566 57.0199 315.042 57.0199 313.751V195.542C57.058 194.838 57.2619 194.154 57.6147 193.544C57.9676 192.934 58.4595 192.416 59.0504 192.033V192.033Z" fill="#F0F0F0"/>
<path d="M66.6484 196.421L93.0358 181.197C94.1586 180.551 95.0663 181.01 95.0663 182.226C95.0105 182.901 94.7978 183.554 94.4453 184.132C94.0928 184.711 93.6101 185.199 93.0358 185.557L66.6484 200.81C65.5256 201.455 64.6179 200.997 64.6179 199.78C64.6688 199.1 64.8791 198.442 65.2319 197.858C65.5847 197.275 66.07 196.782 66.6484 196.421V196.421Z" fill="#E0E0E0"/>
<path d="M64.6179 207.772V209.353C64.6179 210.13 65.1606 210.438 65.8344 210.055L67.2099 209.259C67.5634 209.028 67.8577 208.717 68.069 208.352C68.2803 207.986 68.4027 207.576 68.4263 207.154V205.573C68.4263 204.796 67.8742 204.487 67.2099 204.871L65.8344 205.666C65.4798 205.896 65.1847 206.207 64.9732 206.573C64.7618 206.939 64.64 207.35 64.6179 207.772V207.772Z" fill="#FAFAFA"/>
<path d="M72.2253 204.169C72.2253 205.385 73.161 205.844 74.2465 205.198L92.9609 194.372C93.5406 194.01 94.0267 193.516 94.3795 192.931C94.7323 192.345 94.942 191.685 94.9914 191.003C94.9914 189.796 94.0557 189.338 92.9609 189.983L74.2465 200.81C73.6702 201.172 73.1872 201.665 72.8361 202.249C72.4851 202.832 72.2759 203.49 72.2253 204.169V204.169Z" fill="#E0E0E0"/>
<path d="M64.6179 216.558V218.139C64.6179 218.916 65.1606 219.225 65.8344 218.841L67.2099 218.046C67.5634 217.815 67.8577 217.504 68.069 217.138C68.2803 216.772 68.4027 216.362 68.4263 215.94V214.359C68.4263 213.582 67.8742 213.274 67.2099 213.657L65.8344 214.453C65.4798 214.683 65.1847 214.993 64.9732 215.359C64.7618 215.725 64.64 216.136 64.6179 216.558Z" fill="#FAFAFA"/>
<path d="M72.2253 212.955C72.2253 214.172 73.161 214.63 74.2465 213.985L92.9609 203.158C93.5406 202.796 94.0267 202.302 94.3795 201.717C94.7323 201.132 94.942 200.471 94.9914 199.79C94.9914 198.583 94.0557 198.124 92.9609 198.77L74.2465 209.596C73.6702 209.959 73.1872 210.452 72.8361 211.035C72.4851 211.619 72.2759 212.276 72.2253 212.955Z" fill="#E0E0E0"/>
<path d="M64.6179 225.326V226.907C64.6179 227.684 65.1606 228.002 65.8344 227.609L67.2099 226.823C67.5624 226.591 67.8559 226.279 68.0671 225.914C68.2783 225.549 68.4013 225.139 68.4263 224.717V223.136C68.4263 222.359 67.8742 222.041 67.2099 222.434L65.8344 223.22C65.4803 223.451 65.1856 223.762 64.9742 224.127C64.7628 224.493 64.6408 224.904 64.6179 225.326V225.326Z" fill="#FAFAFA"/>
<path d="M72.2253 221.732C72.2253 222.94 73.161 223.398 74.2465 222.752L92.9609 211.926C93.5394 211.565 94.0247 211.073 94.3775 210.489C94.7302 209.905 94.9406 209.247 94.9914 208.567C94.9914 207.35 94.0557 206.892 92.9609 207.538L74.2465 218.364C73.669 218.728 73.1852 219.222 72.8341 219.807C72.483 220.392 72.2745 221.052 72.2253 221.732Z" fill="#E0E0E0"/>
<path d="M64.6179 234.093V235.675C64.6179 236.451 65.1606 236.769 65.8344 236.376L67.2099 235.59C67.5624 235.358 67.8559 235.047 68.0671 234.682C68.2783 234.316 68.4013 233.906 68.4263 233.485V231.904C68.4263 231.127 67.8742 230.809 67.2099 231.202L65.8344 231.988C65.4803 232.218 65.1856 232.529 64.9742 232.895C64.7628 233.261 64.6408 233.671 64.6179 234.093V234.093Z" fill="#FAFAFA"/>
<path d="M72.2253 230.472C72.2253 231.679 73.161 232.138 74.2465 231.492L92.9609 220.666C93.5394 220.305 94.0247 219.812 94.3775 219.229C94.7302 218.645 94.9406 217.987 94.9914 217.307C94.9914 216.09 94.0557 215.632 92.9609 216.277L74.2465 227.104C73.669 227.467 73.1852 227.962 72.8341 228.547C72.483 229.132 72.2745 229.792 72.2253 230.472Z" fill="#E0E0E0"/>
<path d="M66.4894 244.779L92.8393 229.536C93.9621 228.891 94.8698 229.349 94.8698 230.566C94.8189 231.246 94.6086 231.904 94.2558 232.488C93.9031 233.071 93.4178 233.564 92.8393 233.925L66.4894 249.187C65.3665 249.832 64.4588 249.374 64.4588 248.157C64.5068 247.474 64.7158 246.812 65.0687 246.225C65.4216 245.637 65.9084 245.142 66.4894 244.779V244.779Z" fill="#E0E0E0"/>
<path d="M64.4588 256.139V257.72C64.4588 258.488 65.0016 258.806 65.6753 258.422L67.0414 257.627C67.396 257.397 67.6911 257.086 67.9026 256.72C68.114 256.354 68.2358 255.943 68.2579 255.521V253.94C68.2579 253.163 67.7152 252.855 67.0414 253.238L65.6753 254.034C65.3207 254.264 65.0256 254.574 64.8141 254.94C64.6027 255.306 64.481 255.717 64.4588 256.139V256.139Z" fill="#FAFAFA"/>
<path d="M72.0569 252.536C72.0569 253.753 72.9926 254.211 74.0874 253.566L92.8019 242.73C93.3803 242.369 93.8656 241.877 94.2184 241.293C94.5712 240.709 94.7815 240.051 94.8324 239.371C94.8324 238.154 93.8967 237.696 92.8019 238.342L74.0874 249.177C73.5089 249.538 73.0236 250.031 72.6709 250.614C72.3181 251.198 72.1078 251.856 72.0569 252.536V252.536Z" fill="#E0E0E0"/>
<path d="M64.4588 264.925V266.507C64.4588 267.283 65.0016 267.592 65.6753 267.209L67.0414 266.413C67.396 266.183 67.6911 265.873 67.9026 265.507C68.114 265.141 68.2358 264.73 68.2579 264.308V262.726C68.2579 261.95 67.7152 261.641 67.0414 262.025L65.6753 262.82C65.3207 263.05 65.0256 263.361 64.8141 263.727C64.6027 264.093 64.481 264.503 64.4588 264.925V264.925Z" fill="#FAFAFA"/>
<path d="M72.0569 261.351C72.0569 262.567 72.9926 263.026 74.0874 262.38L92.8019 251.545C93.3979 251.189 93.9002 250.696 94.2665 250.107C94.6328 249.518 94.8525 248.849 94.9072 248.157C94.9072 246.941 93.9715 246.482 92.8767 247.128L74.1623 257.964C73.5662 258.319 73.064 258.812 72.6976 259.401C72.3313 259.991 72.1116 260.659 72.0569 261.351V261.351Z" fill="#E0E0E0"/>
<path d="M64.4588 273.693V275.274C64.4588 276.051 65.0016 276.369 65.6753 275.976L67.0414 275.19C67.3945 274.959 67.6884 274.648 67.8996 274.282C68.1109 273.916 68.2336 273.506 68.2579 273.085V271.494C68.2579 270.727 67.7152 270.409 67.0414 270.802L65.6753 271.588C65.3207 271.818 65.0256 272.128 64.8141 272.494C64.6027 272.86 64.481 273.271 64.4588 273.693V273.693Z" fill="#FAFAFA"/>
<path d="M72.0569 270.1C72.0569 271.307 72.9926 271.766 74.0874 271.12L92.8019 260.294C93.3816 259.932 93.8676 259.438 94.2204 258.852C94.5733 258.267 94.7829 257.607 94.8324 256.925C94.8324 255.718 93.8967 255.259 92.8019 255.905L74.0874 266.731C73.5077 267.093 73.0217 267.587 72.6688 268.173C72.316 268.758 72.1063 269.418 72.0569 270.1V270.1Z" fill="#E0E0E0"/>
<path d="M64.4588 282.461V284.042C64.4588 284.819 65.0016 285.137 65.6753 284.744L67.0414 283.958C67.3945 283.726 67.6884 283.415 67.8996 283.05C68.1109 282.684 68.2336 282.274 68.2579 281.853V280.271C68.2579 279.495 67.7152 279.177 67.0414 279.57L65.6753 280.356C65.3212 280.586 65.0265 280.897 64.8151 281.263C64.6038 281.629 64.4817 282.039 64.4588 282.461Z" fill="#FAFAFA"/>
<path d="M72.0569 278.868C72.0569 280.075 72.9926 280.533 74.0874 279.887L92.8019 269.061C93.3816 268.699 93.8676 268.205 94.2204 267.62C94.5733 267.035 94.7829 266.374 94.8324 265.693C94.8324 264.485 93.8967 264.027 92.8019 264.673L74.0874 275.499C73.5077 275.861 73.0217 276.355 72.6688 276.94C72.316 277.525 72.1063 278.186 72.0569 278.868V278.868Z" fill="#E0E0E0"/>
<path d="M201.458 151.647V153.818C201.458 155.109 202.394 155.633 203.479 154.978L256.45 124.155C257.038 123.767 257.527 123.247 257.878 122.636C258.229 122.025 258.432 121.34 258.471 120.637V118.766C258.471 117.474 257.536 116.95 256.441 117.596L203.451 148.129C202.867 148.518 202.382 149.04 202.036 149.651C201.69 150.262 201.492 150.945 201.458 151.647V151.647Z" fill="#E0E0E0"/>
<path d="M203.451 161.304L264.02 126.336C265.134 125.69 266.041 126.149 266.041 127.365C265.991 128.044 265.782 128.702 265.431 129.285C265.079 129.869 264.596 130.361 264.02 130.724L203.451 165.692C202.337 166.338 201.43 165.879 201.43 164.672C201.479 163.992 201.687 163.332 202.039 162.747C202.39 162.162 202.873 161.667 203.451 161.304Z" fill="#EBEBEB"/>
<path d="M203.451 170.081L264.02 135.113C265.134 134.467 266.041 134.926 266.041 136.133C265.992 136.813 265.784 137.473 265.433 138.058C265.081 138.643 264.598 139.138 264.02 139.501L203.451 174.469C202.337 175.115 201.43 174.656 201.43 173.44C201.48 172.761 201.69 172.103 202.041 171.52C202.392 170.936 202.875 170.443 203.451 170.081Z" fill="#EBEBEB"/>
<path d="M203.451 178.848L264.02 143.88C265.134 143.235 266.041 143.693 266.041 144.91C265.991 145.589 265.782 146.246 265.431 146.83C265.079 147.413 264.596 147.906 264.02 148.269L203.451 183.237C202.337 183.882 201.43 183.424 201.43 182.217C201.479 181.536 201.687 180.877 202.039 180.291C202.39 179.706 202.873 179.212 203.451 178.848Z" fill="#EBEBEB"/>
<path d="M203.451 187.625L264.02 152.657C265.134 152.012 266.041 152.47 266.041 153.677C265.992 154.358 265.784 155.018 265.433 155.603C265.081 156.188 264.598 156.682 264.02 157.046L203.451 192.014C202.337 192.66 201.43 192.201 201.43 190.985C201.48 190.306 201.69 189.648 202.041 189.064C202.392 188.481 202.875 187.988 203.451 187.625Z" fill="#EBEBEB"/>
<path d="M203.451 196.393L264.02 161.425C265.134 160.78 266.041 161.238 266.041 162.455C265.991 163.134 265.782 163.791 265.431 164.375C265.079 164.958 264.596 165.451 264.02 165.814L203.451 200.782C202.337 201.427 201.43 200.969 201.43 199.762C201.479 199.081 201.687 198.422 202.039 197.836C202.39 197.251 202.873 196.757 203.451 196.393V196.393Z" fill="#EBEBEB"/>
<path d="M203.451 205.208L264.02 170.24C265.134 169.594 266.041 170.053 266.041 171.26C265.992 171.94 265.784 172.6 265.433 173.185C265.081 173.77 264.598 174.265 264.02 174.628L203.451 209.559C202.337 210.204 201.43 209.746 201.43 208.529C201.486 207.857 201.698 207.207 202.049 206.63C202.399 206.054 202.879 205.567 203.451 205.208V205.208Z" fill="#EBEBEB"/>
<path d="M203.451 213.938L264.048 179.008C265.162 178.362 266.069 178.82 266.069 180.037C266.019 180.717 265.81 181.376 265.459 181.961C265.108 182.546 264.625 183.041 264.048 183.405L203.451 218.308C202.337 218.953 201.43 218.495 201.43 217.288C201.482 216.611 201.692 215.955 202.043 215.373C202.394 214.791 202.876 214.3 203.451 213.938V213.938Z" fill="#EBEBEB"/>
<path d="M203.451 222.715L264.02 187.747C265.134 187.101 266.041 187.56 266.041 188.776C265.991 189.455 265.782 190.113 265.431 190.696C265.079 191.28 264.596 191.773 264.02 192.136L203.451 227.103C202.337 227.749 201.43 227.291 201.43 226.074C201.48 225.395 201.69 224.738 202.041 224.154C202.392 223.571 202.875 223.078 203.451 222.715Z" fill="#EBEBEB"/>
<path d="M112.255 200.81L191.792 154.866C192.905 154.22 193.813 154.744 193.813 156.035V234.748C193.774 235.451 193.571 236.134 193.22 236.744C192.869 237.353 192.38 237.871 191.792 238.257L112.255 284.201C111.142 284.847 110.234 284.323 110.234 283.032V204.319C110.273 203.616 110.476 202.933 110.827 202.323C111.178 201.714 111.667 201.195 112.255 200.81V200.81Z" fill="#F0F0F0"/>
<path d="M171.636 199.519L158.349 223.043L167.706 235.16L136.828 208.558L110.225 266.161V283.004C110.225 284.295 111.161 284.819 112.246 284.173L191.782 238.229C192.371 237.844 192.86 237.325 193.211 236.716C193.562 236.106 193.765 235.423 193.804 234.72V219.749L171.636 199.519Z" fill="#E0E0E0"/>
<path d="M174.846 175.265C178.158 173.393 180.835 174.909 180.835 178.727C180.723 180.806 180.123 182.829 179.082 184.632C178.042 186.435 176.59 187.967 174.846 189.104C171.533 190.975 168.857 189.469 168.857 185.651C168.969 183.571 169.569 181.546 170.61 179.742C171.65 177.937 173.101 176.403 174.846 175.265Z" fill="#E0E0E0"/>
<path d="M59.041 161.304L264.048 42.9441C265.162 42.2985 266.069 42.8225 266.069 44.1138V65.7851C266.031 66.4886 265.827 67.1731 265.475 67.7829C265.122 68.3926 264.63 68.9104 264.039 69.2941L59.041 187.635C57.9275 188.29 57.0199 187.766 57.0199 186.465V164.813C57.0585 164.11 57.2615 163.427 57.6125 162.817C57.9636 162.208 58.4529 161.689 59.041 161.304V161.304Z" fill="#E0E0E0"/>
<path d="M190.051 96.9447V100.688C190.051 101.455 190.603 101.773 191.268 101.389L250.864 66.9829V60.4329L191.287 94.8393C190.93 95.0689 190.632 95.379 190.418 95.7447C190.203 96.1105 190.078 96.5215 190.051 96.9447V96.9447Z" fill="#FAFAFA"/>
<path d="M257.255 56.7461C257.929 56.3624 258.471 56.6712 258.471 57.4479V61.1908C258.447 61.6123 258.324 62.0223 258.113 62.3879C257.902 62.7535 257.608 63.0645 257.255 63.2961L250.864 66.9829V60.4328L257.255 56.7461Z" fill="#EBEBEB"/>
<path d="M256.787 61.9206L256.076 61.7054C256.151 61.3991 256.189 61.0849 256.188 60.7696C256.222 60.4812 256.18 60.189 256.067 59.9216C255.954 59.6542 255.773 59.4209 255.543 59.2444C255.385 59.1514 255.206 59.1023 255.023 59.1023C254.84 59.1023 254.661 59.1514 254.504 59.2444C254.052 59.594 253.688 60.0442 253.442 60.5591C253.195 61.0741 253.071 61.6396 253.082 62.2106C253.05 62.4989 253.092 62.7905 253.205 63.0576C253.318 63.3246 253.498 63.5582 253.727 63.7359C253.868 63.8119 254.026 63.8505 254.186 63.8482C254.391 63.8438 254.591 63.7857 254.766 63.6797C255.308 63.3093 255.713 62.7697 255.917 62.1451L256.628 62.3604H256.712C256.768 62.3593 256.823 62.3406 256.868 62.3071C256.914 62.2736 256.947 62.2268 256.965 62.1732C256.963 62.1183 256.945 62.0651 256.914 62.0202C256.882 61.9753 256.838 61.9407 256.787 61.9206V61.9206ZM254.504 63.2867C254.433 63.3418 254.348 63.3761 254.259 63.386C254.17 63.3959 254.08 63.381 253.999 63.3429C253.852 63.2095 253.74 63.043 253.672 62.8574C253.604 62.6718 253.581 62.4724 253.606 62.2761C253.599 61.7979 253.699 61.3242 253.9 60.8902C254.101 60.4561 254.397 60.0727 254.766 59.7684C254.862 59.7086 254.971 59.6733 255.084 59.6655C255.154 59.6651 255.222 59.6846 255.281 59.7216C255.424 59.8568 255.533 60.0238 255.6 60.2092C255.666 60.3945 255.688 60.5929 255.664 60.7884C255.67 61.266 255.568 61.7387 255.365 62.1713C255.163 62.6039 254.865 62.9852 254.494 63.2867H254.504Z" fill="#FAFAFA"/>
<path d="M110.234 164.812V190.863C110.234 192.154 111.17 192.678 112.255 192.033L264.048 104.393C264.636 104.007 265.126 103.489 265.477 102.879C265.828 102.27 266.031 101.586 266.069 100.884V74.8428C266.069 73.5515 265.134 73.0275 264.048 73.6732L112.255 161.303C111.667 161.689 111.178 162.208 110.827 162.817C110.476 163.427 110.273 164.11 110.234 164.812V164.812Z" fill="#EBEBEB"/>
<path d="M93.1293 354.437C92.57 354.051 92.1092 353.539 91.7841 352.943C91.459 352.346 91.2787 351.682 91.2579 351.003V158.244C91.2973 157.542 91.5006 156.859 91.8516 156.249C92.2026 155.64 92.6915 155.121 93.2791 154.735L313.445 27.5891C314.032 27.2211 314.707 27.02 315.4 27.0075C316.092 26.9949 316.775 27.1713 317.374 27.5178C317.974 27.8642 318.467 28.3676 318.802 28.9737C319.137 29.5798 319.3 30.2657 319.274 30.9577V223.716C319.236 224.419 319.033 225.102 318.682 225.711C318.331 226.321 317.841 226.839 317.253 227.225L97.05 354.371C96.4479 354.69 95.7789 354.863 95.0975 354.874C94.4162 354.885 93.7418 354.735 93.1293 354.437V354.437Z" fill="#00AEEF"/>
<path d="M319.256 30.6207C319.115 29.5726 318.264 29.189 317.253 29.7785L97.05 156.906C96.4558 157.286 95.9641 157.806 95.6184 158.421L91.8193 156.223C92.1625 155.608 92.6549 155.09 93.251 154.716L313.454 27.5889C314.012 27.2214 314.658 27.0098 315.325 26.976C315.992 26.9422 316.656 27.0875 317.248 27.3968C317.84 27.7062 318.338 28.1682 318.691 28.7351C319.044 29.302 319.239 29.953 319.256 30.6207Z" fill="#090E47"/>
<path d="M96.6664 354.54H96.5822C96.52 354.573 96.454 354.598 96.3857 354.614L96.2359 354.661C96.1452 354.694 96.051 354.716 95.9552 354.727C95.8932 354.736 95.8301 354.736 95.7681 354.727L95.4593 354.773C94.6597 354.883 93.8459 354.742 93.1293 354.371C92.5695 353.986 92.1082 353.474 91.7831 352.878C91.4579 352.281 91.278 351.616 91.2579 350.937V182.217L95.0663 184.416V353.192C95.0663 354.128 95.5248 354.642 96.1892 354.642C96.2791 354.656 96.3705 354.656 96.4605 354.642V354.642C96.5339 354.619 96.6032 354.584 96.6664 354.54Z" fill="#F0F0F0"/>
<path d="M95.6184 158.422C95.2547 159.025 95.0517 159.711 95.0289 160.415V184.416L91.2205 182.217V158.225C91.2158 158.144 91.2158 158.063 91.2205 157.982C91.2394 157.812 91.2675 157.643 91.3047 157.477C91.4151 157.037 91.5851 156.616 91.81 156.223L95.6184 158.422Z" fill="#263238"/>
<path d="M319.274 30.9483V41.7746L157.863 134.963C156.749 135.609 155.841 135.085 155.841 133.793V129.695C155.841 128.404 154.906 127.88 153.811 128.525L104.657 156.906C104.067 157.289 103.575 157.807 103.222 158.417C102.869 159.027 102.665 159.711 102.627 160.415V164.513C102.588 165.215 102.385 165.899 102.034 166.508C101.683 167.118 101.194 167.636 100.606 168.022L94.9914 171.241V160.415C95.03 159.712 95.2331 159.029 95.5841 158.419C95.9352 157.81 96.4245 157.292 97.0126 156.906L317.253 29.7786C318.367 29.133 319.274 29.657 319.274 30.9483Z" fill="#090E47"/>
<path d="M319.284 223.735C319.246 224.438 319.042 225.123 318.689 225.733C318.336 226.342 317.844 226.86 317.253 227.244L97.05 354.361C95.9365 355.007 95.0289 354.483 95.0289 353.192V171.241L100.643 168.022C101.757 167.376 103.572 157.551 104.695 156.906L153.025 129.002C154.148 128.357 156.768 135.609 157.9 134.963L319.312 41.7744V223.735H319.284Z" fill="#FAFAFA"/>
<path d="M319.275 41.7744V54.9494L95.0289 184.416V171.241L99.1928 168.827C100.306 168.181 100.681 167.199 101.214 165.318L102.627 160.415C103.076 158.712 103.563 157.551 104.657 156.906L152.987 129.002C154.11 128.357 154.99 128.282 155.841 129.695L157.582 132.839C158.209 133.934 158.518 134.579 159.64 133.934L319.275 41.7744Z" fill="#E6E6E6"/>
<path d="M311.572 41.7169C312.567 39.9939 312.568 38.132 311.575 37.5584C310.581 36.9848 308.969 37.9166 307.974 39.6396C306.98 41.3627 306.979 43.2245 307.972 43.7982C308.966 44.3718 310.578 43.44 311.572 41.7169Z" fill="white"/>
<path d="M300.598 43.0285C302.001 42.2238 303.143 42.8788 303.143 44.5069C303.1 45.3949 302.847 46.2601 302.404 47.0312C301.962 47.8023 301.343 48.4573 300.598 48.9423C299.185 49.747 298.043 49.092 298.043 47.4638C298.087 46.575 298.341 45.7093 298.785 44.9381C299.23 44.167 299.851 43.5124 300.598 43.0285V43.0285Z" fill="white"/>
<path d="M291.409 48.3246C292.812 47.5105 293.954 48.1655 293.954 49.7936C293.908 50.6784 293.654 51.5398 293.211 52.3074C292.769 53.0751 292.151 53.7271 291.409 54.2102C289.996 55.0243 288.854 54.3693 288.854 52.7412C288.901 51.8555 289.157 50.9936 289.601 50.2259C290.045 49.4582 290.664 48.8067 291.409 48.3246V48.3246Z" fill="white"/>
<path opacity="0.5" d="M104.321 172.186L101.148 174.057L102.356 171.718C102.406 171.631 102.432 171.533 102.432 171.433C102.432 171.333 102.406 171.234 102.356 171.147C102.262 171.044 102.094 171.147 101.991 171.325L100.269 174.638C100.269 174.638 100.269 174.712 100.222 174.759C100.175 174.806 100.222 174.759 100.222 174.759C100.213 174.815 100.213 174.872 100.222 174.928C100.211 174.977 100.211 175.028 100.222 175.077C100.222 175.077 100.222 175.077 100.222 175.077L100.269 175.143L101.991 176.472C102.016 176.487 102.045 176.496 102.075 176.496C102.105 176.496 102.134 176.487 102.159 176.472C102.247 176.408 102.316 176.32 102.356 176.219C102.449 176.004 102.44 175.76 102.356 175.676L101.148 174.741L104.321 172.869C104.404 172.806 104.471 172.723 104.517 172.629C104.562 172.535 104.585 172.431 104.583 172.326C104.583 172.214 104.47 172.111 104.321 172.186Z" fill="#090E47"/>
<path opacity="0.5" d="M106.978 170.651L110.159 168.78L108.952 167.844C108.84 167.76 108.831 167.517 108.952 167.301C109.074 167.086 109.205 166.974 109.317 167.049L111.039 168.378L111.086 168.443C111.096 168.489 111.096 168.537 111.086 168.583C111.096 168.642 111.096 168.702 111.086 168.761C111.086 168.761 111.086 168.845 111.039 168.883L109.317 172.195C109.276 172.272 109.218 172.339 109.149 172.392C109.122 172.415 109.087 172.429 109.051 172.429C109.015 172.429 108.98 172.415 108.952 172.392C108.902 172.305 108.876 172.207 108.876 172.106C108.876 172.006 108.902 171.908 108.952 171.821L110.159 169.482L106.978 171.353C106.838 171.428 106.725 171.353 106.725 171.1C106.748 170.924 106.838 170.762 106.978 170.651V170.651Z" fill="#090E47"/>
<path opacity="0.5" d="M117.411 161.5C117.411 161.304 117.224 161.332 117.14 161.5L116.71 162.567C115.961 162.483 115.063 163.212 114.454 164.494C113.668 166.16 113.668 168.134 114.454 168.892C114.646 169.071 114.894 169.177 115.155 169.193C115.417 169.208 115.675 169.132 115.886 168.977C116.52 168.549 117.017 167.948 117.318 167.245C117.365 167.161 117.39 167.066 117.39 166.969C117.39 166.873 117.365 166.778 117.318 166.693C117.215 166.59 117.056 166.693 116.953 166.899C116.363 168.144 115.409 168.696 114.819 168.134C114.23 167.573 114.23 166.094 114.819 164.841C115.24 163.961 115.839 163.437 116.363 163.4L116.036 164.204C115.952 164.41 116.036 164.607 116.167 164.522L117.458 163.671C117.51 163.628 117.55 163.573 117.576 163.511C117.602 163.449 117.613 163.382 117.608 163.315L117.411 161.5Z" fill="#090E47"/>
<path opacity="0.5" d="M151.593 135.029L152.754 132.577C152.824 132.461 152.861 132.329 152.861 132.193C152.861 132.058 152.824 131.925 152.754 131.81C152.623 131.679 152.398 131.81 152.258 132.1L151.097 134.551L149.937 133.438C149.806 133.307 149.581 133.438 149.441 133.728C149.375 133.843 149.341 133.974 149.341 134.107C149.341 134.24 149.375 134.37 149.441 134.486L150.601 135.599L149.441 138.06C149.375 138.176 149.341 138.306 149.341 138.439C149.341 138.572 149.375 138.703 149.441 138.818C149.476 138.848 149.521 138.864 149.567 138.864C149.614 138.864 149.658 138.848 149.694 138.818C149.802 138.744 149.887 138.64 149.937 138.519L151.097 136.058L152.258 137.181C152.293 137.21 152.338 137.227 152.384 137.227C152.43 137.227 152.475 137.21 152.51 137.181C152.621 137.109 152.706 137.004 152.754 136.881C152.824 136.766 152.861 136.633 152.861 136.498C152.861 136.362 152.824 136.23 152.754 136.114L151.593 135.029Z" fill="#090E47"/>
<path d="M121.631 164.513V160.415C121.67 159.711 121.873 159.027 122.226 158.417C122.579 157.807 123.071 157.289 123.662 156.906L305.847 51.7493C306.97 51.1037 307.877 51.6277 307.877 52.919V57.0174C307.837 57.7204 307.632 58.4041 307.28 59.0135C306.927 59.6229 306.436 60.1411 305.847 60.5264L123.662 165.683C122.539 166.328 121.631 165.804 121.631 164.513Z" fill="#FAFAFA"/>
<path d="M303.096 60.8632C303.034 60.873 302.971 60.873 302.909 60.8632C302.796 60.8092 302.706 60.7187 302.651 60.6066C302.597 60.4945 302.582 60.3673 302.609 60.2456L302.806 58.5801L302.02 58.0186C301.952 57.9659 301.898 57.8975 301.862 57.8193C301.826 57.7411 301.809 57.6554 301.814 57.5695C301.814 57.4343 301.843 57.3008 301.9 57.178C301.956 57.0552 302.039 56.9462 302.141 56.8583L303.33 55.9226C303.356 55.8965 303.375 55.8644 303.386 55.829L303.919 54.0886C303.952 53.9451 304.026 53.8145 304.133 53.713C304.239 53.6114 304.373 53.5436 304.518 53.5178C304.615 53.5149 304.71 53.5398 304.793 53.5896C304.876 53.6393 304.943 53.7119 304.986 53.7985V53.7985L305.426 54.7342L306.436 54.3506C306.526 54.3077 306.627 54.2963 306.724 54.3184C306.821 54.3405 306.908 54.3947 306.97 54.4722C307.053 54.5916 307.098 54.7337 307.098 54.8793C307.098 55.0249 307.053 55.1669 306.97 55.2863L306.109 56.9051C306.101 56.9357 306.101 56.9681 306.109 56.9987L306.315 58.4678C306.327 58.6004 306.311 58.7341 306.267 58.86C306.224 58.9859 306.154 59.101 306.062 59.1976C306.002 59.2622 305.927 59.3118 305.844 59.3427C305.762 59.3735 305.673 59.3848 305.585 59.3754L304.649 59.2538L303.573 60.6106C303.519 60.6871 303.447 60.7498 303.365 60.7937C303.282 60.8376 303.19 60.8614 303.096 60.8632ZM302.516 57.4853L303.292 58.0467C303.377 58.111 303.442 58.1976 303.48 58.2968C303.518 58.396 303.528 58.5038 303.508 58.6081L303.377 59.7123L304.078 58.7766C304.137 58.6906 304.217 58.6218 304.311 58.5773C304.404 58.5329 304.508 58.5145 304.612 58.5239L305.547 58.6456C305.56 58.6091 305.56 58.5697 305.547 58.5333L305.445 57.111C305.418 56.9297 305.454 56.7448 305.547 56.587L306.296 55.174L305.529 55.4641C305.414 55.5116 305.286 55.5128 305.171 55.4674C305.055 55.422 304.962 55.3336 304.911 55.2208L304.556 54.4722L304.088 56.0255C304.033 56.198 303.929 56.3508 303.788 56.4653L302.6 57.401C302.563 57.4186 302.533 57.4483 302.516 57.4853V57.4853Z" fill="#E0E0E0"/>
<g opacity="0.5">
<path opacity="0.5" d="M310.264 51.2721C310.108 51.2734 309.957 51.2232 309.834 51.1295C309.71 51.0358 309.621 50.9038 309.581 50.7542C309.54 50.6046 309.55 50.4457 309.609 50.3024C309.669 50.1591 309.774 50.0395 309.908 49.9621L315.616 46.6778C315.774 46.6062 315.953 46.5959 316.119 46.6489C316.284 46.7019 316.424 46.8143 316.512 46.9645C316.599 47.1147 316.627 47.292 316.592 47.462C316.556 47.632 316.458 47.7827 316.318 47.8848L310.61 51.1786C310.505 51.2409 310.385 51.2733 310.264 51.2721V51.2721Z" fill="#090E47"/>
<path opacity="0.5" d="M310.264 54.5566C310.108 54.5578 309.957 54.5077 309.834 54.414C309.71 54.3203 309.621 54.1883 309.581 54.0387C309.54 53.889 309.55 53.7302 309.609 53.5869C309.669 53.4436 309.774 53.3239 309.908 53.2466L315.616 49.9528C315.777 49.8598 315.969 49.8346 316.149 49.8829C316.329 49.9311 316.482 50.0489 316.575 50.2102C316.668 50.3715 316.693 50.5632 316.645 50.743C316.597 50.9229 316.479 51.0762 316.318 51.1693L310.61 54.463C310.505 54.5254 310.385 54.5577 310.264 54.5566V54.5566Z" fill="#090E47"/>
<path opacity="0.5" d="M310.264 57.8596C310.108 57.8608 309.957 57.8106 309.834 57.7169C309.71 57.6232 309.621 57.4913 309.581 57.3416C309.54 57.192 309.55 57.0332 309.609 56.8899C309.669 56.7466 309.774 56.6269 309.908 56.5496L315.616 53.2558C315.777 53.1628 315.969 53.1376 316.149 53.1859C316.329 53.2341 316.482 53.3518 316.575 53.5132C316.668 53.6745 316.693 53.8661 316.645 54.046C316.597 54.2259 316.479 54.3792 316.318 54.4723L310.61 57.766C310.505 57.8283 310.385 57.8607 310.264 57.8596V57.8596Z" fill="#090E47"/>
</g>
<path d="M95.0289 171.241V184.416L91.2205 182.217V169.051L95.0289 171.241Z" fill="#E0E0E0"/>
<path d="M104.648 218.354L146.213 194.363C147.326 193.717 148.234 194.232 148.234 195.532V313.751C148.195 314.454 147.992 315.137 147.641 315.746C147.29 316.356 146.801 316.874 146.213 317.26L104.648 341.252C103.535 341.898 102.627 341.374 102.627 340.082V221.863C102.666 221.161 102.869 220.478 103.22 219.868C103.571 219.259 104.06 218.74 104.648 218.354V218.354Z" fill="#F0F0F0"/>
<path d="M112.255 222.743L138.605 207.528C139.728 206.883 140.636 207.341 140.636 208.548C140.586 209.23 140.377 209.89 140.024 210.476C139.671 211.061 139.185 211.555 138.605 211.917L112.255 227.132C111.133 227.777 110.225 227.319 110.225 226.102C110.276 225.422 110.486 224.764 110.839 224.18C111.192 223.597 111.677 223.104 112.255 222.743Z" fill="#E0E0E0"/>
<path d="M110.225 234.093V235.675C110.225 236.451 110.768 236.76 111.441 236.377L112.817 235.581C113.17 235.351 113.464 235.04 113.674 234.674C113.884 234.308 114.004 233.897 114.024 233.476V231.894C114.024 231.127 113.481 230.809 112.817 231.193L111.441 231.988C111.087 232.218 110.792 232.529 110.58 232.895C110.369 233.261 110.247 233.671 110.225 234.093V234.093Z" fill="#FAFAFA"/>
<path d="M117.832 230.472C117.832 231.689 118.768 232.147 119.854 231.501L138.568 220.675C139.148 220.313 139.634 219.819 139.987 219.234C140.339 218.649 140.549 217.988 140.599 217.307C140.599 216.099 139.663 215.641 138.568 216.287L119.854 227.113C119.277 227.476 118.794 227.969 118.443 228.552C118.092 229.135 117.883 229.793 117.832 230.472V230.472Z" fill="#E0E0E0"/>
<path d="M110.225 242.88V244.508C110.225 245.285 110.768 245.593 111.441 245.21L112.817 244.414C113.17 244.184 113.464 243.873 113.674 243.507C113.884 243.141 114.004 242.73 114.024 242.309V240.728C114.024 239.96 113.481 239.642 112.817 240.026L111.441 240.821C111.093 241.047 110.802 241.35 110.591 241.707C110.379 242.064 110.254 242.466 110.225 242.88V242.88Z" fill="#FAFAFA"/>
<path d="M117.832 239.277C117.832 240.494 118.768 240.952 119.854 240.307L138.568 229.48C139.148 229.118 139.634 228.625 139.987 228.039C140.339 227.454 140.549 226.793 140.599 226.112C140.599 224.905 139.663 224.446 138.568 225.092L119.854 235.918C119.277 236.281 118.794 236.774 118.443 237.357C118.092 237.941 117.883 238.598 117.832 239.277V239.277Z" fill="#E0E0E0"/>
<path d="M110.225 251.647V253.229C110.225 254.005 110.768 254.324 111.441 253.931L112.817 253.145C113.17 252.914 113.463 252.602 113.673 252.237C113.883 251.871 114.003 251.46 114.024 251.039V249.458C114.024 248.681 113.481 248.363 112.817 248.756L111.441 249.542C111.088 249.774 110.794 250.085 110.583 250.45C110.372 250.816 110.249 251.226 110.225 251.647Z" fill="#FAFAFA"/>
<path d="M117.832 248.054C117.832 249.261 118.768 249.72 119.854 249.074L138.568 238.248C139.146 237.887 139.632 237.394 139.985 236.811C140.337 236.227 140.548 235.569 140.599 234.889C140.599 233.672 139.663 233.214 138.568 233.859L119.854 244.686C119.276 245.049 118.792 245.544 118.441 246.129C118.09 246.714 117.882 247.374 117.832 248.054V248.054Z" fill="#E0E0E0"/>
<path d="M110.225 260.415V261.997C110.225 262.773 110.768 263.091 111.441 262.698L112.817 261.912C113.17 261.682 113.464 261.371 113.674 261.005C113.884 260.639 114.004 260.228 114.024 259.807V258.226C114.024 257.449 113.481 257.131 112.817 257.524L111.441 258.31C111.088 258.541 110.794 258.853 110.583 259.218C110.372 259.584 110.249 259.994 110.225 260.415Z" fill="#FAFAFA"/>
<path d="M117.832 256.822C117.832 258.029 118.768 258.488 119.854 257.842L138.568 247.016C139.146 246.655 139.632 246.162 139.985 245.579C140.337 244.995 140.548 244.337 140.599 243.656C140.599 242.44 139.663 241.982 138.568 242.627L119.854 253.453C119.276 253.817 118.792 254.312 118.441 254.897C118.09 255.482 117.882 256.141 117.832 256.822V256.822Z" fill="#E0E0E0"/>
<path d="M112.096 271.11L138.446 255.886C139.569 255.241 140.477 255.699 140.477 256.916C140.427 257.597 140.218 258.258 139.865 258.843C139.512 259.428 139.026 259.922 138.446 260.284L112.087 275.499C110.974 276.145 110.066 275.686 110.066 274.47C110.117 273.79 110.327 273.131 110.68 272.547C111.033 271.964 111.518 271.472 112.096 271.11Z" fill="#E0E0E0"/>
<path d="M110.066 282.461V284.042C110.066 284.819 110.609 285.128 111.282 284.744L112.649 283.949C113.003 283.719 113.298 283.408 113.51 283.042C113.721 282.676 113.843 282.265 113.865 281.843V280.262C113.865 279.485 113.322 279.176 112.649 279.56L111.282 280.355C110.928 280.585 110.633 280.896 110.421 281.262C110.21 281.628 110.088 282.039 110.066 282.461Z" fill="#FAFAFA"/>
<path d="M117.664 278.858C117.664 280.075 118.6 280.533 119.694 279.887L138.409 269.061C138.989 268.699 139.475 268.205 139.828 267.62C140.18 267.035 140.39 266.374 140.439 265.693C140.439 264.485 139.504 264.027 138.409 264.673L119.694 275.499C119.116 275.86 118.631 276.352 118.278 276.936C117.925 277.52 117.715 278.178 117.664 278.858V278.858Z" fill="#E0E0E0"/>
<path d="M110.066 291.294V292.875C110.066 293.652 110.609 293.961 111.282 293.577L112.649 292.782C113.003 292.552 113.298 292.241 113.51 291.875C113.721 291.509 113.843 291.098 113.865 290.676V289.048C113.865 288.272 113.322 287.963 112.649 288.346L111.282 289.142C110.921 289.376 110.622 289.694 110.411 290.069C110.199 290.444 110.081 290.864 110.066 291.294Z" fill="#FAFAFA"/>
<path d="M117.664 287.645C117.664 288.861 118.6 289.32 119.694 288.674L138.409 277.848C138.989 277.486 139.475 276.992 139.828 276.407C140.18 275.821 140.39 275.161 140.439 274.479C140.439 273.272 139.504 272.814 138.409 273.459L119.694 284.286C119.116 284.647 118.631 285.139 118.278 285.723C117.925 286.306 117.715 286.965 117.664 287.645V287.645Z" fill="#E0E0E0"/>
<path d="M110.066 300.015V301.587C110.066 302.364 110.609 302.682 111.282 302.289L112.649 301.503C113.003 301.272 113.297 300.961 113.509 300.596C113.72 300.23 113.842 299.819 113.865 299.397V297.844C113.865 297.067 113.322 296.749 112.649 297.142L111.282 297.928C110.931 298.157 110.638 298.465 110.426 298.827C110.215 299.19 110.092 299.596 110.066 300.015V300.015Z" fill="#FAFAFA"/>
<path d="M117.664 296.422C117.664 297.629 118.6 298.087 119.694 297.442L138.409 286.615C138.987 286.254 139.473 285.762 139.825 285.178C140.178 284.595 140.389 283.936 140.439 283.256C140.439 282.04 139.504 281.581 138.409 282.227L119.694 293.053C119.115 293.415 118.629 293.909 118.276 294.494C117.923 295.08 117.713 295.74 117.664 296.422V296.422Z" fill="#E0E0E0"/>
<path d="M110.066 308.783V310.364C110.066 311.141 110.609 311.459 111.282 311.066L112.649 310.28C113.003 310.049 113.297 309.739 113.509 309.373C113.72 309.007 113.842 308.596 113.865 308.174V306.593C113.865 305.816 113.322 305.498 112.649 305.891L111.282 306.677C110.928 306.908 110.634 307.219 110.422 307.584C110.211 307.95 110.089 308.361 110.066 308.783V308.783Z" fill="#FAFAFA"/>
<path d="M117.664 305.19C117.664 306.397 118.6 306.855 119.694 306.209L138.409 295.383C138.987 295.022 139.473 294.53 139.825 293.946C140.178 293.362 140.389 292.704 140.439 292.024C140.439 290.807 139.504 290.349 138.409 290.995L119.694 301.821C119.115 302.183 118.629 302.677 118.276 303.262C117.923 303.847 117.713 304.508 117.664 305.19V305.19Z" fill="#E0E0E0"/>
<path d="M247.065 177.969V180.14C247.065 181.431 248.001 181.955 249.086 181.3L302.057 150.477C302.645 150.089 303.134 149.569 303.485 148.958C303.836 148.347 304.039 147.662 304.078 146.959V145.088C304.078 143.787 303.143 143.263 302.048 143.918L249.086 174.488C248.5 174.869 248.012 175.383 247.661 175.988C247.31 176.592 247.106 177.271 247.065 177.969Z" fill="#E0E0E0"/>
<path d="M249.086 187.635L309.655 152.667C310.769 152.021 311.676 152.48 311.676 153.687C311.627 154.367 311.419 155.027 311.068 155.612C310.717 156.197 310.233 156.692 309.655 157.055L249.086 192.014C247.973 192.669 247.065 192.201 247.065 190.994C247.112 190.314 247.32 189.655 247.672 189.071C248.023 188.488 248.508 187.995 249.086 187.635Z" fill="#EBEBEB"/>
<path d="M249.086 196.402L309.655 161.435C310.769 160.789 311.676 161.247 311.676 162.464C311.626 163.143 311.417 163.801 311.066 164.384C310.715 164.967 310.232 165.46 309.655 165.823L249.086 200.791C247.973 201.437 247.065 200.978 247.065 199.771C247.113 199.09 247.32 198.43 247.672 197.845C248.023 197.259 248.508 196.765 249.086 196.402V196.402Z" fill="#EBEBEB"/>
<path d="M249.086 205.208L309.655 170.212C310.769 169.566 311.676 170.025 311.676 171.232C311.627 171.912 311.419 172.572 311.068 173.157C310.717 173.742 310.233 174.237 309.655 174.6L249.086 209.568C247.973 210.214 247.065 209.755 247.065 208.539C247.117 207.864 247.328 207.211 247.679 206.633C248.03 206.054 248.512 205.566 249.086 205.208V205.208Z" fill="#EBEBEB"/>
<path d="M249.086 213.947L309.655 179.008C310.769 178.362 311.676 178.82 311.676 180.037C311.626 180.716 311.417 181.374 311.066 181.957C310.715 182.54 310.232 183.033 309.655 183.396L249.086 218.308C247.973 218.953 247.065 218.495 247.065 217.288C247.117 216.612 247.327 215.957 247.678 215.377C248.029 214.797 248.511 214.307 249.086 213.947Z" fill="#EBEBEB"/>
<path d="M249.086 222.724L309.655 187.756C310.769 187.111 311.676 187.569 311.676 188.776C311.627 189.457 311.419 190.117 311.068 190.702C310.717 191.287 310.233 191.781 309.655 192.145L249.086 227.113C247.973 227.758 247.065 227.3 247.065 226.084C247.113 225.404 247.322 224.745 247.673 224.162C248.024 223.578 248.508 223.085 249.086 222.724V222.724Z" fill="#EBEBEB"/>
<path d="M249.086 231.492L309.655 196.524C310.769 195.879 311.676 196.337 311.676 197.553C311.626 198.232 311.417 198.89 311.066 199.474C310.715 200.057 310.232 200.55 309.655 200.913L249.086 235.881C247.973 236.526 247.065 236.068 247.065 234.861C247.113 234.18 247.32 233.52 247.672 232.934C248.023 232.349 248.508 231.855 249.086 231.492Z" fill="#EBEBEB"/>
<path d="M249.086 240.269L309.655 205.301C310.769 204.656 311.676 205.114 311.676 206.321C311.627 207.002 311.419 207.661 311.068 208.247C310.717 208.832 310.233 209.326 309.655 209.69L249.086 244.658C247.973 245.303 247.065 244.845 247.065 243.628C247.113 242.949 247.322 242.29 247.673 241.707C248.024 241.123 248.508 240.63 249.086 240.269V240.269Z" fill="#EBEBEB"/>
<path d="M249.086 249.037L309.655 214.069C310.769 213.423 311.676 213.882 311.676 215.098C311.626 215.777 311.417 216.435 311.066 217.018C310.715 217.602 310.232 218.095 309.655 218.457L249.086 253.425C247.973 254.071 247.065 253.612 247.065 252.405C247.113 251.724 247.32 251.064 247.672 250.479C248.023 249.893 248.508 249.399 249.086 249.037Z" fill="#EBEBEB"/>
<path d="M157.863 227.131L237.399 181.188C238.512 180.542 239.42 181.066 239.42 182.357V261.07C239.381 261.772 239.178 262.456 238.827 263.065C238.476 263.675 237.987 264.193 237.399 264.579L157.863 310.523C156.749 311.169 155.841 310.645 155.841 309.353V230.64C155.88 229.938 156.083 229.255 156.434 228.645C156.785 228.036 157.274 227.517 157.863 227.131V227.131Z" fill="#F0F0F0"/>
<path d="M217.262 225.84L203.966 249.374L213.323 261.482L182.444 234.879L155.841 292.482V309.325C155.841 310.617 156.777 311.141 157.863 310.495L237.399 264.551C237.987 264.165 238.476 263.647 238.827 263.037C239.178 262.428 239.381 261.744 239.42 261.042V246.071L217.262 225.84Z" fill="#E0E0E0"/>
<path d="M220.453 201.633C223.765 199.715 226.442 201.268 226.442 205.086C226.33 207.166 225.73 209.191 224.689 210.995C223.649 212.8 222.197 214.334 220.453 215.473C217.141 217.344 214.464 215.828 214.464 212.01C214.576 209.932 215.176 207.908 216.217 206.105C217.257 204.302 218.709 202.77 220.453 201.633V201.633Z" fill="#E0E0E0"/>
<path d="M104.648 187.635L309.655 69.2754C310.769 68.6298 311.676 69.1538 311.676 70.4451V92.0977C311.638 92.8012 311.434 93.4857 311.082 94.0954C310.729 94.7052 310.237 95.223 309.646 95.6066L104.648 213.966C103.535 214.612 102.627 214.088 102.627 212.796V191.172C102.66 190.464 102.86 189.775 103.211 189.16C103.563 188.545 104.055 188.022 104.648 187.635V187.635Z" fill="#E0E0E0"/>
<path d="M235.658 123.276V127.019C235.658 127.795 236.201 128.104 236.875 127.72L296.471 93.314V86.7639L236.875 121.18C236.522 121.409 236.227 121.718 236.016 122.082C235.804 122.446 235.682 122.855 235.658 123.276V123.276Z" fill="#FAFAFA"/>
<path d="M302.862 83.0679C303.526 82.6842 304.078 82.993 304.078 83.7697V87.5125C304.053 87.9339 303.93 88.3436 303.719 88.7091C303.508 89.0746 303.214 89.3858 302.862 89.6179L296.471 93.3047V86.7546L302.862 83.0679Z" fill="#EBEBEB"/>
<path d="M302.385 88.2424L301.674 88.0178C301.749 87.7117 301.787 87.3974 301.786 87.0821C301.818 86.7938 301.775 86.5022 301.662 86.2351C301.549 85.9681 301.369 85.7345 301.14 85.5568C300.979 85.4701 300.796 85.4295 300.613 85.4394C300.43 85.4493 300.253 85.5094 300.102 85.613C299.65 85.9601 299.285 86.4085 299.038 86.9221C298.791 87.4356 298.668 88.0001 298.679 88.5699C298.647 88.8581 298.69 89.1497 298.803 89.4168C298.916 89.6838 299.096 89.9174 299.325 90.0951C299.462 90.1728 299.617 90.2146 299.774 90.2167C299.983 90.2146 300.188 90.1529 300.364 90.0389C300.906 89.6685 301.311 89.1289 301.515 88.5044L302.226 88.7289H302.31C302.366 88.7278 302.421 88.7092 302.466 88.6757C302.511 88.6421 302.545 88.5954 302.563 88.5418C302.575 88.4788 302.563 88.4135 302.531 88.3583C302.498 88.3031 302.446 88.2618 302.385 88.2424V88.2424ZM300.102 89.5992C300.03 89.656 299.943 89.6914 299.852 89.7014C299.761 89.7113 299.669 89.6953 299.587 89.6553C299.444 89.5201 299.334 89.3531 299.268 89.1678C299.201 88.9824 299.179 88.784 299.203 88.5886C299.196 88.1103 299.297 87.6367 299.498 87.2026C299.699 86.7685 299.995 86.3852 300.364 86.0808C300.46 86.0236 300.57 85.9915 300.682 85.9873C300.75 85.9835 300.819 85.9998 300.878 86.0341C301.021 86.1692 301.131 86.3363 301.197 86.5216C301.264 86.7069 301.286 86.9053 301.262 87.1008C301.271 87.5793 301.171 88.0537 300.97 88.4881C300.769 88.9224 300.472 89.3056 300.102 89.6085V89.5992Z" fill="#FAFAFA"/>
<path d="M155.841 191.172V217.185C155.841 218.476 156.777 219 157.863 218.355L309.655 130.715C310.243 130.329 310.733 129.811 311.084 129.201C311.435 128.592 311.638 127.908 311.676 127.206V101.165C311.676 99.8735 310.741 99.3495 309.646 99.9952L157.863 187.635C157.27 188.022 156.777 188.545 156.426 189.16C156.075 189.775 155.874 190.464 155.841 191.172V191.172Z" fill="#EBEBEB"/>
<path d="M138.83 356.795C138.577 350.881 133.786 338.791 127.321 331.362C120.855 323.932 110.955 318.711 104.19 321.349C97.8922 323.801 98.9308 332.157 106.922 337.388C114.913 342.618 126.862 349.112 130.67 358.572L138.315 370.063L138.83 356.795Z" fill="#00AEEF"/>
<path opacity="0.1" d="M138.83 356.795C138.577 350.881 133.786 338.791 127.321 331.362C120.855 323.932 110.955 318.711 104.19 321.349C97.8922 323.801 98.9308 332.157 106.922 337.388C114.913 342.618 126.862 349.112 130.67 358.572L138.315 370.063L138.83 356.795Z" fill="black"/>
<path d="M139.607 364.879C139.513 364.877 139.422 364.844 139.349 364.785C139.276 364.726 139.225 364.643 139.204 364.552C134.385 344.509 117.346 328.76 107.39 325.542C107.28 325.505 107.188 325.427 107.136 325.323C107.083 325.22 107.074 325.1 107.109 324.99C107.127 324.935 107.156 324.885 107.193 324.842C107.231 324.798 107.277 324.763 107.328 324.738C107.379 324.712 107.435 324.698 107.493 324.694C107.55 324.691 107.607 324.699 107.661 324.718C117.786 327.993 135.143 343.994 140.028 364.346C140.053 364.459 140.033 364.577 139.971 364.675C139.91 364.773 139.813 364.843 139.7 364.87C139.67 364.879 139.638 364.883 139.607 364.879V364.879Z" fill="white"/>
<path d="M137.136 377.951C136.042 374.658 131.747 369.333 124.972 365.076C117.486 360.397 108.185 358.441 105.902 354.624C103.151 350.039 106.922 345.435 114.436 346.053C121.95 346.67 135.508 356.345 138.25 371.57L137.136 377.951Z" fill="#00AEEF"/>
<path d="M138.428 374.396C138.344 374.392 138.264 374.365 138.195 374.317C138.127 374.269 138.075 374.202 138.044 374.124C131.12 357.066 117.655 351.545 111.507 351.003C111.45 350.999 111.394 350.984 111.343 350.958C111.292 350.933 111.247 350.897 111.21 350.853C111.173 350.809 111.146 350.758 111.129 350.704C111.113 350.649 111.107 350.591 111.114 350.535C111.119 350.478 111.134 350.423 111.161 350.372C111.187 350.322 111.223 350.277 111.266 350.241C111.309 350.204 111.36 350.177 111.414 350.16C111.468 350.143 111.525 350.137 111.582 350.142C118.384 350.741 131.784 356.392 138.849 373.797C138.892 373.904 138.892 374.023 138.849 374.13C138.805 374.237 138.721 374.322 138.615 374.367C138.554 374.386 138.491 374.395 138.428 374.396V374.396Z" fill="white"/>
<path d="M359.922 222.921C359.922 222.921 361.214 211.514 366.884 202.672C372.554 193.829 380.349 188.299 387.62 187.7C394.89 187.101 400.766 193.82 392.981 198.414C385.196 203.009 371.385 207.697 365.022 224.876L359.922 222.921Z" fill="#00AEEF"/>
<path opacity="0.1" d="M359.922 222.921C359.922 222.921 361.214 211.514 366.884 202.672C372.554 193.829 380.349 188.299 387.62 187.7C394.89 187.101 400.766 193.82 392.981 198.414C385.196 203.009 371.385 207.697 365.022 224.876L359.922 222.921Z" fill="black"/>
<path d="M362.056 219.955H361.971C361.925 219.935 361.882 219.907 361.846 219.871C361.81 219.835 361.782 219.792 361.763 219.745C361.744 219.698 361.734 219.648 361.735 219.597C361.735 219.546 361.746 219.496 361.766 219.449C369.438 200.548 384.045 192.66 390.689 191.134C390.739 191.12 390.791 191.117 390.842 191.124C390.893 191.132 390.942 191.15 390.986 191.177C391.03 191.204 391.068 191.24 391.097 191.283C391.127 191.325 391.147 191.374 391.157 191.424C391.168 191.474 391.169 191.524 391.16 191.574C391.152 191.624 391.133 191.671 391.106 191.714C391.08 191.756 391.044 191.793 391.003 191.822C390.962 191.851 390.916 191.872 390.866 191.883C384.316 193.389 370.037 201.137 362.486 219.739C362.448 219.818 362.386 219.882 362.308 219.92C362.23 219.959 362.141 219.971 362.056 219.955V219.955Z" fill="white"/>
<path d="M400.888 220.179C400.233 221.667 398.614 222.434 397.098 223.042C395.583 223.651 393.964 224.306 393.15 225.709C391.503 228.516 394.198 232.521 392.439 235.282C392.027 235.835 391.507 236.3 390.91 236.645C390.313 236.991 389.652 237.212 388.967 237.293C387.844 237.509 386.703 237.499 385.561 237.602C385.019 237.587 384.479 237.543 383.942 237.471C382.369 237.121 380.725 237.299 379.264 237.977C377.008 239.24 376.325 242.084 374.95 244.274C374.106 245.571 372.99 246.668 371.68 247.491C370.369 248.313 368.896 248.841 367.361 249.037C366.351 249.168 364.47 249.355 363.441 248.775C363.364 248.739 363.292 248.695 363.225 248.644C363.225 248.644 363.225 248.644 363.225 248.644C363.086 248.491 362.955 248.332 362.832 248.167C362.812 248.149 362.796 248.126 362.786 248.101C362.393 246.632 363.038 245.107 363.066 243.581C363.071 243.491 363.071 243.401 363.066 243.31C363.001 241.542 362.954 239.792 362.917 238.033C362.832 234.786 362.795 231.548 362.814 228.301C362.814 226.196 362.58 223.894 363.478 221.91C364.46 219.73 366.912 219.674 367.838 217.54C368.213 216.689 368.409 215.772 368.774 214.911C369.329 213.646 370.222 212.557 371.354 211.765C372.486 210.973 373.814 210.507 375.193 210.42C379.479 210.204 383.315 213.676 387.591 213.358C388.697 213.209 389.793 213 390.876 212.731C394.347 212.085 398.362 213.068 400.308 216.006C400.739 216.601 401.017 217.293 401.118 218.02C401.219 218.748 401.14 219.489 400.888 220.179V220.179Z" fill="#00AEEF"/>
<path d="M362.411 241.336C362.319 241.311 362.239 241.252 362.19 241.169C362.141 241.087 362.126 240.989 362.149 240.896C368.072 218.691 391.456 215.482 396.93 215.875C397.026 215.884 397.115 215.93 397.177 216.004C397.24 216.077 397.272 216.171 397.267 216.268C397.264 216.315 397.253 216.362 397.232 216.405C397.211 216.448 397.182 216.486 397.146 216.517C397.111 216.549 397.069 216.573 397.024 216.588C396.978 216.603 396.931 216.608 396.883 216.605C391.531 216.221 368.643 219.356 362.86 241.083C362.834 241.176 362.772 241.255 362.688 241.302C362.604 241.35 362.504 241.362 362.411 241.336V241.336Z" fill="white"/>
<path d="M388.396 230.088C388.326 230.071 388.261 230.036 388.209 229.986C386.05 228.116 383.505 226.745 380.755 225.97C378.006 225.196 375.12 225.036 372.302 225.503C372.205 225.517 372.107 225.492 372.029 225.435C371.95 225.377 371.897 225.291 371.881 225.195C371.867 225.098 371.892 225 371.95 224.921C372.007 224.843 372.093 224.79 372.189 224.774C375.121 224.287 378.125 224.454 380.985 225.262C383.845 226.071 386.49 227.502 388.733 229.452C388.801 229.521 388.839 229.613 388.839 229.709C388.839 229.806 388.801 229.898 388.733 229.967C388.691 230.013 388.638 230.048 388.58 230.069C388.521 230.091 388.458 230.097 388.396 230.088V230.088Z" fill="white"/>
<path d="M138.736 380.786C138.178 380.4 137.718 379.888 137.393 379.292C137.068 378.695 136.887 378.031 136.865 377.352V184.594C136.901 183.891 137.103 183.207 137.455 182.597C137.806 181.987 138.296 181.469 138.886 181.085L359.052 53.939C359.638 53.5715 360.313 53.3705 361.004 53.3576C361.696 53.3447 362.378 53.5203 362.977 53.8656C363.576 54.2109 364.07 54.7128 364.406 55.3176C364.741 55.9223 364.906 56.607 364.882 57.2982V250.122C364.843 250.825 364.64 251.508 364.289 252.118C363.938 252.727 363.449 253.245 362.86 253.631L142.629 380.721C142.031 381.036 141.367 381.205 140.691 381.217C140.014 381.228 139.345 381.081 138.736 380.786V380.786Z" fill="#00AEEF"/>
<path opacity="0.4" d="M364.863 56.9708C364.722 55.9227 363.871 55.5391 362.86 56.1286L142.629 183.256C142.035 183.636 141.543 184.157 141.197 184.772L137.398 182.573C137.757 181.951 138.269 181.433 138.886 181.066L359.061 53.939C359.619 53.5715 360.265 53.3599 360.932 53.3261C361.599 53.2923 362.263 53.4376 362.855 53.7469C363.447 54.0563 363.945 54.5183 364.298 55.0852C364.651 55.6521 364.846 56.3031 364.863 56.9708Z" fill="white"/>
<path d="M142.273 380.889H142.189C142.127 380.922 142.061 380.948 141.993 380.964L141.843 381.011C141.752 381.044 141.658 381.066 141.562 381.077C141.5 381.086 141.437 381.086 141.375 381.077L141.066 381.123C140.267 381.233 139.453 381.092 138.736 380.721C138.177 380.336 137.715 379.824 137.39 379.228C137.065 378.631 136.885 377.966 136.865 377.287V208.567L140.673 210.766V379.542C140.673 380.478 141.132 380.992 141.796 380.992C141.886 381.005 141.978 381.005 142.068 380.992V380.992L142.273 380.889Z" fill="#F0F0F0"/>
<path opacity="0.1" d="M141.225 184.772C140.862 185.375 140.659 186.061 140.636 186.765V210.766L136.828 208.567V184.622C136.823 184.541 136.823 184.46 136.828 184.379C136.846 184.209 136.875 184.04 136.912 183.873C137.022 183.434 137.192 183.012 137.417 182.619L141.225 184.772Z" fill="black"/>
<path d="M364.882 57.2982V68.1245L203.451 161.313C202.337 161.959 201.43 161.435 201.43 160.143V156.045C201.43 154.754 200.494 154.23 199.399 154.875L150.246 183.256C149.655 183.639 149.163 184.157 148.81 184.767C148.457 185.377 148.253 186.061 148.215 186.765V190.863C148.177 191.565 147.974 192.249 147.623 192.858C147.272 193.468 146.782 193.986 146.194 194.372L140.58 197.591V186.765C140.618 186.062 140.821 185.379 141.172 184.769C141.524 184.16 142.013 183.641 142.601 183.256L362.86 56.1285C363.974 55.4922 364.882 56.0069 364.882 57.2982Z" fill="#00AEEF"/>
<path d="M364.891 250.122C364.853 250.826 364.649 251.51 364.296 252.12C363.943 252.73 363.451 253.248 362.86 253.631L142.629 380.712C141.516 381.357 140.608 380.833 140.608 379.542V197.591L146.222 194.372C147.336 193.726 149.151 183.901 150.274 183.256L198.604 155.343C199.727 154.697 202.347 161.959 203.479 161.313L364.891 68.1245V250.122V250.122Z" fill="#FAFAFA"/>
<path d="M150.264 244.695L191.82 220.703C192.943 220.058 193.85 220.582 193.85 221.873V340.083C193.812 340.786 193.608 341.47 193.256 342.08C192.903 342.69 192.411 343.208 191.82 343.591L150.264 367.593C149.142 368.238 148.234 367.714 148.234 366.423V248.251C148.265 247.539 148.465 246.845 148.818 246.227C149.172 245.608 149.667 245.083 150.264 244.695V244.695Z" fill="#F0F0F0"/>
<path d="M157.863 249.083L184.222 233.869C185.345 233.223 186.243 233.681 186.243 234.898C186.195 235.578 185.986 236.236 185.635 236.82C185.284 237.404 184.8 237.896 184.222 238.257L157.863 253.481C156.749 254.127 155.841 253.659 155.841 252.452C155.891 251.771 156.099 251.112 156.45 250.527C156.801 249.941 157.285 249.447 157.863 249.083V249.083Z" fill="#E0E0E0"/>
<path d="M155.841 260.415V261.997C155.841 262.764 156.384 263.082 157.058 262.698L158.424 261.903C158.779 261.673 159.074 261.362 159.285 260.996C159.497 260.63 159.618 260.22 159.64 259.798V258.216C159.64 257.44 159.098 257.131 158.424 257.514L157.058 258.31C156.703 258.54 156.408 258.85 156.197 259.216C155.985 259.582 155.864 259.993 155.841 260.415Z" fill="#00AEEF"/>
<path d="M163.439 256.841C163.439 258.057 164.375 258.516 165.47 257.87L184.184 247.034C184.761 246.672 185.244 246.179 185.595 245.595C185.946 245.012 186.155 244.354 186.206 243.675C186.206 242.459 185.27 242 184.184 242.646L165.47 253.472C164.89 253.834 164.404 254.328 164.051 254.913C163.699 255.499 163.489 256.159 163.439 256.841V256.841Z" fill="#E0E0E0"/>
<path d="M155.841 269.23V270.811C155.841 271.578 156.384 271.897 157.058 271.513L158.424 270.718C158.779 270.488 159.074 270.177 159.285 269.811C159.497 269.445 159.618 269.034 159.64 268.612V267.031C159.64 266.254 159.098 265.945 158.424 266.329L157.058 267.124C156.703 267.354 156.408 267.665 156.197 268.031C155.985 268.397 155.864 268.808 155.841 269.23V269.23Z" fill="#00AEEF"/>
<path d="M163.439 265.627C163.439 266.844 164.375 267.302 165.47 266.657L184.184 255.821C184.761 255.458 185.244 254.965 185.595 254.382C185.946 253.798 186.155 253.141 186.206 252.462C186.206 251.245 185.27 250.787 184.184 251.432L165.47 262.259C164.89 262.621 164.404 263.114 164.051 263.7C163.699 264.285 163.489 264.946 163.439 265.627V265.627Z" fill="#E0E0E0"/>
<path d="M155.841 277.997V279.579C155.841 280.355 156.384 280.664 157.058 280.281L158.424 279.495C158.777 279.263 159.071 278.952 159.282 278.586C159.493 278.221 159.616 277.811 159.64 277.389V275.799C159.64 275.031 159.098 274.713 158.424 275.097L157.058 275.892C156.703 276.122 156.408 276.433 156.197 276.799C155.985 277.165 155.864 277.575 155.841 277.997Z" fill="#00AEEF"/>
<path d="M163.439 274.395C163.439 275.611 164.375 276.07 165.47 275.424L184.184 264.598C184.762 264.234 185.246 263.74 185.597 263.155C185.948 262.569 186.156 261.91 186.206 261.229C186.206 260.022 185.27 259.564 184.184 260.209L165.47 271.036C164.891 271.397 164.406 271.889 164.053 272.473C163.701 273.056 163.49 273.715 163.439 274.395Z" fill="#E0E0E0"/>
<path d="M155.841 286.765V288.346C155.841 289.123 156.384 289.441 157.058 289.048L158.424 288.262C158.777 288.031 159.071 287.72 159.282 287.354C159.493 286.988 159.616 286.578 159.64 286.157V284.566C159.64 283.799 159.098 283.481 158.424 283.864L157.058 284.66C156.703 284.89 156.408 285.2 156.197 285.566C155.985 285.932 155.864 286.343 155.841 286.765V286.765Z" fill="#00AEEF"/>
<path d="M163.439 283.163C163.439 284.379 164.375 284.838 165.47 284.192L184.184 273.366C184.762 273.002 185.246 272.508 185.597 271.922C185.948 271.337 186.156 270.678 186.206 269.997C186.206 268.79 185.27 268.331 184.184 268.977L165.47 279.803C164.891 280.164 164.406 280.657 164.053 281.24C163.701 281.824 163.49 282.483 163.439 283.163V283.163Z" fill="#E0E0E0"/>
<path d="M157.703 297.451L184.063 282.236C185.176 281.591 186.084 282.049 186.084 283.266C186.033 283.945 185.824 284.602 185.473 285.186C185.122 285.769 184.639 286.262 184.063 286.625L157.703 301.84C156.581 302.485 155.682 302.027 155.682 300.82C155.731 300.139 155.94 299.48 156.291 298.894C156.642 298.309 157.126 297.815 157.703 297.451Z" fill="#E0E0E0"/>
<path d="M155.729 308.801V310.383C155.729 311.159 156.272 311.477 156.936 311.084L158.312 310.298C158.666 310.068 158.961 309.758 159.173 309.392C159.384 309.026 159.506 308.615 159.528 308.193V306.612C159.528 305.835 158.985 305.517 158.312 305.91L156.936 306.696C156.585 306.929 156.294 307.241 156.084 307.606C155.875 307.972 155.753 308.381 155.729 308.801V308.801Z" fill="#00AEEF"/>
<path d="M163.28 305.208C163.28 306.415 164.216 306.874 165.302 306.228L184.063 295.402C184.639 295.039 185.122 294.546 185.473 293.963C185.824 293.379 186.033 292.721 186.084 292.042C186.084 290.826 185.148 290.368 184.063 291.013L165.302 301.839C164.724 302.203 164.24 302.697 163.889 303.283C163.538 303.868 163.33 304.527 163.28 305.208V305.208Z" fill="#E0E0E0"/>
<path d="M155.729 317.588V319.169C155.729 319.946 156.272 320.264 156.936 319.871L158.312 319.085C158.666 318.855 158.961 318.544 159.173 318.178C159.384 317.813 159.506 317.402 159.528 316.98V315.398C159.528 314.622 158.985 314.303 158.312 314.696L156.936 315.482C156.585 315.716 156.294 316.027 156.084 316.393C155.875 316.758 155.753 317.167 155.729 317.588V317.588Z" fill="#00AEEF"/>
<path d="M163.28 313.995C163.28 315.202 164.216 315.66 165.302 315.015L184.063 304.188C184.639 303.826 185.122 303.333 185.473 302.749C185.824 302.166 186.033 301.508 186.084 300.829C186.084 299.613 185.148 299.154 184.063 299.8L165.302 310.626C164.724 310.99 164.24 311.484 163.889 312.069C163.538 312.654 163.33 313.314 163.28 313.995V313.995Z" fill="#E0E0E0"/>
<path d="M155.729 326.365V327.946C155.729 328.723 156.272 329.032 156.936 328.648L158.312 327.853C158.666 327.623 158.961 327.312 159.173 326.946C159.384 326.58 159.506 326.169 159.528 325.747V324.166C159.528 323.389 158.985 323.08 158.312 323.464L156.936 324.259C156.584 324.491 156.291 324.802 156.081 325.168C155.872 325.534 155.751 325.944 155.729 326.365Z" fill="#00AEEF"/>
<path d="M163.28 322.762C163.28 323.979 164.216 324.437 165.302 323.792L184.063 312.965C184.64 312.602 185.124 312.107 185.475 311.522C185.826 310.937 186.035 310.277 186.084 309.597C186.084 308.39 185.148 307.931 184.063 308.577L165.302 319.366C164.72 319.732 164.234 320.231 163.883 320.821C163.532 321.411 163.325 322.077 163.28 322.762Z" fill="#E0E0E0"/>
<path d="M155.729 335.133V336.714C155.729 337.491 156.272 337.799 156.936 337.416L158.312 336.62C158.666 336.391 158.961 336.08 159.173 335.714C159.384 335.348 159.506 334.937 159.528 334.515V332.934C159.528 332.157 158.985 331.848 158.312 332.232L156.936 333.027C156.584 333.259 156.291 333.57 156.081 333.936C155.872 334.302 155.751 334.712 155.729 335.133V335.133Z" fill="#00AEEF"/>
<path d="M163.28 331.53C163.28 332.746 164.216 333.205 165.302 332.559L184.063 321.733C184.64 321.369 185.124 320.875 185.475 320.29C185.826 319.705 186.035 319.045 186.084 318.364C186.084 317.157 185.148 316.699 184.063 317.344L165.302 328.171C164.725 328.534 164.242 329.026 163.891 329.61C163.54 330.193 163.331 330.851 163.28 331.53Z" fill="#E0E0E0"/>
<path d="M292.672 204.319V206.49C292.672 207.781 293.608 208.305 294.693 207.65L347.664 176.771C348.252 176.385 348.742 175.867 349.093 175.257C349.444 174.648 349.647 173.964 349.685 173.262V171.391C349.685 170.099 348.75 169.575 347.664 170.221L294.702 200.8C294.11 201.185 293.618 201.704 293.265 202.316C292.912 202.927 292.709 203.614 292.672 204.319V204.319Z" fill="#00AEEF"/>
<path d="M294.702 213.975L355.262 179.008C356.385 178.362 357.293 178.82 357.293 180.037C357.242 180.717 357.032 181.375 356.679 181.959C356.326 182.543 355.841 183.035 355.262 183.396L294.702 218.364C293.58 219.01 292.672 218.551 292.672 217.344C292.721 216.662 292.931 216.002 293.284 215.417C293.637 214.831 294.123 214.337 294.702 213.975V213.975Z" fill="#E6E6E6"/>
<path d="M294.702 222.752L355.262 187.784C356.385 187.139 357.293 187.597 357.293 188.804C357.243 189.486 357.034 190.146 356.681 190.732C356.328 191.317 355.842 191.811 355.262 192.173L294.702 227.141C293.58 227.787 292.672 227.328 292.672 226.112C292.723 225.432 292.933 224.773 293.286 224.189C293.639 223.606 294.124 223.113 294.702 222.752V222.752Z" fill="#E6E6E6"/>
<path d="M294.702 231.52L355.262 196.552C356.385 195.907 357.293 196.365 357.293 197.582C357.242 198.262 357.032 198.92 356.679 199.504C356.326 200.087 355.841 200.58 355.262 200.941L294.702 235.909C293.58 236.554 292.672 236.096 292.672 234.889C292.721 234.207 292.931 233.547 293.284 232.961C293.637 232.376 294.123 231.882 294.702 231.52V231.52Z" fill="#E6E6E6"/>
<path d="M294.702 240.297L355.262 205.329C356.385 204.684 357.293 205.142 357.293 206.349C357.243 207.031 357.034 207.691 356.681 208.277C356.328 208.862 355.842 209.356 355.262 209.718L294.702 244.686C293.58 245.331 292.672 244.873 292.672 243.657C292.723 242.976 292.933 242.318 293.286 241.734C293.639 241.151 294.124 240.658 294.702 240.297V240.297Z" fill="#E6E6E6"/>
<path d="M294.702 249.065L355.262 214.097C356.385 213.451 357.293 213.91 357.293 215.126C357.242 215.806 357.032 216.465 356.679 217.048C356.326 217.632 355.841 218.124 355.262 218.485L294.702 253.453C293.58 254.099 292.672 253.64 292.672 252.433C292.721 251.752 292.931 251.091 293.284 250.506C293.637 249.921 294.123 249.427 294.702 249.065V249.065Z" fill="#E6E6E6"/>
<path d="M294.702 257.842L355.262 222.874C356.385 222.228 357.293 222.687 357.293 223.894C357.243 224.576 357.034 225.236 356.681 225.821C356.328 226.407 355.842 226.901 355.262 227.263L294.702 262.23C293.58 262.876 292.672 262.418 292.672 261.201C292.723 260.521 292.933 259.863 293.286 259.279C293.639 258.695 294.124 258.203 294.702 257.842V257.842Z" fill="#E6E6E6"/>
<path d="M294.702 266.61L355.262 231.642C356.385 230.996 357.293 231.455 357.293 232.671C357.242 233.351 357.032 234.01 356.679 234.593C356.326 235.177 355.841 235.669 355.262 236.03L294.702 270.998C293.58 271.644 292.672 271.185 292.672 269.978C292.721 269.297 292.931 268.636 293.284 268.051C293.637 267.466 294.123 266.972 294.702 266.61V266.61Z" fill="#E6E6E6"/>
<path d="M294.702 275.387L355.262 240.419C356.385 239.773 357.293 240.232 357.293 241.439C357.243 242.12 357.034 242.781 356.681 243.366C356.328 243.951 355.842 244.445 355.262 244.807L294.702 279.775C293.58 280.421 292.672 279.962 292.672 278.746C292.723 278.066 292.933 277.407 293.286 276.824C293.639 276.24 294.124 275.748 294.702 275.387V275.387Z" fill="#E6E6E6"/>
<path d="M203.451 253.472L282.987 207.538C284.11 206.892 285.018 207.416 285.018 208.707V287.42C284.98 288.124 284.776 288.808 284.423 289.418C284.07 290.028 283.578 290.545 282.987 290.929L203.451 336.864C202.328 337.509 201.42 336.985 201.42 335.694V256.981C201.459 256.278 201.662 255.593 202.015 254.983C202.368 254.374 202.86 253.856 203.451 253.472V253.472Z" fill="#00AEEF"/>
<path opacity="0.8" d="M203.451 253.472L282.987 207.538C284.11 206.892 285.018 207.416 285.018 208.707V287.42C284.98 288.124 284.776 288.808 284.423 289.418C284.07 290.028 283.578 290.545 282.987 290.929L203.451 336.864C202.328 337.509 201.42 336.985 201.42 335.694V256.981C201.459 256.278 201.662 255.593 202.015 254.983C202.368 254.374 202.86 253.856 203.451 253.472V253.472Z" fill="white"/>
<path d="M262.879 252.19L249.582 275.714L258.939 287.832L228.06 261.229L201.448 318.832V335.675C201.448 336.967 202.384 337.491 203.479 336.845L283.015 290.91C283.606 290.527 284.098 290.009 284.451 289.399C284.804 288.789 285.008 288.105 285.046 287.401V272.43L262.879 252.19Z" fill="#00AEEF"/>
<path d="M266.069 227.974C269.372 226.102 272.058 227.609 272.058 231.436C271.944 233.514 271.343 235.537 270.303 237.34C269.262 239.142 267.812 240.675 266.069 241.813C262.757 243.731 260.071 242.178 260.071 238.36C260.183 236.279 260.785 234.254 261.827 232.449C262.869 230.644 264.323 229.111 266.069 227.974V227.974Z" fill="#00AEEF"/>
<path d="M150.264 213.975L355.262 95.616C356.385 94.9704 357.293 95.4944 357.293 96.7857V118.448C357.256 119.15 357.054 119.835 356.703 120.444C356.352 121.054 355.861 121.572 355.272 121.957L150.264 240.307C149.142 240.952 148.234 240.428 148.234 239.137V217.484C148.272 216.781 148.476 216.096 148.829 215.487C149.182 214.877 149.674 214.359 150.264 213.975V213.975Z" fill="#090E47"/>
<path d="M281.265 149.616V153.359C281.265 154.127 281.818 154.445 282.482 154.061L342.087 119.645V113.095L282.482 147.502C282.128 147.735 281.834 148.047 281.623 148.415C281.411 148.782 281.289 149.193 281.265 149.616V149.616Z" fill="#FAFAFA"/>
<path d="M348.488 109.418C349.161 109.025 349.704 109.343 349.704 110.12V113.863C349.682 114.285 349.56 114.695 349.349 115.061C349.137 115.427 348.842 115.738 348.488 115.968L342.106 119.655V113.105L348.488 109.418Z" fill="#00AEEF"/>
<path d="M348.001 114.592L347.29 114.368C347.362 114.061 347.399 113.747 347.402 113.432C347.434 113.144 347.391 112.853 347.276 112.587C347.161 112.322 346.979 112.09 346.747 111.916C346.586 111.83 346.404 111.789 346.222 111.797C346.039 111.806 345.862 111.863 345.709 111.963C345.255 112.311 344.89 112.761 344.643 113.276C344.396 113.792 344.274 114.358 344.286 114.929C344.254 115.217 344.298 115.508 344.413 115.774C344.528 116.04 344.71 116.271 344.941 116.445C345.077 116.527 345.232 116.569 345.39 116.567C345.598 116.562 345.801 116.504 345.98 116.398C346.52 116.022 346.924 115.48 347.131 114.854L347.842 115.079H347.917C347.973 115.082 348.028 115.065 348.074 115.033C348.119 115.001 348.153 114.955 348.17 114.901C348.185 114.838 348.176 114.771 348.145 114.714C348.114 114.657 348.063 114.614 348.001 114.592V114.592ZM345.681 115.959C345.605 116.006 345.517 116.031 345.428 116.031C345.339 116.031 345.251 116.006 345.175 115.959C345.032 115.825 344.923 115.66 344.856 115.476C344.789 115.292 344.767 115.095 344.792 114.901C344.784 114.423 344.884 113.949 345.085 113.515C345.286 113.081 345.582 112.697 345.952 112.394C346.047 112.333 346.157 112.297 346.27 112.291C346.337 112.29 346.402 112.31 346.457 112.347C346.602 112.479 346.713 112.644 346.78 112.828C346.847 113.012 346.868 113.21 346.841 113.404C346.858 113.891 346.762 114.374 346.56 114.818C346.359 115.261 346.058 115.651 345.681 115.959V115.959Z" fill="#FAFAFA"/>
<path d="M201.448 217.484V243.572C201.448 244.864 202.384 245.388 203.479 244.742L355.262 157.112C355.853 156.728 356.345 156.21 356.698 155.6C357.051 154.991 357.255 154.306 357.293 153.603V127.543C357.293 126.251 356.357 125.727 355.262 126.373L203.451 213.975C202.865 214.362 202.379 214.881 202.031 215.491C201.683 216.1 201.484 216.783 201.448 217.484V217.484Z" fill="#00AEEF"/>
<path opacity="0.7" d="M201.448 217.484V243.572C201.448 244.864 202.384 245.388 203.479 244.742L355.262 157.112C355.853 156.728 356.345 156.21 356.698 155.6C357.051 154.991 357.255 154.306 357.293 153.603V127.543C357.293 126.251 356.357 125.727 355.262 126.373L203.451 213.975C202.865 214.362 202.379 214.881 202.031 215.491C201.683 216.1 201.484 216.783 201.448 217.484V217.484Z" fill="white"/>
<path d="M364.882 68.1245V81.2995L140.636 210.766V197.591L144.8 195.177C145.913 194.531 146.288 193.549 146.821 191.668L148.234 186.765C148.683 185.062 149.17 183.901 150.265 183.256L198.595 155.343C199.717 154.697 200.597 154.632 201.448 156.045L203.18 159.189C203.816 160.284 204.115 160.929 205.247 160.284L364.882 68.1245Z" fill="#E6E6E6"/>
<path d="M355.375 64.0914C356.788 63.2773 357.929 63.9323 357.929 65.5605C357.882 66.4461 357.627 67.308 357.183 68.0757C356.739 68.8434 356.119 69.495 355.375 69.9771C353.971 70.7912 352.829 70.1268 352.829 68.508C352.875 67.6232 353.13 66.7618 353.572 65.9942C354.014 65.2266 354.632 64.5745 355.375 64.0914V64.0914Z" fill="white"/>
<path d="M346.205 69.3783C347.608 68.5642 348.75 69.2286 348.75 70.8567C348.703 71.7399 348.448 72.5994 348.005 73.3653C347.563 74.1312 346.946 74.7818 346.205 75.264C344.792 76.0781 343.65 75.4231 343.65 73.7949C343.697 72.9093 343.953 72.0474 344.397 71.2797C344.841 70.512 345.46 69.8604 346.205 69.3783V69.3783Z" fill="white"/>
<path d="M338.822 78.6559C339.817 76.9328 339.818 75.071 338.825 74.4974C337.831 73.9237 336.219 74.8555 335.224 76.5786C334.23 78.3017 334.229 80.1635 335.222 80.7371C336.216 81.3108 337.828 80.379 338.822 78.6559Z" fill="white"/>
<path opacity="0.5" d="M149.928 198.536L146.746 200.407L147.963 198.077C148.01 197.99 148.035 197.892 148.035 197.792C148.035 197.692 148.01 197.594 147.963 197.507C147.869 197.394 147.701 197.507 147.598 197.684L145.876 200.997C145.876 200.997 145.876 201.072 145.829 201.119C145.782 201.165 145.829 201.119 145.829 201.119C145.82 201.174 145.82 201.231 145.829 201.287C145.819 201.336 145.819 201.387 145.829 201.437C145.829 201.437 145.829 201.437 145.829 201.437L145.876 201.502L147.598 202.822C147.622 202.84 147.652 202.85 147.682 202.85C147.712 202.85 147.742 202.84 147.766 202.822C147.857 202.764 147.926 202.679 147.963 202.578C148.013 202.497 148.04 202.403 148.04 202.307C148.04 202.211 148.013 202.117 147.963 202.036L146.746 201.1L149.928 199.228C150.01 199.166 150.077 199.086 150.123 198.993C150.168 198.9 150.191 198.798 150.19 198.695C150.19 198.564 150.115 198.461 149.928 198.536Z" fill="#090E47"/>
<path opacity="0.5" d="M152.585 197.001L155.767 195.13L154.55 194.194C154.447 194.119 154.438 193.876 154.55 193.661C154.662 193.446 154.803 193.333 154.906 193.408L156.637 194.737C156.657 194.755 156.673 194.777 156.684 194.802V194.802C156.689 194.849 156.689 194.896 156.684 194.943C156.688 195.002 156.688 195.061 156.684 195.121C156.674 195.163 156.658 195.204 156.637 195.242V195.242L154.887 198.658C154.851 198.738 154.793 198.807 154.719 198.854C154.706 198.867 154.692 198.876 154.676 198.883C154.66 198.89 154.642 198.893 154.625 198.893C154.608 198.893 154.59 198.89 154.574 198.883C154.558 198.876 154.544 198.867 154.531 198.854C154.483 198.768 154.458 198.672 154.458 198.573C154.458 198.475 154.483 198.378 154.531 198.293L155.748 195.953L152.566 197.825C152.426 197.9 152.314 197.825 152.314 197.572C152.31 197.462 152.332 197.353 152.379 197.253C152.427 197.154 152.497 197.068 152.585 197.001V197.001Z" fill="#090E47"/>
<path opacity="0.5" d="M163.018 187.85C163.018 187.653 162.831 187.682 162.747 187.85L162.317 188.917C161.568 188.832 160.67 189.562 160.062 190.844C159.275 192.51 159.275 194.484 160.062 195.242C160.253 195.421 160.501 195.527 160.762 195.543C161.024 195.558 161.282 195.481 161.493 195.326C162.126 194.901 162.621 194.299 162.915 193.595C162.967 193.511 162.994 193.414 162.994 193.315C162.994 193.216 162.967 193.119 162.915 193.034C162.822 192.94 162.653 193.034 162.56 193.249C161.97 194.494 161.016 195.046 160.426 194.475C159.837 193.904 159.837 192.435 160.426 191.19C160.838 190.311 161.446 189.787 161.97 189.749L161.643 190.554C161.559 190.76 161.643 190.957 161.765 190.872L163.065 190.021C163.117 189.978 163.157 189.923 163.181 189.861C163.206 189.799 163.214 189.732 163.206 189.665L163.018 187.85Z" fill="#090E47"/>
<path opacity="0.5" d="M197.2 161.36L198.361 158.908C198.431 158.792 198.468 158.66 198.468 158.524C198.468 158.389 198.431 158.256 198.361 158.141C198.22 158.01 198.005 158.141 197.865 158.431L196.704 160.882L195.544 159.769C195.413 159.638 195.188 159.769 195.048 160.05C194.983 160.167 194.948 160.299 194.948 160.433C194.948 160.568 194.983 160.7 195.048 160.817L196.208 161.93L195.029 164.391C194.964 164.507 194.929 164.637 194.929 164.77C194.929 164.903 194.964 165.034 195.029 165.149C195.066 165.177 195.11 165.193 195.156 165.193C195.201 165.193 195.246 165.177 195.282 165.149C195.388 165.073 195.472 164.969 195.525 164.85L196.686 162.389L197.846 163.512C197.881 163.541 197.926 163.558 197.972 163.558C198.018 163.558 198.063 163.541 198.099 163.512C198.209 163.44 198.294 163.335 198.342 163.212C198.412 163.097 198.449 162.964 198.449 162.829C198.449 162.693 198.412 162.561 198.342 162.445L197.2 161.36Z" fill="#090E47"/>
<path d="M167.238 190.863V186.764C167.277 186.061 167.48 185.377 167.833 184.767C168.186 184.157 168.678 183.639 169.269 183.256L351.454 78.1273C352.567 77.4816 353.475 78.0056 353.475 79.2969V83.3954C353.436 84.0977 353.233 84.7811 352.882 85.3905C352.531 86 352.042 86.5185 351.454 86.9043L169.269 192.033C168.146 192.678 167.238 192.154 167.238 190.863Z" fill="#FAFAFA"/>
<path d="M348.694 87.2131C348.635 87.2228 348.575 87.2228 348.516 87.2131C348.402 87.1606 348.309 87.0708 348.253 86.9585C348.197 86.8462 348.181 86.7182 348.207 86.5955L348.413 84.9299L347.627 84.3685C347.559 84.3152 347.504 84.247 347.467 84.1691C347.429 84.0912 347.411 84.0057 347.412 83.9193C347.413 83.7834 347.444 83.6494 347.502 83.5266C347.56 83.4038 347.644 83.2951 347.748 83.2082L348.937 82.2725C348.961 82.2445 348.98 82.2129 348.993 82.1789L349.526 80.4384C349.559 80.295 349.633 80.1643 349.74 80.0628C349.846 79.9613 349.98 79.8934 350.125 79.8677C350.222 79.8648 350.317 79.8897 350.4 79.9394C350.483 79.9892 350.55 80.0617 350.593 80.1484V80.1484L351.033 81.0841L352.043 80.6911C352.135 80.6524 352.236 80.6443 352.332 80.6679C352.428 80.6915 352.514 80.7456 352.577 80.8221C352.658 80.9424 352.701 81.0841 352.701 81.2291C352.701 81.3741 352.658 81.5158 352.577 81.6362L351.716 83.255C351.708 83.2856 351.708 83.3179 351.716 83.3485L351.922 84.8176C351.933 84.9509 351.915 85.0851 351.87 85.211C351.825 85.3369 351.753 85.4516 351.66 85.5475C351.6 85.6107 351.527 85.6596 351.446 85.6904C351.365 85.7212 351.278 85.7331 351.192 85.7253L350.256 85.6036L349.208 86.9511C349.151 87.034 349.074 87.1013 348.984 87.147C348.894 87.1928 348.794 87.2155 348.694 87.2131V87.2131ZM348.123 83.8351L348.899 84.3965C348.983 84.4615 349.048 84.5482 349.085 84.6472C349.123 84.7462 349.134 84.8537 349.115 84.958L348.974 86.0621L349.685 85.1264C349.742 85.0389 349.822 84.969 349.916 84.9244C350.01 84.8797 350.115 84.8622 350.219 84.8738L351.155 84.986C351.166 84.9527 351.166 84.9165 351.155 84.8831L350.958 83.4234C350.932 83.2391 350.969 83.0516 351.061 82.89L351.81 81.4771L351.033 81.7765C350.92 81.8237 350.793 81.8246 350.679 81.7791C350.565 81.7336 350.474 81.6453 350.425 81.5332L350.069 80.7847L349.592 82.338C349.547 82.5127 349.445 82.6674 349.302 82.7778L348.113 83.7135C348.107 83.7542 348.11 83.7958 348.123 83.8351V83.8351Z" fill="#E0E0E0"/>
<g opacity="0.5">
<path opacity="0.5" d="M355.871 77.6221C355.716 77.6233 355.564 77.5731 355.441 77.4794C355.317 77.3857 355.228 77.2538 355.188 77.1041C355.147 76.9545 355.157 76.7956 355.216 76.6523C355.276 76.509 355.381 76.3894 355.515 76.312L361.214 73.0183C361.374 72.9351 361.559 72.9159 361.733 72.9646C361.907 73.0132 362.056 73.1261 362.149 73.2803C362.237 73.4394 362.259 73.6268 362.21 73.8018C362.161 73.9769 362.045 74.1257 361.887 74.216L356.189 77.5098C356.094 77.5729 355.984 77.6114 355.871 77.6221V77.6221Z" fill="#090E47"/>
<path opacity="0.5" d="M355.871 80.9159C355.716 80.9171 355.564 80.8669 355.441 80.7732C355.317 80.6795 355.228 80.5476 355.188 80.398C355.147 80.2483 355.157 80.0895 355.216 79.9462C355.276 79.8029 355.381 79.6832 355.515 79.6059L361.214 76.3121C361.373 76.2266 361.56 76.2062 361.734 76.255C361.908 76.3038 362.057 76.4182 362.149 76.5741C362.237 76.7333 362.259 76.9206 362.21 77.0957C362.161 77.2707 362.045 77.4195 361.887 77.5099L356.189 80.8036C356.094 80.8667 355.984 80.9053 355.871 80.9159V80.9159Z" fill="#090E47"/>
<path opacity="0.5" d="M355.871 84.2096C355.716 84.2108 355.564 84.1606 355.441 84.0669C355.317 83.9732 355.228 83.8413 355.188 83.6916C355.147 83.542 355.157 83.3832 355.216 83.2399C355.276 83.0966 355.381 82.9769 355.515 82.8996L361.214 79.6058C361.373 79.5203 361.56 79.4999 361.734 79.5487C361.908 79.5975 362.057 79.7119 362.149 79.8678C362.237 80.027 362.259 80.2143 362.21 80.3894C362.161 80.5644 362.045 80.7132 361.887 80.8036L356.189 84.0973C356.094 84.1604 355.984 84.199 355.871 84.2096V84.2096Z" fill="#090E47"/>
</g>
<path d="M140.636 197.591V210.766L136.828 208.567V195.401L140.636 197.591Z" fill="#E0E0E0"/>
</svg>
