<svg width="407" height="263" viewBox="0 0 407 263" fill="none" xmlns="http://www.w3.org/2000/svg">
<path d="M119.925 136.152H12.8036L20.7237 59.843H128.753L119.925 136.152Z" fill="#F5F5F5"/>
<path d="M24.5819 123.349C24.4833 123.349 25.5941 111.86 27.0532 97.7151C28.5124 83.5706 29.7743 72.0815 29.8663 72.0815C29.9584 72.0815 28.8541 83.564 27.395 97.7151C25.9359 111.866 24.6739 123.355 24.5819 123.349Z" fill="#E0E0E0"/>
<path d="M44.0831 74.6777C42.2963 74.847 40.5006 74.9041 38.7066 74.8486C36.9127 74.9041 35.117 74.847 33.3302 74.6777C35.1167 74.5045 36.9127 74.4475 38.7066 74.5068C40.5006 74.4475 42.2965 74.5045 44.0831 74.6777V74.6777Z" fill="#E0E0E0"/>
<path d="M89.8356 74.6777C89.8356 74.7697 80.2461 74.8486 68.4218 74.8486C56.5975 74.8486 47.0014 74.7697 47.0014 74.6777C47.0014 74.5857 56.5909 74.5068 68.4218 74.5068C80.2526 74.5068 89.8356 74.5791 89.8356 74.6777Z" fill="#E0E0E0"/>
<path d="M42.8145 101.79C41.028 101.963 39.2321 102.02 37.4381 101.961C35.6441 102.02 33.8482 101.963 32.0616 101.79C33.8484 101.621 35.6441 101.564 37.4381 101.619C39.2321 101.564 41.0277 101.621 42.8145 101.79Z" fill="#E0E0E0"/>
<path d="M88.5671 101.79C88.5671 101.889 78.9775 101.961 67.1532 101.961C55.329 101.961 45.7328 101.889 45.7328 101.79C45.7328 101.691 55.3224 101.619 67.1532 101.619C78.9841 101.619 88.5671 101.698 88.5671 101.79Z" fill="#E0E0E0"/>
<path d="M73.9757 114.324C73.9757 114.423 64.3861 114.495 52.5619 114.495C40.7376 114.495 31.1414 114.423 31.1414 114.324C31.1414 114.226 40.731 114.153 52.5619 114.153C64.3927 114.153 73.9757 114.199 73.9757 114.324Z" fill="#E0E0E0"/>
<path d="M48.822 82.3349C48.822 82.427 45.4371 82.5058 41.2568 82.5058C37.0766 82.5058 33.6917 82.427 33.6917 82.3349C33.6917 82.2429 37.0832 82.1575 41.2568 82.1575C45.4305 82.1575 48.822 82.2363 48.822 82.3349Z" fill="#E0E0E0"/>
<path d="M48.4408 93.5544C48.4408 93.653 45.0493 93.7253 40.8756 93.7253C36.7019 93.7253 33.3104 93.653 33.3104 93.5544C33.3104 93.4558 36.6954 93.3835 40.8756 93.3835C45.0558 93.3835 48.4408 93.4624 48.4408 93.5544Z" fill="#E0E0E0"/>
<path d="M61.2313 109.598C61.2313 109.69 57.8397 109.769 53.6661 109.769C49.4924 109.769 46.1009 109.69 46.1009 109.598C46.1009 109.506 49.4858 109.427 53.6661 109.427C57.8463 109.427 61.2313 109.5 61.2313 109.598Z" fill="#E0E0E0"/>
<path d="M103.849 82.3349C103.849 82.427 95.1989 82.5058 84.5249 82.5058C73.8508 82.5058 65.1946 82.427 65.1946 82.3349C65.1946 82.2429 73.8508 82.1575 84.5249 82.1575C95.1989 82.1575 103.849 82.2363 103.849 82.3349Z" fill="#E0E0E0"/>
<path d="M91.9323 94.2051C91.9323 94.3037 83.2826 94.376 72.6086 94.376C61.9345 94.376 53.2849 94.3037 53.2849 94.2051C53.2849 94.1065 61.9345 94.0342 72.6086 94.0342C83.2826 94.0342 91.9323 94.113 91.9323 94.2051Z" fill="#E0E0E0"/>
<path d="M105.235 109.598C105.235 109.69 96.5792 109.769 85.9117 109.769C75.2442 109.769 66.5814 109.69 66.5814 109.598C66.5814 109.506 75.2377 109.427 85.9117 109.427C96.5858 109.427 105.235 109.5 105.235 109.598Z" fill="#E0E0E0"/>
<path d="M69.9466 123.349C69.9466 123.441 61.2904 123.52 50.6163 123.52C39.9423 123.52 31.2926 123.441 31.2926 123.349C31.2926 123.257 39.9423 123.178 50.6163 123.178C61.2904 123.178 69.9466 123.25 69.9466 123.349Z" fill="#E0E0E0"/>
<path d="M112.689 123.349C112.689 123.441 104.033 123.52 93.3652 123.52C82.6977 123.52 74.0349 123.441 74.0349 123.349C74.0349 123.257 82.6845 123.178 93.3652 123.178C104.046 123.178 112.689 123.25 112.689 123.349Z" fill="#E0E0E0"/>
<path d="M69.9401 127.818C69.9401 127.916 61.2904 127.989 50.6163 127.989C39.9423 127.989 31.286 127.916 31.286 127.818C31.286 127.719 39.9423 127.647 50.6163 127.647C61.2904 127.647 69.9401 127.726 69.9401 127.818Z" fill="#E0E0E0"/>
<path d="M71.8199 85.5554C71.8199 85.6474 63.1702 85.7263 52.4961 85.7263C41.8221 85.7263 33.1658 85.6474 33.1658 85.5554C33.1658 85.4634 41.8221 85.3845 52.4961 85.3845C63.1702 85.3845 71.8199 85.4568 71.8199 85.5554Z" fill="#E0E0E0"/>
<path d="M61.5139 82.3743C59.8611 82.5435 58.1988 82.6005 56.5383 82.5451C54.8757 82.6006 53.2112 82.5435 51.5562 82.3743C53.2109 82.2011 54.8757 82.144 56.5383 82.2034C58.1988 82.1441 59.8614 82.2012 61.5139 82.3743V82.3743Z" fill="#E0E0E0"/>
<path d="M41.5526 105.477C39.8976 105.646 38.2331 105.704 36.5705 105.648C34.91 105.704 33.2477 105.646 31.595 105.477C33.2477 105.308 34.91 105.251 36.5705 105.306C38.2331 105.251 39.8976 105.308 41.5526 105.477V105.477Z" fill="#E0E0E0"/>
<path d="M41.316 109.598C39.6632 109.768 38.0009 109.825 36.3404 109.769C34.6778 109.825 33.0133 109.768 31.3583 109.598C33.013 109.425 34.6778 109.368 36.3404 109.427C38.0009 109.368 39.6635 109.425 41.316 109.598V109.598Z" fill="#E0E0E0"/>
<path d="M127.569 67.9143C127.569 68.0129 103.481 68.0852 73.772 68.0852C44.0634 68.0852 19.9613 68.0129 19.9613 67.9143C19.9613 67.8157 44.0502 67.7434 73.772 67.7434C103.494 67.7434 127.569 67.8223 127.569 67.9143Z" fill="#E0E0E0"/>
<path d="M27.2241 65.5548C27.9283 65.5548 28.4992 64.984 28.4992 64.2797C28.4992 63.5755 27.9283 63.0046 27.2241 63.0046C26.5199 63.0046 25.949 63.5755 25.949 64.2797C25.949 64.984 26.5199 65.5548 27.2241 65.5548Z" fill="white"/>
<path d="M32.6992 65.5548C33.4034 65.5548 33.9743 64.984 33.9743 64.2797C33.9743 63.5755 33.4034 63.0046 32.6992 63.0046C31.995 63.0046 31.4241 63.5755 31.4241 64.2797C31.4241 64.984 31.995 65.5548 32.6992 65.5548Z" fill="white"/>
<path d="M38.1742 65.5548C38.8784 65.5548 39.4493 64.984 39.4493 64.2797C39.4493 63.5755 38.8784 63.0046 38.1742 63.0046C37.47 63.0046 36.8991 63.5755 36.8991 64.2797C36.8991 64.984 37.47 65.5548 38.1742 65.5548Z" fill="white"/>
<path d="M398.075 97.9975H290.954L298.874 21.6951H406.902L398.075 97.9975Z" fill="#F5F5F5"/>
<path d="M302.732 85.194C302.64 85.194 303.744 73.7049 305.203 59.5605C306.662 45.416 307.924 33.927 308.016 33.9664C308.108 34.0058 307.004 45.4489 305.545 59.5999C304.086 73.7509 302.824 85.2006 302.732 85.194Z" fill="#E0E0E0"/>
<path d="M322.233 36.5232C318.652 36.751 315.061 36.751 311.48 36.5232C315.061 36.2953 318.652 36.2953 322.233 36.5232V36.5232Z" fill="#E0E0E0"/>
<path d="M367.992 36.5232C367.992 36.6152 358.403 36.6941 346.572 36.6941C334.741 36.6941 325.151 36.6152 325.151 36.5232C325.151 36.4312 334.741 36.3523 346.572 36.3523C358.403 36.3523 367.992 36.4312 367.992 36.5232Z" fill="#E0E0E0"/>
<path d="M320.971 63.642C317.388 63.8698 313.794 63.8698 310.212 63.642C313.794 63.4142 317.388 63.4142 320.971 63.642Z" fill="#E0E0E0"/>
<path d="M366.756 63.6421C366.756 63.7341 357.167 63.813 345.336 63.813C333.505 63.813 323.916 63.7341 323.916 63.6421C323.916 63.5501 333.505 63.4712 345.336 63.4712C357.167 63.4712 366.756 63.5435 366.756 63.6421Z" fill="#E0E0E0"/>
<path d="M352.132 76.1433C352.132 76.2353 342.543 76.3142 330.712 76.3142C318.881 76.3142 309.291 76.2353 309.291 76.1433C309.291 76.0513 318.881 75.9724 330.712 75.9724C342.543 75.9724 352.132 76.0447 352.132 76.1433Z" fill="#E0E0E0"/>
<path d="M326.978 44.1804C326.978 44.2724 323.587 44.3513 319.413 44.3513C315.24 44.3513 311.848 44.2724 311.848 44.1804C311.848 44.0884 315.233 43.9963 319.433 43.9963C323.633 43.9963 326.978 44.0818 326.978 44.1804Z" fill="#E0E0E0"/>
<path d="M326.591 55.3999C326.591 55.4985 323.206 55.5708 319.026 55.5708C314.845 55.5708 311.46 55.4985 311.46 55.3999C311.46 55.3013 314.845 55.229 319.026 55.229C323.206 55.229 326.591 55.3079 326.591 55.3999Z" fill="#E0E0E0"/>
<path d="M339.381 71.4438C339.381 71.5359 335.996 71.6147 331.816 71.6147C327.636 71.6147 324.251 71.5359 324.251 71.4438C324.251 71.3518 327.636 71.2729 331.816 71.2729C335.996 71.2729 339.381 71.3518 339.381 71.4438Z" fill="#E0E0E0"/>
<path d="M382.018 44.1804C382.018 44.2724 373.362 44.3513 362.688 44.3513C352.014 44.3513 343.364 44.2724 343.364 44.1804C343.364 44.0884 352.014 44.0095 362.688 44.0095C373.362 44.0095 382.018 44.0818 382.018 44.1804Z" fill="#E0E0E0"/>
<path d="M370.089 56.0508C370.089 56.1494 361.433 56.2217 350.758 56.2217C340.084 56.2217 331.435 56.1494 331.435 56.0508C331.435 55.9522 340.084 55.8799 350.758 55.8799C361.433 55.8799 370.089 55.9588 370.089 56.0508Z" fill="#E0E0E0"/>
<path d="M383.385 71.4438C383.385 71.5359 374.736 71.6147 364.062 71.6147C353.388 71.6147 344.738 71.5359 344.738 71.4438C344.738 71.3518 353.388 71.2729 364.062 71.2729C374.736 71.2729 383.385 71.3518 383.385 71.4438Z" fill="#E0E0E0"/>
<path d="M348.097 85.1941C348.097 85.2861 339.44 85.365 328.773 85.365C318.105 85.365 309.443 85.2861 309.443 85.1941C309.443 85.1021 318.092 85.0232 328.773 85.0232C339.453 85.0232 348.097 85.0955 348.097 85.1941Z" fill="#E0E0E0"/>
<path d="M390.839 85.1941C390.839 85.2861 382.189 85.365 371.515 85.365C360.841 85.365 352.185 85.2861 352.185 85.1941C352.185 85.1021 360.841 85.0232 371.515 85.0232C382.189 85.0232 390.839 85.0955 390.839 85.1941Z" fill="#E0E0E0"/>
<path d="M348.09 89.6636C348.09 89.7622 339.44 89.8345 328.766 89.8345C318.092 89.8345 309.443 89.7622 309.443 89.6636C309.443 89.565 318.092 89.4927 328.766 89.4927C339.44 89.4927 348.09 89.5715 348.09 89.6636Z" fill="#E0E0E0"/>
<path d="M349.976 47.4011C349.976 47.4931 341.32 47.572 330.646 47.572C319.972 47.572 311.322 47.4931 311.322 47.4011C311.322 47.3091 319.972 47.2302 330.646 47.2302C341.32 47.2302 349.976 47.2828 349.976 47.4011Z" fill="#E0E0E0"/>
<path d="M339.664 44.2197C336.351 44.4476 333.026 44.4476 329.713 44.2197C333.026 43.9919 336.351 43.9919 339.664 44.2197V44.2197Z" fill="#E0E0E0"/>
<path d="M319.703 67.3227C316.387 67.5506 313.06 67.5506 309.745 67.3227C313.06 67.0949 316.387 67.0949 319.703 67.3227Z" fill="#E0E0E0"/>
<path d="M319.466 71.4438C316.153 71.6717 312.828 71.6717 309.515 71.4438C312.828 71.216 316.153 71.216 319.466 71.4438V71.4438Z" fill="#E0E0E0"/>
<path d="M405.726 29.76C405.726 29.8586 381.63 29.9309 351.922 29.9309C322.213 29.9309 298.118 29.8586 298.118 29.76C298.118 29.6614 322.2 29.5891 351.922 29.5891C381.644 29.5891 405.726 29.668 405.726 29.76Z" fill="#E0E0E0"/>
<path d="M305.374 27.4003C306.078 27.4003 306.649 26.8294 306.649 26.1252C306.649 25.421 306.078 24.8501 305.374 24.8501C304.67 24.8501 304.099 25.421 304.099 26.1252C304.099 26.8294 304.67 27.4003 305.374 27.4003Z" fill="white"/>
<path d="M310.849 27.4003C311.553 27.4003 312.124 26.8294 312.124 26.1252C312.124 25.421 311.553 24.8501 310.849 24.8501C310.145 24.8501 309.574 25.421 309.574 26.1252C309.574 26.8294 310.145 27.4003 310.849 27.4003Z" fill="white"/>
<path d="M316.324 27.4003C317.028 27.4003 317.599 26.8294 317.599 26.1252C317.599 25.421 317.028 24.8501 316.324 24.8501C315.62 24.8501 315.049 25.421 315.049 26.1252C315.049 26.8294 315.62 27.4003 316.324 27.4003Z" fill="white"/>
<path d="M173.401 48.1766H106.681L111.611 0.649414H178.896L173.401 48.1766Z" fill="#EBEBEB"/>
<path d="M114.017 40.1973C113.925 40.1973 114.582 33.0397 115.489 24.2323C116.396 15.4248 117.211 8.28689 117.309 8.29346C117.408 8.30003 116.744 15.4577 115.831 24.2651C114.917 33.0725 114.109 40.2105 114.017 40.1973Z" fill="#E0E0E0"/>
<path d="M126.196 9.88403C123.969 10.1119 121.725 10.1119 119.498 9.88403C121.725 9.65617 123.969 9.65617 126.196 9.88403V9.88403Z" fill="#E0E0E0"/>
<path d="M154.662 9.88403C154.662 9.98262 148.688 10.0549 141.32 10.0549C133.952 10.0549 127.977 9.98262 127.977 9.88403C127.977 9.78544 133.952 9.71313 141.32 9.71313C148.688 9.71313 154.662 9.8183 154.662 9.88403Z" fill="#E0E0E0"/>
<path d="M125.374 26.7759C123.147 27.0037 120.903 27.0037 118.677 26.7759C120.903 26.548 123.147 26.548 125.374 26.7759Z" fill="#E0E0E0"/>
<path d="M153.873 26.7759C153.873 26.8679 147.899 26.9468 140.531 26.9468C133.163 26.9468 127.188 26.8679 127.188 26.7759C127.188 26.6839 133.163 26.605 140.531 26.605C147.899 26.605 153.873 26.6839 153.873 26.7759Z" fill="#E0E0E0"/>
<path d="M144.783 34.5579C144.783 34.6564 138.809 34.7287 131.441 34.7287C124.073 34.7287 118.105 34.6564 118.105 34.5579C118.105 34.4593 124.073 34.387 131.441 34.387C138.809 34.387 144.783 34.4658 144.783 34.5579Z" fill="#E0E0E0"/>
<path d="M129.114 14.6558C127.549 14.8249 125.974 14.882 124.401 14.8267C122.831 14.8821 121.258 14.825 119.695 14.6558C121.258 14.4826 122.831 14.4255 124.401 14.4849C125.974 14.4256 127.55 14.4827 129.114 14.6558V14.6558Z" fill="#E0E0E0"/>
<path d="M128.877 21.6491C127.313 21.8221 125.738 21.8792 124.165 21.82C122.592 21.8792 121.017 21.8221 119.452 21.6491C121.017 21.48 122.592 21.4229 124.165 21.4782C125.738 21.4229 127.313 21.48 128.877 21.6491V21.6491Z" fill="#E0E0E0"/>
<path d="M136.844 31.6332C135.279 31.8063 133.704 31.8634 132.131 31.8041C130.558 31.8634 128.983 31.8063 127.418 31.6332C128.983 31.4641 130.558 31.407 132.131 31.4623C133.704 31.407 135.279 31.4641 136.844 31.6332Z" fill="#E0E0E0"/>
<path d="M163.397 14.6558C163.397 14.7478 158.008 14.8266 151.363 14.8266C144.718 14.8266 139.341 14.7478 139.341 14.6558C139.341 14.5637 144.731 14.4849 151.382 14.4849C158.034 14.4849 163.397 14.5572 163.397 14.6558Z" fill="#E0E0E0"/>
<path d="M155.964 22.05C155.964 22.1421 150.574 22.2209 143.929 22.2209C137.284 22.2209 131.894 22.1421 131.894 22.05C131.894 21.958 137.284 21.8792 143.929 21.8792C150.574 21.8792 155.964 21.958 155.964 22.05Z" fill="#E0E0E0"/>
<path d="M164.252 31.633C164.252 31.7316 158.862 31.8039 152.217 31.8039C145.572 31.8039 140.176 31.7316 140.176 31.633C140.176 31.5345 145.566 31.4622 152.217 31.4622C158.869 31.4622 164.252 31.541 164.252 31.633Z" fill="#E0E0E0"/>
<path d="M142.273 40.1973C142.273 40.2958 136.883 40.3681 130.231 40.3681C123.58 40.3681 118.197 40.2958 118.197 40.1973C118.197 40.0987 123.586 40.0264 130.231 40.0264C136.876 40.0264 142.273 40.1052 142.273 40.1973Z" fill="#E0E0E0"/>
<path d="M168.918 40.1973C168.918 40.2958 163.529 40.3681 156.884 40.3681C150.239 40.3681 144.843 40.2958 144.843 40.1973C144.843 40.0987 150.232 40.0264 156.884 40.0264C163.535 40.0264 168.918 40.1052 168.918 40.1973Z" fill="#E0E0E0"/>
<path d="M142.266 42.9841C142.266 43.0827 136.876 43.155 130.231 43.155C123.586 43.155 118.197 43.0827 118.197 42.9841C118.197 42.8855 123.58 42.8132 130.231 42.8132C136.883 42.8132 142.266 42.8921 142.266 42.9841Z" fill="#E0E0E0"/>
<path d="M143.436 16.6604C143.436 16.759 138.046 16.8313 131.401 16.8313C124.756 16.8313 119.367 16.759 119.367 16.6604C119.367 16.5618 124.756 16.4895 131.401 16.4895C138.046 16.4895 143.436 16.5684 143.436 16.6604Z" fill="#E0E0E0"/>
<path d="M137.021 14.682C134.959 14.9097 132.878 14.9097 130.816 14.682C132.878 14.4543 134.959 14.4543 137.021 14.682V14.682Z" fill="#E0E0E0"/>
<path d="M124.585 29.0698C122.526 29.2977 120.447 29.2977 118.387 29.0698C120.447 28.842 122.526 28.842 124.585 29.0698V29.0698Z" fill="#E0E0E0"/>
<path d="M124.441 31.6332C122.379 31.8609 120.298 31.8609 118.236 31.6332C120.298 31.4055 122.379 31.4055 124.441 31.6332V31.6332Z" fill="#E0E0E0"/>
<path d="M178.16 5.67748C178.16 5.7695 163.161 5.84837 144.639 5.84837C126.117 5.84837 111.118 5.7695 111.118 5.67748C111.118 5.58546 126.117 5.50659 144.639 5.50659C163.161 5.50659 178.16 5.57889 178.16 5.67748Z" fill="#E0E0E0"/>
<path d="M116.455 3.40996C116.45 3.56685 116.398 3.71869 116.307 3.84634C116.216 3.974 116.088 4.07175 115.942 4.12729C115.795 4.18283 115.635 4.19367 115.482 4.15845C115.329 4.12323 115.19 4.04352 115.082 3.92936C114.974 3.81521 114.903 3.67171 114.876 3.51696C114.85 3.3622 114.87 3.2031 114.934 3.05971C114.998 2.91632 115.103 2.79504 115.235 2.71117C115.368 2.62729 115.523 2.58456 115.679 2.58837C115.784 2.59091 115.888 2.61424 115.984 2.657C116.08 2.69976 116.166 2.76111 116.239 2.8375C116.311 2.91389 116.367 3.00381 116.404 3.10206C116.441 3.20032 116.459 3.30496 116.455 3.40996V3.40996Z" fill="white"/>
<path d="M119.866 3.40997C119.861 3.56604 119.81 3.71714 119.72 3.84442C119.629 3.9717 119.503 4.06953 119.358 4.12572C119.212 4.1819 119.053 4.19394 118.9 4.16035C118.748 4.12676 118.609 4.04902 118.5 3.93682C118.391 3.82462 118.318 3.68293 118.29 3.52941C118.261 3.3759 118.278 3.21736 118.339 3.07356C118.4 2.92977 118.502 2.80708 118.632 2.7208C118.762 2.63452 118.915 2.58846 119.071 2.58838C119.178 2.58832 119.283 2.60973 119.382 2.65133C119.48 2.69293 119.569 2.75388 119.643 2.83053C119.717 2.90719 119.775 2.99799 119.813 3.09754C119.852 3.19708 119.87 3.30334 119.866 3.40997Z" fill="white"/>
<path d="M123.278 3.40997C123.272 3.56604 123.221 3.71714 123.131 3.84442C123.04 3.9717 122.914 4.06953 122.769 4.12572C122.623 4.1819 122.464 4.19394 122.312 4.16035C122.159 4.12676 122.02 4.04902 121.911 3.93682C121.803 3.82462 121.729 3.68293 121.701 3.52941C121.672 3.3759 121.689 3.21736 121.75 3.07356C121.811 2.92977 121.913 2.80708 122.043 2.7208C122.173 2.63452 122.326 2.58846 122.482 2.58838C122.589 2.58832 122.695 2.60973 122.793 2.65133C122.891 2.69293 122.98 2.75388 123.054 2.83053C123.128 2.90719 123.186 2.99799 123.225 3.09754C123.263 3.19708 123.281 3.30334 123.278 3.40997V3.40997Z" fill="white"/>
<path d="M354.728 131.117H321.129V239.869H354.728V131.117Z" fill="#EBEBEB"/>
<path d="M383.254 131.137H354.728V239.85H383.254V131.137Z" fill="#E0E0E0"/>
<path d="M350.706 135.521H323.751V158.946H350.706V135.521Z" fill="#E0E0E0"/>
<path d="M350.706 161.602H323.751V185.027H350.706V161.602Z" fill="#E0E0E0"/>
<path d="M350.706 187.682H323.751V211.107H350.706V187.682Z" fill="#E0E0E0"/>
<path d="M350.706 213.769H323.751V237.194H350.706V213.769Z" fill="#E0E0E0"/>
<path d="M337.232 139.846C337.233 140.032 337.179 140.214 337.077 140.37C336.974 140.525 336.828 140.647 336.656 140.719C336.485 140.791 336.295 140.811 336.113 140.775C335.93 140.74 335.762 140.651 335.63 140.519C335.498 140.388 335.407 140.221 335.371 140.038C335.334 139.856 335.352 139.666 335.423 139.494C335.494 139.322 335.614 139.175 335.769 139.071C335.924 138.968 336.106 138.913 336.292 138.913C336.54 138.913 336.778 139.011 336.954 139.186C337.13 139.36 337.23 139.598 337.232 139.846Z" fill="#FAFAFA"/>
<path d="M337.232 166.249C337.233 166.435 337.179 166.617 337.077 166.772C336.974 166.928 336.828 167.049 336.656 167.122C336.485 167.194 336.295 167.213 336.113 167.178C335.93 167.142 335.762 167.053 335.63 166.922C335.498 166.791 335.407 166.623 335.371 166.441C335.334 166.258 335.352 166.069 335.423 165.897C335.494 165.725 335.614 165.578 335.769 165.474C335.924 165.37 336.106 165.315 336.292 165.315C336.54 165.315 336.778 165.413 336.954 165.588C337.13 165.763 337.23 166 337.232 166.249V166.249Z" fill="#FAFAFA"/>
<path d="M337.232 192.618C337.232 192.804 337.177 192.986 337.074 193.14C336.97 193.295 336.823 193.415 336.652 193.486C336.48 193.558 336.291 193.576 336.109 193.54C335.926 193.504 335.759 193.414 335.627 193.283C335.496 193.151 335.406 192.984 335.37 192.801C335.334 192.619 335.353 192.43 335.424 192.258C335.495 192.087 335.615 191.94 335.77 191.837C335.924 191.733 336.106 191.678 336.292 191.678C336.541 191.678 336.78 191.777 336.957 191.954C337.133 192.13 337.232 192.369 337.232 192.618V192.618Z" fill="#FAFAFA"/>
<path d="M337.232 219.001C337.233 219.187 337.179 219.369 337.077 219.525C336.974 219.68 336.828 219.802 336.656 219.874C336.485 219.946 336.295 219.966 336.113 219.93C335.93 219.895 335.762 219.806 335.63 219.674C335.498 219.543 335.407 219.376 335.371 219.193C335.334 219.011 335.352 218.822 335.423 218.649C335.494 218.477 335.614 218.33 335.769 218.226C335.924 218.123 336.106 218.068 336.292 218.068C336.54 218.068 336.778 218.166 336.954 218.341C337.13 218.515 337.23 218.753 337.232 219.001V219.001Z" fill="#FAFAFA"/>
<path d="M325.013 239.869H321.129V261.684H325.013V239.869Z" fill="#E0E0E0"/>
<path d="M354.59 239.869H350.706V261.684H354.59V239.869Z" fill="#E0E0E0"/>
<path d="M382.833 239.869H378.949V261.684H382.833V239.869Z" fill="#E0E0E0"/>
<path d="M38.8709 255.525C37.8785 254.677 35.6569 251.983 37.3658 248.847C38.0231 247.704 39.3376 247.132 40.5404 246.626C41.7803 246.207 42.9502 245.605 44.0108 244.838C45.8972 243.241 46.4164 240.586 47.6652 238.456C49.1046 236.018 51.7863 234.184 54.6191 234.315C57.8595 234.46 60.5345 237.095 61.7899 240.099C63.0453 243.103 63.0585 246.442 63.1045 249.689C63.1045 251.483 63.0387 253.508 61.7111 254.723C60.4951 255.841 58.6548 255.854 56.9984 255.801L39.2522 255.262" fill="#F5F5F5"/>
<path d="M72.7663 206.999H26.1593L34.5593 256.827C34.7296 257.864 35.1906 258.831 35.8886 259.616C36.5867 260.402 37.4932 260.973 38.5029 261.263L38.6672 261.309C38.8034 261.351 38.9416 261.387 39.0813 261.415C39.4138 261.491 39.7526 261.537 40.0935 261.553V261.599L40.3235 261.566H61.0932C61.4774 261.564 61.8604 261.524 62.2369 261.447C63.4476 261.264 64.5645 260.688 65.416 259.808C66.2675 258.929 66.8063 257.793 66.9495 256.577L70.9851 222.241L71.1692 220.874L72.7663 207.275V206.999ZM63.9721 238.785H59.1937L59.6735 224.325H65.2143L63.9721 238.785ZM65.681 224.325H70.2818L68.573 238.785H64.4124L65.681 224.325ZM52.0163 254.816L51.7271 242.255H58.6153L58.1947 254.816H52.0163ZM44.5695 242.255H51.267L51.5628 254.816H45.5488L44.5695 242.255ZM45.0887 254.816H39.4756C38.9432 251.424 38.2465 247.014 37.5038 242.255H44.1159L45.0887 254.816ZM44.3 238.785L43.1695 224.325H50.8464L51.1816 238.785H44.3ZM51.6483 238.785L51.3131 224.325H59.2003L58.7139 238.785H51.6483ZM51.2276 220.855L50.9187 207.459H59.7721L59.3252 220.855H51.2276ZM50.7675 220.855H42.8803L41.8352 207.459H50.4389L50.7675 220.855ZM42.4333 220.855H34.1123C33.8165 219.008 33.5339 217.253 33.2841 215.682C32.4166 210.266 32.0879 208.228 31.9105 207.459H41.408L42.4333 220.855ZM42.7094 224.325L43.8333 238.785H36.9517C36.7217 237.319 36.485 235.834 36.2484 234.348C35.7095 230.937 35.1705 227.519 34.6644 224.325H42.7094ZM36.485 238.785H31.9828L29.5509 224.325H34.178L36.485 238.785ZM37.0306 242.255C37.6879 246.6 38.3911 250.885 39.0024 254.816H34.6776L32.5612 242.255H37.0306ZM58.6548 254.816L59.0754 242.255H63.6763L62.5984 254.816H58.6548ZM59.8115 220.874L60.2585 207.479H66.68L65.5364 220.874H59.8115ZM31.4898 207.479C31.6738 208.452 32.5217 213.723 33.6654 220.874H28.9856L26.7246 207.479H31.4898ZM66.6866 254.802H63.0979L64.1758 242.242H68.1786L66.6866 254.802ZM70.6894 220.841H65.9965L67.1467 207.446H72.2668L70.6894 220.841Z" fill="#E0E0E0"/>
<path d="M379.902 261.677C379.902 261.776 294.838 261.848 189.951 261.848C85.0638 261.848 0 261.776 0 261.677C0 261.579 85.0441 261.507 189.984 261.507C294.923 261.507 379.902 261.585 379.902 261.677Z" fill="#263238"/>
<path d="M212.416 119.503H139.525L144.915 67.5791H218.424L212.416 119.503Z" fill="#263238"/>
<path d="M208.709 119.503H135.812L141.201 67.5791H214.71L208.709 119.503Z" fill="#455A64"/>
<path d="M206.001 117.151H138.362L143.364 68.9727H211.575L206.001 117.151Z" fill="#F5F5F5"/>
<path d="M145.697 109.119C145.598 109.119 146.269 101.856 147.196 92.9301C148.122 84.0044 148.937 76.7613 149.029 76.7744C149.121 76.7876 148.457 84.0044 147.531 92.963C146.604 101.922 145.789 109.125 145.697 109.119Z" fill="#263238"/>
<path d="M158.008 78.3848C155.75 78.6126 153.475 78.6126 151.218 78.3848C153.475 78.1569 155.75 78.1569 158.008 78.3848Z" fill="#263238"/>
<path d="M186.901 78.3848C186.901 78.4768 180.848 78.5557 173.375 78.5557C165.901 78.5557 159.855 78.4768 159.855 78.3848C159.855 78.2927 165.908 78.2139 173.375 78.2139C180.841 78.2139 186.901 78.2927 186.901 78.3848Z" fill="#FF725E"/>
<path d="M157.212 95.5066C154.953 95.7345 152.676 95.7345 150.416 95.5066C152.676 95.2787 154.953 95.2787 157.212 95.5066V95.5066Z" fill="#263238"/>
<path d="M186.099 95.5066C186.099 95.6052 180.046 95.6775 172.579 95.6775C165.113 95.6775 159.053 95.6052 159.053 95.5066C159.053 95.408 165.106 95.3357 172.579 95.3357C180.052 95.3357 186.099 95.4146 186.099 95.5066Z" fill="#FF725E"/>
<path d="M176.884 103.4C176.884 103.492 170.831 103.571 163.364 103.571C155.898 103.571 149.838 103.492 149.838 103.4C149.838 103.308 155.891 103.229 163.364 103.229C170.837 103.229 176.884 103.308 176.884 103.4Z" fill="#FF725E"/>
<path d="M161.031 83.2157C159.445 83.3929 157.848 83.4522 156.253 83.3931C154.658 83.4522 153.061 83.3929 151.474 83.2157C153.061 83.0467 154.658 82.9896 156.253 83.0448C157.848 82.9896 159.444 83.0467 161.031 83.2157V83.2157Z" fill="#FF725E"/>
<path d="M160.762 90.3075C159.175 90.4765 157.578 90.5336 155.983 90.4784C154.388 90.5336 152.792 90.4765 151.205 90.3075C152.791 90.1346 154.388 90.0774 155.983 90.1366C157.578 90.0774 159.175 90.1346 160.762 90.3075V90.3075Z" fill="#FF725E"/>
<path d="M168.839 100.436C167.253 100.605 165.656 100.662 164.061 100.607C162.466 100.662 160.869 100.605 159.283 100.436C160.869 100.263 162.466 100.206 164.061 100.265C165.656 100.206 167.253 100.263 168.839 100.436V100.436Z" fill="#FF725E"/>
<path d="M195.755 83.2156C195.755 83.3142 190.293 83.393 183.556 83.393C176.819 83.393 171.35 83.3142 171.35 83.2156C171.35 83.117 176.812 83.0447 183.556 83.0447C190.299 83.0447 195.755 83.1235 195.755 83.2156Z" fill="#263238"/>
<path d="M188.222 90.7151C188.222 90.8137 182.76 90.886 176.023 90.886C169.286 90.886 163.818 90.8137 163.818 90.7151C163.818 90.6165 169.28 90.5442 176.023 90.5442C182.767 90.5442 188.222 90.6231 188.222 90.7151Z" fill="#263238"/>
<path d="M196.622 100.436C196.622 100.528 191.16 100.607 184.423 100.607C177.686 100.607 172.205 100.521 172.205 100.436C172.205 100.351 177.667 100.265 184.41 100.265C191.154 100.265 196.622 100.337 196.622 100.436Z" fill="#263238"/>
<path d="M174.341 109.119C174.341 109.211 168.872 109.29 162.135 109.29C155.398 109.29 149.93 109.211 149.93 109.119C149.93 109.027 155.398 108.948 162.135 108.948C168.872 108.948 174.341 109.02 174.341 109.119Z" fill="#263238"/>
<path d="M201.328 109.119C201.328 109.211 195.866 109.29 189.129 109.29C182.392 109.29 176.924 109.211 176.924 109.119C176.924 109.027 182.386 108.948 189.129 108.948C195.873 108.948 201.328 109.02 201.328 109.119Z" fill="#263238"/>
<path d="M174.334 111.938C174.334 112.037 168.872 112.109 162.135 112.109C155.398 112.109 149.93 112.037 149.93 111.938C149.93 111.84 155.392 111.767 162.135 111.767C168.879 111.767 174.334 111.846 174.334 111.938Z" fill="#263238"/>
<path d="M175.524 85.2532C175.524 85.3452 170.062 85.4241 163.325 85.4241C156.588 85.4241 151.119 85.3452 151.119 85.2532C151.119 85.1612 156.581 85.0823 163.325 85.0823C170.068 85.0823 175.524 85.1612 175.524 85.2532Z" fill="#263238"/>
<path d="M169.017 83.2485C166.926 83.4763 164.817 83.4763 162.727 83.2485C164.817 83.0119 166.927 83.0119 169.017 83.2485V83.2485Z" fill="#455A64"/>
<path d="M156.43 97.8332C154.342 98.0611 152.235 98.0611 150.147 97.8332C152.235 97.6054 154.342 97.6054 156.43 97.8332V97.8332Z" fill="#455A64"/>
<path d="M156.259 100.436C154.171 100.664 152.064 100.664 149.976 100.436C152.064 100.208 154.171 100.208 156.259 100.436V100.436Z" fill="#455A64"/>
<path d="M210.727 74.1191C210.727 74.2111 195.518 74.29 176.753 74.29C157.988 74.29 142.779 74.2111 142.779 74.1191C142.779 74.0271 157.988 73.9417 176.753 73.9417C195.518 73.9417 210.727 74.0205 210.727 74.1191Z" fill="#263238"/>
<path d="M148.168 71.8185C148.168 71.9786 148.121 72.1352 148.032 72.2683C147.942 72.4014 147.816 72.505 147.668 72.566C147.52 72.627 147.357 72.6426 147.2 72.6109C147.043 72.5791 146.899 72.5015 146.786 72.3878C146.673 72.274 146.597 72.1294 146.566 71.9721C146.536 71.8149 146.553 71.6521 146.615 71.5045C146.677 71.3569 146.782 71.2311 146.915 71.1431C147.049 71.055 147.206 71.0087 147.366 71.01C147.472 71.01 147.577 71.031 147.675 71.0717C147.773 71.1124 147.861 71.1721 147.936 71.2472C148.01 71.3224 148.069 71.4116 148.109 71.5096C148.149 71.6076 148.169 71.7126 148.168 71.8185V71.8185Z" fill="white"/>
<path d="M151.626 71.8185C151.626 71.9786 151.578 72.1352 151.489 72.2683C151.4 72.4014 151.273 72.505 151.125 72.566C150.977 72.627 150.814 72.6426 150.657 72.6109C150.5 72.5791 150.356 72.5015 150.243 72.3878C150.13 72.274 150.054 72.1294 150.023 71.9721C149.993 71.8149 150.01 71.6521 150.072 71.5045C150.134 71.3569 150.239 71.2311 150.373 71.1431C150.507 71.055 150.663 71.0087 150.824 71.01C150.93 71.01 151.034 71.031 151.132 71.0717C151.23 71.1124 151.318 71.1721 151.393 71.2472C151.468 71.3224 151.526 71.4116 151.566 71.5096C151.606 71.6076 151.626 71.7126 151.626 71.8185V71.8185Z" fill="white"/>
<path d="M155.116 71.8185C155.116 71.9786 155.068 72.1352 154.979 72.2683C154.89 72.4014 154.763 72.505 154.615 72.566C154.467 72.627 154.304 72.6426 154.147 72.6109C153.99 72.5791 153.846 72.5015 153.733 72.3878C153.62 72.274 153.544 72.1294 153.513 71.9721C153.483 71.8149 153.5 71.6521 153.562 71.5045C153.624 71.3569 153.729 71.2311 153.863 71.1431C153.997 71.055 154.154 71.0087 154.314 71.01C154.42 71.01 154.524 71.031 154.622 71.0717C154.72 71.1124 154.809 71.1721 154.883 71.2472C154.958 71.3224 155.017 71.4116 155.056 71.5096C155.096 71.6076 155.116 71.7126 155.116 71.8185V71.8185Z" fill="white"/>
<path d="M308.174 121.081H231.497L237.163 66.4553H314.497L308.174 121.081Z" fill="#263238"/>
<path d="M304.27 121.081H227.593L233.265 66.4553H310.593L304.27 121.081Z" fill="#455A64"/>
<path d="M301.43 118.603H230.281L235.539 67.9209H307.293L301.43 118.603Z" fill="#EBEBEB"/>
<path d="M238.03 109.388C237.938 109.388 238.648 101.75 239.614 92.3581C240.58 82.9657 241.448 75.3545 241.54 75.3677C241.632 75.3808 240.922 82.9986 239.956 92.3976C238.99 101.797 238.122 109.395 238.03 109.388Z" fill="#263238"/>
<path d="M250.985 77.0637C248.609 77.2915 246.216 77.2915 243.84 77.0637C246.216 76.8271 248.609 76.8271 250.985 77.0637V77.0637Z" fill="#263238"/>
<path d="M281.377 77.0637C281.377 77.1557 275.008 77.2346 267.147 77.2346C259.286 77.2346 252.924 77.1557 252.924 77.0637C252.924 76.9717 259.293 76.8862 267.147 76.8862C275.002 76.8862 281.377 76.9651 281.377 77.0637Z" fill="#FF725E"/>
<path d="M250.144 95.0727C247.768 95.3006 245.375 95.3006 242.999 95.0727C245.375 94.8449 247.768 94.8449 250.144 95.0727V95.0727Z" fill="#263238"/>
<path d="M280.536 95.0728C280.536 95.1648 274.16 95.2436 266.306 95.2436C258.452 95.2436 252.083 95.1648 252.083 95.0728C252.083 94.9807 258.452 94.9019 266.306 94.9019C274.16 94.9019 280.536 94.9807 280.536 95.0728Z" fill="#FF725E"/>
<path d="M270.841 103.374C270.841 103.473 264.472 103.545 256.618 103.545C248.763 103.545 242.388 103.473 242.388 103.374C242.388 103.275 248.757 103.203 256.618 103.203C264.479 103.203 270.841 103.282 270.841 103.374Z" fill="#FF725E"/>
<path d="M254.133 82.1179C250.787 82.3458 247.43 82.3458 244.084 82.1179C247.43 81.8901 250.787 81.8901 254.133 82.1179V82.1179Z" fill="#FF725E"/>
<path d="M253.877 89.5976C250.531 89.8343 247.173 89.8343 243.827 89.5976C247.173 89.3698 250.531 89.3698 253.877 89.5976V89.5976Z" fill="#FF725E"/>
<path d="M262.375 100.259C259.029 100.486 255.672 100.486 252.326 100.259C255.672 100.031 259.029 100.031 262.375 100.259V100.259Z" fill="#FF725E"/>
<path d="M290.691 82.1179C290.691 82.2165 284.946 82.2888 277.854 82.2888C270.762 82.2888 265.018 82.2165 265.018 82.1179C265.018 82.0193 270.762 81.947 277.854 81.947C284.946 81.947 290.691 82.0522 290.691 82.1179Z" fill="#263238"/>
<path d="M282.771 90.0051C282.771 90.1037 277.019 90.176 269.934 90.176C262.849 90.176 257.098 90.1037 257.098 90.0051C257.098 89.9065 262.842 89.8342 269.934 89.8342C277.026 89.8342 282.771 89.9394 282.771 90.0051Z" fill="#263238"/>
<path d="M291.604 100.259C291.604 100.351 285.853 100.429 278.768 100.429C271.682 100.429 265.931 100.351 265.931 100.259C265.931 100.167 271.676 100.088 278.768 100.088C285.86 100.088 291.604 100.16 291.604 100.259Z" fill="#263238"/>
<path d="M268.166 109.388C268.166 109.48 262.421 109.559 255.33 109.559C248.238 109.559 242.493 109.48 242.493 109.388C242.493 109.296 248.244 109.217 255.33 109.217C262.415 109.217 268.166 109.296 268.166 109.388Z" fill="#263238"/>
<path d="M296.553 109.388C296.553 109.48 290.802 109.559 283.717 109.559C276.632 109.559 270.881 109.48 270.881 109.388C270.881 109.296 276.625 109.217 283.717 109.217C290.809 109.217 296.553 109.296 296.553 109.388Z" fill="#263238"/>
<path d="M268.166 112.352C268.166 112.444 262.421 112.523 255.33 112.523C248.238 112.523 242.493 112.444 242.493 112.352C242.493 112.26 248.238 112.181 255.33 112.181C262.421 112.181 268.166 112.267 268.166 112.352Z" fill="#263238"/>
<path d="M269.408 84.2869C269.408 84.3789 263.664 84.4577 256.572 84.4577C249.48 84.4577 243.735 84.3789 243.735 84.2869C243.735 84.1948 249.48 84.116 256.572 84.116C263.664 84.116 269.408 84.1948 269.408 84.2869Z" fill="#263238"/>
<path d="M262.559 82.1706C260.361 82.3985 258.146 82.3985 255.947 82.1706C258.146 81.9428 260.361 81.9428 262.559 82.1706V82.1706Z" fill="#455A64"/>
<path d="M249.302 97.5178C247.104 97.7456 244.888 97.7456 242.69 97.5178C244.888 97.29 247.104 97.29 249.302 97.5178V97.5178Z" fill="#455A64"/>
<path d="M249.145 100.259C246.946 100.486 244.731 100.486 242.532 100.259C244.731 100.031 246.946 100.031 249.145 100.259V100.259Z" fill="#455A64"/>
<path d="M306.439 72.5679C306.439 72.6664 290.441 72.7387 270.703 72.7387C250.965 72.7387 234.967 72.6664 234.967 72.5679C234.967 72.4693 250.965 72.397 270.703 72.397C290.441 72.397 306.439 72.4758 306.439 72.5679Z" fill="#263238"/>
<path d="M240.633 70.1558C240.633 70.3235 240.583 70.4874 240.49 70.6268C240.397 70.7663 240.264 70.8749 240.11 70.9391C239.955 71.0033 239.784 71.0201 239.62 70.9874C239.455 70.9546 239.304 70.8739 239.186 70.7553C239.067 70.6367 238.986 70.4857 238.953 70.3212C238.921 70.1567 238.938 69.9862 239.002 69.8313C239.066 69.6764 239.175 69.5439 239.314 69.4508C239.453 69.3576 239.617 69.3079 239.785 69.3079C239.897 69.307 240.007 69.3283 240.111 69.3706C240.214 69.4129 240.308 69.4754 240.387 69.5543C240.465 69.6332 240.528 69.727 240.57 69.8303C240.613 69.9335 240.634 70.0442 240.633 70.1558Z" fill="white"/>
<path d="M244.268 70.1558C244.268 70.3235 244.218 70.4874 244.125 70.6268C244.032 70.7663 243.899 70.8749 243.744 70.9391C243.589 71.0033 243.419 71.0201 243.254 70.9874C243.09 70.9546 242.939 70.8739 242.82 70.7553C242.702 70.6367 242.621 70.4857 242.588 70.3212C242.555 70.1567 242.572 69.9862 242.636 69.8313C242.701 69.6764 242.809 69.5439 242.949 69.4508C243.088 69.3576 243.252 69.3079 243.42 69.3079C243.531 69.307 243.642 69.3283 243.745 69.3706C243.849 69.4129 243.942 69.4754 244.021 69.5543C244.1 69.6332 244.163 69.727 244.205 69.8303C244.247 69.9335 244.269 70.0442 244.268 70.1558V70.1558Z" fill="white"/>
<path d="M247.909 70.1558C247.909 70.3235 247.859 70.4874 247.766 70.6268C247.673 70.7663 247.54 70.8749 247.386 70.9391C247.231 71.0033 247.06 71.0201 246.896 70.9874C246.731 70.9546 246.58 70.8739 246.462 70.7553C246.343 70.6367 246.262 70.4857 246.229 70.3212C246.197 70.1567 246.214 69.9862 246.278 69.8313C246.342 69.6764 246.451 69.5439 246.59 69.4508C246.729 69.3576 246.893 69.3079 247.061 69.3079C247.173 69.307 247.283 69.3283 247.387 69.3706C247.49 69.4129 247.584 69.4754 247.663 69.5543C247.741 69.6332 247.804 69.727 247.846 69.8303C247.888 69.9335 247.91 70.0442 247.909 70.1558Z" fill="white"/>
<path d="M264.426 56.4187H191.2L196.616 4.25781H270.46L264.426 56.4187Z" fill="#263238"/>
<path d="M260.699 56.4187H187.473L192.889 4.25781H266.733L260.699 56.4187Z" fill="#455A64"/>
<path d="M257.978 54.059H190.036L195.058 5.65771H263.578L257.978 54.059Z" fill="#FAFAFA"/>
<path d="M197.503 45.9681C197.411 45.9681 198.088 38.6724 199.015 29.7073C199.941 20.7421 200.763 13.4661 200.862 13.4793C200.96 13.4924 200.277 20.7684 199.35 29.7401C198.423 38.7118 197.602 45.9681 197.503 45.9681Z" fill="#263238"/>
<path d="M209.879 15.0764C207.611 15.3043 205.325 15.3043 203.057 15.0764C205.325 14.8486 207.611 14.8486 209.879 15.0764V15.0764Z" fill="#263238"/>
<path d="M238.898 15.0764C238.898 15.1684 232.818 15.2473 225.312 15.2473C217.806 15.2473 211.726 15.1684 211.726 15.0764C211.726 14.9844 217.806 14.9055 225.312 14.9055C232.818 14.9055 238.898 14.9647 238.898 15.0764Z" fill="#FF725E"/>
<path d="M209.071 32.2642C206.802 32.492 204.517 32.492 202.248 32.2642C204.517 32.0363 206.802 32.0363 209.071 32.2642V32.2642Z" fill="#263238"/>
<path d="M238.096 32.2642C238.096 32.3562 232.01 32.435 224.51 32.435C217.011 32.435 210.924 32.3562 210.924 32.2642C210.924 32.1721 217.004 32.0933 224.51 32.0933C232.016 32.0933 238.096 32.1656 238.096 32.2642Z" fill="#FF725E"/>
<path d="M228.842 40.1907C228.842 40.2827 222.755 40.3616 215.256 40.3616C207.756 40.3616 201.67 40.2827 201.67 40.1907C201.67 40.0987 207.75 40.0198 215.256 40.0198C222.762 40.0198 228.842 40.0987 228.842 40.1907Z" fill="#FF725E"/>
<path d="M212.883 19.9206C209.688 20.1485 206.482 20.1485 203.287 19.9206C206.482 19.6928 209.688 19.6928 212.883 19.9206V19.9206Z" fill="#FF725E"/>
<path d="M212.64 27.0388C209.445 27.2667 206.238 27.2667 203.044 27.0388C206.238 26.811 209.445 26.811 212.64 27.0388V27.0388Z" fill="#FF725E"/>
<path d="M220.751 37.2134C217.556 37.4412 214.349 37.4412 211.154 37.2134C214.349 36.9855 217.556 36.9855 220.751 37.2134V37.2134Z" fill="#FF725E"/>
<path d="M247.791 19.9206C247.791 20.0127 242.302 20.0915 235.533 20.0915C228.763 20.0915 223.274 20.0127 223.274 19.9206C223.274 19.8286 228.756 19.7498 235.533 19.7498C242.309 19.7498 247.791 19.8221 247.791 19.9206Z" fill="#263238"/>
<path d="M240.225 27.4529C240.225 27.5449 234.737 27.6238 227.967 27.6238C221.198 27.6238 215.709 27.5449 215.709 27.4529C215.709 27.3609 221.198 27.282 227.967 27.282C234.737 27.282 240.225 27.3543 240.225 27.4529Z" fill="#263238"/>
<path d="M248.665 37.2134C248.665 37.3054 243.177 37.3843 236.407 37.3843C229.637 37.3843 224.149 37.3054 224.149 37.2134C224.149 37.1214 229.637 37.0425 236.407 37.0425C243.177 37.0425 248.665 37.1148 248.665 37.2134Z" fill="#263238"/>
<path d="M226.278 45.9682C226.278 46.0603 220.79 46.1391 214.02 46.1391C207.25 46.1391 201.782 46.0274 201.782 45.9682C201.782 45.9091 207.27 45.7974 214.04 45.7974C220.81 45.7974 226.278 45.8368 226.278 45.9682Z" fill="#263238"/>
<path d="M253.391 45.9682C253.391 46.0603 247.902 46.1391 241.132 46.1391C234.363 46.1391 228.874 46.0603 228.874 45.9682C228.874 45.8762 234.363 45.7974 241.132 45.7974C247.902 45.7974 253.391 45.8368 253.391 45.9682Z" fill="#263238"/>
<path d="M226.278 48.7681C226.278 48.8666 220.79 48.939 214.02 48.939C207.25 48.939 201.762 48.8666 201.762 48.7681C201.762 48.6695 207.25 48.5972 214.02 48.5972C220.79 48.5972 226.278 48.676 226.278 48.7681Z" fill="#263238"/>
<path d="M227.468 21.9646C227.468 22.0566 221.98 22.1355 215.21 22.1355C208.44 22.1355 202.952 22.0566 202.952 21.9646C202.952 21.8726 208.44 21.7937 215.21 21.7937C221.98 21.7937 227.468 21.866 227.468 21.9646Z" fill="#263238"/>
<path d="M220.935 19.9468C218.835 20.1746 216.718 20.1746 214.618 19.9468C216.718 19.7189 218.835 19.7189 220.935 19.9468V19.9468Z" fill="#455A64"/>
<path d="M208.269 34.5974C206.17 34.8253 204.052 34.8253 201.953 34.5974C204.052 34.3696 206.17 34.3696 208.269 34.5974V34.5974Z" fill="#455A64"/>
<path d="M208.124 37.2134C206.025 37.4412 203.907 37.4412 201.808 37.2134C203.907 36.9855 206.025 36.9855 208.124 37.2134V37.2134Z" fill="#455A64"/>
<path d="M262.829 10.7715C262.829 10.8701 247.554 10.9489 228.71 10.9489C209.866 10.9489 194.552 10.8701 194.552 10.7715C194.552 10.6729 209.827 10.6006 228.684 10.6006C247.541 10.6006 262.829 10.6795 262.829 10.7715Z" fill="#263238"/>
<path d="M199.186 9.27289C199.632 9.27289 199.994 8.91094 199.994 8.46445C199.994 8.01796 199.632 7.65601 199.186 7.65601C198.739 7.65601 198.377 8.01796 198.377 8.46445C198.377 8.91094 198.739 9.27289 199.186 9.27289Z" fill="white"/>
<path d="M202.656 9.27289C203.102 9.27289 203.464 8.91094 203.464 8.46445C203.464 8.01796 203.102 7.65601 202.656 7.65601C202.209 7.65601 201.847 8.01796 201.847 8.46445C201.847 8.91094 202.209 9.27289 202.656 9.27289Z" fill="white"/>
<path d="M206.126 9.27289C206.573 9.27289 206.935 8.91094 206.935 8.46445C206.935 8.01796 206.573 7.65601 206.126 7.65601C205.68 7.65601 205.318 8.01796 205.318 8.46445C205.318 8.91094 205.68 9.27289 206.126 9.27289Z" fill="white"/>
<path d="M140.38 253.462H134.675V261.244H140.38V253.462Z" fill="#263238"/>
<path d="M170.962 162.653H221.579V160.189H170.962V162.653Z" fill="#263238"/>
<path d="M229.42 162.653L238.917 127.075H199.389L190.792 162.653H229.42Z" fill="#263238"/>
<path d="M193.165 159.965H228.473L236.689 128.719H201.197L193.165 159.965Z" fill="#F5F5F5"/>
<path d="M202.078 134.772L199.889 143.619H223.301L225.798 134.772H202.078Z" fill="#E0E0E0"/>
<path d="M220.843 133.602C220.843 133.701 216.741 133.773 211.674 133.773C206.606 133.773 202.505 133.701 202.505 133.602C202.505 133.503 206.606 133.431 211.674 133.431C216.741 133.431 220.843 133.51 220.843 133.602Z" fill="#455A64"/>
<path d="M210.188 136.461C207.729 136.689 205.253 136.689 202.794 136.461C205.253 136.233 207.729 136.233 210.188 136.461V136.461Z" fill="#263238"/>
<path d="M216.117 136.323C214.521 136.551 212.901 136.551 211.306 136.323C212.901 136.095 214.521 136.095 216.117 136.323Z" fill="#263238"/>
<path d="M222.814 138.065C222.814 138.164 218.286 138.242 212.699 138.242C207.112 138.242 202.584 138.164 202.584 138.065C202.584 137.966 207.112 137.894 212.699 137.894C218.286 137.894 222.814 137.986 222.814 138.065Z" fill="#455A64"/>
<path d="M208.723 139.531C206.538 139.76 204.335 139.76 202.15 139.531C204.335 139.301 206.538 139.301 208.723 139.531V139.531Z" fill="#FF725E"/>
<path d="M221 141.627C221 141.719 216.8 141.798 211.621 141.798C206.442 141.798 202.235 141.719 202.235 141.627C202.235 141.535 206.435 141.456 211.621 141.456C216.807 141.456 221 141.529 221 141.627Z" fill="#455A64"/>
<path d="M207.191 146.156C204.786 146.382 202.366 146.382 199.961 146.156C202.366 145.93 204.786 145.93 207.191 146.156V146.156Z" fill="#455A64"/>
<path d="M213.396 146.189C212.58 146.348 211.747 146.399 210.918 146.34C210.089 146.39 209.257 146.324 208.446 146.143C209.262 145.983 210.095 145.933 210.924 145.991C211.753 145.941 212.585 146.007 213.396 146.189Z" fill="#263238"/>
<path d="M216.899 146.018C216.899 146.116 216.426 146.189 215.847 146.189C215.269 146.189 214.802 146.116 214.802 146.018C214.802 145.919 215.275 145.847 215.847 145.847C216.419 145.847 216.899 145.926 216.899 146.018Z" fill="#263238"/>
<path d="M202.38 147.97C202.38 148.069 201.861 148.141 201.223 148.141C200.586 148.141 200.073 148.069 200.073 147.97C200.073 147.871 200.592 147.799 201.223 147.799C201.854 147.799 202.38 147.878 202.38 147.97Z" fill="#FF725E"/>
<path d="M209.281 147.97C207.452 148.198 205.602 148.198 203.773 147.97C205.602 147.742 207.452 147.742 209.281 147.97Z" fill="#263238"/>
<path d="M225.739 147.76C225.739 147.858 222.453 147.93 218.384 147.93C214.316 147.93 211.023 147.858 211.023 147.76C211.023 147.661 214.309 147.589 218.384 147.589C222.459 147.589 225.739 147.668 225.739 147.76Z" fill="#455A64"/>
<path d="M202.025 149.856C202.025 149.948 201.499 150.027 200.842 150.027C200.185 150.027 199.659 149.948 199.659 149.856C199.659 149.764 200.185 149.685 200.842 149.685C201.499 149.685 202.025 149.758 202.025 149.856Z" fill="#263238"/>
<path d="M205.653 149.817C205.198 149.986 204.709 150.045 204.227 149.988C203.742 150.045 203.251 149.986 202.794 149.817C203.252 149.652 203.742 149.593 204.227 149.646C204.709 149.593 205.197 149.651 205.653 149.817V149.817Z" fill="#263238"/>
<path d="M216.465 149.646C213.378 149.874 210.278 149.874 207.191 149.646C210.278 149.418 213.378 149.418 216.465 149.646V149.646Z" fill="#455A64"/>
<path d="M210.747 152.926C208.881 153.095 207.007 153.152 205.134 153.097C203.261 153.152 201.387 153.095 199.521 152.926C201.386 152.753 203.261 152.695 205.134 152.755C207.007 152.696 208.881 152.753 210.747 152.926V152.926Z" fill="#455A64"/>
<path d="M217.3 152.781C215.612 153.009 213.901 153.009 212.213 152.781C213.901 152.553 215.612 152.553 217.3 152.781V152.781Z" fill="#FF725E"/>
<path d="M227.034 152.781C224.226 153.009 221.403 153.009 218.595 152.781C221.403 152.553 224.226 152.553 227.034 152.781Z" fill="#263238"/>
<path d="M224.786 133.464C224.786 133.563 224.392 133.635 223.912 133.635C223.432 133.635 223.038 133.563 223.038 133.464C223.038 133.366 223.432 133.293 223.912 133.293C224.392 133.293 224.786 133.385 224.786 133.464Z" fill="#263238"/>
<path d="M206.981 132.281C205.711 132.509 204.412 132.509 203.142 132.281C204.412 132.053 205.711 132.053 206.981 132.281V132.281Z" fill="#FF725E"/>
<path d="M236.098 130.966H200.605L201.203 128.719H236.696L236.098 130.966Z" fill="#EBEBEB"/>
<path d="M202.695 130.243C202.91 130.243 203.083 130.07 203.083 129.856C203.083 129.641 202.91 129.468 202.695 129.468C202.481 129.468 202.308 129.641 202.308 129.856C202.308 130.07 202.481 130.243 202.695 130.243Z" fill="#FAFAFA"/>
<path d="M204.03 130.243C204.244 130.243 204.417 130.07 204.417 129.856C204.417 129.641 204.244 129.468 204.03 129.468C203.815 129.468 203.642 129.641 203.642 129.856C203.642 130.07 203.815 130.243 204.03 130.243Z" fill="#FAFAFA"/>
<path d="M205.364 130.243C205.578 130.243 205.752 130.07 205.752 129.856C205.752 129.641 205.578 129.468 205.364 129.468C205.15 129.468 204.976 129.641 204.976 129.856C204.976 130.07 205.15 130.243 205.364 130.243Z" fill="#FAFAFA"/>
<path d="M279.353 165.966H195.196V215.071H279.353V165.966Z" fill="#263238"/>
<path d="M233.534 165.966H195.196V215.071H233.534V165.966Z" fill="#455A64"/>
<path d="M229.63 182.641C229.62 182.558 229.62 182.474 229.63 182.391V181.675C229.63 181.017 229.63 180.117 229.597 178.947C229.597 176.574 229.558 173.183 229.532 169.002L229.657 169.127L198.817 169.173L198.988 169.002V172.545C198.988 173.715 198.988 174.878 198.988 176.016C198.988 178.296 198.988 180.511 198.988 182.628L198.831 182.47L220.921 182.542L227.336 182.588H229.058H229.512H229.67H229.532H229.098H227.409L221.027 182.628L198.831 182.707H198.666V182.542C198.666 180.426 198.666 178.211 198.666 175.93V169.016L198.837 168.845L229.676 168.891H229.801V169.016C229.768 173.229 229.749 176.647 229.729 179.032C229.729 180.189 229.729 181.096 229.729 181.734V182.43C229.637 182.569 229.63 182.68 229.63 182.641Z" fill="#263238"/>
<path d="M215.519 175.825C215.433 175.452 215.225 175.119 214.927 174.879C214.767 174.767 214.583 174.696 214.389 174.672C214.195 174.648 213.999 174.671 213.816 174.741C213.597 174.825 213.408 174.974 213.274 175.167C213.141 175.361 213.069 175.59 213.067 175.825C213.07 176.06 213.143 176.288 213.277 176.481C213.41 176.674 213.598 176.823 213.816 176.91C214 176.976 214.196 176.998 214.389 176.973C214.583 176.948 214.767 176.876 214.927 176.765C215.222 176.523 215.43 176.19 215.519 175.818C215.519 175.818 215.578 175.937 215.519 176.154C215.466 176.469 215.3 176.754 215.052 176.956C214.864 177.109 214.639 177.212 214.4 177.255C214.161 177.297 213.915 177.278 213.685 177.199C213.397 177.1 213.148 176.914 212.971 176.667C212.794 176.419 212.699 176.123 212.699 175.818C212.699 175.514 212.794 175.218 212.971 174.97C213.148 174.723 213.397 174.537 213.685 174.438C213.914 174.358 214.16 174.338 214.399 174.379C214.638 174.42 214.863 174.522 215.052 174.675C215.3 174.876 215.466 175.162 215.519 175.477C215.584 175.707 215.538 175.825 215.519 175.825Z" fill="#263238"/>
<path d="M229.63 197.66C229.621 197.574 229.621 197.488 229.63 197.403V196.687C229.63 196.03 229.63 195.129 229.597 193.959C229.597 191.593 229.558 188.201 229.532 184.015L229.657 184.14L198.817 184.192L198.988 184.021V187.564C198.988 188.74 198.988 189.897 198.988 191.041C198.988 193.322 198.988 195.537 198.988 197.653L198.831 197.489L220.921 197.568L227.336 197.614H229.058H229.512H229.67H229.532H229.098H227.409L221.027 197.66L198.831 197.738H198.666V197.574C198.666 195.458 198.666 193.243 198.666 190.962V184.028C198.627 184.028 198.988 183.699 198.837 183.85L229.676 183.903H229.801V183.995C229.768 188.215 229.749 191.632 229.729 194.018C229.729 195.175 229.729 196.076 229.729 196.72V197.41C229.637 197.587 229.63 197.666 229.63 197.66Z" fill="#263238"/>
<path d="M215.519 190.837C215.426 190.473 215.219 190.148 214.927 189.91C214.752 189.785 214.546 189.711 214.331 189.695C214.117 189.679 213.902 189.722 213.71 189.819C213.518 189.917 213.357 190.065 213.243 190.248C213.13 190.431 213.069 190.642 213.067 190.857C213.069 191.092 213.141 191.321 213.274 191.515C213.408 191.708 213.597 191.857 213.816 191.941C213.999 192.011 214.195 192.034 214.389 192.01C214.583 191.986 214.767 191.915 214.927 191.803C215.224 191.562 215.432 191.229 215.519 190.857C215.519 190.857 215.578 190.975 215.519 191.192C215.466 191.507 215.3 191.792 215.052 191.994C214.864 192.147 214.639 192.25 214.4 192.293C214.161 192.336 213.915 192.316 213.685 192.237C213.397 192.138 213.148 191.952 212.971 191.705C212.794 191.457 212.699 191.161 212.699 190.857C212.699 190.553 212.794 190.256 212.971 190.009C213.148 189.761 213.397 189.575 213.685 189.476C213.915 189.397 214.161 189.378 214.4 189.42C214.639 189.463 214.864 189.566 215.052 189.72C215.3 189.921 215.466 190.206 215.519 190.522C215.584 190.719 215.538 190.837 215.519 190.837Z" fill="#263238"/>
<path d="M229.63 212.672C229.62 212.589 229.62 212.505 229.63 212.422V211.705C229.63 211.048 229.63 210.148 229.597 208.978C229.597 206.605 229.558 203.213 229.532 199.033L229.657 199.158L198.817 199.204L198.988 199.033V202.576C198.988 203.746 198.988 204.909 198.988 206.046C198.988 208.327 198.988 210.542 198.988 212.658L198.831 212.501L220.921 212.573L227.336 212.619H229.058H229.512H229.67H229.532H229.098H227.409L221.027 212.658L198.831 212.737H198.666V212.573C198.666 210.457 198.666 208.242 198.666 205.961V199.046L198.837 198.875L229.676 198.921H229.801V199.046C229.768 203.259 229.749 206.677 229.729 209.063C229.729 210.22 229.729 211.127 229.729 211.765V212.461C229.637 212.599 229.63 212.678 229.63 212.672Z" fill="#263238"/>
<path d="M215.519 205.856C215.433 205.483 215.225 205.149 214.927 204.909C214.767 204.797 214.583 204.726 214.389 204.702C214.195 204.678 213.999 204.702 213.816 204.771C213.597 204.856 213.408 205.004 213.274 205.198C213.141 205.391 213.069 205.62 213.067 205.856C213.069 206.071 213.13 206.281 213.243 206.464C213.357 206.647 213.518 206.795 213.71 206.893C213.902 206.991 214.117 207.034 214.331 207.018C214.546 207.002 214.752 206.927 214.927 206.802C215.222 206.56 215.43 206.227 215.519 205.856C215.519 205.856 215.578 205.974 215.519 206.191C215.466 206.506 215.3 206.791 215.052 206.993C214.864 207.146 214.639 207.249 214.4 207.292C214.161 207.334 213.915 207.315 213.685 207.236C213.397 207.137 213.148 206.951 212.971 206.704C212.794 206.456 212.699 206.16 212.699 205.856C212.699 205.551 212.794 205.255 212.971 205.007C213.148 204.76 213.397 204.574 213.685 204.475C213.914 204.395 214.16 204.375 214.399 204.416C214.638 204.458 214.863 204.559 215.052 204.712C215.3 204.914 215.466 205.199 215.519 205.514C215.584 205.737 215.538 205.856 215.519 205.856Z" fill="#263238"/>
<path d="M139.151 255.039L82.908 254.993V165.966H139.151V255.039Z" fill="#263238"/>
<path d="M282.409 162.542H80.1935V167.208H282.409V162.542Z" fill="#263238"/>
<path d="M89.1783 167.208H82.908V261.658H89.1783V167.208Z" fill="#263238"/>
<path d="M279.353 167.208H273.082V261.684H279.353V167.208Z" fill="#263238"/>
<path d="M239.805 167.208H233.534V261.684H239.805V167.208Z" fill="#263238"/>
<path d="M108.627 162.541C108.627 162.633 102.6 162.712 95.166 162.712C87.7323 162.712 81.7052 162.633 81.7052 162.541C81.7052 162.449 87.7323 162.371 95.166 162.371C102.6 162.371 108.627 162.443 108.627 162.541Z" fill="#455A64"/>
<path d="M167.755 257.057L167.913 250.307L155.26 249.926L154.925 259.785L155.707 259.857C159.191 260.159 173.453 261.132 175.8 260.514C178.429 259.804 167.755 257.057 167.755 257.057Z" fill="#FF725E"/>
<g opacity="0.4">
<path opacity="0.4" d="M172.96 258.588C172.96 258.588 176.7 259.785 176.207 260.396C175.714 261.007 161.274 260.554 154.925 259.804V259.522L171.771 260.179C171.771 260.179 172.205 258.595 172.96 258.588Z" fill="white"/>
</g>
<path d="M154.754 259.509H154.971L155.628 259.568L157.922 259.739C159.861 259.87 162.523 260.008 165.507 260.107C168.491 260.205 171.16 260.225 173.105 260.218H175.406H176.063H176.28H176.063H175.406H173.105C171.166 260.218 168.504 260.153 165.514 260.061C162.523 259.969 159.868 259.844 157.929 259.739L155.628 259.62H154.971L154.754 259.509Z" fill="#263238"/>
<path d="M171.784 260.376C171.896 259.998 172.053 259.634 172.251 259.292C172.489 258.979 172.76 258.692 173.059 258.437C172.676 258.594 172.348 258.863 172.121 259.209C171.893 259.555 171.776 259.962 171.784 260.376V260.376Z" fill="#263238"/>
<path d="M168.11 258.372C168.143 258.372 168.333 258.181 168.524 257.898C168.715 257.616 168.846 257.359 168.813 257.34C168.78 257.32 168.59 257.524 168.399 257.813C168.208 258.102 168.077 258.345 168.11 258.372Z" fill="#263238"/>
<path d="M167.104 257.8C167.104 257.8 167.334 257.701 167.558 257.51C167.781 257.32 167.939 257.142 167.913 257.11C167.886 257.077 167.683 257.208 167.459 257.399C167.236 257.589 167.078 257.767 167.104 257.8Z" fill="#263238"/>
<path d="M166.493 256.584C166.702 256.664 166.926 256.7 167.15 256.689C167.37 256.722 167.595 256.704 167.807 256.636C167.598 256.557 167.374 256.521 167.15 256.531C166.789 256.518 166.493 256.538 166.493 256.584Z" fill="#263238"/>
<path d="M166.289 255.736C166.504 255.884 166.758 255.966 167.019 255.972C167.275 256.023 167.541 255.995 167.781 255.894C167.535 255.843 167.284 255.819 167.032 255.821C166.788 255.765 166.539 255.736 166.289 255.736Z" fill="#263238"/>
<path d="M168.576 257.281C168.844 257.326 169.117 257.326 169.385 257.281C169.681 257.251 169.973 257.196 170.259 257.116C170.432 257.071 170.599 257.007 170.759 256.926C170.857 256.874 170.933 256.787 170.969 256.682C170.984 256.623 170.982 256.56 170.962 256.501C170.942 256.443 170.906 256.392 170.857 256.354C170.552 256.192 170.199 256.141 169.86 256.209C169.521 256.277 169.216 256.461 168.997 256.728C168.868 256.887 168.772 257.071 168.715 257.267C168.7 257.339 168.7 257.413 168.715 257.484C168.809 257.245 168.942 257.023 169.109 256.827C169.297 256.619 169.541 256.471 169.812 256.4C170.136 256.304 170.485 256.337 170.785 256.492C170.91 256.59 170.851 256.742 170.706 256.827C170.558 256.9 170.404 256.959 170.246 257.004C169.968 257.09 169.685 257.156 169.398 257.202C168.918 257.261 168.576 257.254 168.576 257.281Z" fill="#263238"/>
<path d="M168.78 257.326C168.885 257.16 168.925 256.961 168.892 256.768C168.875 256.552 168.805 256.345 168.688 256.163C168.624 256.041 168.53 255.937 168.415 255.861C168.301 255.786 168.168 255.74 168.031 255.729C167.948 255.744 167.873 255.79 167.824 255.859C167.775 255.928 167.755 256.014 167.768 256.097C167.785 256.228 167.829 256.354 167.9 256.465C167.998 256.648 168.122 256.816 168.268 256.965C168.39 257.114 168.545 257.234 168.721 257.313C168.721 257.313 168.563 257.162 168.346 256.893C168.222 256.74 168.114 256.575 168.024 256.4C167.919 256.222 167.847 255.913 168.057 255.88C168.268 255.848 168.458 256.078 168.576 256.242C168.688 256.403 168.762 256.587 168.793 256.781C168.808 256.963 168.804 257.146 168.78 257.326V257.326Z" fill="#263238"/>
<path d="M155.116 256.051C155.116 256.084 155.484 256.051 156.049 256.117C156.793 256.219 157.493 256.53 158.065 257.016C158.638 257.501 159.061 258.14 159.283 258.858C159.368 259.159 159.438 259.464 159.493 259.771C159.51 259.687 159.51 259.6 159.493 259.515C159.471 259.293 159.431 259.073 159.375 258.858C159.171 258.106 158.744 257.434 158.15 256.931C157.556 256.427 156.824 256.116 156.049 256.038C155.817 256.015 155.584 256.015 155.352 256.038C155.273 256.033 155.194 256.037 155.116 256.051V256.051Z" fill="#263238"/>
<path d="M156.588 250.826C156.477 251.687 156.414 252.554 156.397 253.422C156.337 254.297 156.326 255.175 156.364 256.051C156.476 255.19 156.539 254.323 156.555 253.455C156.62 252.58 156.63 251.702 156.588 250.826V250.826Z" fill="#263238"/>
<path d="M161.143 258.654C161.743 258.816 162.362 258.897 162.983 258.897C163.602 258.945 164.225 258.914 164.837 258.805C164.837 258.759 164.008 258.805 162.99 258.746C161.971 258.687 161.149 258.615 161.143 258.654Z" fill="#263238"/>
<path d="M158.665 258.575C158.665 258.575 158.724 258.753 158.803 258.943C158.882 259.134 158.921 259.311 158.967 259.305C159.013 259.298 159.04 259.108 158.967 258.891C158.895 258.674 158.691 258.549 158.665 258.575Z" fill="#263238"/>
<path d="M157.745 257.386C157.745 257.386 157.791 257.55 157.916 257.688C158.04 257.826 158.172 257.911 158.205 257.879C158.238 257.846 158.159 257.721 158.027 257.583C157.896 257.445 157.797 257.359 157.745 257.386Z" fill="#263238"/>
<path d="M156.43 256.814C156.43 256.86 156.608 256.86 156.792 256.932C156.976 257.004 157.107 257.103 157.14 257.077C157.173 257.05 157.074 256.873 156.844 256.787C156.614 256.702 156.43 256.774 156.43 256.814Z" fill="#263238"/>
<path d="M155.497 256.531C155.497 256.571 155.556 256.636 155.655 256.682C155.753 256.728 155.858 256.728 155.871 256.682C155.885 256.636 155.819 256.571 155.714 256.531C155.609 256.492 155.517 256.492 155.497 256.531Z" fill="#263238"/>
<g opacity="0.3">
<path opacity="0.3" d="M155.142 255.716L167.788 255.894L167.814 254.369L155.07 254.908L155.142 255.716Z" fill="black"/>
</g>
<path d="M187.71 258.109V251.352L175.051 251.306L174.978 261.165L175.76 261.218C179.251 261.421 193.507 262.019 195.866 261.323C198.456 260.567 187.71 258.109 187.71 258.109Z" fill="#FF725E"/>
<g opacity="0.4">
<path opacity="0.4" d="M192.955 259.495C192.955 259.495 196.721 260.6 196.241 261.217C195.761 261.835 181.321 261.776 174.952 261.217V260.935L191.804 261.152C191.804 261.152 192.218 259.528 192.955 259.495Z" fill="white"/>
</g>
<path d="M174.781 260.896H174.998L175.622 260.935L177.923 261.047C179.862 261.126 182.524 261.198 185.514 261.211C188.505 261.224 191.167 261.211 193.112 261.126L195.413 261.04L196.037 261.001H196.254H195.413L193.112 261.034C191.141 261.034 188.479 261.093 185.514 261.08C182.55 261.066 179.868 261.007 177.923 260.961L175.622 260.896H174.781Z" fill="#263238"/>
<path d="M191.831 261.323C191.929 260.94 192.075 260.571 192.264 260.225C192.492 259.902 192.757 259.606 193.053 259.344C192.658 259.488 192.33 259.774 192.133 260.146C191.888 260.486 191.78 260.906 191.831 261.323V261.323Z" fill="#263238"/>
<path d="M188.104 259.41C188.137 259.41 188.314 259.213 188.505 258.924C188.696 258.634 188.807 258.385 188.774 258.358C188.742 258.332 188.557 258.555 188.373 258.845C188.189 259.134 188.065 259.384 188.104 259.41Z" fill="#263238"/>
<path d="M187.079 258.865C187.079 258.865 187.309 258.759 187.526 258.569C187.742 258.378 187.9 258.188 187.874 258.155C187.848 258.122 187.644 258.26 187.427 258.451C187.21 258.641 187.052 258.832 187.079 258.865Z" fill="#263238"/>
<path d="M186.435 257.668C186.645 257.743 186.869 257.772 187.092 257.754C187.313 257.781 187.537 257.758 187.749 257.688C187.749 257.642 187.46 257.603 187.092 257.603C186.724 257.603 186.435 257.609 186.435 257.668Z" fill="#263238"/>
<path d="M186.218 256.82C186.436 256.964 186.692 257.04 186.954 257.037C187.212 257.089 187.48 257.054 187.716 256.939C187.468 256.901 187.218 256.883 186.967 256.886C186.72 256.842 186.469 256.82 186.218 256.82Z" fill="#263238"/>
<path d="M188.538 258.306C188.805 258.356 189.079 258.356 189.346 258.306C189.641 258.273 189.932 258.209 190.214 258.115C190.388 258.07 190.556 258.004 190.713 257.918C190.811 257.861 190.883 257.77 190.917 257.662C190.929 257.602 190.924 257.54 190.901 257.483C190.879 257.425 190.841 257.376 190.792 257.34C190.483 257.186 190.129 257.144 189.792 257.222C189.455 257.3 189.156 257.493 188.945 257.767C188.823 257.928 188.731 258.111 188.676 258.306C188.658 258.379 188.658 258.456 188.676 258.529C188.763 258.291 188.89 258.069 189.05 257.872C189.235 257.658 189.477 257.501 189.747 257.418C190.066 257.314 190.414 257.34 190.713 257.491C190.845 257.589 190.792 257.741 190.648 257.826C190.504 257.906 190.352 257.97 190.194 258.017C189.919 258.109 189.638 258.181 189.353 258.234C188.847 258.266 188.538 258.266 188.538 258.306Z" fill="#263238"/>
<path d="M188.748 258.352C188.843 258.18 188.876 257.98 188.84 257.787C188.818 257.572 188.743 257.367 188.623 257.188C188.556 257.071 188.461 256.972 188.346 256.9C188.232 256.827 188.101 256.784 187.966 256.774C187.925 256.782 187.886 256.798 187.851 256.821C187.816 256.845 187.786 256.874 187.762 256.909C187.739 256.944 187.723 256.983 187.715 257.025C187.707 257.066 187.708 257.108 187.716 257.149C187.735 257.278 187.782 257.402 187.854 257.511C187.959 257.691 188.088 257.856 188.235 258.004C188.485 258.253 188.689 258.352 188.696 258.332C188.702 258.312 188.538 258.188 188.314 257.931C188.185 257.778 188.071 257.613 187.973 257.438C187.861 257.267 187.788 256.958 187.973 256.926C188.157 256.893 188.38 257.11 188.505 257.267C188.62 257.425 188.699 257.607 188.735 257.8C188.755 257.983 188.759 258.168 188.748 258.352Z" fill="#263238"/>
<path d="M175.051 257.438C175.051 257.438 175.412 257.405 175.984 257.478C176.729 257.564 177.435 257.858 178.021 258.326C178.604 258.799 179.043 259.425 179.29 260.133C179.481 260.672 179.5 261.04 179.527 261.034C179.539 260.949 179.539 260.862 179.527 260.777C179.502 260.555 179.458 260.335 179.395 260.12C179.171 259.375 178.726 258.715 178.12 258.227C177.513 257.739 176.773 257.445 175.997 257.386C175.765 257.364 175.532 257.364 175.3 257.386C175.136 257.405 175.051 257.425 175.051 257.438Z" fill="#263238"/>
<path d="M176.385 252.174C176.293 253.047 176.254 253.925 176.267 254.803C176.222 255.679 176.233 256.557 176.299 257.432C176.387 256.558 176.427 255.681 176.418 254.803C176.462 253.926 176.451 253.048 176.385 252.174Z" fill="#263238"/>
<path d="M181.144 259.883C181.748 260.026 182.369 260.09 182.99 260.074C183.612 260.105 184.235 260.056 184.844 259.929C184.844 259.89 184.009 259.929 182.99 259.929C181.972 259.929 181.15 259.837 181.144 259.883Z" fill="#263238"/>
<path d="M178.659 259.863C178.659 259.896 178.731 260.041 178.81 260.232C178.889 260.422 178.942 260.593 178.988 260.586C179.034 260.58 179.053 260.389 178.955 260.172C178.856 259.956 178.692 259.837 178.659 259.863Z" fill="#263238"/>
<path d="M177.732 258.7C177.699 258.7 177.785 258.858 177.916 258.996C178.048 259.134 178.173 259.213 178.205 259.18C178.238 259.147 178.153 259.022 178.021 258.884C177.89 258.746 177.765 258.667 177.732 258.7Z" fill="#263238"/>
<path d="M176.398 258.161C176.398 258.207 176.575 258.207 176.759 258.273C176.944 258.339 177.082 258.437 177.114 258.411C177.147 258.385 177.042 258.207 176.812 258.128C176.582 258.049 176.385 258.122 176.398 258.161Z" fill="#263238"/>
<path d="M175.445 257.905C175.445 257.944 175.504 258.01 175.609 258.056C175.714 258.102 175.813 258.096 175.826 258.056C175.839 258.017 175.767 257.951 175.662 257.911C175.557 257.872 175.491 257.865 175.445 257.905Z" fill="#263238"/>
<g opacity="0.3">
<path opacity="0.3" d="M175.07 257.096L187.716 256.945L187.703 255.42L174.972 256.295L175.07 257.096Z" fill="black"/>
</g>
<path d="M159.763 142.449L164.83 157.704C166.197 161.825 169.799 162.535 174.144 162.535H202.334V156.205L176.582 152.531L170.443 136.849L159.763 142.449Z" fill="#FFBE9D"/>
<path d="M205.436 154.898L207.671 153.839C207.671 153.839 210.083 149.179 210.635 149.37C211.187 149.561 211.352 150.928 210.385 153.064L213.356 152.216C213.356 152.216 219.798 155.193 219.515 155.594C219.232 155.995 218.7 156.948 217.3 156.252C215.9 155.555 214.053 154.687 214.053 154.687L210.583 155.68L215.059 156.252L219.272 160.077C219.272 160.077 217.885 161.115 216.695 160.018L205.758 162.364L202.334 162.561V156.232L205.436 154.898Z" fill="#FFBE9D"/>
<path d="M216.695 159.998C216.649 159.998 216.445 159.702 216.038 159.275C215.806 159.03 215.537 158.822 215.243 158.657C214.872 158.48 214.47 158.375 214.06 158.348C212.948 158.273 211.847 158.085 210.773 157.79C211.886 157.752 213.001 157.827 214.099 158.013C214.559 158.041 215.008 158.169 215.414 158.388C215.73 158.579 216.008 158.826 216.235 159.117C216.464 159.365 216.623 159.669 216.695 159.998V159.998Z" fill="#EB996E"/>
<path d="M214.986 160.432C214.94 160.432 214.907 160.208 214.605 160.143C214.303 160.077 213.79 160.024 213.291 159.972C212.647 159.961 212.005 159.898 211.371 159.781C212.004 159.56 212.684 159.508 213.343 159.63C213.81 159.67 214.271 159.765 214.717 159.912C214.795 159.941 214.865 159.988 214.922 160.048C214.979 160.109 215.021 160.181 215.045 160.261C215.045 160.379 215.006 160.438 214.986 160.432Z" fill="#EB996E"/>
<path d="M135.963 79.6992L134.431 110.709L147.708 111.958L148.444 104.465C148.444 104.465 153.124 105.622 154.544 101.291C155.457 98.5234 156.266 76.8467 156.266 76.8467L135.963 79.6992Z" fill="#FFBE9D"/>
<path d="M157.409 80.4355C157.778 83.3406 153.722 85.0364 153.722 85.0364L153.012 91.9048C152.378 91.8595 151.741 91.8595 151.106 91.9048C151.448 88.6842 147.294 89.3152 146.873 91.5105C146.453 93.7058 148.845 95.0334 148.845 95.0334C147.189 97.5771 146.512 98.9245 144.159 101.31C141.609 103.893 140.215 104.104 137.586 104.025L134.688 103.893C134.688 103.893 133.649 101.416 132.893 95.5593C132.532 92.7461 130.33 89.0523 130.961 84.4777C132.736 71.4703 145.197 72.844 145.197 72.844C151.711 72.982 156.555 73.705 157.409 80.4355Z" fill="#263238"/>
<path d="M147.886 73.1792C150.699 73.2515 153.617 73.475 156.088 74.8224C158.56 76.1698 160.466 78.95 159.96 81.7171L158.553 81.9735L157.975 80.935C157.975 81.4871 157.975 82.0392 157.975 82.5913L155.503 83.2814C155.132 81.1714 154.388 79.144 153.308 77.2937" fill="#263238"/>
<path d="M136.489 87.4487C136.391 87.2991 136.318 87.1349 136.272 86.9623C136.112 86.5025 135.994 86.0296 135.917 85.5491C135.65 83.9537 135.761 82.3179 136.242 80.7733C136.722 79.2287 137.559 77.8185 138.684 76.6563C139.015 76.3021 139.378 75.9787 139.768 75.6901C139.905 75.5708 140.06 75.4752 140.228 75.4075C140.261 75.4535 139.657 75.907 138.861 76.814C137.828 77.9955 137.051 79.3787 136.581 80.876C136.128 82.3785 135.99 83.9579 136.173 85.5163C136.298 86.7191 136.548 87.4289 136.489 87.4487Z" fill="#455A64"/>
<path d="M139.105 86.3641C138.85 85.8642 138.675 85.3275 138.585 84.7735C138.294 83.4494 138.207 82.0883 138.329 80.7379C138.443 79.3831 138.762 78.0534 139.275 76.7943C139.461 76.2624 139.729 75.7632 140.071 75.3154C139.363 77.0566 138.892 78.8848 138.671 80.7511C138.564 82.6331 138.71 84.5208 139.105 86.3641V86.3641Z" fill="#455A64"/>
<path d="M156.056 81.5527C155.99 81.5527 155.878 80.7509 155.339 79.5809C154.647 78.0384 153.537 76.72 152.135 75.7746C150.734 74.8292 149.095 74.2945 147.406 74.2308C146.091 74.1716 145.309 74.3688 145.296 74.3096C145.469 74.2222 145.656 74.1644 145.848 74.1387C146.363 74.0367 146.887 73.9882 147.412 73.9941C149.167 73.9916 150.882 74.5159 152.335 75.4991C153.788 76.4823 154.912 77.8791 155.563 79.5086C155.761 79.9938 155.909 80.4982 156.003 81.0138C156.05 81.1893 156.068 81.3714 156.056 81.5527Z" fill="#455A64"/>
<path d="M136.903 70.6685C137.645 70.8255 138.315 71.2228 138.809 71.799C139.385 72.2932 139.779 72.9668 139.926 73.7116C139.834 73.7511 139.407 72.8703 138.566 72.0356C137.724 71.2008 136.857 70.767 136.903 70.6685Z" fill="#263238"/>
<path d="M139.998 70.6816C140.097 70.7145 139.893 71.4112 139.933 72.2722C139.972 73.1333 140.209 73.8037 140.117 73.8497C139.747 73.4151 139.559 72.855 139.591 72.2854C139.512 71.7181 139.659 71.1426 139.998 70.6816V70.6816Z" fill="#455A64"/>
<path d="M157.377 139.123L159.539 146.465L173.302 140.241C172.809 138.703 170.529 131.854 166.177 120.983C164.986 118.002 163.048 115.379 160.549 113.366C158.049 111.352 155.074 110.016 151.908 109.487C147.569 108.695 143.173 108.255 138.763 108.172C131.046 108.258 119.702 113.082 118.164 120.66C116.994 126.431 118.118 136.626 118.118 149.009L119.124 172.67L158.665 173.985L157.377 139.123Z" fill="#FF725E"/>
<g opacity="0.3">
<path opacity="0.3" d="M118.138 143.54C122.949 144.526 127.885 143.54 132.788 143.244C135.759 143.067 139.059 142.745 141.412 144.559C143.278 146.005 144.041 148.443 144.566 150.744C146.617 159.505 146.985 165.381 147.445 174.366L123.646 175.812L118.138 143.54Z" fill="black"/>
</g>
<path d="M165.021 118.715C165.021 118.813 154.636 118.886 141.832 118.886C129.029 118.886 118.65 118.813 118.65 118.715C118.65 118.616 129.029 118.544 141.832 118.544C154.636 118.544 165.021 118.623 165.021 118.715Z" fill="#FAFAFA"/>
<path d="M167.906 125.36C167.906 125.452 156.614 125.531 142.7 125.531C128.785 125.531 117.493 125.452 117.493 125.36C117.493 125.268 128.772 125.189 142.7 125.189C156.627 125.189 167.906 125.268 167.906 125.36Z" fill="#FAFAFA"/>
<path d="M171.547 133.694C171.547 133.793 159.506 133.865 144.652 133.865C129.798 133.865 117.756 133.793 117.756 133.694C117.756 133.595 129.798 133.523 144.652 133.523C159.506 133.523 171.547 133.602 171.547 133.694Z" fill="#FAFAFA"/>
<path d="M157.087 142.686C157.087 142.778 153.321 142.856 148.688 142.856C144.054 142.856 140.281 142.778 140.281 142.686C140.281 142.594 144.041 142.515 148.688 142.515C153.334 142.515 157.087 142.587 157.087 142.686Z" fill="#FAFAFA"/>
<path d="M157.856 152.446C157.856 152.538 153.913 152.584 149.062 152.545C144.212 152.505 140.268 152.4 140.268 152.301C140.268 152.203 144.212 152.163 149.062 152.203C153.913 152.242 157.856 152.334 157.856 152.446Z" fill="#FAFAFA"/>
<path d="M158.238 160.366C158.01 160.407 157.778 160.418 157.548 160.399L155.661 160.359C154.071 160.327 151.875 160.281 149.45 160.281C147.025 160.281 144.849 160.32 143.239 160.353L141.352 160.392C141.121 160.422 140.887 160.422 140.656 160.392C140.88 160.327 141.112 160.291 141.346 160.287C141.786 160.241 142.43 160.195 143.226 160.149C144.816 160.051 147.018 159.972 149.45 159.972C151.882 159.972 154.084 160.057 155.668 160.156C156.463 160.202 157.107 160.254 157.554 160.3C157.784 160.295 158.013 160.317 158.238 160.366Z" fill="#FAFAFA"/>
<path d="M158.113 166.781C158.113 166.873 154.235 166.952 149.45 166.952C144.665 166.952 140.794 166.873 140.794 166.781C140.794 166.689 144.665 166.61 149.45 166.61C154.235 166.61 158.113 166.682 158.113 166.781Z" fill="#FAFAFA"/>
<path d="M159.289 112.201C159.289 112.3 151.678 112.372 142.292 112.372C132.906 112.372 125.289 112.3 125.289 112.201C125.289 112.103 132.9 112.031 142.292 112.031C151.685 112.031 159.289 112.109 159.289 112.201Z" fill="#FAFAFA"/>
<path d="M158.402 113.437C158.402 113.477 158.008 113.496 157.35 113.753C156.438 114.153 155.651 114.79 155.07 115.599C154.231 116.815 153.759 118.245 153.709 119.721C153.659 121.536 153.8 123.351 154.13 125.136C154.683 128.407 155.42 131.644 156.338 134.831C156.66 136.021 156.93 137 157.133 137.743C157.244 138.096 157.33 138.456 157.39 138.821C157.232 138.487 157.105 138.139 157.009 137.782C156.785 137.125 156.47 136.119 156.102 134.897C155.124 131.715 154.355 128.472 153.801 125.189C153.472 123.377 153.339 121.535 153.407 119.694C153.475 118.166 153.992 116.692 154.892 115.455C155.508 114.625 156.35 113.991 157.317 113.628C157.58 113.538 157.851 113.477 158.126 113.444C158.217 113.428 158.31 113.426 158.402 113.437V113.437Z" fill="#263238"/>
<path d="M172.862 138.361C172.249 138.788 171.6 139.162 170.923 139.478C169.7 140.135 167.985 140.957 166.066 141.824C164.146 142.692 162.385 143.415 161.097 143.908C160.412 144.204 159.704 144.443 158.98 144.624C159.631 144.262 160.308 143.947 161.005 143.684C162.267 143.132 164.015 142.37 165.928 141.515C167.84 140.661 169.562 139.839 170.811 139.261C171.474 138.915 172.159 138.614 172.862 138.361Z" fill="#263238"/>
<path d="M131.329 173.058L178.574 174.727C182.26 174.859 185.748 176.431 188.289 179.104C190.83 181.778 192.222 185.341 192.166 189.03L190.194 256.505L171.942 255.9L173.302 192.723L131.322 191.619L131.329 173.058Z" fill="#263238"/>
<path d="M111.808 173.058L159.059 174.727C162.745 174.859 166.233 176.431 168.774 179.104C171.315 181.778 172.707 185.341 172.652 189.03L170.68 256.505L152.184 255.039L153.801 192.723L111.821 191.619L111.808 173.058Z" fill="#263238"/>
<path d="M147.169 197.567H142.522V253.245H147.169V197.567Z" fill="#455A64"/>
<path d="M103.527 143.527V184.514C103.527 187.096 104.552 189.572 106.378 191.397C108.203 193.223 110.679 194.248 113.261 194.248H140.557V143.527C140.557 142.957 140.445 142.393 140.227 141.867C140.009 141.34 139.689 140.862 139.287 140.459C138.884 140.056 138.405 139.737 137.879 139.519C137.353 139.301 136.789 139.189 136.219 139.189H107.865C107.295 139.189 106.731 139.301 106.204 139.519C105.678 139.737 105.2 140.056 104.797 140.459C104.394 140.862 104.075 141.34 103.857 141.867C103.639 142.393 103.527 142.957 103.527 143.527V143.527Z" fill="#455A64"/>
<path d="M177.285 197.568H110.822C110.822 195.65 111.584 193.811 112.94 192.455C114.296 191.099 116.135 190.338 118.052 190.338H170.088C172.006 190.338 173.845 191.099 175.201 192.455C176.556 193.811 177.318 195.65 177.318 197.568H177.285Z" fill="#455A64"/>
<path d="M140.557 189.398C140.565 189.503 140.565 189.608 140.557 189.713C140.552 190.014 140.514 190.314 140.445 190.607C140.226 191.535 139.742 192.379 139.051 193.036C138.36 193.693 137.492 194.135 136.554 194.308C135.681 194.401 134.803 194.434 133.925 194.406H127.951C123.711 194.406 119.873 194.406 117.099 194.367L113.813 194.321L112.919 194.288C112.813 194.286 112.707 194.275 112.603 194.255C112.706 194.226 112.812 194.212 112.919 194.215L113.813 194.183L117.099 194.123C119.873 194.091 123.711 194.071 127.951 194.064H133.919C134.78 194.099 135.643 194.079 136.502 194.005C137.23 193.881 137.918 193.589 138.513 193.151C139.392 192.503 140.024 191.576 140.307 190.522C140.537 189.831 140.518 189.398 140.557 189.398Z" fill="#263238"/>
<path d="M148.924 197.712C147.571 197.885 146.205 197.942 144.842 197.883C143.482 197.942 142.118 197.885 140.767 197.712C142.119 197.543 143.482 197.486 144.842 197.541C146.205 197.486 147.571 197.543 148.924 197.712V197.712Z" fill="#263238"/>
<path d="M169.142 194.603C168.947 193.96 168.81 193.3 168.734 192.631C168.511 191.369 168.215 189.536 167.86 187.275C167.505 185.014 167.262 182.273 166.013 179.558C165.359 178.146 164.531 176.822 163.548 175.615C162.474 174.334 161.227 173.21 159.841 172.276C158.462 171.33 156.946 170.601 155.346 170.113C153.856 169.638 152.308 169.37 150.745 169.318C147.741 169.252 144.994 169.265 142.706 169.219C140.419 169.173 138.559 169.154 137.277 169.114C136.617 169.13 135.957 169.083 135.305 168.976C135.958 168.874 136.617 168.83 137.277 168.845C138.559 168.805 140.412 168.766 142.706 168.74C145 168.713 147.715 168.654 150.764 168.694C154.135 168.773 157.411 169.82 160.203 171.71C161.644 172.677 162.937 173.848 164.041 175.187C165.057 176.445 165.908 177.828 166.572 179.302C166.723 179.65 166.848 180.012 166.986 180.36L167.183 180.886C167.229 181.063 167.282 181.241 167.328 181.418C167.426 181.767 167.525 182.115 167.617 182.457C167.709 182.799 167.742 183.147 167.807 183.482C168.038 184.83 168.162 186.065 168.32 187.209C168.609 189.476 168.839 191.323 168.977 192.592C169.093 193.256 169.148 193.929 169.142 194.603V194.603Z" fill="#455A64"/>
<path d="M165.172 258.266H164.515C164.562 255.639 164.086 253.029 163.114 250.588C162.142 248.147 160.693 245.924 158.852 244.049C157.011 242.174 154.815 240.685 152.392 239.669C149.969 238.652 147.368 238.129 144.741 238.129C142.113 238.129 139.512 238.652 137.089 239.669C134.666 240.685 132.47 242.174 130.629 244.049C128.788 245.924 127.339 248.147 126.367 250.588C125.395 253.029 124.919 255.639 124.967 258.266H124.309C124.261 255.552 124.753 252.856 125.758 250.335C126.763 247.813 128.26 245.517 130.162 243.581C132.064 241.644 134.333 240.106 136.836 239.056C139.339 238.006 142.026 237.465 144.741 237.465C147.455 237.465 150.142 238.006 152.645 239.056C155.148 240.106 157.417 241.644 159.319 243.581C161.221 245.517 162.718 247.813 163.723 250.335C164.728 252.856 165.221 255.552 165.172 258.266V258.266Z" fill="#455A64"/>
<path d="M127.701 259.305C127.701 259.911 127.521 260.503 127.185 261.006C126.848 261.51 126.37 261.903 125.81 262.135C125.25 262.366 124.635 262.427 124.04 262.309C123.446 262.191 122.901 261.899 122.472 261.471C122.044 261.042 121.752 260.497 121.634 259.902C121.516 259.308 121.576 258.692 121.808 258.133C122.04 257.573 122.433 257.095 122.936 256.758C123.44 256.422 124.032 256.242 124.638 256.242C125.04 256.241 125.439 256.32 125.811 256.473C126.183 256.627 126.521 256.853 126.806 257.137C127.09 257.422 127.316 257.76 127.47 258.132C127.623 258.504 127.702 258.902 127.701 259.305V259.305Z" fill="#263238"/>
<path d="M168.057 258.884C168.057 259.49 167.878 260.082 167.541 260.586C167.205 261.089 166.726 261.482 166.166 261.714C165.607 261.946 164.991 262.006 164.397 261.888C163.803 261.77 163.257 261.478 162.829 261.05C162.4 260.622 162.109 260.076 161.99 259.482C161.872 258.888 161.933 258.272 162.165 257.712C162.396 257.152 162.789 256.674 163.293 256.337C163.796 256.001 164.389 255.821 164.994 255.821C165.807 255.821 166.586 256.144 167.16 256.718C167.735 257.293 168.057 258.072 168.057 258.884Z" fill="#263238"/>
<path d="M164.975 253.245C164.975 253.343 156.082 253.422 145.119 253.422C134.155 253.422 125.262 253.343 125.262 253.245C125.262 253.146 134.149 253.074 145.119 253.074C156.088 253.074 164.975 253.153 164.975 253.245Z" fill="#455A64"/>
<path d="M97.1445 125.347C97.6291 125.653 98.0475 126.053 98.3749 126.524C98.7023 126.995 98.932 127.526 99.0505 128.087C99.2753 129.218 99.2393 130.384 98.9454 131.499C98.4458 133.654 96.9736 135.718 95.3961 137.309C93.7464 135.488 93.6478 132.636 93.6872 131.183C93.7529 128.889 95.2712 124.781 97.1445 125.347Z" fill="#FF725E"/>
<path d="M97.1181 141.174C97.0684 140.536 97.1874 139.897 97.4631 139.32C97.7389 138.743 98.1617 138.249 98.689 137.887C99.2249 137.534 99.8256 137.29 100.456 137.171C101.087 137.051 101.735 137.058 102.363 137.191C102.658 137.221 102.942 137.316 103.197 137.468C103.451 137.621 103.669 137.826 103.835 138.071C103.951 138.323 103.998 138.602 103.97 138.878C103.943 139.154 103.842 139.418 103.678 139.642C103.338 140.09 102.884 140.438 102.363 140.648C100.648 141.463 98.8402 141.962 97.105 141.187" fill="#FF725E"/>
<path d="M94.3445 145.985C94.4356 145.503 94.5766 145.031 94.7651 144.578C94.9488 144.075 95.1939 143.596 95.4947 143.152C95.8384 142.598 96.2206 142.069 96.6383 141.568C97.4069 140.646 98.3913 139.928 99.504 139.478C99.8426 139.354 100.193 139.263 100.549 139.208C100.68 139.187 100.813 139.187 100.943 139.208C100.943 139.254 100.391 139.314 99.5698 139.662C98.5116 140.145 97.5752 140.86 96.829 141.752C96.4167 142.243 96.0348 142.759 95.6853 143.297C95.3843 143.725 95.1288 144.183 94.9229 144.664C94.7618 145.117 94.5685 145.559 94.3445 145.985V145.985Z" fill="#263238"/>
<path d="M96.2637 128.574C96.2882 128.821 96.2882 129.069 96.2637 129.316C96.2637 129.79 96.198 130.48 96.1388 131.328C96.0139 133.03 95.8102 135.376 95.5341 137.966C95.2581 140.556 94.9294 142.882 94.66 144.539C94.5219 145.38 94.4102 146.057 94.3182 146.511C94.2843 146.756 94.2293 146.998 94.1539 147.234C94.1517 146.985 94.1737 146.736 94.2196 146.491C94.2919 145.978 94.3773 145.301 94.4825 144.519C94.706 142.83 95.0017 140.497 95.2844 137.907C95.567 135.317 95.7839 133.023 95.9416 131.288C96.0271 130.473 96.0994 129.796 96.152 129.277C96.1721 129.04 96.2094 128.805 96.2637 128.574Z" fill="#263238"/>
<path d="M94.2393 141.693C93.9858 140.363 93.4197 139.112 92.5878 138.043C91.7559 136.975 90.6819 136.119 89.4544 135.547C88.7971 135.265 88.015 135.087 87.5154 135.547C87.0159 136.007 87.1474 136.862 87.4103 137.486C87.9832 138.804 88.9339 139.923 90.1424 140.701C91.3509 141.479 92.7628 141.881 94.1999 141.857" fill="#FF725E"/>
<path d="M89.9342 137.506C90.0586 137.544 90.1761 137.602 90.2826 137.677C91.6112 138.44 92.7681 139.47 93.6806 140.7C94.0399 141.245 94.3085 141.844 94.4759 142.475C94.6057 142.991 94.6654 143.521 94.6534 144.053C94.6442 144.408 94.6024 144.763 94.5285 145.111C94.5113 145.242 94.4759 145.37 94.4234 145.492C94.3708 145.492 94.4891 144.933 94.4759 144.053C94.4631 143.54 94.3903 143.03 94.259 142.534C94.0829 141.933 93.817 141.361 93.4703 140.838C92.8064 139.899 91.9965 139.071 91.0713 138.387C90.6744 138.117 90.2947 137.823 89.9342 137.506V137.506Z" fill="#263238"/>
<path d="M94.0224 162.541C91.8428 162.54 89.7531 161.673 88.2125 160.131C86.6719 158.589 85.8065 156.498 85.8065 154.319V146.103H102.238V154.319C102.238 156.498 101.373 158.589 99.8323 160.131C98.2917 161.673 96.202 162.54 94.0224 162.541V162.541Z" fill="#263238"/>
<path d="M102.245 150.145C102.179 150.229 102.104 150.307 102.021 150.375L101.364 150.987L98.8599 153.103L98.8008 153.149L98.7285 153.11L93.9896 150.264H94.1276L89.6647 153.103L89.599 153.149L89.5333 153.096L86.8056 150.96L86.0563 150.356C85.9635 150.287 85.8796 150.208 85.8065 150.119C85.9136 150.163 86.0134 150.222 86.1023 150.296C86.3126 150.448 86.5756 150.638 86.891 150.855L89.6713 152.919H89.5398L93.9501 150.014L94.0224 149.968L94.0947 150.007L98.8336 152.912H98.7022L101.246 150.855L101.962 150.29C102.146 150.198 102.238 150.132 102.245 150.145Z" fill="#E0E0E0"/>
<path d="M102.245 148.502C102.179 148.586 102.104 148.663 102.021 148.732L101.364 149.343L98.8862 151.479L98.8271 151.525L98.7548 151.486L93.9896 148.62H94.1276L89.691 151.493L89.6253 151.539L89.5596 151.486L86.8319 149.35L86.0826 148.745C85.9898 148.677 85.9059 148.598 85.8328 148.509C85.9399 148.552 86.0397 148.612 86.1286 148.686L86.9173 149.245L89.6976 151.309H89.5661L93.9764 148.403L94.0487 148.357L94.121 148.397L98.8599 151.302H98.7285L101.272 149.245L101.989 148.679C102.146 148.555 102.238 148.502 102.245 148.502Z" fill="#E0E0E0"/>
<path d="M102.245 151.789C102.245 151.789 102.173 151.881 102.021 152.025L101.364 152.63L98.8862 154.766L98.8271 154.819L98.7548 154.773L93.9896 151.94H94.1276L89.691 154.812L89.6253 154.858L89.5596 154.812C88.4619 153.944 87.5352 153.221 86.8319 152.676L86.0826 152.065C85.9117 151.92 85.8263 151.841 85.8328 151.828C85.9382 151.875 86.0375 151.935 86.1286 152.005C86.3389 152.163 86.6019 152.347 86.9173 152.571L89.6976 154.628H89.5661L93.9764 151.723L94.0487 151.677L94.121 151.723L98.8599 154.621H98.7285L101.272 152.558L101.989 151.999C102.064 151.918 102.151 151.847 102.245 151.789V151.789Z" fill="#E0E0E0"/>
<path d="M315.2 181.839C311.796 182.391 310.271 186.571 310.599 190.009C310.928 193.446 312.315 196.811 311.914 200.236C311.434 204.594 308.141 208.274 307.76 212.639C307.306 217.785 310.948 222.353 312.032 227.401C312.565 229.859 312.492 232.462 313.406 234.802C314.186 236.795 315.633 238.455 317.5 239.501C319.367 240.546 321.539 240.912 323.646 240.535C325.753 240.158 327.664 239.062 329.053 237.434C330.442 235.806 331.223 233.747 331.264 231.607C331.336 227.664 328.898 223.937 329.193 219.993C329.41 217.082 331.119 214.321 330.758 211.449C330.317 207.998 327.123 205.533 325.993 202.247C324.862 198.961 325.953 195.333 325.559 191.875C324.862 185.677 321.425 181.359 315.207 181.852" fill="#FF725E"/>
<path d="M297.809 211.856C297.224 217.601 299.781 224.345 302.719 229.32C305.709 234.318 310.215 238.232 315.581 240.494C316.18 240.743 316.929 240.954 317.435 240.546C317.615 240.35 317.75 240.116 317.831 239.862C317.911 239.607 317.936 239.339 317.902 239.074C317.945 232.976 316.011 227.029 312.388 222.124C308.765 217.219 303.65 213.621 297.809 211.87" fill="#FF725E"/>
<g opacity="0.2">
<path opacity="0.2" d="M297.809 211.856C297.224 217.601 299.781 224.345 302.719 229.32C305.709 234.318 310.215 238.232 315.581 240.494C316.18 240.743 316.929 240.954 317.435 240.546C317.615 240.35 317.75 240.116 317.831 239.862C317.911 239.607 317.936 239.339 317.902 239.074C317.945 232.976 316.011 227.029 312.388 222.124C308.765 217.219 303.65 213.621 297.809 211.87" fill="black"/>
</g>
<path d="M322.831 252.489C322.762 252.391 322.707 252.285 322.667 252.173L322.253 251.227C321.911 250.412 321.392 249.255 320.734 247.776C319.023 244.003 317.121 240.32 315.036 236.741C312.937 233.165 310.66 229.697 308.213 226.349C307.274 225.067 306.498 224.035 305.952 223.332C305.703 223.004 305.492 222.728 305.335 222.511C305.257 222.419 305.189 222.32 305.131 222.215C305.131 222.215 305.229 222.294 305.381 222.471L306.038 223.253C306.616 223.911 307.418 224.943 308.384 226.211C313.415 232.84 317.632 240.049 320.945 247.684C321.602 249.15 322.062 250.346 322.371 251.181L322.726 252.147C322.771 252.257 322.806 252.372 322.831 252.489V252.489Z" fill="#263238"/>
<path d="M319.131 197.732C319.168 197.914 319.19 198.098 319.196 198.284C319.196 198.672 319.262 199.197 319.308 199.868C319.4 201.268 319.525 203.253 319.683 205.685C319.992 210.601 320.426 217.391 320.958 224.883C321.49 232.376 322.003 239.166 322.384 244.076C322.568 246.508 322.719 248.486 322.831 249.893C322.877 250.55 322.91 251.082 322.936 251.47C322.952 251.656 322.952 251.843 322.936 252.029C322.936 252.029 322.903 251.838 322.857 251.477C322.811 251.115 322.759 250.563 322.687 249.899C322.555 248.499 322.371 246.521 322.141 244.095C321.701 239.186 321.142 232.409 320.616 224.91C320.09 217.41 319.703 210.621 319.433 205.685C319.321 203.246 319.229 201.268 319.164 199.861C319.164 199.204 319.124 198.665 319.111 198.271C319.101 198.091 319.108 197.91 319.131 197.732V197.732Z" fill="#263238"/>
<path d="M313.846 244.299H328.234V254.861C328.232 256.692 327.504 258.448 326.208 259.742C324.913 261.036 323.157 261.763 321.326 261.763V261.763C319.559 261.764 317.859 261.086 316.576 259.871C315.293 258.655 314.525 256.994 314.431 255.229L313.846 244.299Z" fill="#263238"/>
<path d="M240.981 105.05L275.291 124.052L274.003 126.47L239.995 107.114L240.981 105.05Z" fill="#FF725E"/>
<path d="M239.292 103.256L240.87 100.844L241.79 101.409L240.377 103.841L239.292 103.256Z" fill="#FF725E"/>
<path d="M271.393 121.048L273.155 122.06L267.41 158.723L264.689 158.755L271.393 121.048Z" fill="#FF725E"/>
<path d="M256.782 162.541C256.782 162.541 260.969 158.308 266.569 158.598C268.169 158.656 269.742 159.031 271.197 159.7C272.653 160.369 273.961 161.319 275.048 162.495L256.782 162.541Z" fill="#FF725E"/>
<path d="M239.325 119.878L225.739 112.03L229.683 105.241C230.198 104.348 230.883 103.566 231.7 102.939C232.517 102.312 233.45 101.852 234.445 101.585C235.439 101.318 236.477 101.25 237.498 101.384C238.52 101.519 239.504 101.853 240.396 102.368V102.368C242.197 103.409 243.511 105.122 244.049 107.131C244.588 109.139 244.307 111.28 243.269 113.082L239.325 119.878Z" fill="#FF725E"/>
</svg>
