<svg width="428" height="387" viewBox="0 0 428 387" fill="none" xmlns="http://www.w3.org/2000/svg">
<path d="M18.7544 277.534C19.6266 279.561 20.5496 281.61 21.4971 283.624L19.4664 284.574C18.5083 282.538 17.5754 280.467 16.6931 278.417L18.7544 277.534Z" fill="#090E47"/>
<path d="M380.927 115.366C382.208 118.088 383.438 120.862 384.584 123.612L382.513 124.471C380.797 120.354 378.899 116.205 376.897 112.192L378.906 111.196C379.593 112.573 380.267 113.963 380.927 115.366ZM372.401 99.1892L370.465 100.32C368.192 96.4458 365.76 92.6096 363.237 88.9149L365.092 87.6559C367.642 91.3919 370.102 95.2717 372.401 99.1892ZM389.409 136.38C390.867 140.679 392.192 145.076 393.346 149.448L391.177 150.017C390.035 145.695 388.725 141.348 387.283 137.097L389.409 136.38ZM357.006 76.6489L355.242 78.0323C352.465 74.5121 349.529 71.0437 346.514 67.7238L348.177 66.2216C351.226 69.5804 354.197 73.0883 357.006 76.6489ZM396.373 162.757C397.225 167.205 397.931 171.743 398.473 176.243L396.247 176.51C395.71 172.06 395.011 167.574 394.17 163.176L396.373 162.757ZM338.648 56.4285L337.093 58.0419C333.857 54.9385 330.473 51.909 327.036 49.0391L328.477 47.3242C331.952 50.2268 335.374 53.2894 338.648 56.4285ZM399.638 189.861C399.866 194.397 399.94 198.994 399.854 203.523L397.611 203.481C397.695 199.004 397.623 194.459 397.396 189.974L399.638 189.861ZM317.7 38.936L316.381 40.7459C312.747 38.1145 308.977 35.5745 305.176 33.1999L306.367 31.3029C310.211 33.7054 314.024 36.2738 317.7 38.936ZM399.129 217.163C398.732 221.685 398.173 226.245 397.467 230.719L395.252 230.371C395.949 225.948 396.502 221.439 396.895 216.967L399.129 217.163ZM294.536 24.4604L293.477 26.4331C289.517 24.319 285.434 22.3152 281.341 20.4769L282.261 18.4363C286.402 20.2958 290.532 22.3222 294.536 24.4604ZM394.88 244.127C393.87 248.543 392.694 252.983 391.383 257.326L389.235 256.68C390.531 252.387 391.694 247.996 392.693 243.63L394.88 244.127ZM269.601 13.2598L268.822 15.3576C264.61 13.8008 260.29 12.3679 255.981 11.0999L256.617 8.95353C260.973 10.2364 265.342 11.6852 269.601 13.2598ZM386.993 270.253C385.389 274.495 383.618 278.734 381.731 282.852L379.692 281.921C381.558 277.85 383.308 273.659 384.894 269.464L386.993 270.253ZM243.362 5.54084L242.875 7.72412C238.494 6.75298 234.017 5.91977 229.57 5.2476L229.906 3.03612C234.404 3.7149 238.931 4.5582 243.362 5.54084ZM375.623 295.06C373.458 299.043 371.126 303.001 368.695 306.822L366.8 305.623C369.204 301.845 371.509 297.932 373.652 293.993L375.623 295.06ZM216.305 1.45627L216.122 3.68522C211.64 3.31908 207.09 3.10421 202.596 3.04665L202.625 0.809967C207.17 0.867876 211.772 1.085 216.305 1.45631V1.45627ZM360.979 318.081C358.29 321.729 355.44 325.33 352.508 328.783L350.797 327.337C353.695 323.923 356.514 320.363 359.172 316.756L360.979 318.081ZM188.93 1.10367L189.056 3.33736C184.565 3.58972 180.025 4.00118 175.563 4.56117L175.283 2.34127C179.797 1.77423 184.388 1.35771 188.93 1.10367ZM343.324 338.875C340.156 342.124 336.834 345.303 333.451 348.324L331.955 346.657C335.3 343.67 338.583 340.527 341.717 337.315L343.324 338.875ZM161.773 4.51426L162.206 6.7106C157.798 7.57591 153.365 8.60582 149.031 9.77061L148.448 7.61065C152.831 6.43242 157.314 5.39104 161.773 4.51426ZM322.947 357.07C319.363 359.851 315.634 362.543 311.865 365.072L310.613 363.216C314.339 360.715 318.026 358.053 321.569 355.303L322.947 357.07ZM135.369 11.6117L136.099 13.7269C131.859 15.1843 127.61 16.8092 123.467 18.5552L122.595 16.4946C126.782 14.7284 131.08 13.0857 135.369 11.6117ZM300.259 372.298C296.332 374.56 292.27 376.72 288.187 378.718L287.199 376.709C291.237 374.733 295.253 372.597 299.137 370.36L300.259 372.298ZM111.189 24.2279C107.174 26.2476 103.182 28.4278 99.3237 30.7082L98.1799 28.7841C102.082 26.4772 106.119 24.2724 110.179 22.2293L111.189 24.2279ZM87.9287 37.9807C84.226 40.5286 80.57 43.2321 77.0624 46.0182L75.6654 44.2681C79.2126 41.4503 82.91 38.7153 86.6555 36.1389L87.9287 37.9807ZM66.7782 54.7836C63.47 57.807 60.2251 60.9831 57.1348 64.2242L55.5093 62.6826C58.6352 59.4042 61.9168 56.1917 65.2631 53.1347L66.7782 54.7836ZM48.1649 74.3091C45.3007 77.7619 42.5231 81.3551 39.9087 84.9878L38.0861 83.6832C40.7304 80.0087 43.5399 76.3753 46.4364 72.8832L48.1649 74.3091ZM32.4039 96.2091C30.0383 100.023 27.7779 103.963 25.6847 107.917L23.7017 106.873C25.8176 102.874 28.1037 98.8895 30.4959 95.0314L32.4039 96.2091ZM19.7818 120.059C17.9604 124.153 16.2572 128.363 14.7192 132.573L12.6117 131.807C14.1671 127.549 15.8896 123.291 17.7307 119.151L19.7818 120.059ZM10.5239 145.405C9.27631 149.715 8.16217 154.119 7.2134 158.494L5.02119 158.021C5.98051 153.597 7.10669 149.143 8.36866 144.784L10.5239 145.405ZM4.80448 171.778C4.15731 176.22 3.65583 180.736 3.31489 185.199L1.07789 185.03C1.42305 180.515 1.92971 175.949 2.585 171.456L4.80448 171.778ZM2.75252 198.693C2.71969 203.18 2.84423 207.722 3.12191 212.195L0.88313 212.333C0.602301 207.809 0.476605 203.215 0.508761 198.676L2.75252 198.693ZM4.42515 225.64C5.01181 230.082 5.76173 234.56 6.65394 238.95L4.45553 239.395C3.55281 234.954 2.79438 230.425 2.20113 225.933L4.42515 225.64ZM9.79824 252.075C10.9912 256.389 12.3504 260.722 13.839 264.952L11.7214 265.693C10.2164 261.414 8.84181 257.032 7.6353 252.67L9.79824 252.075Z" fill="#090E47"/>
<path d="M274.552 382.367L275.399 384.439C273.301 385.291 271.179 386.113 269.09 386.881L268.315 384.782C270.379 384.022 272.478 383.21 274.552 382.367Z" fill="#090E47"/>
<path d="M379.997 288.718C379.773 288.353 374.494 279.561 372.663 261.304C370.985 244.555 372.064 216.322 386.744 176.939C414.555 102.331 380.335 42.1329 379.985 41.5333L381.673 40.5564C381.762 40.7084 390.592 56.0565 395.808 80.496C402.701 112.898 400.191 146.587 388.573 177.617C360.81 252.098 381.45 287.356 381.662 287.704L379.997 288.718Z" fill="#090E47"/>
<path d="M369.122 37.1525C376.127 37.1525 381.805 31.4888 381.805 24.5022C381.805 17.5157 376.127 11.852 369.122 11.852C362.117 11.852 356.439 17.5157 356.439 24.5022C356.439 31.4888 362.117 37.1525 369.122 37.1525Z" fill="#00AEEF"/>
<path d="M409.122 83.861C416.127 83.861 421.805 78.1973 421.805 71.2108C421.805 64.2242 416.127 58.5605 409.122 58.5605C402.117 58.5605 396.439 64.2242 396.439 71.2108C396.439 78.1973 402.117 83.861 409.122 83.861Z" fill="#090E47"/>
<path d="M381.805 115C388.809 115 394.488 109.336 394.488 102.35C394.488 95.3633 388.809 89.6996 381.805 89.6996C374.8 89.6996 369.122 95.3633 369.122 102.35C369.122 109.336 374.8 115 381.805 115Z" fill="#00AEEF"/>
<path d="M414.976 141.274C421.98 141.274 427.659 135.61 427.659 128.623C427.659 121.637 421.98 115.973 414.976 115.973C407.971 115.973 402.293 121.637 402.293 128.623C402.293 135.61 407.971 141.274 414.976 141.274Z" fill="#00AEEF"/>
<path d="M372.049 182.143C379.053 182.143 384.732 176.48 384.732 169.493C384.732 162.507 379.053 156.843 372.049 156.843C365.044 156.843 359.366 162.507 359.366 169.493C359.366 176.48 365.044 182.143 372.049 182.143Z" fill="#090E47"/>
<path d="M387.659 289.184C387.659 289.184 374.976 258.045 413.024 234.691L387.659 289.184Z" fill="#090E47"/>
<path d="M372.061 288.619C372.061 288.619 366.288 255.505 321.613 255.789L372.061 288.619Z" fill="#090E47"/>
<path d="M288.332 56.471C287.876 56.362 287.396 56.422 286.98 56.6398C286.565 56.8576 286.243 57.2184 286.075 57.655C285.906 58.0917 285.902 58.5746 286.064 59.014C286.225 59.4533 286.541 59.8192 286.953 60.0436C293.573 63.7292 299.396 68.6847 304.087 74.6247C325.961 102.317 318.323 144.701 287.029 169.292C273.132 180.405 255.807 186.375 237.996 186.189C259.009 192.095 283.811 187.448 303.799 171.742C335.093 147.151 342.73 104.767 320.857 77.0748C312.641 66.7608 301.185 59.5036 288.332 56.471V56.471Z" fill="#090E47"/>
<path d="M304.087 75.0441C325.961 102.737 318.323 145.121 287.029 169.711C275.562 178.824 261.758 184.537 247.192 186.2C264.588 186.097 281.44 180.139 295.018 169.292C326.312 144.701 333.95 102.317 312.076 74.6247C305.872 66.7899 297.737 60.6926 288.467 56.9271L288.323 56.8916C287.867 56.7853 287.388 56.8475 286.975 57.0665C286.561 57.2856 286.241 57.6467 286.075 58.0829C285.908 58.5191 285.905 59.0008 286.067 59.4387C286.229 59.8767 286.545 60.2412 286.956 60.4647C293.575 64.1501 299.397 69.105 304.087 75.0441V75.0441Z" fill="#00AEEF"/>
<path d="M207.079 32.287L219.99 54.5923L232.901 76.8975H207.079H181.257L194.168 54.5923L207.079 32.287Z" fill="#00AEEF"/>
<path d="M254.172 32.287L267.084 54.5923L279.995 76.8975H254.172H228.349L241.26 54.5923L254.172 32.287Z" fill="#00AEEF"/>
<path d="M205.586 43.9213L213.552 57.6838L221.518 71.4453H205.586H189.654L197.62 57.6838L205.586 43.9213Z" fill="#090E47"/>
<path d="M253.983 43.9213L261.949 57.6838L269.915 71.4453H253.983H238.052L246.018 57.6838L253.983 43.9213Z" fill="#090E47"/>
<path d="M321.448 190.971C321.449 211.589 314.398 231.591 301.461 247.671C288.524 263.752 270.474 274.95 250.294 279.416C230.113 283.881 209.009 281.347 190.468 272.232C171.926 263.117 157.057 247.966 148.316 229.282C139.575 210.598 137.486 189.499 142.393 169.47C147.3 149.441 158.91 131.682 175.305 119.124C191.7 106.567 211.899 99.9631 232.565 100.404C253.232 100.845 273.129 108.305 288.97 121.55C299.14 130.052 307.317 140.674 312.928 152.668C318.539 164.662 321.447 177.736 321.448 190.971V190.971Z" fill="#090E47"/>
<path opacity="0.1" d="M288.97 121.55C281.373 141.341 258.125 155.743 230.626 155.743C203.127 155.743 179.879 141.341 172.281 121.55C188.632 107.877 209.288 100.383 230.626 100.383C251.963 100.383 272.619 107.877 288.97 121.55V121.55Z" fill="black"/>
<path d="M230.626 148.613C264.298 148.613 291.594 127.02 291.594 100.383C291.594 73.7469 264.298 52.1537 230.626 52.1537C196.954 52.1537 169.657 73.7469 169.657 100.383C169.657 127.02 196.954 148.613 230.626 148.613Z" fill="#090E47"/>
<path d="M202.034 104.997C208.304 104.997 213.386 99.927 213.386 93.6732C213.386 87.4194 208.304 82.3497 202.034 82.3497C195.764 82.3497 190.681 87.4194 190.681 93.6732C190.681 99.927 195.764 104.997 202.034 104.997Z" fill="white"/>
<path d="M259.218 104.997C265.488 104.997 270.571 99.927 270.571 93.6732C270.571 87.4194 265.488 82.3497 259.218 82.3497C252.948 82.3497 247.865 87.4194 247.865 93.6732C247.865 99.927 252.948 104.997 259.218 104.997Z" fill="white"/>
<path d="M202.034 100.803C205.981 100.803 209.182 97.6107 209.182 93.6732C209.182 89.7356 205.981 86.5436 202.034 86.5436C198.086 86.5436 194.886 89.7356 194.886 93.6732C194.886 97.6107 198.086 100.803 202.034 100.803Z" fill="#090E47"/>
<path d="M259.218 100.803C263.166 100.803 266.366 97.6107 266.366 93.6732C266.366 89.7356 263.166 86.5436 259.218 86.5436C255.27 86.5436 252.07 89.7356 252.07 93.6732C252.07 97.6107 255.27 100.803 259.218 100.803Z" fill="#090E47"/>
<path d="M217.875 111.703C219.036 111.703 219.978 110.764 219.978 109.606C219.978 108.448 219.036 107.509 217.875 107.509C216.714 107.509 215.773 108.448 215.773 109.606C215.773 110.764 216.714 111.703 217.875 111.703Z" fill="#00AEEF"/>
<path d="M217.068 109.074C212.943 110.942 210.212 114.744 205.88 116.378C201.465 118.037 196.612 118.127 192.138 116.633C191.366 116.378 191.035 117.592 191.803 117.846C196.283 119.334 201.128 119.322 205.601 117.812C207.716 117.093 209.702 116.041 211.483 114.695C213.548 113.131 215.308 111.245 217.704 110.16C218.442 109.826 217.802 108.742 217.068 109.074Z" fill="#00AEEF"/>
<path d="M218.71 108.539C216.603 109.024 214.57 109.79 212.668 110.818C210.479 111.872 208.121 112.534 205.702 112.773C201.111 113.17 196.52 112.011 192.672 109.483C191.99 109.039 191.357 110.128 192.035 110.57C195.888 113.092 200.448 114.321 205.051 114.077C207.284 113.962 209.484 113.486 211.565 112.669C214.072 111.671 216.349 110.216 219.046 109.753C219.844 109.616 219.506 108.403 218.71 108.539V108.539Z" fill="#00AEEF"/>
<path d="M217.584 107.724C214.373 110.746 213.039 115.112 209.633 118.037C205.967 121.183 201.302 122.931 196.467 122.971C196.303 122.977 196.148 123.046 196.034 123.163C195.921 123.28 195.857 123.437 195.857 123.601C195.857 123.764 195.921 123.921 196.034 124.038C196.148 124.155 196.303 124.224 196.467 124.23C201.148 124.196 205.692 122.649 209.419 119.823C211.102 118.549 212.581 117.027 213.806 115.309C215.393 113.068 216.445 110.525 218.476 108.614C219.067 108.057 218.174 107.168 217.584 107.724H217.584Z" fill="#00AEEF"/>
<path d="M240.012 111.703C241.174 111.703 242.115 110.764 242.115 109.606C242.115 108.448 241.174 107.509 240.012 107.509C238.851 107.509 237.91 108.448 237.91 109.606C237.91 110.764 238.851 111.703 240.012 111.703Z" fill="#00AEEF"/>
<path d="M240.183 110.161C242.553 111.234 244.305 113.088 246.341 114.646C248.139 116.014 250.147 117.083 252.287 117.812C256.759 119.326 261.605 119.338 266.085 117.846C266.852 117.593 266.523 116.377 265.749 116.633C261.276 118.127 256.423 118.037 252.008 116.378C247.675 114.741 244.945 110.942 240.82 109.074C240.086 108.742 239.445 109.826 240.183 110.161V110.161Z" fill="#00AEEF"/>
<path d="M238.842 109.753C241.433 110.198 243.623 111.56 246.02 112.548C248.19 113.436 250.495 113.953 252.837 114.077C257.439 114.321 261.999 113.092 265.852 110.57C266.529 110.129 265.898 109.039 265.216 109.483C261.37 112.016 256.777 113.176 252.186 112.773C249.768 112.528 247.411 111.866 245.219 110.818C243.317 109.792 241.285 109.025 239.177 108.539C238.383 108.403 238.042 109.615 238.842 109.753V109.753Z" fill="#00AEEF"/>
<path d="M239.412 108.614C241.441 110.523 242.493 113.072 244.082 115.309C245.307 117.026 246.786 118.548 248.469 119.823C252.195 122.649 256.74 124.195 261.421 124.23C261.584 124.224 261.739 124.155 261.853 124.038C261.967 123.921 262.031 123.764 262.031 123.601C262.031 123.437 261.967 123.28 261.853 123.163C261.739 123.046 261.584 122.977 261.421 122.971C256.584 122.936 251.918 121.187 248.255 118.037C244.863 115.1 243.514 110.745 240.304 107.724C239.714 107.168 238.82 108.057 239.412 108.614V108.614Z" fill="#00AEEF"/>
<path d="M202.034 287.85C211.322 287.85 218.852 283.531 218.852 278.204C218.852 272.877 211.322 268.558 202.034 268.558C192.745 268.558 185.215 272.877 185.215 278.204C185.215 283.531 192.745 287.85 202.034 287.85Z" fill="#090E47"/>
<path d="M259.218 287.85C268.507 287.85 276.037 283.531 276.037 278.204C276.037 272.877 268.507 268.558 259.218 268.558C249.929 268.558 242.399 272.877 242.399 278.204C242.399 283.531 249.929 287.85 259.218 287.85Z" fill="#090E47"/>
<path d="M228.944 117.159C236.607 117.159 242.819 113.591 242.819 109.191C242.819 104.79 236.607 101.222 228.944 101.222C221.281 101.222 215.068 104.79 215.068 109.191C215.068 113.591 221.281 117.159 228.944 117.159Z" fill="#00AEEF"/>
</svg>
