<svg width="54" height="52" viewBox="0 0 54 52" fill="none" xmlns="http://www.w3.org/2000/svg">
<g filter="url(#filter0_d)">
<mask id="path-1-inside-1" fill="white">
<path d="M44.2577 43.2904H4V3.03265H31.3181V3.99105H4.95906V42.332H43.2993V23.1615H44.2577V43.2904Z"/>
</mask>
<path d="M44.2577 43.2904H4V3.03265H31.3181V3.99105H4.95906V42.332H43.2993V23.1615H44.2577V43.2904Z" fill="#2F2E41"/>
<path d="M44.2577 43.2904V60.2904H61.2577V43.2904H44.2577ZM4 43.2904H-13V60.2904H4V43.2904ZM4 3.03265V-13.9673H-13V3.03265H4ZM31.3181 3.03265H48.3181V-13.9673H31.3181V3.03265ZM31.3181 3.99105V20.991H48.3181V3.99105H31.3181ZM4.95906 3.99105V-13.009H-12.0409V3.99105H4.95906ZM4.95906 42.332H-12.0409V59.332H4.95906V42.332ZM43.2993 42.332V59.332H60.2993V42.332H43.2993ZM43.2993 23.1615V6.1615H26.2993V23.1615H43.2993ZM44.2577 23.1615H61.2577V6.1615H44.2577V23.1615ZM44.2577 26.2904H4V60.2904H44.2577V26.2904ZM21 43.2904V3.03265H-13V43.2904H21ZM4 20.0327H31.3181V-13.9673H4V20.0327ZM14.3181 3.03265V3.99105H48.3181V3.03265H14.3181ZM31.3181 -13.009H4.95906V20.991H31.3181V-13.009ZM-12.0409 3.99105V42.332H21.9591V3.99105H-12.0409ZM4.95906 59.332H43.2993V25.332H4.95906V59.332ZM60.2993 42.332V23.1615H26.2993V42.332H60.2993ZM43.2993 40.1615H44.2577V6.1615H43.2993V40.1615ZM27.2577 23.1615V43.2904H61.2577V23.1615H27.2577Z" fill="black" mask="url(#path-1-inside-1)"/>
</g>
<path d="M23.9216 32.7896C22.9913 30.0427 11.3251 20.705 18.4739 19.1355L24.3363 26.9524L51.2892 0L54 2.71078L23.9216 32.7896Z" fill="#00AEEF"/>
<defs>
<filter id="filter0_d" x="0" y="3.03265" width="48.2577" height="48.2577" filterUnits="userSpaceOnUse" color-interpolation-filters="sRGB">
<feFlood flood-opacity="0" result="BackgroundImageFix"/>
<feColorMatrix in="SourceAlpha" type="matrix" values="0 0 0 0 0 0 0 0 0 0 0 0 0 0 0 0 0 0 127 0"/>
<feOffset dy="4"/>
<feGaussianBlur stdDeviation="2"/>
<feColorMatrix type="matrix" values="0 0 0 0 0 0 0 0 0 0 0 0 0 0 0 0 0 0 0.25 0"/>
<feBlend mode="normal" in2="BackgroundImageFix" result="effect1_dropShadow"/>
<feBlend mode="normal" in="SourceGraphic" in2="effect1_dropShadow" result="shape"/>
</filter>
</defs>
</svg>
