<svg width="37" height="37" viewBox="0 0 37 37" fill="none" xmlns="http://www.w3.org/2000/svg">
<path d="M35.3585 0.601562H1.65767C1.45709 0.601563 1.26472 0.681244 1.12288 0.823078C0.981049 0.964912 0.901367 1.15728 0.901367 1.35787V35.8453C0.901367 36.0458 0.981049 36.2382 1.12288 36.38C1.26472 36.5219 1.45709 36.6016 1.65767 36.6016H35.3585C35.5591 36.6016 35.7515 36.5219 35.8933 36.38C36.0351 36.2382 36.1148 36.0458 36.1148 35.8453V1.35787C36.1148 1.15728 36.0351 0.964912 35.8933 0.823078C35.7515 0.681244 35.5591 0.601562 35.3585 0.601562V0.601562ZM34.6022 35.089H2.41397V2.11417H34.6022V35.089Z" fill="#090E47"/>
<path d="M8.88179 26.2795C8.94408 26.3571 9.02107 26.4216 9.10834 26.4694C9.19561 26.5172 9.29145 26.5473 9.39038 26.558C9.4893 26.5686 9.58935 26.5597 9.68481 26.5316C9.78027 26.5036 9.86925 26.457 9.94667 26.3945L16.6021 21.0156C16.6905 20.9448 16.7618 20.855 16.8107 20.7529C16.8597 20.6508 16.8852 20.539 16.8852 20.4257C16.8852 20.3125 16.8597 20.2007 16.8107 20.0986C16.7618 19.9965 16.6905 19.9067 16.6021 19.8358L9.94667 14.457C9.8692 14.3946 9.7802 14.3481 9.68476 14.3201C9.58932 14.2922 9.4893 14.2833 9.39042 14.2939C9.29154 14.3046 9.19573 14.3346 9.10846 14.3823C9.02119 14.4301 8.94417 14.4945 8.88179 14.5719C8.81942 14.6494 8.77292 14.7384 8.74494 14.8339C8.71696 14.9293 8.70806 15.0293 8.71873 15.1282C8.72941 15.2271 8.75945 15.3229 8.80715 15.4102C8.85486 15.4974 8.91928 15.5744 8.99675 15.6368L14.9322 20.4046L8.99675 25.2449C8.84876 25.3698 8.75434 25.5468 8.73295 25.7393C8.71156 25.9318 8.76484 26.1251 8.88179 26.2795V26.2795Z" fill="#090E47"/>
<path d="M17.4856 27.9919H22.5498C22.7503 27.9919 22.9427 27.9122 23.0845 27.7703C23.2264 27.6285 23.3061 27.4361 23.3061 27.2356C23.3061 27.035 23.2264 26.8426 23.0845 26.7008C22.9427 26.5589 22.7503 26.4792 22.5498 26.4792H17.4856C17.285 26.4792 17.0926 26.5589 16.9508 26.7008C16.8089 26.8426 16.7292 27.035 16.7292 27.2356C16.7292 27.4361 16.8089 27.6285 16.9508 27.7703C17.0926 27.9122 17.285 27.9919 17.4856 27.9919V27.9919Z" fill="#090E47"/>
</svg>
