<svg width="70" height="68" viewBox="0 0 70 68" fill="none" xmlns="http://www.w3.org/2000/svg">
<path d="M68.193 50.378L64.716 37.34C64.613 36.801 64.473 36.288 64.304 35.796L64.219 35.478C64.185 35.368 64.137 35.274 64.092 35.181C61.869 29.737 56 30.523 51.013 25.539L34.441 8.965V9.176C34.441 4.605 30.721 0.886002 26.15 0.886002H22.95C18.38 0.886002 14.659 4.605 14.659 9.176V26.856L3.877 37.64C1.98 39.535 0.936996 42.056 0.936996 44.736C0.936996 47.416 1.98 49.937 3.877 51.833L16.219 64.174C18.114 66.07 20.634 67.114 23.316 67.114C25.996 67.114 28.515 66.071 30.411 64.174L59.65 34.935C60.237 35.263 61.66 36.514 61.785 36.846L58.418 50.312C57.833 51.961 57.525 53.855 57.525 55.794C57.525 61.465 61.35 63.463 63.295 63.463C65.275 63.463 69.065 61.465 69.065 55.794C69.063 53.855 68.756 51.961 68.193 50.378ZM17.278 9.176C17.278 6.049 19.823 3.504 22.95 3.504H26.15C29.278 3.504 31.823 6.049 31.823 9.176V9.693L17.278 24.238V9.176ZM28.559 62.323C27.16 63.724 25.296 64.496 23.316 64.496C21.335 64.496 19.472 63.724 18.069 62.323L5.729 49.982C4.327 48.581 3.556 46.718 3.556 44.736C3.556 42.755 4.327 40.892 5.729 39.491L14.827 30.392L17.279 27.94L31.824 13.395V29.557C29.987 30.127 28.642 31.813 28.642 33.837C28.642 34.426 28.762 34.986 28.967 35.502C29.303 36.343 29.876 37.063 30.617 37.565C31.339 38.056 32.21 38.345 33.15 38.345C35.639 38.345 37.658 36.327 37.658 33.837C37.658 31.859 36.377 30.197 34.605 29.588C34.551 29.57 34.495 29.561 34.441 29.545V12.668L56.328 34.554L28.559 62.323Z" fill="#090E47"/>
</svg>
