<svg width="40" height="48" viewBox="0 0 40 48" fill="none" xmlns="http://www.w3.org/2000/svg">
<path d="M20.4648 47.5C13.0213 47.5 6.96484 41.4436 6.96484 34C6.96484 26.5564 13.0213 20.5 20.4648 20.5C27.9084 20.5 33.9648 26.5564 33.9648 34C33.9648 41.4436 27.9084 47.5 20.4648 47.5ZM20.4648 21.5C13.5715 21.5 7.96484 27.1067 7.96484 34C7.96484 40.8933 13.5715 46.5 20.4648 46.5C27.3582 46.5 32.9648 40.8933 32.9648 34C32.9648 27.1067 27.3582 21.5 20.4648 21.5Z" fill="#090E47" stroke="#090E47"/>
<path d="M17.0639 15.7L16.4638 16.5H17.4639H24.9648H25.2148L25.3648 16.3L35.8648 2.3L36.4648 1.5H35.4648H27.9648H27.7149L27.5649 1.69998L17.0639 15.7ZM38.4648 0.5L25.7148 17.5H14.4658L27.2149 0.5H38.4648Z" fill="#090E47" stroke="#090E47"/>
<path d="M12.3467 16.7344L0.535156 0H11.2178L17.6885 9.16309L12.3467 16.7344ZM4.39453 2L12.3467 13.2656L15.2412 9.16309L10.1826 2H4.39453Z" fill="#090E47"/>
<path d="M20.4648 42C16.0537 42 12.4648 38.4111 12.4648 34C12.4648 29.5889 16.0537 26 20.4648 26C24.876 26 28.4648 29.5889 28.4648 34C28.4648 38.4111 24.876 42 20.4648 42ZM20.4648 28C17.1562 28 14.4648 30.6914 14.4648 34C14.4648 37.3086 17.1562 40 20.4648 40C23.7734 40 26.4648 37.3086 26.4648 34C26.4648 30.6914 23.7734 28 20.4648 28Z" fill="#090E47"/>
</svg>
