<svg width="36" height="36" viewBox="0 0 36 36" fill="none" xmlns="http://www.w3.org/2000/svg">
<path d="M6 30H30V28V25V6H6V30ZM8 8H28V28H8V8Z" fill="#090E47"/>
<path d="M29.5 31.5C29.224 31.5 29 31.725 29 32V35C29 35.275 29.224 35.5 29.5 35.5C29.775 35.5 30 35.275 30 35V32C30 31.725 29.775 31.5 29.5 31.5Z" fill="#090E47"/>
<path d="M35 29H32C31.724 29 31.5 29.225 31.5 29.5C31.5 29.775 31.724 30 32 30H35C35.275 30 35.5 29.775 35.5 29.5C35.5 29.225 35.275 29 35 29Z" fill="#090E47"/>
<path d="M6.5 4.5C6.775 4.5 7 4.276 7 4V1C7 0.724 6.775 0.5 6.5 0.5C6.224 0.5 6 0.724 6 1V4C6 4.276 6.224 4.5 6.5 4.5Z" fill="#090E47"/>
<path d="M4 6H1C0.724 6 0.5 6.224 0.5 6.5C0.5 6.776 0.724 7 1 7H4C4.275 7 4.5 6.776 4.5 6.5C4.5 6.224 4.275 6 4 6Z" fill="#090E47"/>
<path d="M4 29H1C0.724 29 0.5 29.225 0.5 29.5C0.5 29.775 0.724 30 1 30H4C4.275 30 4.5 29.775 4.5 29.5C4.5 29.225 4.275 29 4 29Z" fill="#090E47"/>
<path d="M6.5 31.5C6.224 31.5 6 31.725 6 32V35C6 35.275 6.224 35.5 6.5 35.5C6.775 35.5 7 35.275 7 35V32C7 31.725 6.775 31.5 6.5 31.5Z" fill="#090E47"/>
<path d="M32 7H35C35.275 7 35.5 6.776 35.5 6.5C35.5 6.224 35.275 6 35 6H32C31.724 6 31.5 6.224 31.5 6.5C31.5 6.776 31.724 7 32 7Z" fill="#090E47"/>
<path d="M29.5 0.5C29.224 0.5 29 0.724 29 1V4C29 4.276 29.224 4.5 29.5 4.5C29.775 4.5 30 4.276 30 4V1C30 0.724 29.775 0.5 29.5 0.5Z" fill="#090E47"/>
</svg>
